<?xml version="1.0" encoding="UTF-8"?><svg id="a" xmlns="http://www.w3.org/2000/svg" viewBox="0 0 2686 1164"><defs><style>.u{fill:#f15a24;}.u,.v,.w{stroke-width:0px;}.x{stroke:#fff;}.x,.y{fill:none;stroke-linecap:round;stroke-linejoin:round;stroke-width:200px;}.y{stroke:#e79c00;}.v{fill:#fff;}.w{fill:#009f3a;}</style></defs><g id="b"><polygon class="y" points="2040.59 408.49 1698.52 554.05 1308.59 524.49 1300.59 332.49 1092.59 316.49 716.59 308.49 355.7 419.78 325.04 728.93 1141.25 786.18 2184.59 760.49 2427.64 554.05 2373.97 312.91 2040.59 408.49"/><g id="c"><path class="y" d="M1540.68,938.23l-1.28,7c-.53,2.64-1.96,3.23-4.24,2.94l-64.88-10.37c-2.29-.29-3.28-1.58-2.97-4.06l.07-.57.63-3.41-16.1-10.37c-1.24-.93-2.04-2.2-1.87-3.53.1-.76.6-1.66,1.48-2.52,5.11-5.16,10.77-11.6,16.02-17.9l-7.48,2.53c-.4.14-.78.09-1.36.02-.95-.12-2.24-.67-2.69-1.7l-2.32-7.65-2.09,19.48c-.34,2.67-1.97,4.78-5.01,4.4l-7.26-.73-2.82,26.74,7.44-3.7c.43-.33,1-.26,1.76-.16.76.1,1.69.41,2.16,1.24l7.24,11.57c.31.62.43,1.22.33,1.98-.15,1.14-.89,2.4-1.91,2.85l-10.18,5.48c-.62.31-1.41.4-1.98.33-1.14-.14-2.23-.67-2.52-1.48l-3.53-7.22-6.1,57.1c-.41,3.24-3.47,5.95-6.37,5.97l-27.27-.18-.76-.1c-3.24-.41-5.21-3.18-4.87-5.84l4.59-42.19-18.93-4.92c-2.04-.65-2.97-2.51-2.75-4.22l.07-.57,11.09-32.46c.58-1.48,2.2-2.04,3.91-1.83l.76.1,9.99,3.59,1.68-16.24-12.41-1.38c-3.81-.48-5.14-2.2-4.97-5.09l1.93-21.24.05-.38c.41-3.24,2.48-4.33,4.77-4.04l12.03,1.33,3.5-32.07c.36-2.86,2.51-4.52,5.17-4.18l32.43,5.28c2.67.34,4.31,2.68,3.94,5.53l-3.21,29.79,6.12.58c1.14.15,2.24.67,3.09,1.55.31-.93.98-1.62,2.2-2.04l10.2-2.58c.4-.14.78-.09,1.16-.05.95.12,1.86.63,2.31,1.65l3.92,8.82c3.46-4.4,6.52-8.66,8.69-12.06l-19.38-4.4c-2.45-.5-3.47-1.6-3.18-3.89l.12-.95,4.21-17.85c.46-2.07,1.6-3.47,4.27-3.14l.57.07,33,6.91c5.09,1.03,8.99,3.85,11.47,7.26l16.95-6.94c.81-.28,1.6-.38,2.36-.28,1.33.17,2.59.91,3.18,2.34l4.96,11.28,10.49-4.86c.21-.17.59-.12.97-.07.76.1,1.5.38,2,1.03l5.98,10.82c.14.41.26,1,.19,1.58-.1.76-.38,1.5-1,1.81l-11.42,6.1,3.27,7.77,8.25-3.98c.4-.14.81-.28,1.19-.23.57.07,1.47.57,1.78,1.2l5.27,10.34c.33.43.26,1,.19,1.58-.1.76-.38,1.5-1.01,1.81l-9.06,4.27,6.9,15.78c.42,1.22.66,2.4.51,3.55-.22,1.72-1.2,3.33-2.82,3.9l-20.81,8.39ZM1444.1,1021.96c-3.05-.39-4.02-1.87-3.7-4.34l2.32-18.29c.34-2.67,1.82-3.64,4.48-3.3l12.95,1.65-.85-5.53c-.12-.6-.07-.98,0-1.55.19-1.52,1.1-2.57,2.86-2.73l15.58-.73.76.1c1.72.22,2.93,1.34,2.97,2.5l1.12,10.98,13.33,1.69,2.54-9.36c.41-1.69,1.72-2.88,3.63-2.63l.38.05,33.09,7.69c1.88.43,3.59,2.2,3.35,4.1l-.07.57-2.01,5.16,8.57,1.09c2.67.34,4.07,1.49,3.73,4.15l-2.49,18.07c-.34,2.67-1.87,4.02-4.72,3.66l-97.84-13.02ZM1459.54,981.15c-4.19-.53-6.5-2.18-5.82-7.52l2.71-22.88c.48-3.81,3.01-5.43,6.82-4.94l71.7,8.53c10.09,1.28,17.32,6.85,15.89,18.09l-.15,1.14-2.17,12.5c-.75,4.35-3.76,6.68-8.13,6.12l-80.86-11.05ZM1513,884.97c-4.41,10.28-11.64,21.55-19.88,33.09l32.26,5.07-12.38-38.15ZM1510.27,968.82l.05-.38c.34-2.67-.99-4.38-4.61-4.84l-16.95-2.15-1.12,10.31,21.31,2.9,1.32-5.83Z"/><path class="y" d="M1762.12,1022.14l-24.08,2.6,1.32,7.18.06.38c.42,2.66-.75,5.17-3.75,5.84l-32.38,7.98-.57.09c-2.47.39-4.35-.49-4.71-2.76l-2.6-14.17-25.41,2.81c-3.25.31-4.41-.86-4.91-4.09l-2.55-20.01c-.47-3.03.7-4.19,3.17-4.58l.76-.12,23.48-2.7-2.22-11.7-24.74,4.65-.57.09c-2.84.44-3.97-.55-4.61-3.36l-3.19-15.43-3.54,3.47c-.51.47-1.24.77-1.81.86-1.33.21-2.55-.18-3.05-.88l-5.96-7.04,12.21,69.42c.5,3.23-1.68,6.68-4.47,7.5l-27.57,7.61-.76.12c-3.23.5-5.89-1.61-6.3-4.26l-7.65-42.73-19.74.56c-2.14-.06-3.55-1.58-3.82-3.29l-.09-.57,1.64-34.27c.14-1.58,1.54-2.57,3.25-2.84l.76-.12,11.01.81-2.96-16.45-13.03,2.43c-3.42.53-5.36-.72-5.81-3.56l-3.86-20.97c-.53-3.42.93-5.2,3.4-5.58l12.08-2.28-5.13-29.13c-.42-2.66.78-4.98,3.43-5.4l.38-.06,33.95-4.14c2.87-.25,4.88,1.38,5.32,4.22l4.75,26.66,7.94-1.43c2.47-.39,5.01.97,5.46,3.81l3.29,21.06c.42,2.66-.56,5.14-3.59,5.61l-8.7,1.56,2.7,14.74,6.63-6.09c.32-.44,1.08-.56,1.65-.65.95-.15,1.93-.1,2.61.56l10.01,9.32,10.22-1.79-9.51-21.06c-.25-.35-.31-.73-.37-1.11-.21-1.33.62-2.24,2.65-2.94l17.18-6.96c.38-.06.73-.31,1.11-.37,1.71-.27,3.21.66,3.77,1.74l10.82,25.71,8.1-1.65,1.13-27.58c.14-1.58.94-2.67,2.46-2.91.38-.06.79.07,1.17.01l30.5-.1c1.95.08,3.61,1.96,3.9,3.86.03.19-.1.6-.04.98l-2.87,18.91,14.71-2.88c2.66-.42,3.94.36,4.58,3.17l4.55,21.64.09.57c.42,2.66-.7,4.19-3.17,4.58l-30.78,5.78,2.91,14.9,26.93-3.04c2.87-.26,3.97.55,4.36,3.01l.12.76,2.31,21.02c.26,2.87-.55,3.97-3.2,4.39l-.76.12ZM1745.76,913.72l-90.46,10.64c-2.68.23-4.63-1.02-5.02-3.49l-2.91-24.81c-.34-3.44,1.05-4.44,3.52-4.82l17.95-2.03-.99-17.53c-.17-2.31.95-3.84,3.23-4.2l.57-.09,36.93-2.47c2.5-.2,4.75,1.78,5.08,3.87l.09.57-.46,14.46,28.25-3.25c2.47-.39,4.7.23,5.08,2.7l3.06,25.76c.2,2.5-1.09,4.25-3.55,4.64l-.38.06Z"/></g><g id="d"><path class="y" d="M332.01,512.78c-42.36-128.13-146.75-109.25-186.62-122.61,0,0,30.25,82.07,112.09,104.53,81.84,22.46,74.53,18.08,74.53,18.08Z"/><path class="y" d="M147.61,390.81c31.68,43.46,132.28,52.48,180.56,122.34"/></g><g id="e"><path class="y" d="M411.71,796.23c-91.92,19.15-186.43-30.61-207.1-129.86-24.2-116.18,50.08-194.61,149.34-215.28,124.63-25.96,198.53,60.45,213.8,133.76,22.91,109.98-75.95,194.7-156.03,211.38ZM447.39,608.74c-2.23-10.72-15.88-64.95-73.4-52.97-47.37,9.87-52.57,52.72-47.28,78.1,8.11,38.91,43.96,58.51,76.11,51.81,40.04-8.34,51.28-44.8,44.58-76.95Z"/><path class="y" d="M588.12,778.05c-6.66-1.84-10.98-7.82-9.14-14.48l64.37-292.99c1.84-6.66,8.38-10.83,14.49-9.14l65.32,14.49c32.59-1.14,62.69,2.41,90.45,10.1,18.88,5.23,36.58,12.52,52.72,21.17,7.71,4.53,9.82,9.89,7.97,16.55-.61,2.22-1.78,4.29-3.11,6.91l-37.77,73.83c-3.82,7.31-10.44,9.66-17.11,7.81-1.67-.46-3.73-1.63-5.8-2.8-8.12-5.24-17.09-9.51-26.53-12.13-7.77-2.15-15.85-3.2-25.35-3.43l-43.85,199.45-.31,1.11c-1.69,6.11-8.07,9.71-14.18,8.02l-112.17-24.48Z"/><path class="y" d="M1267.61,753.32c-2.07,10.89-6.06,17.54-13.21,19.74-5.5,1.69-46.76,4.74-82.25-12.67-24.06,23.67-51.75,39.43-79.83,48.07-91.95,28.29-192.91-17.8-220.18-106.44-20.33-66.07-2.83-175.72,106.19-209.26,27.53-8.47,56.37-10.71,80.72-7.96,2.12-4.87,6.57-8.04,13.17-10.08l2.75-.85,97.79-21.04c14.66-3.3,20.71,2.67,22.74,9.27l.85,2.76c7.7,52.47,14.73,102.74,25.91,139.08,10.17,33.04,23.5,54.85,44,58.79,6.35,1.05,13.43,2.5,15.12,8,.34,1.1.3,2.93-.13,5.47l-13.64,77.12ZM1090.42,639.69c-4.4-14.31-8.43-29.35-12.41-46.21-10-8.98-27.23-12.11-43.2-7.2-34.68,10.67-43.63,50.18-34.99,78.26,9.49,30.83,39.09,50.65,74.88,39.64,10.46-3.22,21.9-9.15,32.87-18.55-6.05-13.81-11.9-28.89-17.15-45.95Z"/><path class="y" d="M1686.06,709.28c-6.97,31.5-5.26,58.43,13.08,84.9,2.75,3.56,7.13,10.43,5.76,16.62-.75,3.37-3.18,6.37-7.74,8.31-.25,1.13-64.77,28.74-64.77,28.74-6.62,3.26-12.62,3.7-17.68,2.58-10.13-2.24-93.52-51.96-71.38-152.08l4.23-19.12c13.06-59.06-10.15-90.15-50.71-101.48l-55.85,201.8c-1.25,5.63-7.43,9.57-13.05,8.32l-1.13-.25-111.24-30.5c-6.63-2.06-10.01-8.11-8.51-14.86l79.88-289.12c1.93-6.06,8.11-10.01,13.74-8.76l1.13.25,62.25,17.31c22.93.36,44.24,2.71,64.49,7.19,114.18,25.26,185.37,114.16,161.61,221.59l-4.11,18.56Z"/><path class="y" d="M1859.06,903.72c.28-7.83,5.36-13.37,11.48-15.01,1.11-.3,2.38-.04,3.49-.34,16.06-.14,29.86-2.05,42.11-5.34,46.73-12.54,66.83-46.57,68.23-94.66-15.75,10.2-33.77,18.61-51.57,23.39-85.12,22.85-180.82-24.82-208.6-128.31-18.07-67.32.03-159.86,117.43-191.37,26.7-7.17,53.64-9.03,77.88-5.39.02-6.57,4.74-9.02,9.74-10.37l2.78-.75s92.89-18.37,105.83-21.25c9.05-1.83,16.56,3.91,18.8,12.25,25.17,98.22,51.8,199.62,58.06,287.41,8.85,124.07-63.88,193.1-150.67,216.4-32.27,8.66-66.18,11.2-98.8,7.43-5.45-.32-7.76-4.48-8.96-8.93-.9-3.34-1.24-6.83-1.28-9.2l4.06-55.96ZM1969.94,681.3c-4.86-22.56-10.88-47.18-17.6-72.22-9.25-25.55-34.68-33.64-58.6-27.22-35.05,9.41-46.91,43.01-38.54,74.17,5.82,21.69,26.97,64.92,75.93,51.78,13.36-3.58,29.52-14.48,36.48-24.1l2.34-2.41Z"/><path class="y" d="M2174.78,463.65c-46.83,6.17-89.49-26.55-95.59-72.81-6.17-46.83,26.55-89.49,73.38-95.67,46.26-6.1,88.92,26.62,95.1,73.45,6.1,46.26-26.62,88.92-72.88,95.02ZM2180.67,785.93l-1.14.15c-6.28.83-11.53-3.71-12.93-9.92l-50.94-276.25c-.9-6.85,2.99-12.6,9.76-14.07l113.47-20.77,1.14-.15c5.71-.75,11.53,3.71,12.28,9.42l51.02,276.82.15,1.15c.75,5.71-3.71,11.53-9.34,12.85l-113.47,20.78Z"/><path class="y" d="M2418.08,462.95c-46.91-5.55-80.2-47.77-74.71-94.11,5.55-46.91,47.77-80.2,94.68-74.65,46.34,5.48,79.63,47.71,74.08,94.61-5.48,46.34-47.71,79.63-94.04,74.14ZM2344.41,776.76l-1.14-.14c-6.29-.74-10.26-6.44-10.09-12.8l18.66-280.28c.81-6.87,6-11.47,12.93-11.23l115.09,7.82,1.14.14c5.72.68,10.26,6.43,9.58,12.16l-18.73,280.85-.14,1.15c-.68,5.72-6.43,10.26-12.22,10.15l-115.09-7.81Z"/></g><g id="f"><path class="y" d="M526.17,390.24c-5.26,20.46-25.79,26.28-44.57,21.45-18.22-4.69-39.58-21.08-32.17-49.9,6.45-25.11,28.15-37.77,53.22-39.65l3.06-11.9-24.74-5.56c-1.86-.48-3.15-2.4-2.67-4.26l6.28-26.73.05-.19c.48-1.86,2.49-2.73,4.39-2.44l25.06,5.85c1.15-4.46,1.82-7.86,2.3-9.72.57-2.23,1.43-4,4.78-3.14l30.13,7.74c3.16.81,3.65,4.31,3.13,6.35l-1.91,7.44,11.57,2.78.37.1c1.86.48,2.91,2.53,2.48,4.2l-6.41,26.5c-.48,1.86-2.4,3.15-4.49,2.81l-12.32-2.97c-.77,2.98-1.29,5.81-2.06,8.8,41.44,14.62,60.25,51.76,52.17,83.19-5.16,20.08-20.15,32.88-24.61,31.74-2.79-.72-23.45-18.32-24.6-19.22-1.16-.89-1.61-2.2-1.28-3.5.14-.56.47-1.06,1.03-1.72,3.61-3.24,7.19-10.24,8.96-17.12,5.21-20.27-9.15-31.5-20.9-36.7l-6.04,25.02-.19.74ZM494.72,356.78c-6.34.75-12.69,3.09-14.6,10.52-1.72,6.7,3.3,7.99,3.86,8.13,2.79.72,6.1-.62,7.11-4.52l3.63-14.13ZM596.06,358.25c-1.12.5-1.96.68-2.7.49-.93-.24-1.72-1.04-2.41-2.21-4.22-9.02-14.47-30.09-18.79-38.73-.23-.66-.46-1.31-.27-2.05s.8-1.58,2.11-2.04l21.49-9.54c1.12-.5,1.77-.73,2.7-.49,4.46,1.15,26.32,34.13,24.84,39.89-.24.92-.85,1.76-2.2,2.4l-24.77,12.27Z"/><path class="y" d="M678.67,428.69c-3.17-.78-3.55-2.46-2.5-6.74l9.98-40.65c-3.01,3.41-5.89,7.06-8.71,10.51-1.11,1.31-2.28,2.02-3.95,1.6-.93-.23-2.15-.92-3.22-2.18-4.49-4.27-13.41-11.4-18.09-15.71-1.92-1.85-2.07-3.68-1.74-4.98.5-2.05,17.2-20.1,28.47-30.57q-18.04-14.32-17.39-16.93c.14-.56.51-1.27,1.02-1.73l19.39-17.78c1.3-1.27,2.69-2.11,4.75-1.6,2.61.64,10.36,5.31,16.53,9.2l7.6-30.96c.55-2.24,2.87-3.65,5.11-3.1l30.21,7.42c2.24.55,3.65,2.87,3.1,5.11l-5.22,21.26c6.29.16,12.21,1.02,17.98,2.44,33.75,8.29,55.02,37.63,45.73,77.87-3.25,13.24-1.62,25.1,5.18,35.28.7,1.16,2.29,3.53,1.7,5.95-.28,1.12-1.11,2.1-2.5,2.95-.09.37-20.86,11.68-20.86,11.68-2.09,1.26-3.9,1.41-5.4,1.05-6.34-1.56-31.01-20.27-22.13-58.82,5.86-24.67-2.8-36.08-16.04-39.34-4.1-1.01-8.43-1.08-13.04-.83l-20.06,82.47c-.87,3.54-3.24,5.13-6.78,4.26l-29.09-7.14Z"/><path class="y" d="M850.88,444.12c-2.75-.05-4.88-1.99-5.43-4.82-1.27-6.6,12.53-95.3,26.33-146.46,1.2-4.93,2.04-6.65,4.68-7.16.57-.11,1.13-.22,1.92-.18l30.91,1.08c2.56.09,4.74,1.23,5.17,3.5.07.38.03,1.17-.05,1.77-5.45,25.5-11.34,54.79-15.92,79.73,5.26-4.14,15.09-8.97,26.02-11.08,15.27-2.94,32.76-.45,43.34,16.87,4.58,7.53,9.32,8.76,13.84,7.89,2.64-.51,5.13-1.77,7.67-2.85,1.25-.63,2.34-1.04,3.29-1.22,1.32-.25,2.33-.06,3.6,1.46,2.58,3.22,13.04,19.97,13.73,23.55.44,2.26.15,4.86-3.1,7.25-9.92,7.39-20.51,13.33-30.87,15.33-13.39,2.58-26.38-1.95-36.73-20.1-4.95-8.43-11.94-11.19-19.48-9.74-14.14,2.73-29.33,20.32-32.4,39.89-.43,1.84-1.77,5.03-4.79,5.61-.38.07-.79-.04-1.17.03l-30.58-.37Z"/><path class="y" d="M1125.36,424.91c-.7,4.7-2.61,6.7-5.79,7.43-13.29,3.03-75.43,5.19-96.27-86.16-3.93-17.22-5.77-36.5-5.7-57.78.19-2.61.26-5.77,4.94-6.84.56-.13,1.17-.07,1.73-.2l32.95-3.18c2.9-.27,4.59,1.12,5.19,3.74.13.56.26,1.12.19,1.73.38,15.47,1.77,33.67,5.62,50.52,7.39,32.39,23.43,60.43,56.37,58.04,2.52-.18,5.06.62,5.58,2.86.13.56.07,1.17.01,1.77l-4.82,28.08ZM1091.4,312.32l-1.5.34c-2.81.64-4.52.05-5.55-1.88l-7.9-14.75c-.4-.89-.76-1.6-.89-2.16-.55-2.43.96-3.56,3.12-4.45l14.32-5.43.56-.13c2.81-.64,5.46,1.51,6.58,3.82l7.01,14.35c.32.51.45,1.08.57,1.64.51,2.25-.54,3.67-4.01,4.85l-12.33,3.8ZM1131.06,304.86c-.72,1.15-1.76,1.78-2.7,1.99-1.31.3-2.6-.19-3.98-1.06l-16.07-10.91c-1.19-.91-1.78-1.76-1.95-2.5-.34-1.5.53-2.88,1.33-3.65l8.55-10.03c.95-1,1.8-1.59,2.93-1.85,1.5-.34,3.16.06,4.73.88l14.23,7.98.65.25c1.38.86,2.16,1.67,2.41,2.79s-.19,2.61-1.25,4.03l-8.87,12.07Z"/><path class="y" d="M1164.9,375.61c-2.11,0-4.8-1.92-4.8-4.41v-34.95c0-2.3,2.5-4.22,4.61-4.22l130.38.19c2.11,0,4.61,1.92,4.61,4.42v34.75c0,2.3-2.5,4.03-4.61,4.03l-130.19.2Z"/></g><g id="g"><path class="y" d="M2557.58,327.1c-52.75-130.21-94.69-140.51-99.58-141.27l-1.12.25.23-.29c-38.13,0-51.19,66.65-51.31,67.32l-3.21,17.85-16.78-6.89c-99.89-41.05-190.82-.64-191.73-.23l-17.07,7.77-3.43-18.43c-11.25-60.95-43.29-66.83-47.8-67.36-36.3,2.51-81.61,87.54-101.78,140.95l-27.41-10.34c.59-1.56,14.64-38.59,36.42-76.51,31.14-54.21,62.24-82.28,92.42-83.42l.48-.02h.48c2.26.07,52.08,2.32,72.12,74.38,31.25-10.41,102.52-27.23,182.72.19,8.09-26.42,29.16-74.35,75.57-74.56,4.98-.15,21.22,1.09,43.45,20.7,29.13,25.69,57.55,72.43,84.49,138.91l-27.15,11ZM2458.46,185.73h0Z"/><g id="h"><path class="y" d="M2446.32,210.59c-6.95,8.09-15.58,23.12-18.68,49.49,0,0,39.52,5.51,70.77-2.76,0,0-12.87-33.09-29.83-47.52-6.7-5.71-16.52-5.88-22.25.8Z"/><path class="y" d="M2132.1,210.48c6.95,8.09,15.58,23.12,18.68,49.49,0,0-39.52,5.51-70.77-2.76,0,0,12.87-33.09,29.83-47.52,6.7-5.7,16.52-5.88,22.25.8Z"/></g></g><polygon class="x" points="2000.59 360.49 1658.52 506.05 1268.59 476.49 1260.59 284.49 1052.59 268.49 676.59 260.49 315.7 371.78 285.04 680.93 1101.25 738.18 2144.59 712.49 2387.64 506.05 2333.97 264.91 2000.59 360.49"/><g id="i"><path class="x" d="M1500.68,890.23l-1.28,7c-.53,2.64-1.96,3.23-4.24,2.94l-64.88-10.37c-2.29-.29-3.28-1.58-2.97-4.06l.07-.57.63-3.41-16.1-10.37c-1.24-.93-2.04-2.2-1.87-3.53.1-.76.6-1.66,1.48-2.52,5.11-5.16,10.77-11.6,16.02-17.9l-7.48,2.53c-.4.14-.78.09-1.36.02-.95-.12-2.24-.67-2.69-1.7l-2.32-7.65-2.09,19.48c-.34,2.67-1.97,4.78-5.01,4.4l-7.26-.73-2.82,26.74,7.44-3.7c.43-.33,1-.26,1.76-.16.76.1,1.69.41,2.16,1.24l7.24,11.57c.31.62.43,1.22.33,1.98-.15,1.14-.89,2.4-1.91,2.85l-10.18,5.48c-.62.31-1.41.4-1.98.33-1.14-.14-2.23-.67-2.52-1.48l-3.53-7.22-6.1,57.1c-.41,3.24-3.47,5.95-6.37,5.97l-27.27-.18-.76-.1c-3.24-.41-5.21-3.18-4.87-5.84l4.59-42.19-18.93-4.92c-2.04-.65-2.97-2.51-2.75-4.22l.07-.57,11.09-32.46c.58-1.48,2.2-2.04,3.91-1.83l.76.1,9.99,3.59,1.68-16.24-12.41-1.38c-3.81-.48-5.14-2.2-4.97-5.09l1.93-21.24.05-.38c.41-3.24,2.48-4.33,4.77-4.04l12.03,1.33,3.5-32.07c.36-2.86,2.51-4.52,5.17-4.18l32.43,5.28c2.67.34,4.31,2.68,3.94,5.53l-3.21,29.79,6.12.58c1.14.15,2.24.67,3.09,1.55.31-.93.98-1.62,2.2-2.04l10.2-2.58c.4-.14.78-.09,1.16-.05.95.12,1.86.63,2.31,1.65l3.92,8.82c3.46-4.4,6.52-8.66,8.69-12.06l-19.38-4.4c-2.45-.5-3.47-1.6-3.18-3.89l.12-.95,4.21-17.85c.46-2.07,1.6-3.47,4.27-3.14l.57.07,33,6.91c5.09,1.03,8.99,3.85,11.47,7.26l16.95-6.94c.81-.28,1.6-.38,2.36-.28,1.33.17,2.59.91,3.18,2.34l4.96,11.28,10.49-4.86c.21-.17.59-.12.97-.07.76.1,1.5.38,2,1.03l5.98,10.82c.14.41.26,1,.19,1.58-.1.76-.38,1.5-1,1.81l-11.42,6.1,3.27,7.77,8.25-3.98c.4-.14.81-.28,1.19-.23.57.07,1.47.57,1.78,1.2l5.27,10.34c.33.43.26,1,.19,1.58-.1.76-.38,1.5-1.01,1.81l-9.06,4.27,6.9,15.78c.42,1.22.66,2.4.51,3.55-.22,1.72-1.2,3.33-2.82,3.9l-20.81,8.39ZM1404.1,973.96c-3.05-.39-4.02-1.87-3.7-4.34l2.32-18.29c.34-2.67,1.82-3.64,4.48-3.3l12.95,1.65-.85-5.53c-.12-.6-.07-.98,0-1.55.19-1.52,1.1-2.57,2.86-2.73l15.58-.73.76.1c1.72.22,2.93,1.34,2.97,2.5l1.12,10.98,13.33,1.69,2.54-9.36c.41-1.69,1.72-2.88,3.63-2.63l.38.05,33.09,7.69c1.88.43,3.59,2.2,3.35,4.1l-.07.57-2.01,5.16,8.57,1.09c2.67.34,4.07,1.49,3.73,4.15l-2.49,18.07c-.34,2.67-1.87,4.02-4.72,3.66l-97.84-13.02ZM1419.54,933.15c-4.19-.53-6.5-2.18-5.82-7.52l2.71-22.88c.48-3.81,3.01-5.43,6.82-4.94l71.7,8.53c10.09,1.28,17.32,6.85,15.89,18.09l-.15,1.14-2.17,12.5c-.75,4.35-3.76,6.68-8.13,6.12l-80.86-11.05ZM1473,836.97c-4.41,10.28-11.64,21.55-19.88,33.09l32.26,5.07-12.38-38.15ZM1470.27,920.82l.05-.38c.34-2.67-.99-4.38-4.61-4.84l-16.95-2.15-1.12,10.31,21.31,2.9,1.32-5.83Z"/><path class="x" d="M1722.12,974.14l-24.08,2.6,1.32,7.18.06.38c.42,2.66-.75,5.17-3.75,5.84l-32.38,7.98-.57.09c-2.47.39-4.35-.49-4.71-2.76l-2.6-14.17-25.41,2.81c-3.25.31-4.41-.86-4.91-4.09l-2.55-20.01c-.47-3.03.7-4.19,3.17-4.58l.76-.12,23.48-2.7-2.22-11.7-24.74,4.65-.57.09c-2.84.44-3.97-.55-4.61-3.36l-3.19-15.43-3.54,3.47c-.51.47-1.24.77-1.81.86-1.33.21-2.55-.18-3.05-.88l-5.96-7.04,12.21,69.42c.5,3.23-1.68,6.68-4.47,7.5l-27.57,7.61-.76.12c-3.23.5-5.89-1.61-6.3-4.26l-7.65-42.73-19.74.56c-2.14-.06-3.55-1.58-3.82-3.29l-.09-.57,1.64-34.27c.14-1.58,1.54-2.57,3.25-2.84l.76-.12,11.01.81-2.96-16.45-13.03,2.43c-3.42.53-5.36-.72-5.81-3.56l-3.86-20.97c-.53-3.42.93-5.2,3.4-5.58l12.08-2.28-5.13-29.13c-.42-2.66.78-4.98,3.43-5.4l.38-.06,33.95-4.14c2.87-.25,4.88,1.38,5.32,4.22l4.75,26.66,7.94-1.43c2.47-.39,5.01.97,5.46,3.81l3.29,21.06c.42,2.66-.56,5.14-3.59,5.61l-8.7,1.56,2.7,14.74,6.63-6.09c.32-.44,1.08-.56,1.65-.65.95-.15,1.93-.1,2.61.56l10.01,9.32,10.22-1.79-9.51-21.06c-.25-.35-.31-.73-.37-1.11-.21-1.33.62-2.24,2.65-2.94l17.18-6.96c.38-.06.73-.31,1.11-.37,1.71-.27,3.21.66,3.77,1.74l10.82,25.71,8.1-1.65,1.13-27.58c.14-1.58.94-2.67,2.46-2.91.38-.06.79.07,1.17.01l30.5-.1c1.95.08,3.61,1.96,3.9,3.86.03.19-.1.6-.04.98l-2.87,18.91,14.71-2.88c2.66-.42,3.94.36,4.58,3.17l4.55,21.64.09.57c.42,2.66-.7,4.19-3.17,4.58l-30.78,5.78,2.91,14.9,26.93-3.04c2.87-.26,3.97.55,4.36,3.01l.12.76,2.31,21.02c.26,2.87-.55,3.97-3.2,4.39l-.76.12ZM1705.76,865.72l-90.46,10.64c-2.68.23-4.63-1.02-5.02-3.49l-2.91-24.81c-.34-3.44,1.05-4.44,3.52-4.82l17.95-2.03-.99-17.53c-.17-2.31.95-3.84,3.23-4.2l.57-.09,36.93-2.47c2.5-.2,4.75,1.78,5.08,3.87l.09.57-.46,14.46,28.25-3.25c2.47-.39,4.7.23,5.08,2.7l3.06,25.76c.2,2.5-1.09,4.25-3.55,4.64l-.38.06Z"/></g><g id="j"><path class="x" d="M292.01,464.78c-42.36-128.13-146.75-109.25-186.62-122.61,0,0,30.25,82.07,112.09,104.53,81.84,22.46,74.53,18.08,74.53,18.08Z"/><path class="x" d="M107.61,342.81c31.68,43.46,132.28,52.48,180.56,122.34"/></g><g id="k"><path class="x" d="M371.71,748.23c-91.92,19.15-186.43-30.61-207.1-129.86-24.2-116.18,50.08-194.61,149.34-215.28,124.63-25.96,198.53,60.45,213.8,133.76,22.91,109.98-75.95,194.7-156.03,211.38ZM407.39,560.74c-2.23-10.72-15.88-64.95-73.4-52.97-47.37,9.87-52.57,52.72-47.28,78.1,8.11,38.91,43.96,58.51,76.11,51.81,40.04-8.34,51.28-44.8,44.58-76.95Z"/><path class="x" d="M548.12,730.05c-6.66-1.84-10.98-7.82-9.14-14.48l64.37-292.99c1.84-6.66,8.38-10.83,14.49-9.14l65.32,14.49c32.59-1.14,62.69,2.41,90.45,10.1,18.88,5.23,36.58,12.52,52.72,21.17,7.71,4.53,9.82,9.89,7.97,16.55-.61,2.22-1.78,4.29-3.11,6.91l-37.77,73.83c-3.82,7.31-10.44,9.66-17.11,7.81-1.67-.46-3.73-1.63-5.8-2.8-8.12-5.24-17.09-9.51-26.53-12.13-7.77-2.15-15.85-3.2-25.35-3.43l-43.85,199.45-.31,1.11c-1.69,6.11-8.07,9.71-14.18,8.02l-112.17-24.48Z"/><path class="x" d="M1227.61,705.32c-2.07,10.89-6.06,17.54-13.21,19.74-5.5,1.69-46.76,4.74-82.25-12.67-24.06,23.67-51.75,39.43-79.83,48.07-91.95,28.29-192.91-17.8-220.18-106.44-20.33-66.07-2.83-175.72,106.19-209.26,27.53-8.47,56.37-10.71,80.72-7.96,2.12-4.87,6.57-8.04,13.17-10.08l2.75-.85,97.79-21.04c14.66-3.3,20.71,2.67,22.74,9.27l.85,2.76c7.7,52.47,14.73,102.74,25.91,139.08,10.17,33.04,23.5,54.85,44,58.79,6.35,1.05,13.43,2.5,15.12,8,.34,1.1.3,2.93-.13,5.47l-13.64,77.12ZM1050.42,591.69c-4.4-14.31-8.43-29.35-12.41-46.21-10-8.98-27.23-12.11-43.2-7.2-34.68,10.67-43.63,50.18-34.99,78.26,9.49,30.83,39.09,50.65,74.88,39.64,10.46-3.22,21.9-9.15,32.87-18.55-6.05-13.81-11.9-28.89-17.15-45.95Z"/><path class="x" d="M1646.06,661.28c-6.97,31.5-5.26,58.43,13.08,84.9,2.75,3.56,7.13,10.43,5.76,16.62-.75,3.37-3.18,6.37-7.74,8.31-.25,1.13-64.77,28.74-64.77,28.74-6.62,3.26-12.62,3.7-17.68,2.58-10.13-2.24-93.52-51.96-71.38-152.08l4.23-19.12c13.06-59.06-10.15-90.15-50.71-101.48l-55.85,201.8c-1.25,5.63-7.43,9.57-13.05,8.32l-1.13-.25-111.24-30.5c-6.63-2.06-10.01-8.11-8.51-14.86l79.88-289.12c1.93-6.06,8.11-10.01,13.74-8.76l1.13.25,62.25,17.31c22.93.36,44.24,2.71,64.49,7.19,114.18,25.26,185.37,114.16,161.61,221.59l-4.11,18.56Z"/><path class="x" d="M1819.06,855.72c.28-7.83,5.36-13.37,11.48-15.01,1.11-.3,2.38-.04,3.49-.34,16.06-.14,29.86-2.05,42.11-5.34,46.73-12.54,66.83-46.57,68.23-94.66-15.75,10.2-33.77,18.61-51.57,23.39-85.12,22.85-180.82-24.82-208.6-128.31-18.07-67.32.03-159.86,117.43-191.37,26.7-7.17,53.64-9.03,77.88-5.39.02-6.57,4.74-9.02,9.74-10.37l2.78-.75s92.89-18.37,105.83-21.25c9.05-1.83,16.56,3.91,18.8,12.25,25.17,98.22,51.8,199.62,58.06,287.41,8.85,124.07-63.88,193.1-150.67,216.4-32.27,8.66-66.18,11.2-98.8,7.43-5.45-.32-7.76-4.48-8.96-8.93-.9-3.34-1.24-6.83-1.28-9.2l4.06-55.96ZM1929.94,633.3c-4.86-22.56-10.88-47.18-17.6-72.22-9.25-25.55-34.68-33.64-58.6-27.22-35.05,9.41-46.91,43.01-38.54,74.17,5.82,21.69,26.97,64.92,75.93,51.78,13.36-3.58,29.52-14.48,36.48-24.1l2.34-2.41Z"/><path class="x" d="M2134.78,415.65c-46.83,6.17-89.49-26.55-95.59-72.81-6.17-46.83,26.55-89.49,73.38-95.67,46.26-6.1,88.92,26.62,95.1,73.45,6.1,46.26-26.62,88.92-72.88,95.02ZM2140.67,737.93l-1.14.15c-6.28.83-11.53-3.71-12.93-9.92l-50.94-276.25c-.9-6.85,2.99-12.6,9.76-14.07l113.47-20.77,1.14-.15c5.71-.75,11.53,3.71,12.28,9.42l51.02,276.82.15,1.15c.75,5.71-3.71,11.53-9.34,12.85l-113.47,20.78Z"/><path class="x" d="M2378.08,414.95c-46.91-5.55-80.2-47.77-74.71-94.11,5.55-46.91,47.77-80.2,94.68-74.65,46.34,5.48,79.63,47.71,74.08,94.61-5.48,46.34-47.71,79.63-94.04,74.14ZM2304.41,728.76l-1.14-.14c-6.29-.74-10.26-6.44-10.09-12.8l18.66-280.28c.81-6.87,6-11.47,12.93-11.23l115.09,7.82,1.14.14c5.72.68,10.26,6.43,9.58,12.16l-18.73,280.85-.14,1.15c-.68,5.72-6.43,10.26-12.22,10.15l-115.09-7.81Z"/></g><g id="l"><path class="x" d="M486.17,342.24c-5.26,20.46-25.79,26.28-44.57,21.45-18.22-4.69-39.58-21.08-32.17-49.9,6.45-25.11,28.15-37.77,53.22-39.65l3.06-11.9-24.74-5.56c-1.86-.48-3.15-2.4-2.67-4.26l6.28-26.73.05-.19c.48-1.86,2.49-2.73,4.39-2.44l25.06,5.85c1.15-4.46,1.82-7.86,2.3-9.72.57-2.23,1.43-4,4.78-3.14l30.13,7.74c3.16.81,3.65,4.31,3.13,6.35l-1.91,7.44,11.57,2.78.37.1c1.86.48,2.91,2.53,2.48,4.2l-6.41,26.5c-.48,1.86-2.4,3.15-4.49,2.81l-12.32-2.97c-.77,2.98-1.29,5.81-2.06,8.8,41.44,14.62,60.25,51.76,52.17,83.19-5.16,20.08-20.15,32.88-24.61,31.74-2.79-.72-23.45-18.32-24.6-19.22-1.16-.89-1.61-2.2-1.28-3.5.14-.56.47-1.06,1.03-1.72,3.61-3.24,7.19-10.24,8.96-17.12,5.21-20.27-9.15-31.5-20.9-36.7l-6.04,25.02-.19.74ZM454.72,308.78c-6.34.75-12.69,3.09-14.6,10.52-1.72,6.7,3.3,7.99,3.86,8.13,2.79.72,6.1-.62,7.11-4.52l3.63-14.13ZM556.06,310.25c-1.12.5-1.96.68-2.7.49-.93-.24-1.72-1.04-2.41-2.21-4.22-9.02-14.47-30.09-18.79-38.73-.23-.66-.46-1.31-.27-2.05s.8-1.58,2.11-2.04l21.49-9.54c1.12-.5,1.77-.73,2.7-.49,4.46,1.15,26.32,34.13,24.84,39.89-.24.92-.85,1.76-2.2,2.4l-24.77,12.27Z"/><path class="x" d="M638.67,380.69c-3.17-.78-3.55-2.46-2.5-6.74l9.98-40.65c-3.01,3.41-5.89,7.06-8.71,10.51-1.11,1.31-2.28,2.02-3.95,1.6-.93-.23-2.15-.92-3.22-2.18-4.49-4.27-13.41-11.4-18.09-15.71-1.92-1.85-2.07-3.68-1.74-4.98.5-2.05,17.2-20.1,28.47-30.57q-18.04-14.32-17.39-16.93c.14-.56.51-1.27,1.02-1.73l19.39-17.78c1.3-1.27,2.69-2.11,4.75-1.6,2.61.64,10.36,5.31,16.53,9.2l7.6-30.96c.55-2.24,2.87-3.65,5.11-3.1l30.21,7.42c2.24.55,3.65,2.87,3.1,5.11l-5.22,21.26c6.29.16,12.21,1.02,17.98,2.44,33.75,8.29,55.02,37.63,45.73,77.87-3.25,13.24-1.62,25.1,5.18,35.28.7,1.16,2.29,3.53,1.7,5.95-.28,1.12-1.11,2.1-2.5,2.95-.09.37-20.86,11.68-20.86,11.68-2.09,1.26-3.9,1.41-5.4,1.05-6.34-1.56-31.01-20.27-22.13-58.82,5.86-24.67-2.8-36.08-16.04-39.34-4.1-1.01-8.43-1.08-13.04-.83l-20.06,82.47c-.87,3.54-3.24,5.13-6.78,4.26l-29.09-7.14Z"/><path class="x" d="M810.88,396.12c-2.75-.05-4.88-1.99-5.43-4.82-1.27-6.6,12.53-95.3,26.33-146.46,1.2-4.93,2.04-6.65,4.68-7.16.57-.11,1.13-.22,1.92-.18l30.91,1.08c2.56.09,4.74,1.23,5.17,3.5.07.38.03,1.17-.05,1.77-5.45,25.5-11.34,54.79-15.92,79.73,5.26-4.14,15.09-8.97,26.02-11.08,15.27-2.94,32.76-.45,43.34,16.87,4.58,7.53,9.32,8.76,13.84,7.89,2.64-.51,5.13-1.77,7.67-2.85,1.25-.63,2.34-1.04,3.29-1.22,1.32-.25,2.33-.06,3.6,1.46,2.58,3.22,13.04,19.97,13.73,23.55.44,2.26.15,4.86-3.1,7.25-9.92,7.39-20.51,13.33-30.87,15.33-13.39,2.58-26.38-1.95-36.73-20.1-4.95-8.43-11.94-11.19-19.48-9.74-14.14,2.73-29.33,20.32-32.4,39.89-.43,1.84-1.77,5.03-4.79,5.61-.38.07-.79-.04-1.17.03l-30.58-.37Z"/><path class="x" d="M1085.36,376.91c-.7,4.7-2.61,6.7-5.79,7.43-13.29,3.03-75.43,5.19-96.27-86.16-3.93-17.22-5.77-36.5-5.7-57.78.19-2.61.26-5.77,4.94-6.84.56-.13,1.17-.07,1.73-.2l32.95-3.18c2.9-.27,4.59,1.12,5.19,3.74.13.56.26,1.12.19,1.73.38,15.47,1.77,33.67,5.62,50.52,7.39,32.39,23.43,60.43,56.37,58.04,2.52-.18,5.06.62,5.58,2.86.13.56.07,1.17.01,1.77l-4.82,28.08ZM1051.4,264.32l-1.5.34c-2.81.64-4.52.05-5.55-1.88l-7.9-14.75c-.4-.89-.76-1.6-.89-2.16-.55-2.43.96-3.56,3.12-4.45l14.32-5.43.56-.13c2.81-.64,5.46,1.51,6.58,3.82l7.01,14.35c.32.51.45,1.08.57,1.64.51,2.25-.54,3.67-4.01,4.85l-12.33,3.8ZM1091.06,256.86c-.72,1.15-1.76,1.78-2.7,1.99-1.31.3-2.6-.19-3.98-1.06l-16.07-10.91c-1.19-.91-1.78-1.76-1.95-2.5-.34-1.5.53-2.88,1.33-3.65l8.55-10.03c.95-1,1.8-1.59,2.93-1.85,1.5-.34,3.16.06,4.73.88l14.23,7.98.65.25c1.38.86,2.16,1.67,2.41,2.79s-.19,2.61-1.25,4.03l-8.87,12.07Z"/><path class="x" d="M1124.9,327.61c-2.11,0-4.8-1.92-4.8-4.41v-34.95c0-2.3,2.5-4.22,4.61-4.22l130.38.19c2.11,0,4.61,1.92,4.61,4.42v34.75c0,2.3-2.5,4.03-4.61,4.03l-130.19.2Z"/></g><g id="m"><path class="x" d="M2517.58,279.1c-52.75-130.21-94.69-140.51-99.58-141.27l-1.12.25.23-.29c-38.13,0-51.19,66.65-51.31,67.32l-3.21,17.85-16.78-6.89c-99.89-41.05-190.82-.64-191.73-.23l-17.07,7.77-3.43-18.43c-11.25-60.95-43.29-66.83-47.8-67.36-36.3,2.51-81.61,87.54-101.78,140.95l-27.41-10.34c.59-1.56,14.64-38.59,36.42-76.51,31.14-54.21,62.24-82.28,92.42-83.42l.48-.02h.48c2.26.07,52.08,2.32,72.12,74.38,31.25-10.41,102.52-27.23,182.72.19,8.09-26.42,29.16-74.35,75.57-74.56,4.98-.15,21.22,1.09,43.45,20.7,29.13,25.69,57.55,72.43,84.49,138.91l-27.15,11ZM2418.46,137.73h0Z"/><g id="n"><path class="x" d="M2406.32,162.59c-6.95,8.09-15.58,23.12-18.68,49.49,0,0,39.52,5.51,70.77-2.76,0,0-12.87-33.09-29.83-47.52-6.7-5.71-16.52-5.88-22.25.8Z"/><path class="x" d="M2092.1,162.48c6.95,8.09,15.58,23.12,18.68,49.49,0,0-39.52,5.51-70.77-2.76,0,0,12.87-33.09,29.83-47.52,6.7-5.7,16.52-5.88,22.25.8Z"/></g></g><polygon class="v" points="2000.59 360.49 1658.52 506.05 1268.59 476.49 1260.59 284.49 1052.59 268.49 676.59 260.49 315.7 371.78 285.04 680.93 1101.25 738.18 2144.59 712.49 2387.64 506.05 2333.97 264.91 2000.59 360.49"/><g id="o"><path class="u" d="M1500.68,890.23l-1.28,7c-.53,2.64-1.96,3.23-4.24,2.94l-64.88-10.37c-2.29-.29-3.28-1.58-2.97-4.06l.07-.57.63-3.41-16.1-10.37c-1.24-.93-2.04-2.2-1.87-3.53.1-.76.6-1.66,1.48-2.52,5.11-5.16,10.77-11.6,16.02-17.9l-7.48,2.53c-.4.14-.78.09-1.36.02-.95-.12-2.24-.67-2.69-1.7l-2.32-7.65-2.09,19.48c-.34,2.67-1.97,4.78-5.01,4.4l-7.26-.73-2.82,26.74,7.44-3.7c.43-.33,1-.26,1.76-.16.76.1,1.69.41,2.16,1.24l7.24,11.57c.31.62.43,1.22.33,1.98-.15,1.14-.89,2.4-1.91,2.85l-10.18,5.48c-.62.31-1.41.4-1.98.33-1.14-.14-2.23-.67-2.52-1.48l-3.53-7.22-6.1,57.1c-.41,3.24-3.47,5.95-6.37,5.97l-27.27-.18-.76-.1c-3.24-.41-5.21-3.18-4.87-5.84l4.59-42.19-18.93-4.92c-2.04-.65-2.97-2.51-2.75-4.22l.07-.57,11.09-32.46c.58-1.48,2.2-2.04,3.91-1.83l.76.1,9.99,3.59,1.68-16.24-12.41-1.38c-3.81-.48-5.14-2.2-4.97-5.09l1.93-21.24.05-.38c.41-3.24,2.48-4.33,4.77-4.04l12.03,1.33,3.5-32.07c.36-2.86,2.51-4.52,5.17-4.18l32.43,5.28c2.67.34,4.31,2.68,3.94,5.53l-3.21,29.79,6.12.58c1.14.15,2.24.67,3.09,1.55.31-.93.98-1.62,2.2-2.04l10.2-2.58c.4-.14.78-.09,1.16-.05.95.12,1.86.63,2.31,1.65l3.92,8.82c3.46-4.4,6.52-8.66,8.69-12.06l-19.38-4.4c-2.45-.5-3.47-1.6-3.18-3.89l.12-.95,4.21-17.85c.46-2.07,1.6-3.47,4.27-3.14l.57.07,33,6.91c5.09,1.03,8.99,3.85,11.47,7.26l16.95-6.94c.81-.28,1.6-.38,2.36-.28,1.33.17,2.59.91,3.18,2.34l4.96,11.28,10.49-4.86c.21-.17.59-.12.97-.07.76.1,1.5.38,2,1.03l5.98,10.82c.14.41.26,1,.19,1.58-.1.76-.38,1.5-1,1.81l-11.42,6.1,3.27,7.77,8.25-3.98c.4-.14.81-.28,1.19-.23.57.07,1.47.57,1.78,1.2l5.27,10.34c.33.43.26,1,.19,1.58-.1.76-.38,1.5-1.01,1.81l-9.06,4.27,6.9,15.78c.42,1.22.66,2.4.51,3.55-.22,1.72-1.2,3.33-2.82,3.9l-20.81,8.39ZM1404.1,973.96c-3.05-.39-4.02-1.87-3.7-4.34l2.32-18.29c.34-2.67,1.82-3.64,4.48-3.3l12.95,1.65-.85-5.53c-.12-.6-.07-.98,0-1.55.19-1.52,1.1-2.57,2.86-2.73l15.58-.73.76.1c1.72.22,2.93,1.34,2.97,2.5l1.12,10.98,13.33,1.69,2.54-9.36c.41-1.69,1.72-2.88,3.63-2.63l.38.05,33.09,7.69c1.88.43,3.59,2.2,3.35,4.1l-.07.57-2.01,5.16,8.57,1.09c2.67.34,4.07,1.49,3.73,4.15l-2.49,18.07c-.34,2.67-1.87,4.02-4.72,3.66l-97.84-13.02ZM1419.54,933.15c-4.19-.53-6.5-2.18-5.82-7.52l2.71-22.88c.48-3.81,3.01-5.43,6.82-4.94l71.7,8.53c10.09,1.28,17.32,6.85,15.89,18.09l-.15,1.14-2.17,12.5c-.75,4.35-3.76,6.68-8.13,6.12l-80.86-11.05ZM1473,836.97c-4.41,10.28-11.64,21.55-19.88,33.09l32.26,5.07-12.38-38.15ZM1470.27,920.82l.05-.38c.34-2.67-.99-4.38-4.61-4.84l-16.95-2.15-1.12,10.31,21.31,2.9,1.32-5.83Z"/><path class="u" d="M1722.12,974.14l-24.08,2.6,1.32,7.18.06.38c.42,2.66-.75,5.17-3.75,5.84l-32.38,7.98-.57.09c-2.47.39-4.35-.49-4.71-2.76l-2.6-14.17-25.41,2.81c-3.25.31-4.41-.86-4.91-4.09l-2.55-20.01c-.47-3.03.7-4.19,3.17-4.58l.76-.12,23.48-2.7-2.22-11.7-24.74,4.65-.57.09c-2.84.44-3.97-.55-4.61-3.36l-3.19-15.43-3.54,3.47c-.51.47-1.24.77-1.81.86-1.33.21-2.55-.18-3.05-.88l-5.96-7.04,12.21,69.42c.5,3.23-1.68,6.68-4.47,7.5l-27.57,7.61-.76.12c-3.23.5-5.89-1.61-6.3-4.26l-7.65-42.73-19.74.56c-2.14-.06-3.55-1.58-3.82-3.29l-.09-.57,1.64-34.27c.14-1.58,1.54-2.57,3.25-2.84l.76-.12,11.01.81-2.96-16.45-13.03,2.43c-3.42.53-5.36-.72-5.81-3.56l-3.86-20.97c-.53-3.42.93-5.2,3.4-5.58l12.08-2.28-5.13-29.13c-.42-2.66.78-4.98,3.43-5.4l.38-.06,33.95-4.14c2.87-.25,4.88,1.38,5.32,4.22l4.75,26.66,7.94-1.43c2.47-.39,5.01.97,5.46,3.81l3.29,21.06c.42,2.66-.56,5.14-3.59,5.61l-8.7,1.56,2.7,14.74,6.63-6.09c.32-.44,1.08-.56,1.65-.65.95-.15,1.93-.1,2.61.56l10.01,9.32,10.22-1.79-9.51-21.06c-.25-.35-.31-.73-.37-1.11-.21-1.33.62-2.24,2.65-2.94l17.18-6.96c.38-.06.73-.31,1.11-.37,1.71-.27,3.21.66,3.77,1.74l10.82,25.71,8.1-1.65,1.13-27.58c.14-1.58.94-2.67,2.46-2.91.38-.06.79.07,1.17.01l30.5-.1c1.95.08,3.61,1.96,3.9,3.86.03.19-.1.6-.04.98l-2.87,18.91,14.71-2.88c2.66-.42,3.94.36,4.58,3.17l4.55,21.64.09.57c.42,2.66-.7,4.19-3.17,4.58l-30.78,5.78,2.91,14.9,26.93-3.04c2.87-.26,3.97.55,4.36,3.01l.12.76,2.31,21.02c.26,2.87-.55,3.97-3.2,4.39l-.76.12ZM1705.76,865.72l-90.46,10.64c-2.68.23-4.63-1.02-5.02-3.49l-2.91-24.81c-.34-3.44,1.05-4.44,3.52-4.82l17.95-2.03-.99-17.53c-.17-2.31.95-3.84,3.23-4.2l.57-.09,36.93-2.47c2.5-.2,4.75,1.78,5.08,3.87l.09.57-.46,14.46,28.25-3.25c2.47-.39,4.7.23,5.08,2.7l3.06,25.76c.2,2.5-1.09,4.25-3.55,4.64l-.38.06Z"/></g><g id="p"><path class="w" d="M292.01,464.78c-42.36-128.13-146.75-109.25-186.62-122.61,0,0,30.25,82.07,112.09,104.53,81.84,22.46,74.53,18.08,74.53,18.08Z"/></g><g id="q"><path class="u" d="M371.71,748.23c-91.92,19.15-186.43-30.61-207.1-129.86-24.2-116.18,50.08-194.61,149.34-215.28,124.63-25.96,198.53,60.45,213.8,133.76,22.91,109.98-75.95,194.7-156.03,211.38ZM407.39,560.74c-2.23-10.72-15.88-64.95-73.4-52.97-47.37,9.87-52.57,52.72-47.28,78.1,8.11,38.91,43.96,58.51,76.11,51.81,40.04-8.34,51.28-44.8,44.58-76.95Z"/><path class="u" d="M548.12,730.05c-6.66-1.84-10.98-7.82-9.14-14.48l64.37-292.99c1.84-6.66,8.38-10.83,14.49-9.14l65.32,14.49c32.59-1.14,62.69,2.41,90.45,10.1,18.88,5.23,36.58,12.52,52.72,21.17,7.71,4.53,9.82,9.89,7.97,16.55-.61,2.22-1.78,4.29-3.11,6.91l-37.77,73.83c-3.82,7.31-10.44,9.66-17.11,7.81-1.67-.46-3.73-1.63-5.8-2.8-8.12-5.24-17.09-9.51-26.53-12.13-7.77-2.15-15.85-3.2-25.35-3.43l-43.85,199.45-.31,1.11c-1.69,6.11-8.07,9.71-14.18,8.02l-112.17-24.48Z"/><path class="u" d="M1227.61,705.32c-2.07,10.89-6.06,17.54-13.21,19.74-5.5,1.69-46.76,4.74-82.25-12.67-24.06,23.67-51.75,39.43-79.83,48.07-91.95,28.29-192.91-17.8-220.18-106.44-20.33-66.07-2.83-175.72,106.19-209.26,27.53-8.47,56.37-10.71,80.72-7.96,2.12-4.87,6.57-8.04,13.17-10.08l2.75-.85,97.79-21.04c14.66-3.3,20.71,2.67,22.74,9.27l.85,2.76c7.7,52.47,14.73,102.74,25.91,139.08,10.17,33.04,23.5,54.85,44,58.79,6.35,1.05,13.43,2.5,15.12,8,.34,1.1.3,2.93-.13,5.47l-13.64,77.12ZM1050.42,591.69c-4.4-14.31-8.43-29.35-12.41-46.21-10-8.98-27.23-12.11-43.2-7.2-34.68,10.67-43.63,50.18-34.99,78.26,9.49,30.83,39.09,50.65,74.88,39.64,10.46-3.22,21.9-9.15,32.87-18.55-6.05-13.81-11.9-28.89-17.15-45.95Z"/><path class="u" d="M1646.06,661.28c-6.97,31.5-5.26,58.43,13.08,84.9,2.75,3.56,7.13,10.43,5.76,16.62-.75,3.37-3.18,6.37-7.74,8.31-.25,1.13-64.77,28.74-64.77,28.74-6.62,3.26-12.62,3.7-17.68,2.58-10.13-2.24-93.52-51.96-71.38-152.08l4.23-19.12c13.06-59.06-10.15-90.15-50.71-101.48l-55.85,201.8c-1.25,5.63-7.43,9.57-13.05,8.32l-1.13-.25-111.24-30.5c-6.63-2.06-10.01-8.11-8.51-14.86l79.88-289.12c1.93-6.06,8.11-10.01,13.74-8.76l1.13.25,62.25,17.31c22.93.36,44.24,2.71,64.49,7.19,114.18,25.26,185.37,114.16,161.61,221.59l-4.11,18.56Z"/><path class="u" d="M1819.06,855.72c.28-7.83,5.36-13.37,11.48-15.01,1.11-.3,2.38-.04,3.49-.34,16.06-.14,29.86-2.05,42.11-5.34,46.73-12.54,66.83-46.57,68.23-94.66-15.75,10.2-33.77,18.61-51.57,23.39-85.12,22.85-180.82-24.82-208.6-128.31-18.07-67.32.03-159.86,117.43-191.37,26.7-7.17,53.64-9.03,77.88-5.39.02-6.57,4.74-9.02,9.74-10.37l2.78-.75s92.89-18.37,105.83-21.25c9.05-1.83,16.56,3.91,18.8,12.25,25.17,98.22,51.8,199.62,58.06,287.41,8.85,124.07-63.88,193.1-150.67,216.4-32.27,8.66-66.18,11.2-98.8,7.43-5.45-.32-7.76-4.48-8.96-8.93-.9-3.34-1.24-6.83-1.28-9.2l4.06-55.96ZM1929.94,633.3c-4.86-22.56-10.88-47.18-17.6-72.22-9.25-25.55-34.68-33.64-58.6-27.22-35.05,9.41-46.91,43.01-38.54,74.17,5.82,21.69,26.97,64.92,75.93,51.78,13.36-3.58,29.52-14.48,36.48-24.1l2.34-2.41Z"/><path class="u" d="M2134.78,415.65c-46.83,6.17-89.49-26.55-95.59-72.81-6.17-46.83,26.55-89.49,73.38-95.67,46.26-6.1,88.92,26.62,95.1,73.45,6.1,46.26-26.62,88.92-72.88,95.02ZM2140.67,737.93l-1.14.15c-6.28.83-11.53-3.71-12.93-9.92l-50.94-276.25c-.9-6.85,2.99-12.6,9.76-14.07l113.47-20.77,1.14-.15c5.71-.75,11.53,3.71,12.28,9.42l51.02,276.82.15,1.15c.75,5.71-3.71,11.53-9.34,12.85l-113.47,20.78Z"/><path class="u" d="M2378.08,414.95c-46.91-5.55-80.2-47.77-74.71-94.11,5.55-46.91,47.77-80.2,94.68-74.65,46.34,5.48,79.63,47.71,74.08,94.61-5.48,46.34-47.71,79.63-94.04,74.14ZM2304.41,728.76l-1.14-.14c-6.29-.74-10.26-6.44-10.09-12.8l18.66-280.28c.81-6.87,6-11.47,12.93-11.23l115.09,7.82,1.14.14c5.72.68,10.26,6.43,9.58,12.16l-18.73,280.85-.14,1.15c-.68,5.72-6.43,10.26-12.22,10.15l-115.09-7.81Z"/></g><g id="r"><path class="u" d="M486.17,342.24c-5.26,20.46-25.79,26.28-44.57,21.45-18.22-4.69-39.58-21.08-32.17-49.9,6.45-25.11,28.15-37.77,53.22-39.65l3.06-11.9-24.74-5.56c-1.86-.48-3.15-2.4-2.67-4.26l6.28-26.73.05-.19c.48-1.86,2.49-2.73,4.39-2.44l25.06,5.85c1.15-4.46,1.82-7.86,2.3-9.72.57-2.23,1.43-4,4.78-3.14l30.13,7.74c3.16.81,3.65,4.31,3.13,6.35l-1.91,7.44,11.57,2.78.37.1c1.86.48,2.91,2.53,2.48,4.2l-6.41,26.5c-.48,1.86-2.4,3.15-4.49,2.81l-12.32-2.97c-.77,2.98-1.29,5.81-2.06,8.8,41.44,14.62,60.25,51.76,52.17,83.19-5.16,20.08-20.15,32.88-24.61,31.74-2.79-.72-23.45-18.32-24.6-19.22-1.16-.89-1.61-2.2-1.28-3.5.14-.56.47-1.06,1.03-1.72,3.61-3.24,7.19-10.24,8.96-17.12,5.21-20.27-9.15-31.5-20.9-36.7l-6.04,25.02-.19.74ZM454.72,308.78c-6.34.75-12.69,3.09-14.6,10.52-1.72,6.7,3.3,7.99,3.86,8.13,2.79.72,6.1-.62,7.11-4.52l3.63-14.13ZM556.06,310.25c-1.12.5-1.96.68-2.7.49-.93-.24-1.72-1.04-2.41-2.21-4.22-9.02-14.47-30.09-18.79-38.73-.23-.66-.46-1.31-.27-2.05s.8-1.58,2.11-2.04l21.49-9.54c1.12-.5,1.77-.73,2.7-.49,4.46,1.15,26.32,34.13,24.84,39.89-.24.92-.85,1.76-2.2,2.4l-24.77,12.27Z"/><path class="u" d="M638.67,380.69c-3.17-.78-3.55-2.46-2.5-6.74l9.98-40.65c-3.01,3.41-5.89,7.06-8.71,10.51-1.11,1.31-2.28,2.02-3.95,1.6-.93-.23-2.15-.92-3.22-2.18-4.49-4.27-13.41-11.4-18.09-15.71-1.92-1.85-2.07-3.68-1.74-4.98.5-2.05,17.2-20.1,28.47-30.57q-18.04-14.32-17.39-16.93c.14-.56.51-1.27,1.02-1.73l19.39-17.78c1.3-1.27,2.69-2.11,4.75-1.6,2.61.64,10.36,5.31,16.53,9.2l7.6-30.96c.55-2.24,2.87-3.65,5.11-3.1l30.21,7.42c2.24.55,3.65,2.87,3.1,5.11l-5.22,21.26c6.29.16,12.21,1.02,17.98,2.44,33.75,8.29,55.02,37.63,45.73,77.87-3.25,13.24-1.62,25.1,5.18,35.28.7,1.16,2.29,3.53,1.7,5.95-.28,1.12-1.11,2.1-2.5,2.95-.09.37-20.86,11.68-20.86,11.68-2.09,1.26-3.9,1.41-5.4,1.05-6.34-1.56-31.01-20.27-22.13-58.82,5.86-24.67-2.8-36.08-16.04-39.34-4.1-1.01-8.43-1.08-13.04-.83l-20.06,82.47c-.87,3.54-3.24,5.13-6.78,4.26l-29.09-7.14Z"/><path class="u" d="M810.88,396.12c-2.75-.05-4.88-1.99-5.43-4.82-1.27-6.6,12.53-95.3,26.33-146.46,1.2-4.93,2.04-6.65,4.68-7.16.57-.11,1.13-.22,1.92-.18l30.91,1.08c2.56.09,4.74,1.23,5.17,3.5.07.38.03,1.17-.05,1.77-5.45,25.5-11.34,54.79-15.92,79.73,5.26-4.14,15.09-8.97,26.02-11.08,15.27-2.94,32.76-.45,43.34,16.87,4.58,7.53,9.32,8.76,13.84,7.89,2.64-.51,5.13-1.77,7.67-2.85,1.25-.63,2.34-1.04,3.29-1.22,1.32-.25,2.33-.06,3.6,1.46,2.58,3.22,13.04,19.97,13.73,23.55.44,2.26.15,4.86-3.1,7.25-9.92,7.39-20.51,13.33-30.87,15.33-13.39,2.58-26.38-1.95-36.73-20.1-4.95-8.43-11.94-11.19-19.48-9.74-14.14,2.73-29.33,20.32-32.4,39.89-.43,1.84-1.77,5.03-4.79,5.61-.38.07-.79-.04-1.17.03l-30.58-.37Z"/><path class="u" d="M1085.36,376.91c-.7,4.7-2.61,6.7-5.79,7.43-13.29,3.03-75.43,5.19-96.27-86.16-3.93-17.22-5.77-36.5-5.7-57.78.19-2.61.26-5.77,4.94-6.84.56-.13,1.17-.07,1.73-.2l32.95-3.18c2.9-.27,4.59,1.12,5.19,3.74.13.56.26,1.12.19,1.73.38,15.47,1.77,33.67,5.62,50.52,7.39,32.39,23.43,60.43,56.37,58.04,2.52-.18,5.06.62,5.58,2.86.13.56.07,1.17.01,1.77l-4.82,28.08ZM1051.4,264.32l-1.5.34c-2.81.64-4.52.05-5.55-1.88l-7.9-14.75c-.4-.89-.76-1.6-.89-2.16-.55-2.43.96-3.56,3.12-4.45l14.32-5.43.56-.13c2.81-.64,5.46,1.51,6.58,3.82l7.01,14.35c.32.51.45,1.08.57,1.64.51,2.25-.54,3.67-4.01,4.85l-12.33,3.8ZM1091.06,256.86c-.72,1.15-1.76,1.78-2.7,1.99-1.31.3-2.6-.19-3.98-1.06l-16.07-10.91c-1.19-.91-1.78-1.76-1.95-2.5-.34-1.5.53-2.88,1.33-3.65l8.55-10.03c.95-1,1.8-1.59,2.93-1.85,1.5-.34,3.16.06,4.73.88l14.23,7.98.65.25c1.38.86,2.16,1.67,2.41,2.79s-.19,2.61-1.25,4.03l-8.87,12.07Z"/><path class="u" d="M1124.9,327.61c-2.11,0-4.8-1.92-4.8-4.41v-34.95c0-2.3,2.5-4.22,4.61-4.22l130.38.19c2.11,0,4.61,1.92,4.61,4.42v34.75c0,2.3-2.5,4.03-4.61,4.03l-130.19.2Z"/></g><g id="s"><path class="u" d="M2517.58,279.1c-52.75-130.21-94.69-140.51-99.58-141.27l-1.12.25.23-.29c-38.13,0-51.19,66.65-51.31,67.32l-3.21,17.85-16.78-6.89c-99.89-41.05-190.82-.64-191.73-.23l-17.07,7.77-3.43-18.43c-11.25-60.95-43.29-66.83-47.8-67.36-36.3,2.51-81.61,87.54-101.78,140.95l-27.41-10.34c.59-1.56,14.64-38.59,36.42-76.51,31.14-54.21,62.24-82.28,92.42-83.42l.48-.02h.48c2.26.07,52.08,2.32,72.12,74.38,31.25-10.41,102.52-27.23,182.72.19,8.09-26.42,29.16-74.35,75.57-74.56,4.98-.15,21.22,1.09,43.45,20.7,29.13,25.69,57.55,72.43,84.49,138.91l-27.15,11ZM2418.46,137.73h0Z"/><g id="t"><path class="u" d="M2406.32,162.59c-6.95,8.09-15.58,23.12-18.68,49.49,0,0,39.52,5.51,70.77-2.76,0,0-12.87-33.09-29.83-47.52-6.7-5.71-16.52-5.88-22.25.8Z"/><path class="u" d="M2092.1,162.48c6.95,8.09,15.58,23.12,18.68,49.49,0,0-39.52,5.51-70.77-2.76,0,0,12.87-33.09,29.83-47.52,6.7-5.7,16.52-5.88,22.25.8Z"/></g></g></g></svg>