<?xml version="1.0" encoding="UTF-8"?><svg id="a" xmlns="http://www.w3.org/2000/svg" viewBox="0 0 337 144"><defs><style>.t{fill:#f15a24;}.t,.u{stroke-width:0px;}.v{stroke:#e79c00;}.v,.w{fill:none;stroke-linecap:round;stroke-linejoin:round;stroke-width:25px;}.w{stroke:#fff;}.u{fill:#009f3a;}</style></defs><g id="b"><path class="v" d="M193.01,116.72l-.16.88c-.07.33-.24.4-.53.37l-8.11-1.3c-.29-.04-.41-.2-.37-.51v-.07s.09-.43.09-.43l-2.01-1.3c-.15-.12-.26-.27-.23-.44.01-.1.07-.21.19-.32.64-.64,1.35-1.45,2-2.24l-.94.32c-.05.02-.1.01-.17,0-.12-.02-.28-.08-.34-.21l-.29-.96-.26,2.43c-.04.33-.25.6-.63.55l-.91-.09-.35,3.34.93-.46c.05-.04.13-.03.22-.02s.21.05.27.15l.9,1.45c.04.08.05.15.04.25-.02.14-.11.3-.24.36l-1.27.69c-.08.04-.18.05-.25.04-.14-.02-.28-.08-.32-.19l-.44-.9-.76,7.14c-.05.4-.43.74-.8.75l-3.41-.02h-.1c-.4-.06-.65-.41-.61-.74l.57-5.27-2.37-.62c-.26-.08-.37-.31-.34-.53v-.07s1.4-4.06,1.4-4.06c.07-.18.27-.26.49-.23h.1s1.25.46,1.25.46l.21-2.03-1.55-.17c-.48-.06-.64-.28-.62-.64l.24-2.65v-.05c.06-.4.32-.54.6-.5l1.5.17.44-4.01c.05-.36.31-.57.65-.52l4.05.66c.33.04.54.33.49.69l-.4,3.72.77.07c.14.02.28.08.39.19.04-.12.12-.2.27-.26l1.27-.32c.05-.02.1-.01.15,0,.12.02.23.08.29.21l.49,1.1c.43-.55.81-1.08,1.09-1.51l-2.42-.55c-.31-.06-.43-.2-.4-.49l.02-.12.53-2.23c.06-.26.2-.43.53-.39h.07s4.12.87,4.12.87c.64.13,1.12.48,1.43.91l2.12-.87c.1-.04.2-.05.29-.03.17.02.32.11.4.29l.62,1.41,1.31-.61s.07-.01.12,0c.1.01.19.05.25.13l.75,1.35c.02.05.03.13.02.2-.01.09-.05.19-.13.23l-1.43.76.41.97,1.03-.5c.05-.02.1-.04.15-.03.07,0,.18.07.22.15l.66,1.29c.04.05.03.13.02.2-.01.09-.05.19-.13.23l-1.13.53.86,1.97c.05.15.08.3.06.44-.03.21-.15.42-.35.49l-2.6,1.05ZM180.94,127.18c-.38-.05-.5-.23-.46-.54l.29-2.29c.04-.33.23-.45.56-.41l1.62.21-.11-.69c-.01-.07,0-.12,0-.19.02-.19.14-.32.36-.34l1.95-.09h.09c.21.04.37.18.37.33l.14,1.37,1.67.21.32-1.17c.05-.21.22-.36.45-.33h.05s4.14.97,4.14.97c.23.05.45.27.42.51v.07s-.26.65-.26.65l1.07.14c.33.04.51.19.47.52l-.31,2.26c-.04.33-.23.5-.59.46l-12.23-1.63ZM182.87,122.08c-.52-.07-.81-.27-.73-.94l.34-2.86c.06-.48.38-.68.85-.62l8.96,1.07c1.26.16,2.17.86,1.99,2.26l-.02.14-.27,1.56c-.09.54-.47.84-1.02.77l-10.11-1.38ZM189.55,110.06c-.55,1.28-1.46,2.69-2.49,4.14l4.03.63-1.55-4.77ZM189.21,120.54v-.05c.05-.33-.12-.55-.57-.61l-2.12-.27-.14,1.29,2.66.36.16-.73Z"/><path class="v" d="M220.69,127.21l-3.01.32.16.9v.05c.06.33-.09.65-.46.73l-4.05,1h-.07c-.31.06-.54-.05-.59-.33l-.33-1.77-3.18.35c-.41.04-.55-.11-.61-.51l-.32-2.5c-.06-.38.09-.52.4-.57h.1s2.94-.35,2.94-.35l-.28-1.46-3.09.58h-.07c-.36.07-.5-.06-.58-.41l-.4-1.93-.44.43c-.06.06-.15.1-.23.11-.17.03-.32-.02-.38-.11l-.74-.88,1.53,8.68c.06.4-.21.83-.56.94l-3.45.95h-.09c-.4.08-.74-.19-.79-.52l-.96-5.34-2.47.07c-.27,0-.44-.2-.48-.41v-.07s.19-4.28.19-4.28c.02-.2.19-.32.41-.36h.1s1.38.09,1.38.09l-.37-2.06-1.63.3c-.43.07-.67-.09-.73-.45l-.48-2.62c-.07-.43.12-.65.43-.7l1.51-.29-.64-3.64c-.05-.33.1-.62.43-.67h.05s4.24-.53,4.24-.53c.36-.03.61.17.67.53l.59,3.33.99-.18c.31-.05.63.12.68.48l.41,2.63c.05.33-.07.64-.45.7l-1.09.19.34,1.84.83-.76c.04-.06.13-.07.21-.08.12-.02.24-.01.33.07l1.25,1.16,1.28-.22-1.19-2.63s-.04-.09-.05-.14c-.03-.17.08-.28.33-.37l2.15-.87s.09-.04.14-.05c.21-.03.4.08.47.22l1.35,3.21,1.01-.21.14-3.45c.02-.2.12-.33.31-.36.05,0,.1,0,.15,0h3.81c.24,0,.45.23.49.47,0,.02-.01.08,0,.12l-.36,2.36,1.84-.36c.33-.05.49.04.57.4l.57,2.7v.07c.06.33-.08.52-.39.57l-3.85.72.36,1.86,3.37-.38c.36-.03.5.07.54.38v.1s.3,2.63.3,2.63c.03.36-.07.5-.4.55h-.1ZM218.65,113.65l-11.31,1.33c-.34.03-.58-.13-.63-.44l-.36-3.1c-.04-.43.13-.55.44-.6l2.24-.25-.12-2.19c-.02-.29.12-.48.4-.52h.07s4.62-.32,4.62-.32c.31-.02.59.22.63.48v.07s-.05,1.81-.05,1.81l3.53-.41c.31-.05.59.03.64.34l.38,3.22c.02.31-.14.53-.44.58h-.05Z"/></g><g id="c"><path class="v" d="M41.93,63.54c-5.3-16.02-18.34-13.66-23.33-15.33,0,0,3.78,10.26,14.01,13.07,10.23,2.81,9.32,2.26,9.32,2.26Z"/><path class="v" d="M18.88,48.29c3.96,5.43,16.53,6.56,22.57,15.29"/></g><g id="d"><path class="v" d="M51.89,98.97c-11.49,2.39-23.3-3.83-25.89-16.23-3.02-14.52,6.26-24.33,18.67-26.91,15.58-3.24,24.82,7.56,26.72,16.72,2.86,13.75-9.49,24.34-19.5,26.42ZM56.35,75.53c-.28-1.34-1.99-8.12-9.18-6.62-5.92,1.23-6.57,6.59-5.91,9.76,1.01,4.86,5.5,7.31,9.51,6.48,5.01-1.04,6.41-5.6,5.57-9.62Z"/><path class="v" d="M73.94,96.7c-.83-.23-1.37-.98-1.14-1.81l8.05-36.62c.23-.83,1.05-1.35,1.81-1.14l8.17,1.81c4.07-.14,7.84.3,11.31,1.26,2.36.65,4.57,1.56,6.59,2.65.96.57,1.23,1.24,1,2.07-.08.28-.22.54-.39.86l-4.72,9.23c-.48.91-1.31,1.21-2.14.98-.21-.06-.47-.2-.72-.35-1.01-.65-2.14-1.19-3.32-1.52-.97-.27-1.98-.4-3.17-.43l-5.48,24.93-.04.14c-.21.76-1.01,1.21-1.77,1l-14.02-3.06Z"/><path class="v" d="M158.88,93.6c-.26,1.36-.76,2.19-1.65,2.47-.69.21-5.84.59-10.28-1.58-3.01,2.96-6.47,4.93-9.98,6.01-11.49,3.54-24.11-2.22-27.52-13.3-2.54-8.26-.35-21.97,13.27-26.16,3.44-1.06,7.05-1.34,10.09-.99.26-.61.82-1.01,1.65-1.26l.34-.11,12.22-2.63c1.83-.41,2.59.33,2.84,1.16l.11.34c.96,6.56,1.84,12.84,3.24,17.38,1.27,4.13,2.94,6.86,5.5,7.35.79.13,1.68.31,1.89,1,.04.14.04.37-.02.68l-1.71,9.64ZM136.73,79.4c-.55-1.79-1.05-3.67-1.55-5.78-1.25-1.12-3.4-1.51-5.4-.9-4.34,1.33-5.45,6.27-4.37,9.78,1.19,3.85,4.89,6.33,9.36,4.96,1.31-.4,2.74-1.14,4.11-2.32-.76-1.73-1.49-3.61-2.14-5.74Z"/><path class="v" d="M211.18,88.1c-.87,3.94-.66,7.3,1.63,10.61.34.45.89,1.3.72,2.08-.09.42-.4.8-.97,1.04-.03.14-8.1,3.59-8.1,3.59-.83.41-1.58.46-2.21.32-1.27-.28-11.69-6.49-8.92-19.01l.53-2.39c1.63-7.38-1.27-11.27-6.34-12.69l-6.98,25.23c-.16.7-.93,1.2-1.63,1.04l-.14-.03-13.91-3.81c-.83-.26-1.25-1.01-1.06-1.86l9.99-36.14c.24-.76,1.01-1.25,1.72-1.1l.14.03,7.78,2.16c2.87.04,5.53.34,8.06.9,14.27,3.16,23.17,14.27,20.2,27.7l-.51,2.32Z"/><path class="v" d="M232.81,112.4c.03-.98.67-1.67,1.43-1.88.14-.04.3,0,.44-.04,2.01-.02,3.73-.26,5.26-.67,5.84-1.57,8.35-5.82,8.53-11.83-1.97,1.27-4.22,2.33-6.45,2.92-10.64,2.86-22.6-3.1-26.08-16.04-2.26-8.41,0-19.98,14.68-23.92,3.34-.9,6.71-1.13,9.73-.67,0-.82.59-1.13,1.22-1.3l.35-.09s11.61-2.3,13.23-2.66c1.13-.23,2.07.49,2.35,1.53,3.15,12.28,6.47,24.95,7.26,35.93,1.11,15.51-7.98,24.14-18.83,27.05-4.03,1.08-8.27,1.4-12.35.93-.68-.04-.97-.56-1.12-1.12-.11-.42-.15-.85-.16-1.15l.51-6.99ZM246.67,84.6c-.61-2.82-1.36-5.9-2.2-9.03-1.16-3.19-4.33-4.2-7.32-3.4-4.38,1.18-5.86,5.38-4.82,9.27.73,2.71,3.37,8.12,9.49,6.47,1.67-.45,3.69-1.81,4.56-3.01l.29-.3Z"/><path class="v" d="M272.27,57.4c-5.85.77-11.19-3.32-11.95-9.1s3.32-11.19,9.17-11.96,11.12,3.33,11.89,9.18-3.33,11.12-9.11,11.88ZM273.01,97.68l-.14.02c-.79.1-1.44-.46-1.62-1.24l-6.37-34.53c-.11-.86.37-1.57,1.22-1.76l14.18-2.6.14-.02c.71-.09,1.44.46,1.54,1.18l6.38,34.6.02.14c.09.71-.46,1.44-1.17,1.61l-14.18,2.6Z"/><path class="v" d="M302.69,57.31c-5.86-.69-10.02-5.97-9.34-11.76s5.97-10.02,11.84-9.33c5.79.69,9.95,5.96,9.26,11.83-.69,5.79-5.96,9.95-11.76,9.27ZM293.48,96.53l-.14-.02c-.79-.09-1.28-.8-1.26-1.6l2.33-35.04c.1-.86.75-1.43,1.62-1.4l14.39.98.14.02c.71.08,1.28.8,1.2,1.52l-2.34,35.11-.02.14c-.08.71-.8,1.28-1.53,1.27l-14.39-.98Z"/></g><g id="e"><path class="v" d="M66.2,48.22c-.66,2.56-3.22,3.29-5.57,2.68s-4.95-2.64-4.02-6.24c.81-3.14,3.52-4.72,6.65-4.96l.38-1.49-3.09-.7c-.23-.06-.39-.3-.33-.53l.78-3.34v-.02c.07-.23.32-.34.56-.3l3.13.73c.14-.56.23-.98.29-1.21.07-.28.18-.5.6-.39l3.77.97c.39.1.46.54.39.79l-.24.93,1.45.35h.05c.23.07.36.33.31.54l-.8,3.31c-.06.23-.3.39-.56.35l-1.54-.37c-.1.37-.16.73-.26,1.1,5.18,1.83,7.53,6.47,6.52,10.4-.65,2.51-2.52,4.11-3.08,3.97-.35-.09-2.93-2.29-3.08-2.4-.14-.11-.2-.27-.16-.44.02-.07.06-.13.13-.21.45-.4.9-1.28,1.12-2.14.65-2.53-1.14-3.94-2.61-4.59l-.75,3.13-.02.09ZM62.27,44.04c-.79.09-1.59.39-1.82,1.32-.22.84.41,1,.48,1.02.35.09.76-.08.89-.57l.45-1.77ZM74.93,44.22c-.14.06-.25.09-.34.06-.12-.03-.21-.13-.3-.28-.53-1.13-1.81-3.76-2.35-4.84-.03-.08-.06-.16-.03-.26s.1-.2.26-.25l2.69-1.19c.14-.06.22-.09.34-.06.56.14,3.29,4.27,3.1,4.99-.03.12-.11.22-.28.3l-3.1,1.53Z"/><path class="v" d="M85.26,53.02c-.4-.1-.44-.31-.31-.84l1.25-5.08c-.38.43-.74.88-1.09,1.31-.14.16-.28.25-.49.2-.12-.03-.27-.12-.4-.27-.56-.53-1.68-1.43-2.26-1.96-.24-.23-.26-.46-.22-.62.06-.26,2.15-2.51,3.56-3.82q-2.25-1.79-2.17-2.12c.02-.07.06-.16.13-.22l2.42-2.22c.16-.16.34-.26.59-.2.33.08,1.3.66,2.07,1.15l.95-3.87c.07-.28.36-.46.64-.39l3.78.93c.28.07.46.36.39.64l-.65,2.66c.79.02,1.53.13,2.25.3,4.22,1.04,6.88,4.7,5.72,9.73-.41,1.65-.2,3.14.65,4.41.09.15.29.44.21.74-.03.14-.14.26-.31.37-.01.05-2.61,1.46-2.61,1.46-.26.16-.49.18-.67.13-.79-.19-3.88-2.53-2.77-7.35.73-3.08-.35-4.51-2.01-4.92-.51-.13-1.05-.14-1.63-.1l-2.51,10.31c-.11.44-.4.64-.85.53l-3.64-.89Z"/><path class="v" d="M106.79,54.95c-.34,0-.61-.25-.68-.6-.16-.82,1.57-11.91,3.29-18.31.15-.62.26-.83.58-.89.07-.01.14-.03.24-.02l3.86.14c.32.01.59.15.65.44,0,.05,0,.15,0,.22-.68,3.19-1.42,6.85-1.99,9.97.66-.52,1.89-1.12,3.25-1.38,1.91-.37,4.1-.06,5.42,2.11.57.94,1.16,1.1,1.73.99.33-.06.64-.22.96-.36.16-.08.29-.13.41-.15.16-.03.29,0,.45.18.32.4,1.63,2.5,1.72,2.94.05.28.02.61-.39.91-1.24.92-2.56,1.67-3.86,1.92-1.67.32-3.3-.24-4.59-2.51-.62-1.05-1.49-1.4-2.43-1.22-1.77.34-3.67,2.54-4.05,4.99-.05.23-.22.63-.6.7-.05,0-.1,0-.15,0l-3.82-.05Z"/><path class="v" d="M141.1,52.55c-.09.59-.33.84-.72.93-1.66.38-9.43.65-12.03-10.77-.49-2.15-.72-4.56-.71-7.22.02-.33.03-.72.62-.85.07-.02.15,0,.22-.03l4.12-.4c.36-.03.57.14.65.47.02.07.03.14.02.22.05,1.93.22,4.21.7,6.31.92,4.05,2.93,7.55,7.05,7.26.31-.02.63.08.7.36.02.07,0,.15,0,.22l-.6,3.51ZM136.85,38.48l-.19.04c-.35.08-.57,0-.69-.24l-.99-1.84c-.05-.11-.09-.2-.11-.27-.07-.3.12-.45.39-.56l1.79-.68.07-.02c.35-.08.68.19.82.48l.88,1.79c.04.06.06.13.07.2.06.28-.07.46-.5.61l-1.54.47ZM141.81,37.55c-.09.14-.22.22-.34.25-.16.04-.33-.02-.5-.13l-2.01-1.36c-.15-.11-.22-.22-.24-.31-.04-.19.07-.36.17-.46l1.07-1.25c.12-.13.23-.2.37-.23.19-.04.4,0,.59.11l1.78,1,.08.03c.17.11.27.21.3.35s-.02.33-.16.5l-1.11,1.51Z"/><path class="v" d="M146.04,46.39c-.26,0-.6-.24-.6-.55v-4.37c0-.29.31-.53.58-.53l16.3.02c.26,0,.58.24.58.55v4.34c0,.29-.31.5-.58.5l-16.27.02Z"/></g><g id="f"><path class="v" d="M320.12,40.33c-6.59-16.28-11.84-17.56-12.45-17.66l-.14.03.03-.04c-4.77,0-6.4,8.33-6.41,8.42l-.4,2.23-2.1-.86c-12.49-5.13-23.85-.08-23.97-.03l-2.13.97-.43-2.3c-1.41-7.62-5.41-8.35-5.97-8.42-4.54.31-10.2,10.94-12.72,17.62l-3.43-1.29c.07-.19,1.83-4.82,4.55-9.56,3.89-6.78,7.78-10.28,11.55-10.43h.06s.06,0,.06,0c.28,0,6.51.29,9.01,9.3,3.91-1.3,12.81-3.4,22.84.02,1.01-3.3,3.65-9.29,9.45-9.32.62-.02,2.65.14,5.43,2.59,3.64,3.21,7.19,9.05,10.56,17.36l-3.39,1.38ZM307.73,22.66h0Z"/><g id="g"><path class="v" d="M306.22,25.76c-.87,1.01-1.95,2.89-2.34,6.19,0,0,4.94.69,8.85-.35,0,0-1.61-4.14-3.73-5.94-.84-.71-2.06-.74-2.78.1Z"/><path class="v" d="M266.94,25.75c.87,1.01,1.95,2.89,2.34,6.19,0,0-4.94.69-8.85-.35,0,0,1.61-4.14,3.73-5.94.84-.71,2.06-.74,2.78.1Z"/></g></g><g id="h"><path class="w" d="M188.01,110.72l-.16.88c-.07.33-.24.4-.53.37l-8.11-1.3c-.29-.04-.41-.2-.37-.51v-.07s.09-.43.09-.43l-2.01-1.3c-.15-.12-.26-.27-.23-.44.01-.1.07-.21.19-.32.64-.64,1.35-1.45,2-2.24l-.94.32c-.05.02-.1.01-.17,0-.12-.02-.28-.08-.34-.21l-.29-.96-.26,2.43c-.04.33-.25.6-.63.55l-.91-.09-.35,3.34.93-.46c.05-.04.13-.03.22-.02s.21.05.27.15l.9,1.45c.04.08.05.15.04.25-.02.14-.11.3-.24.36l-1.27.69c-.08.04-.18.05-.25.04-.14-.02-.28-.08-.32-.19l-.44-.9-.76,7.14c-.05.4-.43.74-.8.75l-3.41-.02h-.1c-.4-.06-.65-.41-.61-.74l.57-5.27-2.37-.62c-.26-.08-.37-.31-.34-.53v-.07s1.4-4.06,1.4-4.06c.07-.18.27-.26.49-.23h.1s1.25.46,1.25.46l.21-2.03-1.55-.17c-.48-.06-.64-.28-.62-.64l.24-2.65v-.05c.06-.4.32-.54.6-.5l1.5.17.44-4.01c.05-.36.31-.57.65-.52l4.05.66c.33.04.54.33.49.69l-.4,3.72.77.07c.14.02.28.08.39.19.04-.12.12-.2.27-.26l1.27-.32c.05-.02.1-.01.15,0,.12.02.23.08.29.21l.49,1.1c.43-.55.81-1.08,1.09-1.51l-2.42-.55c-.31-.06-.43-.2-.4-.49l.02-.12.53-2.23c.06-.26.2-.43.53-.39h.07s4.12.87,4.12.87c.64.13,1.12.48,1.43.91l2.12-.87c.1-.04.2-.05.29-.03.17.02.32.11.4.29l.62,1.41,1.31-.61s.07-.01.12,0c.1.01.19.05.25.13l.75,1.35c.02.05.03.13.02.2-.01.09-.05.19-.13.23l-1.43.76.41.97,1.03-.5c.05-.02.1-.04.15-.03.07,0,.18.07.22.15l.66,1.29c.04.05.03.13.02.2-.01.09-.05.19-.13.23l-1.13.53.86,1.97c.05.15.08.3.06.44-.03.21-.15.42-.35.49l-2.6,1.05ZM175.94,121.18c-.38-.05-.5-.23-.46-.54l.29-2.29c.04-.33.23-.45.56-.41l1.62.21-.11-.69c-.01-.07,0-.12,0-.19.02-.19.14-.32.36-.34l1.95-.09h.09c.21.04.37.18.37.33l.14,1.37,1.67.21.32-1.17c.05-.21.22-.36.45-.33h.05s4.14.97,4.14.97c.23.05.45.27.42.51v.07s-.26.65-.26.65l1.07.14c.33.04.51.19.47.52l-.31,2.26c-.04.33-.23.5-.59.46l-12.23-1.63ZM177.87,116.08c-.52-.07-.81-.27-.73-.94l.34-2.86c.06-.48.38-.68.85-.62l8.96,1.07c1.26.16,2.17.86,1.99,2.26l-.02.14-.27,1.56c-.09.54-.47.84-1.02.77l-10.11-1.38ZM184.55,104.06c-.55,1.28-1.46,2.69-2.49,4.14l4.03.63-1.55-4.77ZM184.21,114.54v-.05c.05-.33-.12-.55-.57-.61l-2.12-.27-.14,1.29,2.66.36.16-.73Z"/><path class="w" d="M215.69,121.21l-3.01.32.16.9v.05c.06.33-.09.65-.46.73l-4.05,1h-.07c-.31.06-.54-.05-.59-.33l-.33-1.77-3.18.35c-.41.04-.55-.11-.61-.51l-.32-2.5c-.06-.38.09-.52.4-.57h.1s2.94-.35,2.94-.35l-.28-1.46-3.09.58h-.07c-.36.07-.5-.06-.58-.41l-.4-1.93-.44.43c-.06.06-.15.1-.23.11-.17.03-.32-.02-.38-.11l-.74-.88,1.53,8.68c.06.4-.21.83-.56.94l-3.45.95h-.09c-.4.08-.74-.19-.79-.52l-.96-5.34-2.47.07c-.27,0-.44-.2-.48-.41v-.07s.19-4.28.19-4.28c.02-.2.19-.32.41-.36h.1s1.38.09,1.38.09l-.37-2.06-1.63.3c-.43.07-.67-.09-.73-.45l-.48-2.62c-.07-.43.12-.65.43-.7l1.51-.29-.64-3.64c-.05-.33.1-.62.43-.67h.05s4.24-.53,4.24-.53c.36-.03.61.17.67.53l.59,3.33.99-.18c.31-.05.63.12.68.48l.41,2.63c.05.33-.07.64-.45.7l-1.09.19.34,1.84.83-.76c.04-.06.13-.07.21-.08.12-.02.24-.01.33.07l1.25,1.16,1.28-.22-1.19-2.63s-.04-.09-.05-.14c-.03-.17.08-.28.33-.37l2.15-.87s.09-.04.14-.05c.21-.03.4.08.47.22l1.35,3.21,1.01-.21.14-3.45c.02-.2.12-.33.31-.36.05,0,.1,0,.15,0h3.81c.24,0,.45.23.49.47,0,.02-.01.08,0,.12l-.36,2.36,1.84-.36c.33-.05.49.04.57.4l.57,2.7v.07c.06.33-.08.52-.39.57l-3.85.72.36,1.86,3.37-.38c.36-.03.5.07.54.38v.1s.3,2.63.3,2.63c.03.36-.07.5-.4.55h-.1ZM213.65,107.65l-11.31,1.33c-.34.03-.58-.13-.63-.44l-.36-3.1c-.04-.43.13-.55.44-.6l2.24-.25-.12-2.19c-.02-.29.12-.48.4-.52h.07s4.62-.32,4.62-.32c.31-.02.59.22.63.48v.07s-.05,1.81-.05,1.81l3.53-.41c.31-.05.59.03.64.34l.38,3.22c.02.31-.14.53-.44.58h-.05Z"/></g><g id="i"><path class="w" d="M36.93,57.54c-5.3-16.02-18.34-13.66-23.33-15.33,0,0,3.78,10.26,14.01,13.07,10.23,2.81,9.32,2.26,9.32,2.26Z"/><path class="w" d="M13.88,42.29c3.96,5.43,16.53,6.56,22.57,15.29"/></g><g id="j"><path class="w" d="M46.89,92.97c-11.49,2.39-23.3-3.83-25.89-16.23-3.02-14.52,6.26-24.33,18.67-26.91,15.58-3.24,24.82,7.56,26.72,16.72,2.86,13.75-9.49,24.34-19.5,26.42ZM51.35,69.53c-.28-1.34-1.99-8.12-9.18-6.62-5.92,1.23-6.57,6.59-5.91,9.76,1.01,4.86,5.5,7.31,9.51,6.48,5.01-1.04,6.41-5.6,5.57-9.62Z"/><path class="w" d="M68.94,90.7c-.83-.23-1.37-.98-1.14-1.81l8.05-36.62c.23-.83,1.05-1.35,1.81-1.14l8.17,1.81c4.07-.14,7.84.3,11.31,1.26,2.36.65,4.57,1.56,6.59,2.65.96.57,1.23,1.24,1,2.07-.08.28-.22.54-.39.86l-4.72,9.23c-.48.91-1.31,1.21-2.14.98-.21-.06-.47-.2-.72-.35-1.01-.65-2.14-1.19-3.32-1.52-.97-.27-1.98-.4-3.17-.43l-5.48,24.93-.04.14c-.21.76-1.01,1.21-1.77,1l-14.02-3.06Z"/><path class="w" d="M153.88,87.6c-.26,1.36-.76,2.19-1.65,2.47-.69.21-5.84.59-10.28-1.58-3.01,2.96-6.47,4.93-9.98,6.01-11.49,3.54-24.11-2.22-27.52-13.3-2.54-8.26-.35-21.97,13.27-26.16,3.44-1.06,7.05-1.34,10.09-.99.26-.61.82-1.01,1.65-1.26l.34-.11,12.22-2.63c1.83-.41,2.59.33,2.84,1.16l.11.34c.96,6.56,1.84,12.84,3.24,17.38,1.27,4.13,2.94,6.86,5.5,7.35.79.13,1.68.31,1.89,1,.04.14.04.37-.02.68l-1.71,9.64ZM131.73,73.4c-.55-1.79-1.05-3.67-1.55-5.78-1.25-1.12-3.4-1.51-5.4-.9-4.34,1.33-5.45,6.27-4.37,9.78,1.19,3.85,4.89,6.33,9.36,4.96,1.31-.4,2.74-1.14,4.11-2.32-.76-1.73-1.49-3.61-2.14-5.74Z"/><path class="w" d="M206.18,82.1c-.87,3.94-.66,7.3,1.63,10.61.34.45.89,1.3.72,2.08-.09.42-.4.8-.97,1.04-.03.14-8.1,3.59-8.1,3.59-.83.41-1.58.46-2.21.32-1.27-.28-11.69-6.49-8.92-19.01l.53-2.39c1.63-7.38-1.27-11.27-6.34-12.69l-6.98,25.23c-.16.7-.93,1.2-1.63,1.04l-.14-.03-13.91-3.81c-.83-.26-1.25-1.01-1.06-1.86l9.99-36.14c.24-.76,1.01-1.25,1.72-1.1l.14.03,7.78,2.16c2.87.04,5.53.34,8.06.9,14.27,3.16,23.17,14.27,20.2,27.7l-.51,2.32Z"/><path class="w" d="M227.81,106.4c.03-.98.67-1.67,1.43-1.88.14-.04.3,0,.44-.04,2.01-.02,3.73-.26,5.26-.67,5.84-1.57,8.35-5.82,8.53-11.83-1.97,1.27-4.22,2.33-6.45,2.92-10.64,2.86-22.6-3.1-26.08-16.04-2.26-8.41,0-19.98,14.68-23.92,3.34-.9,6.71-1.13,9.73-.67,0-.82.59-1.13,1.22-1.3l.35-.09s11.61-2.3,13.23-2.66c1.13-.23,2.07.49,2.35,1.53,3.15,12.28,6.47,24.95,7.26,35.93,1.11,15.51-7.98,24.14-18.83,27.05-4.03,1.08-8.27,1.4-12.35.93-.68-.04-.97-.56-1.12-1.12-.11-.42-.15-.85-.16-1.15l.51-6.99ZM241.67,78.6c-.61-2.82-1.36-5.9-2.2-9.03-1.16-3.19-4.33-4.2-7.32-3.4-4.38,1.18-5.86,5.38-4.82,9.27.73,2.71,3.37,8.12,9.49,6.47,1.67-.45,3.69-1.81,4.56-3.01l.29-.3Z"/><path class="w" d="M267.27,51.4c-5.85.77-11.19-3.32-11.95-9.1s3.32-11.19,9.17-11.96,11.12,3.33,11.89,9.18-3.33,11.12-9.11,11.88ZM268.01,91.68l-.14.02c-.79.1-1.44-.46-1.62-1.24l-6.37-34.53c-.11-.86.37-1.57,1.22-1.76l14.18-2.6.14-.02c.71-.09,1.44.46,1.54,1.18l6.38,34.6.02.14c.09.71-.46,1.44-1.17,1.61l-14.18,2.6Z"/><path class="w" d="M297.69,51.31c-5.86-.69-10.02-5.97-9.34-11.76s5.97-10.02,11.84-9.33c5.79.69,9.95,5.96,9.26,11.83-.69,5.79-5.96,9.95-11.76,9.27ZM288.48,90.53l-.14-.02c-.79-.09-1.28-.8-1.26-1.6l2.33-35.04c.1-.86.75-1.43,1.62-1.4l14.39.98.14.02c.71.08,1.28.8,1.2,1.52l-2.34,35.11-.02.14c-.08.71-.8,1.28-1.53,1.27l-14.39-.98Z"/></g><g id="k"><path class="w" d="M61.2,42.22c-.66,2.56-3.22,3.29-5.57,2.68s-4.95-2.64-4.02-6.24c.81-3.14,3.52-4.72,6.65-4.96l.38-1.49-3.09-.7c-.23-.06-.39-.3-.33-.53l.78-3.34v-.02c.07-.23.32-.34.56-.3l3.13.73c.14-.56.23-.98.29-1.21.07-.28.18-.5.6-.39l3.77.97c.39.1.46.54.39.79l-.24.93,1.45.35h.05c.23.07.36.33.31.54l-.8,3.31c-.06.23-.3.39-.56.35l-1.54-.37c-.1.37-.16.73-.26,1.1,5.18,1.83,7.53,6.47,6.52,10.4-.65,2.51-2.52,4.11-3.08,3.97-.35-.09-2.93-2.29-3.08-2.4-.14-.11-.2-.27-.16-.44.02-.07.06-.13.13-.21.45-.4.9-1.28,1.12-2.14.65-2.53-1.14-3.94-2.61-4.59l-.75,3.13-.02.09ZM57.27,38.04c-.79.09-1.59.39-1.82,1.32-.22.84.41,1,.48,1.02.35.09.76-.08.89-.57l.45-1.77ZM69.93,38.22c-.14.06-.25.09-.34.06-.12-.03-.21-.13-.3-.28-.53-1.13-1.81-3.76-2.35-4.84-.03-.08-.06-.16-.03-.26s.1-.2.26-.25l2.69-1.19c.14-.06.22-.09.34-.06.56.14,3.29,4.27,3.1,4.99-.03.12-.11.22-.28.3l-3.1,1.53Z"/><path class="w" d="M80.26,47.02c-.4-.1-.44-.31-.31-.84l1.25-5.08c-.38.43-.74.88-1.09,1.31-.14.16-.28.25-.49.2-.12-.03-.27-.12-.4-.27-.56-.53-1.68-1.43-2.26-1.96-.24-.23-.26-.46-.22-.62.06-.26,2.15-2.51,3.56-3.82q-2.25-1.79-2.17-2.12c.02-.07.06-.16.13-.22l2.42-2.22c.16-.16.34-.26.59-.2.33.08,1.3.66,2.07,1.15l.95-3.87c.07-.28.36-.46.64-.39l3.78.93c.28.07.46.36.39.64l-.65,2.66c.79.02,1.53.13,2.25.3,4.22,1.04,6.88,4.7,5.72,9.73-.41,1.65-.2,3.14.65,4.41.09.15.29.44.21.74-.03.14-.14.26-.31.37-.01.05-2.61,1.46-2.61,1.46-.26.16-.49.18-.67.13-.79-.19-3.88-2.53-2.77-7.35.73-3.08-.35-4.51-2.01-4.92-.51-.13-1.05-.14-1.63-.1l-2.51,10.31c-.11.44-.4.64-.85.53l-3.64-.89Z"/><path class="w" d="M101.79,48.95c-.34,0-.61-.25-.68-.6-.16-.82,1.57-11.91,3.29-18.31.15-.62.26-.83.58-.89.07-.01.14-.03.24-.02l3.86.14c.32.01.59.15.65.44,0,.05,0,.15,0,.22-.68,3.19-1.42,6.85-1.99,9.97.66-.52,1.89-1.12,3.25-1.38,1.91-.37,4.1-.06,5.42,2.11.57.94,1.16,1.1,1.73.99.33-.06.64-.22.96-.36.16-.08.29-.13.41-.15.16-.03.29,0,.45.18.32.4,1.63,2.5,1.72,2.94.05.28.02.61-.39.91-1.24.92-2.56,1.67-3.86,1.92-1.67.32-3.3-.24-4.59-2.51-.62-1.05-1.49-1.4-2.43-1.22-1.77.34-3.67,2.54-4.05,4.99-.05.23-.22.63-.6.7-.05,0-.1,0-.15,0l-3.82-.05Z"/><path class="w" d="M136.1,46.55c-.09.59-.33.84-.72.93-1.66.38-9.43.65-12.03-10.77-.49-2.15-.72-4.56-.71-7.22.02-.33.03-.72.62-.85.07-.02.15,0,.22-.03l4.12-.4c.36-.03.57.14.65.47.02.07.03.14.02.22.05,1.93.22,4.21.7,6.31.92,4.05,2.93,7.55,7.05,7.26.31-.02.63.08.7.36.02.07,0,.15,0,.22l-.6,3.51ZM131.85,32.48l-.19.04c-.35.08-.57,0-.69-.24l-.99-1.84c-.05-.11-.09-.2-.11-.27-.07-.3.12-.45.39-.56l1.79-.68.07-.02c.35-.08.68.19.82.48l.88,1.79c.04.06.06.13.07.2.06.28-.07.46-.5.61l-1.54.47ZM136.81,31.55c-.09.14-.22.22-.34.25-.16.04-.33-.02-.5-.13l-2.01-1.36c-.15-.11-.22-.22-.24-.31-.04-.19.07-.36.17-.46l1.07-1.25c.12-.13.23-.2.37-.23.19-.04.4,0,.59.11l1.78,1,.08.03c.17.11.27.21.3.35s-.02.33-.16.5l-1.11,1.51Z"/><path class="w" d="M141.04,40.39c-.26,0-.6-.24-.6-.55v-4.37c0-.29.31-.53.58-.53l16.3.02c.26,0,.58.24.58.55v4.34c0,.29-.31.5-.58.5l-16.27.02Z"/></g><g id="l"><path class="w" d="M315.12,34.33c-6.59-16.28-11.84-17.56-12.45-17.66l-.14.03.03-.04c-4.77,0-6.4,8.33-6.41,8.42l-.4,2.23-2.1-.86c-12.49-5.13-23.85-.08-23.97-.03l-2.13.97-.43-2.3c-1.41-7.62-5.41-8.35-5.97-8.42-4.54.31-10.2,10.94-12.72,17.62l-3.43-1.29c.07-.19,1.83-4.82,4.55-9.56,3.89-6.78,7.78-10.28,11.55-10.43h.06s.06,0,.06,0c.28,0,6.51.29,9.01,9.3,3.91-1.3,12.81-3.4,22.84.02,1.01-3.3,3.65-9.29,9.45-9.32.62-.02,2.65.14,5.43,2.59,3.64,3.21,7.19,9.05,10.56,17.36l-3.39,1.38ZM302.73,16.66h0Z"/><g id="m"><path class="w" d="M301.22,19.76c-.87,1.01-1.95,2.89-2.34,6.19,0,0,4.94.69,8.85-.35,0,0-1.61-4.14-3.73-5.94-.84-.71-2.06-.74-2.78.1Z"/><path class="w" d="M261.94,19.75c.87,1.01,1.95,2.89,2.34,6.19,0,0-4.94.69-8.85-.35,0,0,1.61-4.14,3.73-5.94.84-.71,2.06-.74,2.78.1Z"/></g></g><g id="n"><path class="t" d="M188.01,110.72l-.16.88c-.07.33-.24.4-.53.37l-8.11-1.3c-.29-.04-.41-.2-.37-.51v-.07s.09-.43.09-.43l-2.01-1.3c-.15-.12-.26-.27-.23-.44.01-.1.07-.21.19-.32.64-.64,1.35-1.45,2-2.24l-.94.32c-.05.02-.1.01-.17,0-.12-.02-.28-.08-.34-.21l-.29-.96-.26,2.43c-.04.33-.25.6-.63.55l-.91-.09-.35,3.34.93-.46c.05-.04.13-.03.22-.02s.21.05.27.15l.9,1.45c.04.08.05.15.04.25-.02.14-.11.3-.24.36l-1.27.69c-.08.04-.18.05-.25.04-.14-.02-.28-.08-.32-.19l-.44-.9-.76,7.14c-.05.4-.43.74-.8.75l-3.41-.02h-.1c-.4-.06-.65-.41-.61-.74l.57-5.27-2.37-.62c-.26-.08-.37-.31-.34-.53v-.07s1.4-4.06,1.4-4.06c.07-.18.27-.26.49-.23h.1s1.25.46,1.25.46l.21-2.03-1.55-.17c-.48-.06-.64-.28-.62-.64l.24-2.65v-.05c.06-.4.32-.54.6-.5l1.5.17.44-4.01c.05-.36.31-.57.65-.52l4.05.66c.33.04.54.33.49.69l-.4,3.72.77.07c.14.02.28.08.39.19.04-.12.12-.2.27-.26l1.27-.32c.05-.02.1-.01.15,0,.12.02.23.08.29.21l.49,1.1c.43-.55.81-1.08,1.09-1.51l-2.42-.55c-.31-.06-.43-.2-.4-.49l.02-.12.53-2.23c.06-.26.2-.43.53-.39h.07s4.12.87,4.12.87c.64.13,1.12.48,1.43.91l2.12-.87c.1-.04.2-.05.29-.03.17.02.32.11.4.29l.62,1.41,1.31-.61s.07-.01.12,0c.1.01.19.05.25.13l.75,1.35c.02.05.03.13.02.2-.01.09-.05.19-.13.23l-1.43.76.41.97,1.03-.5c.05-.02.1-.04.15-.03.07,0,.18.07.22.15l.66,1.29c.04.05.03.13.02.2-.01.09-.05.19-.13.23l-1.13.53.86,1.97c.05.15.08.3.06.44-.03.21-.15.42-.35.49l-2.6,1.05ZM175.94,121.18c-.38-.05-.5-.23-.46-.54l.29-2.29c.04-.33.23-.45.56-.41l1.62.21-.11-.69c-.01-.07,0-.12,0-.19.02-.19.14-.32.36-.34l1.95-.09h.09c.21.04.37.18.37.33l.14,1.37,1.67.21.32-1.17c.05-.21.22-.36.45-.33h.05s4.14.97,4.14.97c.23.05.45.27.42.51v.07s-.26.65-.26.65l1.07.14c.33.04.51.19.47.52l-.31,2.26c-.04.33-.23.5-.59.46l-12.23-1.63ZM177.87,116.08c-.52-.07-.81-.27-.73-.94l.34-2.86c.06-.48.38-.68.85-.62l8.96,1.07c1.26.16,2.17.86,1.99,2.26l-.02.14-.27,1.56c-.09.54-.47.84-1.02.77l-10.11-1.38ZM184.55,104.06c-.55,1.28-1.46,2.69-2.49,4.14l4.03.63-1.55-4.77ZM184.21,114.54v-.05c.05-.33-.12-.55-.57-.61l-2.12-.27-.14,1.29,2.66.36.16-.73Z"/><path class="t" d="M215.69,121.21l-3.01.32.16.9v.05c.06.33-.09.65-.46.73l-4.05,1h-.07c-.31.06-.54-.05-.59-.33l-.33-1.77-3.18.35c-.41.04-.55-.11-.61-.51l-.32-2.5c-.06-.38.09-.52.4-.57h.1s2.94-.35,2.94-.35l-.28-1.46-3.09.58h-.07c-.36.07-.5-.06-.58-.41l-.4-1.93-.44.43c-.06.06-.15.1-.23.11-.17.03-.32-.02-.38-.11l-.74-.88,1.53,8.68c.06.4-.21.83-.56.94l-3.45.95h-.09c-.4.08-.74-.19-.79-.52l-.96-5.34-2.47.07c-.27,0-.44-.2-.48-.41v-.07s.19-4.28.19-4.28c.02-.2.19-.32.41-.36h.1s1.38.09,1.38.09l-.37-2.06-1.63.3c-.43.07-.67-.09-.73-.45l-.48-2.62c-.07-.43.12-.65.43-.7l1.51-.29-.64-3.64c-.05-.33.1-.62.43-.67h.05s4.24-.53,4.24-.53c.36-.03.61.17.67.53l.59,3.33.99-.18c.31-.05.63.12.68.48l.41,2.63c.05.33-.07.64-.45.7l-1.09.19.34,1.84.83-.76c.04-.06.13-.07.21-.08.12-.02.24-.01.33.07l1.25,1.16,1.28-.22-1.19-2.63s-.04-.09-.05-.14c-.03-.17.08-.28.33-.37l2.15-.87s.09-.04.14-.05c.21-.03.4.08.47.22l1.35,3.21,1.01-.21.14-3.45c.02-.2.12-.33.31-.36.05,0,.1,0,.15,0h3.81c.24,0,.45.23.49.47,0,.02-.01.08,0,.12l-.36,2.36,1.84-.36c.33-.05.49.04.57.4l.57,2.7v.07c.06.33-.08.52-.39.57l-3.85.72.36,1.86,3.37-.38c.36-.03.5.07.54.38v.1s.3,2.63.3,2.63c.03.36-.07.5-.4.55h-.1ZM213.65,107.65l-11.31,1.33c-.34.03-.58-.13-.63-.44l-.36-3.1c-.04-.43.13-.55.44-.6l2.24-.25-.12-2.19c-.02-.29.12-.48.4-.52h.07s4.62-.32,4.62-.32c.31-.02.59.22.63.48v.07s-.05,1.81-.05,1.81l3.53-.41c.31-.05.59.03.64.34l.38,3.22c.02.31-.14.53-.44.58h-.05Z"/></g><g id="o"><path class="u" d="M36.93,57.54c-5.3-16.02-18.34-13.66-23.33-15.33,0,0,3.78,10.26,14.01,13.07,10.23,2.81,9.32,2.26,9.32,2.26Z"/></g><g id="p"><path class="t" d="M46.89,92.97c-11.49,2.39-23.3-3.83-25.89-16.23-3.02-14.52,6.26-24.33,18.67-26.91,15.58-3.24,24.82,7.56,26.72,16.72,2.86,13.75-9.49,24.34-19.5,26.42ZM51.35,69.53c-.28-1.34-1.99-8.12-9.18-6.62-5.92,1.23-6.57,6.59-5.91,9.76,1.01,4.86,5.5,7.31,9.51,6.48,5.01-1.04,6.41-5.6,5.57-9.62Z"/><path class="t" d="M68.94,90.7c-.83-.23-1.37-.98-1.14-1.81l8.05-36.62c.23-.83,1.05-1.35,1.81-1.14l8.17,1.81c4.07-.14,7.84.3,11.31,1.26,2.36.65,4.57,1.56,6.59,2.65.96.57,1.23,1.24,1,2.07-.08.28-.22.54-.39.86l-4.72,9.23c-.48.91-1.31,1.21-2.14.98-.21-.06-.47-.2-.72-.35-1.01-.65-2.14-1.19-3.32-1.52-.97-.27-1.98-.4-3.17-.43l-5.48,24.93-.04.14c-.21.76-1.01,1.21-1.77,1l-14.02-3.06Z"/><path class="t" d="M153.88,87.6c-.26,1.36-.76,2.19-1.65,2.47-.69.21-5.84.59-10.28-1.58-3.01,2.96-6.47,4.93-9.98,6.01-11.49,3.54-24.11-2.22-27.52-13.3-2.54-8.26-.35-21.97,13.27-26.16,3.44-1.06,7.05-1.34,10.09-.99.26-.61.82-1.01,1.65-1.26l.34-.11,12.22-2.63c1.83-.41,2.59.33,2.84,1.16l.11.34c.96,6.56,1.84,12.84,3.24,17.38,1.27,4.13,2.94,6.86,5.5,7.35.79.13,1.68.31,1.89,1,.04.14.04.37-.02.68l-1.71,9.64ZM131.73,73.4c-.55-1.79-1.05-3.67-1.55-5.78-1.25-1.12-3.4-1.51-5.4-.9-4.34,1.33-5.45,6.27-4.37,9.78,1.19,3.85,4.89,6.33,9.36,4.96,1.31-.4,2.74-1.14,4.11-2.32-.76-1.73-1.49-3.61-2.14-5.74Z"/><path class="t" d="M206.18,82.1c-.87,3.94-.66,7.3,1.63,10.61.34.45.89,1.3.72,2.08-.09.42-.4.8-.97,1.04-.03.14-8.1,3.59-8.1,3.59-.83.41-1.58.46-2.21.32-1.27-.28-11.69-6.49-8.92-19.01l.53-2.39c1.63-7.38-1.27-11.27-6.34-12.69l-6.98,25.23c-.16.7-.93,1.2-1.63,1.04l-.14-.03-13.91-3.81c-.83-.26-1.25-1.01-1.06-1.86l9.99-36.14c.24-.76,1.01-1.25,1.72-1.1l.14.03,7.78,2.16c2.87.04,5.53.34,8.06.9,14.27,3.16,23.17,14.27,20.2,27.7l-.51,2.32Z"/><path class="t" d="M227.81,106.4c.03-.98.67-1.67,1.43-1.88.14-.04.3,0,.44-.04,2.01-.02,3.73-.26,5.26-.67,5.84-1.57,8.35-5.82,8.53-11.83-1.97,1.27-4.22,2.33-6.45,2.92-10.64,2.86-22.6-3.1-26.08-16.04-2.26-8.41,0-19.98,14.68-23.92,3.34-.9,6.71-1.13,9.73-.67,0-.82.59-1.13,1.22-1.3l.35-.09s11.61-2.3,13.23-2.66c1.13-.23,2.07.49,2.35,1.53,3.15,12.28,6.47,24.95,7.26,35.93,1.11,15.51-7.98,24.14-18.83,27.05-4.03,1.08-8.27,1.4-12.35.93-.68-.04-.97-.56-1.12-1.12-.11-.42-.15-.85-.16-1.15l.51-6.99ZM241.67,78.6c-.61-2.82-1.36-5.9-2.2-9.03-1.16-3.19-4.33-4.2-7.32-3.4-4.38,1.18-5.86,5.38-4.82,9.27.73,2.71,3.37,8.12,9.49,6.47,1.67-.45,3.69-1.81,4.56-3.01l.29-.3Z"/><path class="t" d="M267.27,51.4c-5.85.77-11.19-3.32-11.95-9.1s3.32-11.19,9.17-11.96,11.12,3.33,11.89,9.18-3.33,11.12-9.11,11.88ZM268.01,91.68l-.14.02c-.79.1-1.44-.46-1.62-1.24l-6.37-34.53c-.11-.86.37-1.57,1.22-1.76l14.18-2.6.14-.02c.71-.09,1.44.46,1.54,1.18l6.38,34.6.02.14c.09.71-.46,1.44-1.17,1.61l-14.18,2.6Z"/><path class="t" d="M297.69,51.31c-5.86-.69-10.02-5.97-9.34-11.76s5.97-10.02,11.84-9.33c5.79.69,9.95,5.96,9.26,11.83-.69,5.79-5.96,9.95-11.76,9.27ZM288.48,90.53l-.14-.02c-.79-.09-1.28-.8-1.26-1.6l2.33-35.04c.1-.86.75-1.43,1.62-1.4l14.39.98.14.02c.71.08,1.28.8,1.2,1.52l-2.34,35.11-.02.14c-.08.71-.8,1.28-1.53,1.27l-14.39-.98Z"/></g><g id="q"><path class="t" d="M61.2,42.22c-.66,2.56-3.22,3.29-5.57,2.68s-4.95-2.64-4.02-6.24c.81-3.14,3.52-4.72,6.65-4.96l.38-1.49-3.09-.7c-.23-.06-.39-.3-.33-.53l.78-3.34v-.02c.07-.23.32-.34.56-.3l3.13.73c.14-.56.23-.98.29-1.21.07-.28.18-.5.6-.39l3.77.97c.39.1.46.54.39.79l-.24.93,1.45.35h.05c.23.07.36.33.31.54l-.8,3.31c-.06.23-.3.39-.56.35l-1.54-.37c-.1.37-.16.73-.26,1.1,5.18,1.83,7.53,6.47,6.52,10.4-.65,2.51-2.52,4.11-3.08,3.97-.35-.09-2.93-2.29-3.08-2.4-.14-.11-.2-.27-.16-.44.02-.07.06-.13.13-.21.45-.4.9-1.28,1.12-2.14.65-2.53-1.14-3.94-2.61-4.59l-.75,3.13-.02.09ZM57.27,38.04c-.79.09-1.59.39-1.82,1.32-.22.84.41,1,.48,1.02.35.09.76-.08.89-.57l.45-1.77ZM69.93,38.22c-.14.06-.25.09-.34.06-.12-.03-.21-.13-.3-.28-.53-1.13-1.81-3.76-2.35-4.84-.03-.08-.06-.16-.03-.26s.1-.2.26-.25l2.69-1.19c.14-.06.22-.09.34-.06.56.14,3.29,4.27,3.1,4.99-.03.12-.11.22-.28.3l-3.1,1.53Z"/><path class="t" d="M80.26,47.02c-.4-.1-.44-.31-.31-.84l1.25-5.08c-.38.43-.74.88-1.09,1.31-.14.16-.28.25-.49.2-.12-.03-.27-.12-.4-.27-.56-.53-1.68-1.43-2.26-1.96-.24-.23-.26-.46-.22-.62.06-.26,2.15-2.51,3.56-3.82q-2.25-1.79-2.17-2.12c.02-.07.06-.16.13-.22l2.42-2.22c.16-.16.34-.26.59-.2.33.08,1.3.66,2.07,1.15l.95-3.87c.07-.28.36-.46.64-.39l3.78.93c.28.07.46.36.39.64l-.65,2.66c.79.02,1.53.13,2.25.3,4.22,1.04,6.88,4.7,5.72,9.73-.41,1.65-.2,3.14.65,4.41.09.15.29.44.21.74-.03.14-.14.26-.31.37-.01.05-2.61,1.46-2.61,1.46-.26.16-.49.18-.67.13-.79-.19-3.88-2.53-2.77-7.35.73-3.08-.35-4.51-2.01-4.92-.51-.13-1.05-.14-1.63-.1l-2.51,10.31c-.11.44-.4.64-.85.53l-3.64-.89Z"/><path class="t" d="M101.79,48.95c-.34,0-.61-.25-.68-.6-.16-.82,1.57-11.91,3.29-18.31.15-.62.26-.83.58-.89.07-.01.14-.03.24-.02l3.86.14c.32.01.59.15.65.44,0,.05,0,.15,0,.22-.68,3.19-1.42,6.85-1.99,9.97.66-.52,1.89-1.12,3.25-1.38,1.91-.37,4.1-.06,5.42,2.11.57.94,1.16,1.1,1.73.99.33-.06.64-.22.96-.36.16-.08.29-.13.41-.15.16-.03.29,0,.45.18.32.4,1.63,2.5,1.72,2.94.05.28.02.61-.39.91-1.24.92-2.56,1.67-3.86,1.92-1.67.32-3.3-.24-4.59-2.51-.62-1.05-1.49-1.4-2.43-1.22-1.77.34-3.67,2.54-4.05,4.99-.05.23-.22.63-.6.7-.05,0-.1,0-.15,0l-3.82-.05Z"/><path class="t" d="M136.1,46.55c-.09.59-.33.84-.72.93-1.66.38-9.43.65-12.03-10.77-.49-2.15-.72-4.56-.71-7.22.02-.33.03-.72.62-.85.07-.02.15,0,.22-.03l4.12-.4c.36-.03.57.14.65.47.02.07.03.14.02.22.05,1.93.22,4.21.7,6.31.92,4.05,2.93,7.55,7.05,7.26.31-.02.63.08.7.36.02.07,0,.15,0,.22l-.6,3.51ZM131.85,32.48l-.19.04c-.35.08-.57,0-.69-.24l-.99-1.84c-.05-.11-.09-.2-.11-.27-.07-.3.12-.45.39-.56l1.79-.68.07-.02c.35-.08.68.19.82.48l.88,1.79c.04.06.06.13.07.2.06.28-.07.46-.5.61l-1.54.47ZM136.81,31.55c-.09.14-.22.22-.34.25-.16.04-.33-.02-.5-.13l-2.01-1.36c-.15-.11-.22-.22-.24-.31-.04-.19.07-.36.17-.46l1.07-1.25c.12-.13.23-.2.37-.23.19-.04.4,0,.59.11l1.78,1,.08.03c.17.11.27.21.3.35s-.02.33-.16.5l-1.11,1.51Z"/><path class="t" d="M141.04,40.39c-.26,0-.6-.24-.6-.55v-4.37c0-.29.31-.53.58-.53l16.3.02c.26,0,.58.24.58.55v4.34c0,.29-.31.5-.58.5l-16.27.02Z"/></g><g id="r"><path class="t" d="M315.12,34.33c-6.59-16.28-11.84-17.56-12.45-17.66l-.14.03.03-.04c-4.77,0-6.4,8.33-6.41,8.42l-.4,2.23-2.1-.86c-12.49-5.13-23.85-.08-23.97-.03l-2.13.97-.43-2.3c-1.41-7.62-5.41-8.35-5.97-8.42-4.54.31-10.2,10.94-12.72,17.62l-3.43-1.29c.07-.19,1.83-4.82,4.55-9.56,3.89-6.78,7.78-10.28,11.55-10.43h.06s.06,0,.06,0c.28,0,6.51.29,9.01,9.3,3.91-1.3,12.81-3.4,22.84.02,1.01-3.3,3.65-9.29,9.45-9.32.62-.02,2.65.14,5.43,2.59,3.64,3.21,7.19,9.05,10.56,17.36l-3.39,1.38ZM302.73,16.66h0Z"/><g id="s"><path class="t" d="M301.22,19.76c-.87,1.01-1.95,2.89-2.34,6.19,0,0,4.94.69,8.85-.35,0,0-1.61-4.14-3.73-5.94-.84-.71-2.06-.74-2.78.1Z"/><path class="t" d="M261.94,19.75c.87,1.01,1.95,2.89,2.34,6.19,0,0-4.94.69-8.85-.35,0,0,1.61-4.14,3.73-5.94.84-.71,2.06-.74,2.78.1Z"/></g></g></svg>