<?xml version="1.0" encoding="UTF-8"?><svg id="a" xmlns="http://www.w3.org/2000/svg" viewBox="0 0 1680.97 901.62"><defs><style>.e{fill:#000;}.e,.f,.g{stroke-width:0px;}.f{fill:#fbac18;}.h{stroke:#231f20;}.h,.i{fill:none;stroke-linecap:round;stroke-linejoin:round;stroke-width:220px;}.i{stroke:#fff;}.g{fill:#28397f;}</style></defs><path id="b" class="h" d="M848.68,157.8q-7.01,5.61-9.85,7.71c-9.52,7.48-15.8,17.33-17.46,29.46-.15,5.05-.07,10.02.15,15.07.04,1.73.08,3.46.12,5.24.1,4.22.24,8.42.41,12.64,1.33.43,2.66.87,4.03,1.31q4.38,1.49,7.19,2.89c-1.48,4.77-2.82,8.43-5.61,12.62-4,.32-7.83.44-11.83.44-16.72.53-26.98,6.33-38.68,18.41-21.9,23.89-33.51,56.99-46.25,86.33-6.94.46-13.88.93-21.03,1.4-.48,1.46-.96,2.91-1.46,4.41-1.8,5.46-3.61,10.93-5.43,16.39-.78,2.35-1.56,4.7-2.33,7.06q-7.81,23.67-12.05,33.83-3.93,8.83-5.31,18.23c2.12,4.47,5.72,6.17,9.84,8.78,1.55.99,3.1,1.98,4.69,3,1.2.74,2.4,1.49,3.63,2.26-.78,7.85-2.17,14.84-4.82,22.26-.28.9-.55,1.8-.84,2.73-2.37,6.63-5.67,10.25-10.9,14.94-9.27,8.83-12.48,19.04-16.48,30.88-.73,2.08-1.47,4.15-2.2,6.22-1.34,3.76-2.65,7.52-3.94,11.3q-1.48,4.22-2.88,7.02-3.16.53-7.01.79-4.64-.04-8.41,2.02c-.32,2.47-.56,4.96-.76,7.45-.13,1.59-.26,3.18-.4,4.82-.14,1.74-.27,3.47-.42,5.26-.3,3.65-.6,7.3-.91,10.95-.47,5.78-.94,11.55-1.4,17.33-.45,5.56-.91,11.12-1.37,16.68-.13,1.72-.27,3.43-.41,5.2-.72,8.61-1.91,16.52-4.16,24.85-.12,2.14-.21,4.29-.21,6.43-.53,5.31-1.89,7.55-5.89,11.07-1.97,1.51-3.97,2.98-5.99,4.42-3.95,2.94-7.87,5.91-11.74,8.94-.83.64-1.67,1.29-2.53,1.95-15.19,13.29-22.02,38.04-29.64,56.24-2.07,4.94-4.15,9.88-6.22,14.81-.53,1.26-1.05,2.51-1.6,3.81-3.25,7.72-6.57,15.4-9.95,23.06-2.21,5-4.4,10.01-6.58,15.02-1.04,2.37-2.09,4.73-3.15,7.08q-10.75,23.38-10.92,48.51c.7,4.97-1.19,7.46-3.68,11.75-.89,1.56-1.78,3.12-2.7,4.72-.96,1.63-1.91,3.26-2.87,4.89-.95,1.66-1.91,3.31-2.86,4.97-2.33,4.05-4.68,8.09-7.05,12.12h70.12q0-18.12.44-24.89c.08-1.44.16-2.88.25-4.36,1.73-10.63,7.18-17.69,13.78-25.88,1.78-2.24,3.55-4.48,5.32-6.73.91-1.14,1.81-2.28,2.75-3.45,4.24-5.34,8.43-10.73,12.61-16.12.81-1.04,1.62-2.09,2.46-3.16,6.25-8.04,12.45-16.13,18.62-24.23,5.61-7.35,11.27-14.66,16.95-21.95.82-1.06,1.65-2.12,2.5-3.21q6.3-8.09,9.08-11.65c.62-.8,1.25-1.59,1.89-2.42.53-.68,1.06-1.35,1.6-2.05,11.89-15.4,22.15-30.11,29.81-48.08.77-1.76,1.53-3.51,2.3-5.27,1.61-3.68,3.21-7.37,4.8-11.06,2.46-5.7,4.94-11.38,7.44-17.06,3.31-7.53,6.61-15.07,9.9-22.61.4-.91.79-1.82,1.2-2.75,2.34-5.36,4.67-10.72,7-16.09,1.77-4.07,3.54-8.13,5.31-12.2.64-1.48,1.27-2.95,1.93-4.47.59-1.34,1.17-2.68,1.77-4.06.51-1.17,1.01-2.34,1.54-3.54,2.11-4.19,3.46-5.46,8.08-6.51,6.12,1.18,7.1,3.65,10.6,8.55,4.56,6.82,8.75,13.86,12.98,20.9q18.19,33.4,45.31,58.28c1.1.56,2.19,1.12,3.32,1.7.81.39,1.63.78,2.47,1.19-.84,5.49-2.52,9.61-5.18,14.47-.77,1.41-1.54,2.82-2.33,4.27-.82,1.48-1.64,2.96-2.48,4.49q-1.24,2.29-2.51,4.63-6.88,12.61-10.27,17.63c-10.56,15.77-12.24,35.59-15.33,53.95-3.39,20.03-7.79,39.04-14.08,58.35-2.56,8.08-4.61,16.3-6.71,24.51-.28,1.02-.57,2.03-.86,3.08-2.53,9.23-3.36,18.07-4.75,27.77h119.2c.46-4.16.93-8.33,1.4-12.62-.94-.21-1.88-.41-2.84-.62-4.69-1.1-9.33-2.32-13.98-3.58-.98-.25-1.95-.5-2.96-.75-14.42-3.79-22.8-7.35-30.62-20.55-1.66-4.41-1.88-5.31-.08-9.54,1.83-1.82,3.67-3.62,5.6-5.33,11.1-9.89,16.06-20.23,21.22-33.93.86-2.18,1.72-4.36,2.59-6.53,1.86-4.67,3.69-9.34,5.51-14.03,4.69-12.01,9.63-23.91,14.53-35.83,1.59-3.88,3.17-7.75,4.76-11.63,5.44-13.34,10.92-26.66,16.61-39.89.44-1.03.88-2.06,1.33-3.13.39-.9.77-1.8,1.17-2.73,2.08-5.44,2.63-10.3,2.66-16.11.02-1.35.04-2.7.06-4.09-.89-13.37-4.92-23.53-11.28-35.27-.81-1.52-1.62-3.05-2.45-4.62-6.15-11.5-12.52-22.88-18.99-34.21-6.45-11.3-12.66-22.72-18.8-34.19q-7.51-15.22-17.71-28.52c-3.67-3.76-3.45-6.52-3.66-11.7-.08-1.72-.16-3.45-.24-5.22-.17-7.87-.23-15.74-.12-23.61.79.13,1.58.25,2.39.38,4.05.18,6.5-.14,10.23-1.79,4.59-6,7.46-12.78,10.52-19.63.9-1.93,1.81-3.87,2.72-5.79,1.36-2.87,2.71-5.75,4.04-8.63,3.96-8.57,8.38-16.83,13.08-25.01q2.66-4.76,3.04-10.07-1.13-2.57-3.43-5.09-1.93-2.89-2.02-6.22c2.05-5.06,5.14-9.29,9.9-12.1,8.16.06,15.74,6.38,22.39,10.63,8.4,4.99,14.39,5.56,23.89,3.39q4.14-1.09,7.54-2.63c1.11-.46,2.22-.92,3.36-1.39,6.45-3.28,9.37-6.17,12.04-12.96.55-1.38,1.1-2.76,1.67-4.18.55-1.44,1.11-2.87,1.68-4.35q.86-2.18,1.75-4.4c1.42-3.58,2.82-7.17,4.21-10.76h4.21c1.6,5.98,2.8,10.61,2.8,16.83,13.88-3.24,27.77-6.48,42.07-9.82q-1.01-8.74-2.77-17.13c-.25-.99-.5-1.98-.75-3-.52-2.01-1.04-4.01-1.57-6.01-2.68-10.75-3.12-18.47,2.28-28.54.88-3.67,1.64-7.25,2.28-10.96q1.77-9.92,3.33-11.48c3.58-.13,7.13-.18,10.71-.16q1.68,0,3.4,0c3.73,0,7.45.01,11.18.02,2.58,0,5.15,0,7.73,0,6.79,0,13.59.02,20.38.03,6.93.01,13.85.02,20.78.03,13.6.02,27.2.04,40.81.07v-22.44h44.87v-11.22h-44.87c-.46-5.55-.93-11.11-1.4-16.83l-5.61,1.4c-1.85,3.24-3.7,6.48-5.61,9.82h-197.73v-8.41q6.25-.69,12.62-1.4c.94-4.09,1.88-8.18,2.8-12.27.27-1.16.54-2.31.81-3.51q.38-1.68.77-3.4c.24-1.03.47-2.06.71-3.12q.68-3.38.51-8.56c-1.04-.55-2.08-1.1-3.16-1.67-4.95-3.26-5.77-6.34-7.95-11.7-8.04-18.34-21.41-26.84-39.38-34.31v-1.4"/><path class="h" d="M170.86,648.87c-18.88-17.12-29.94-30.07-32.3-40.69-3.95-17.81,13.44-29.53,33.75-34.04l1.87-.42c1.87-.42,6.14-3.33,5.04-8.33-.14-.62-.35-1.56-.87-2.43l-21.19-43.81c-3.33-6.14-9.86-6.01-22.04-3.3-52.48,11.65-102.55,51.93-91.59,101.29,3.4,15.31,12.9,31.56,30.01,48.08,22.69,22.5,30.4,30.62,32.68,40.93,4.37,19.68-16.26,36.06-37.5,40.77l-1.25.28c-1.87.42-6.21,3.02-5.17,7.7.14.62.35,1.56.8,2.12l20.71,44.57c1.84,3.85,6.35,6.46,10.41,5.56,3.19-.38,6.01-1,9.13-1.7,54.05-11.99,109.42-56.4,97.91-108.26-3.47-15.62-12.97-31.87-30.39-48.33Z"/><path class="h" d="M351.81,629.45l-21.19-6.35c4.04-12.85,8.23-26.33,11.97-39.26,1.26-5.29-.49-9-5.71-10.57l-58.17-16.79-1.25-.3c-8.09-1.92-10.12,3.84-11.32,7.51-4.12,13.17-7.77,25.78-11.21,37.46l-19.63-5.98c-3.74-.89-7.2,1.25-8.33,4.6l-16.02,50.79c-.81,3.43,1.25,7.2,4.6,8.33l23.05,6.8c-17.17,79.14-6.25,110.68,41.51,132.56.86.53,1.79.76,2.73.98,4.67,1.11,8.21-1.34,12.11-6.66l25.52-35.38c.53-.86,1.07-1.72,1.21-2.34.81-3.42-2.63-5.56-5.68-7.93-12.29-9.17-10.92-31.54-4.18-59.87l20.33,5.82.62.15c3.42.81,6.58-1.4,7.63-4.43l16.02-50.79c.89-3.74-1.17-7.52-4.6-8.33Z"/><path class="h" d="M474.52,666.51c1.28.31,2.57.62,3.53.61,3.84-.03,7.02-2.29,7.95-6.78l8.96-45.19c.31-1.6.62-2.89.61-4.16-.03-3.84-1.97-6.39-6.77-7.63-9.94-2.17-20.51-3.37-31.39-3.29-16,.11-32.62,2.79-49.86,8.36l-37.11,2.19c-3.52.03-6.38,3.25-6.35,7.09l10.16,166.34c.03,3.84,3.25,6.38,7.09,6.35l63.65-3.98c3.52-.03,6.38-2.93,6.35-6.45v-.64s-6.9-113.24-6.9-113.24c5.11-1.32,9.59-1.99,14.07-2.02,5.44-.04,10.89.88,16.02,2.45Z"/><path class="h" d="M542.84,745.91c.57-1.29,1.12-2.55,1.67-3.81,2.17-4.94,4.34-9.87,6.51-14.81,7.8-17.84,14.83-41.97,30.06-55.43l12.64-39.6c1.13-2.99-.55-6.7-3.55-7.83l-.6-.23-61.02-19.56c-3.71-1.05-7.12.74-8.47,4.33l-47.44,148.66c-.94,3.41.44,7,3.73,8.25l.6.23,49.51,15.87c1.98-4.34,3.96-8.67,5.96-13,3.54-7.66,7.01-15.34,10.41-23.06Z"/><path class="h" d="M618.18,563.22c.15-1.79.29-3.53.44-5.26.14-1.64.28-3.23.42-4.82.17-2.02.38-4.04.63-6.05-4.4-12.82-14.24-23.62-27.83-28.74-24.56-9.25-51.77,3.07-61.02,27.63-9.14,24.26,3.18,51.47,27.74,60.72,22.09,8.32,46.62-1.16,57.73-21.24.32-3.76.63-7.52.95-11.28.32-3.65.63-7.3.95-10.95Z"/><path class="h" d="M1047.58,712.28c20.25-8.38,39.47-16.23,47.84-19.16,4.03-1.48,6.25-4.14,6.61-7.32.21-1.91-.21-3.89-1.27-5.94l-21.64-45.87c-2.09-4.42-4.81-6.01-7.35-6.29-13.99-1.55-73.21,33.09-87.38,41.82l7.99-135.95c.07-3.53-2.16-6.68-5.66-7.07l-.64-.07-63.96-3.87c-3.22-.03-6.4,2.51-6.75,5.69l-.07.64-4.25,71.76c3.2,5.5,6.35,11.02,9.45,16.57.87,1.57,1.72,3.1,2.57,4.62,6.65,11.73,10.86,21.9,11.79,35.27-.02,1.39-.04,2.74-.06,4.09-.04,5.82-.61,10.67-2.78,16.11-.42.93-.82,1.83-1.22,2.73-.47,1.06-.93,2.1-1.39,3.13-5.94,13.24-11.68,26.55-17.36,39.89-1.65,3.88-3.31,7.76-4.97,11.63-1.52,3.54-3.05,7.09-4.57,10.63l-2.66,44.9c-.11,3.85,2.79,6.75,6.29,7.14l64,3.56c3.82.42,6.71-2.48,7.14-6.29l3.17-54.7,2.01-.74c6.71-2.48,22.23-8.8,39.47-16.23l-26.68,25.7c-1.8,1.73-2.61,3.25-2.79,4.84-.32,2.86,1.31,5.62,3.08,7.1,15.09,11.98,52.13,40.88,68.36,54.27,1.77,1.48,3.6,2.33,5.2,2.51,3.18.35,5.94-1.27,8.87-4.49l29.54-34.07c1.87-2.37,2.72-4.21,2.93-6.11,1.31-11.77-41.36-50.95-62.84-60.42Z"/><path class="h" d="M1291.93,670.58c-2.7-10.21-24.19-77.68-100.91-57.38-70.53,18.66-89.5,73.33-77.8,117.57,12.44,47.02,60.39,85.65,130.62,67.07l3.71-.98c8.97-2.37,11.85-7.77,13.01-13.37,1.86-11.75,4.34-34.91,3.52-38-1.39-5.26-7.39-6.65-11.72-5.51l-.62.16c-2.08.88-4.56,1.54-6.72,2.11-38.67,10.23-61.31-10.26-67.12-32.23-5.07-19.18,3.86-35.45,18.71-39.38,12.99-3.44,21.49,4.91,22.23,7.69,1.15,4.33-.86,5.52-15.96,13.49-3.78,1.99-5.84,4.19-4.94,7.6.33,1.24,11.52,19.79,17.94,29.02,2.22,3.38,4.34,5.14,9.29,3.83,15.92-4.87,37.92-14.33,51.15-23.13,16.61-11.02,19.38-24.33,15.62-38.56Z"/><path class="h" d="M334.43,252.28c1.24-2.95,1.13-6.81-.31-9.16-13.02-19.38-35.18-36-61.43-47.06-69.89-29.44-153.73-17.54-191.38,71.82-31.56,74.91,6.15,151.91,73.68,180.36,35.39,14.91,78.93,16.24,125.03-2.54,4.61-1.88,6.91-4.03,8.03-6.69.87-2.06.85-4.5.54-7.06l-5.47-48.84c-.19-2.86-2.68-5.99-5.63-7.23-1.47-.62-3.49-.78-5.17-.09-26.9,11.93-54.05,11.26-74.7,2.56-30.96-13.05-48.76-44.16-34.1-78.95,15.16-35.98,46.38-49.91,83.53-34.26,16.81,7.08,31.21,19.05,37.87,28.8.64.96,1.69,1.75,2.87,2.25,3.24,1.37,7.31-.04,9.19-2.03l36.14-39.64c.67-.76.92-1.35,1.29-2.24Z"/><path class="h" d="M404.79,288.95c-56.32,0-105.6,34.24-105.6,100.16,0,56.32,45.76,94.08,97.92,94.08,45.44,0,108.8-34.88,108.8-97.28,0-41.6-30.4-96.96-101.12-96.96ZM404.79,422.07c-18.24,0-35.52-14.72-35.52-36.8,0-14.4,7.68-37.12,34.56-37.12,32.64,0,33.92,31.04,33.92,37.12,0,18.24-10.24,36.8-32.96,36.8Z"/><path class="h" d="M676,442.92c-1.67-1.02-3.29-2.01-4.91-3-4.31-2.6-8.07-4.31-10.28-8.78q1.44-9.4,5.55-18.23,4.44-10.16,12.6-33.83c.81-2.35,1.62-4.71,2.44-7.06,1.89-5.46,3.79-10.92,5.67-16.39.52-1.5,5.02-13.96,5.52-15.41,7.48-.48,15.48-.94,22.73-1.4,2.44-5.37.09.14,2.52-5.4l-9.76-56.02c-.85-3.74-4.06-6.29-7.81-5.44l-62.87,10.73c-3.43.78-5.98,3.99-5.44,7.81l18.87,108.61c-6.95,5.52-13.94,9.42-20.17,10.84-13.1,2.99-24.6-4.23-31.97-30.78-10.34-36.7-14.81-53.41-21.45-73.88-1.17-3.67-4.37-6.22-10.61-4.8-5.3,1.21-52.88,15.67-53.05,16.37-3.67,1.17-7.47,4.66-4.55,17.45,4.87,19.9,14.32,58.44,19.88,78.51,16.05,57.39,55.29,74.04,98.66,64.14,13.73-3.13,27.82-8.97,41.73-17.07l8.22-1.4c1.07-4.31,1.79-8.66,2.27-13.31-1.29-.77-2.54-1.51-3.8-2.26Z"/><path class="h" d="M977.25,389.46l-16.41,73.84c-.64,3.79,1.41,7.05,5.14,8l62.58,13.78.63.11c3.16.53,6.47-1.83,7.01-4.99l25.28-113.54c22.82,5.14,36.58,21.73,31,54.87l-1.81,10.73c-9.46,56.17,38.22,81.4,43.9,82.35,2.84.48,6.16.06,9.74-1.93,0,0,35.01-17.15,35.12-17.78,2.47-1.21,3.74-2.94,4.06-4.83.58-3.47-2.04-7.16-3.67-9.05-10.92-14.17-12.63-29.06-9.66-46.73l1.75-10.41c10.15-60.27-31.86-107.58-95.92-118.37-10.53-1.77-21.52-2.49-33.21-2.23-.42,1.95-.88,3.9-1.37,5.88-5.64,10.07-5.19,17.79-2.39,28.54.55,2,1.1,4.01,1.64,6.01.27,1.02.53,2.01.79,3,1.84,8.4,2.81,18.6,3.87,27.33l-68.08,15.42Z"/><path class="h" d="M1324.75,345.97l-21.14-6.51c4.14-12.82,8.43-26.27,12.25-39.17,1.3-5.28-.43-9-5.63-10.61l-58.05-17.22-1.24-.31c-8.08-1.98-10.15,3.77-11.38,7.42-4.21,13.13-7.96,25.72-11.48,37.38l-19.58-6.13c-3.73-.92-7.21,1.19-8.36,4.54l-16.4,50.67c-.84,3.42,1.19,7.21,4.54,8.36l23,6.97c-17.75,79.01-7.06,110.63,40.53,132.86.86.54,1.79.77,2.72,1,4.66,1.14,8.22-1.28,12.16-6.57l25.77-35.19c.54-.86,1.08-1.71,1.23-2.33.84-3.42-2.58-5.58-5.62-7.97-12.23-9.26-10.69-31.62-3.75-59.9l20.28,5.97.62.15c3.42.84,6.59-1.35,7.67-4.38l16.4-50.67c.92-3.73-1.12-7.52-4.54-8.36Z"/><path class="h" d="M1436.42,319.83c-72.96,0-105.28,48-105.28,93.76,0,48.64,36.48,98.24,109.12,98.24h3.84c9.28,0,13.44-4.48,16-9.6,4.8-10.88,13.12-32.64,13.12-35.84,0-5.44-5.44-8.32-9.92-8.32h-.64c-2.24.32-4.8.32-7.04.32-40,0-56.64-25.6-56.64-48.32,0-19.84,12.8-33.28,28.16-33.28,13.44,0,19.52,10.24,19.52,13.12,0,4.48-2.24,5.12-18.88,8.96-4.16.96-6.72,2.56-6.72,6.08,0,1.28,6.08,22.08,9.92,32.64,1.28,3.84,2.88,6.08,8,6.08,16.64-.64,40.32-4.16,55.36-9.28,18.88-6.4,24.96-18.56,24.96-33.28,0-10.56-3.52-81.28-82.88-81.28Z"/><path class="h" d="M1652.58,316.46c-.65-3.78-2.98-5.98-7.93-6.43-10.16-.52-20.78.02-31.5,1.87-15.77,2.72-31.73,8.07-47.83,16.38l-36.25,8.21c-3.47.6-5.76,4.24-5.11,8.03l37.14,162.45c.65,3.78,4.24,5.76,8.03,5.11l62.15-14.3c3.47-.6,5.82-3.93,5.22-7.4l-.11-.63-25.26-110.6c4.83-2.13,9.13-3.52,13.55-4.29,5.36-.93,10.88-.9,16.2-.2,1.32.1,2.63.19,3.58.03,3.78-.65,6.56-3.41,6.74-7.98l1.47-46.04c.04-1.63.14-2.95-.08-4.21Z"/><path class="h" d="M1459.45,837.92c-4.2-1.31-5.94-6.47-4.39-11.43l19.58-62.61c2.03-6.49,5.09-12.24,11.29-11.98,69.75,2.12,119.05-33.6,130.63-70.63,9.07-29.01-4.76-58.49-49.04-72.34-8.02-2.51-17.42-4.61-27.44-6.07-.76-.24-2.41-.34-4.32-.93-4.2-1.31-9.19-4.13-7.8-11.24l11.68-58.79.72-2.29c1.67-5.35,5.39-9.21,9.57-9.16,25.08,1.56,47.29,5.57,66.76,11.66,92.39,28.89,119.83,103.28,100.37,165.5-13.25,42.38-48.12,78.83-99.52,90.41-2.77.81-4.27,1.6-4.63,2.74-.48,1.53,1.46,3.39,3.36,3.99l.38.12,80.41,24.31c4.58,1.43,6.44,6.2,4.77,11.55l-20.77,66.43c-1.67,5.34-6.68,7.97-11.26,6.54l-210.35-65.79Z"/><path class="h" d="M411.14,190.38c-1.25-.56-1.43-1.69-1.26-2.75.11-.71.33-1.28.66-1.84,14.39-20.78,22.21-39.94,22.34-40.77.11-.71-.13-1.48-1.41-1.81l-13.43-3.37c-7.87,17.21-16.87,34.72-25.16,47.73-.78,1.09-2.12,1.85-3.42,1.64l-.36-.06-18.5-5.88c-1.15-.43-1.92-1.65-1.73-2.83.04-.24.18-.34.21-.57,5.32-11.18,13.49-29.55,21.06-47.18l-12.84-3.28c-1.17-.31-1.96-1.41-1.75-2.71l.04-.24,4.25-17.43c.33-1.28,1.55-2.06,2.85-1.85l.24.04,16.26,3.95c3.19-7.75,5.85-14.5,7.56-19.08.41-1.03,1.86-1.77,3.17-1.56l.24.04c4.39,1.43,15.26,4.88,21.07,6.54,1.74.52,2.4,2.45,2.19,3.76-.25,1.54-4.29,12.32-6.17,17.24l28.55,6.89c5.02,1.29,11.37,7.17,10.17,14.63-1.31,8.18-16.35,40.52-35.34,57.4-.55.4-2.02,1.26-3.8.97-.36-.06-.81-.25-1.27-.45l-14.4-7.17Z"/><path class="h" d="M506.52,204.98c-1.13-.62-2.01-1.33-1.88-2.41.06-.48.35-.92.92-1.58,17.34-18.32,32.44-43.07,32.72-45.34.16-1.31-.6-2.01-2.14-2.32l-20.06-4.02-.83-.1c-1.91-.23-2.48.54-2.93,2.18l-2.7,11.28c-.43,1.52-2.05,2.89-3.59,2.71l-.24-.03-22.09-4.26c-1.77-.34-2.94-1.69-2.76-3.12l.04-.36,6.81-29.15c.79-3.53,4.3-5.52,7.99-5.07l.71.09,66.32,13.27c6.37,1.26,12.28,6.33,11.43,13.36-.35,2.86-8.02,32.14-47.37,61.44-.65.4-2.32,1.17-4.22.94-.48-.06-.95-.12-1.52-.43l-14.61-7.1ZM519.53,124c-1.67-.2-2.97-1.45-2.79-2.88l1.91-15.72c.19-1.55,1.91-2.79,3.46-2.6l27.04,3.29c1.79.22,3.04,1.82,2.85,3.37l-1.91,15.72c-.19,1.55-2.21,2.27-3.52,2.11l-27.04-3.29Z"/><path class="h" d="M611.81,144.88c-1.32.96-2.16,1.32-2.88,1.32-.84,0-1.44-.6-2.28-1.44-18-18.36-20.4-20.88-20.4-22.92,0-.6.24-1.08.84-1.44l16.08-10.68c1.08-.84,2.28-1.44,3.48-1.44,3.48,0,25.32,14.64,25.32,20.88,0,.96-.36,1.68-1.32,2.4l-18.84,13.32ZM682.48,161.2c.24.36.24.72.24.96,0,.84-.48,1.68-1.2,2.28-21.6,17.04-44.64,29.04-68.52,36-.36.12-.72.24-1.08.24-.84,0-1.68-.48-2.16-1.32l-11.88-21.24c-.12-.36-.24-.72-.24-1.08,0-.84.48-1.68,1.32-2.16,18.84-7.32,54.96-24.12,69.96-33.48.36-.12.72-.24.96-.24.84,0,1.68.48,2.16,1.32l10.44,18.72Z"/><path class="h" d="M762.56,143.52c-.73,1.73-1.4,2.43-2.2,2.67-.57.17-1.14-.03-1.97-.28-2-.4-6.74-1.97-12.57-3.84-11.86,18.39-23.85,29.29-25.11,29.67-1.15.35-3.16.33-5.1-.71l-13.05-7.08c-.75-.4-1.15-.91-1.33-1.48-.21-.69.09-1.78,1.11-2.97,6.04-6.97,12.37-16.29,17.84-25.97l-13.95-4.67c-1.51-.42-2.89-1.26-3.2-2.29-.1-.34-.09-.72.15-1.17l5.99-12.1c.61-1.31,1.27-2.01,2.42-2.36,2.53-.77,11.79.44,19.24,1.44,3.53-8.21,4.59-10.92,4.1-12.53-.31-1.03-1.36-1.59-2.89-1.26l-16.69,3.68c-2.42,2.36-16.39,16.25-21.22,17.71-1.03.31-2.06.25-3.06-.58l-14.77-12.33c-.82-.63-1.14-1.28-1.28-1.74-.31-1.03.09-1.78.87-2.52,10.41-8.67,19.64-21.25,25.31-29.86.43-.63,1.1-1.34,1.9-1.58,1.26-.38,1.53-.34,10.63,6.94l36.24-7.84c4.93-1.12,12.42,1.25,14.57,8.37,1.84,6.09,1,21.51-6.21,39.12,9.09,2.26,12.38,4.02,12.97,5.98.17.57.08,1.1-.2,1.82l-8.54,17.76Z"/><path class="h" d="M795.85,113.43c-1.29.27-3.18-.57-3.5-2.09l-4.43-21.39c-.29-1.41.99-2.9,2.29-3.17l79.81-16.4c1.29-.27,3.06.59,3.38,2.12l4.4,21.27c.29,1.41-1.02,2.78-2.31,3.05l-79.64,16.61Z"/><path class="h" d="M905.2,123.93c-.39-.66-.67-1.3-.59-1.9.13-.95.96-1.68,2.72-2.17,25.9-8.67,47.74-35.34,48.56-41.28.2-1.43-.54-2.25-2.3-2.62l-24.91-5.61c-1.29-.3-2.09-1.5-1.91-2.81l.03-.24,4.48-19.37c.3-1.29,1.5-2.09,2.81-1.91l.24.03,46.92,10.22c5.28,1.21,12,6.98,10.9,14.95-.07.48-.23.82-.3,1.29-6.79,29.11-38.74,60.56-71.99,67.13-1.12.21-2.12.43-3.19.29s-2.07-.77-2.96-2.22l-8.52-13.77ZM976.14,111.89c1-1.07,2.11-1.28,3.18-1.14.95.13,15.21,3.91,28.65,14.48,1.09.88,1.57,1.79,1.44,2.74-.1.71-.55,1.38-1.14,2.14-3.52,4.48-11.33,13.7-15.13,18.39-.73.87-1.49,1.13-2.32,1.01-.71-.1-1.5-.57-2.04-1.01-5.85-5.04-18.35-15.37-23.81-19.75-.87-.73-1.62-1.43-1.49-2.39.07-.48.38-1.04.94-1.57l11.71-12.92Z"/><path class="h" d="M1027.66,173.06c-1.29-.29-2.13-1.47-1.83-2.76l22.47-98.63c.29-1.29,1.59-2.1,2.87-1.81l23.05,5.25c1.29.29,1.98,1.56,1.69,2.85l-9.14,40.13,8-7.04c1.09-.98,2.22-1.09,3.39-.83,3.51.8,21.05,9.72,29.97,17.53,1.13,1,1.53,1.95,1.31,2.88-.24,1.05-.87,1.65-18.36,19.57-.8.8-1.7.97-2.52.78s-1.56-.72-2.06-1.21c-5.02-4.96-15.61-14.14-22.48-19.64l-10.58,46.45c-.29,1.29-1.44,2.01-2.73,1.72l-23.05-5.25Z"/><path class="h" d="M1154.79,187.34c-1.07-.72-2.1-1.68-1.82-2.97.13-.59.46-1.01.96-1.63,10.94-11.52,22.09-28.03,22.62-30.49.33-1.53-.82-1.9-1.5-2.16l-45.19-13.62c-1.15-.37-1.89-1.51-1.63-2.68l.05-.23,5.71-18.04c.37-1.15,1.63-1.86,2.8-1.61l.23.05,65.88,19.54c7.03,2.12,11.07,7.9,9.68,14.35-1.49,6.92-14.15,32.8-38.4,47.97-.71.46-2.46,1.19-4.22.81-.59-.13-1.03-.34-1.57-.7l-13.62-8.57ZM1198.41,121.34c-14.68-3.64-34.35-9.21-46.36-12.16-1.52-.33-2.49-2.13-2.19-3.54l.05-.23,5.11-16.95c.56-1.47,2.1-2.37,3.63-2.04l.23.05c12.81,3.24,35.91,8.81,46.49,11.57,1.5.44,2.37,2.1,2.07,3.51l-.05.23-5.12,17.56c-.44,1.5-2.1,2.37-3.63,2.04l-.23-.05Z"/><path class="h" d="M1274.96,207.64c-1.32-.08-2.34-1.11-2.25-2.42l3.16-51.02c-18.25,5.36-31.47,7.31-32.91,7.22-1.08-.07-2.01-.61-2.3-1.7l-5.96-18.4c-.1-.37-.2-.61-.18-.97.06-.96.71-1.76,1.57-2.07,24.65-7.85,59.25-22.91,79.36-31.28.37-.1.73-.2,1.09-.17,1.2.07,2.6.76,3.03,1.63l11.26,21.98c.11.25.2.61.18.97-.07,1.08-.74,2.24-1.74,2.78-9.8,4.92-25.94,11.26-42.5,16.61l15.81.98c1.32.08,2.21,1.22,2.13,2.54l-3.26,52.7c-.08,1.32-1.1,2.22-2.42,2.14l-24.07-1.49Z"/><path class="h" d="M1368.86,189.41c-.71-.46-1.04-.89-1.17-1.47-.17-.82.24-1.77,1.34-2.98,19.48-18.79,36.73-51.21,36.09-54.26-.2-.94-1.14-1.36-2.58-1.18l-13.49,1.72c-13.45,9.56-22.02,14.29-24.6,14.84-1.17.25-2.19.09-3.26-.91l-13.47-13.98c-.62-.61-1-1.26-1.1-1.73-.22-1.06.34-1.91,1.32-2.48,11.35-6.67,22.23-17.4,29.01-24.83.49-.59,1.12-1.09,1.94-1.26,1.53-.32,2.62.8,8.61,7.15l37.23-4.85c4.89-.66,12,2.27,13.47,9.32.15.7.18,1.43.21,2.16,1.46,39.17-46.96,83.75-52.59,84.93-.82.17-1.6-.03-2.6-.68l-14.37-9.5Z"/><path class="h" d="M1323.58,658.22c-.47-.09-.96-.07-1.32-.14-2-.4-2.07-1.27-2.23-2.9-.54-5.25-2.45-24.36-2.05-26.36.24-1.18.8-2.16,2-2.05l18.8,1.45,1.06.21c1.41.28,2.66.78,3.29,2.5,2.18,4.97,6.93,19.14,5.58,25.84-.31,1.53-1.16,2.71-2.97,2.59l-22.17-1.15ZM1335.03,703.6c-.75-.52-1.27-1.6-1.08-2.54.09-.47.28-.8.71-1.08,14.22-11.1,29.67-28.31,41.97-43.84l-18.61-.55c-.61,0-1.2-.12-1.55-.19-1.65-.33-1.72-1.2-1.9-2.71-.58-4.4-2.92-24.45-2.57-26.22.26-1.29.83-2.28,2.03-2.16l18.17.95c.49-.02.96.07,1.44.17,1.29.26,2.4.85,2.96,2.31,2.09,4.83,5.21,13.65,6.01,20.67,4.03-5.43,7.61-10.47,10.44-14.79.66-.85,1.58-1.15,2.64-.94.35.07.68.26,1.01.45l19.4,13.69c.73.64.92,1.53.7,2.59-1.04,5.18-27.57,45.87-61.4,64.41-.66.85-1.58,1.15-2.64.94-.35-.07-.68-.26-1.01-.45l-16.7-10.7Z"/><path class="h" d="M1434.8,689.34c-1.32-.04-2.96-1.3-2.91-2.86l.72-21.83c.05-1.44,1.65-2.59,2.96-2.54l81.43,2.82c1.32.04,2.84,1.29,2.79,2.85l-.72,21.71c-.05,1.44-1.64,2.47-2.96,2.42l-81.32-2.57Z"/><path class="h" d="M92.27,880.07c-.06,8.8-7.77,13.23-15.85,13.17-7.84-.05-18.13-4.53-18.04-16.92.07-10.8,7.56-18.11,17.51-21.4l.04-5.12-10.56.25c-.8,0-1.52-.65-1.51-1.45l-.16-11.44v-.08c0-.8.73-1.35,1.53-1.43l10.72-.17c.01-1.92-.06-3.36-.05-4.16,0-.96.17-1.76,1.61-1.75l12.96.09c1.36,0,1.91,1.37,1.9,2.25l-.02,3.2,4.96-.05h.16c.8,0,1.44.73,1.43,1.45l.08,11.36c0,.8-.65,1.52-1.53,1.59l-5.28.04c0,1.28.06,2.48.05,3.76,18.23,1.73,29.58,14.84,29.49,28.36-.06,8.64-4.83,15.33-6.75,15.31-1.2,0-11.33-5.04-11.88-5.28-.56-.24-.88-.73-.87-1.29,0-.24.08-.48.25-.8,1.13-1.67,1.87-4.87,1.89-7.83.06-8.72-6.88-11.81-12.15-12.72l.09,10.72v.32ZM76.18,869.71c-2.49.94-4.82,2.53-4.84,5.73-.02,2.88,2.14,2.9,2.38,2.9,1.2,0,2.41-.86,2.42-2.54l.04-6.08ZM117.29,860.08c-.4.32-.72.48-1.04.47-.4,0-.8-.25-1.2-.65-2.62-3.22-8.89-10.7-11.51-13.76-.16-.24-.32-.48-.31-.8,0-.32.17-.72.65-1.04l7.72-6.03c.4-.32.64-.48,1.04-.47,1.92.01,14.08,11.14,14.07,13.62,0,.4-.17.8-.65,1.2l-8.77,7.46Z"/><path class="h" d="M147.34,853c-1.44,0-1.76-.57-1.75-1.77v-1.92c-.31.08-.63.08-.95.07-.72,0-1.36-.09-1.92-.33l-10.93-4.48c-.96-.41-1.43-1.13-1.43-1.93,0-.4.17-.8.41-1.12l12.93-18.23c.48-.72,1.13-1.03,1.93-1.03.4,0,.8.09,1.28.25l12.29,4c.8.25,1.35,1.05,1.35,1.85v.16s41.83,1.89,41.83,1.89c1.2.09,1.6.65,1.59,1.77l-.39,10.32c0,1.04-.65,1.68-1.69,1.67h-.16s-49.5-2.58-49.5-2.58l-2.75,4.06,44.16.7c1.12,0,1.68.49,1.67,1.45v.24s-.19,4.32-.19,4.32c-.09,1.12-.65,1.76-1.77,1.75l-45.99-1.12ZM189.75,898.74c-6-.04-8.62-3.18-8.58-8.3,0-.56,0-1.2.09-1.92l1.87-15.83v-.56c.01-1.6-.94-2.25-2.54-2.26l-20.64-.3,10.6,5.19c.56.32.87.89.87,1.53,0,.4-.17.8-.41,1.2l-2.99,3.98,8.06,2.46c.72.25,1.19.81,1.19,1.61,0,.24,0,.56-.17.88l-2.77,7.74c-.25.72-.89,1.11-1.69,1.11-.24,0-.48-.08-.8-.17l-11.18-3.52-3.88,5.25c-.65.88-1.85,1.27-2.97,1.26-.56,0-1.12-.17-1.6-.33l-11.01-4.88c-.72-.32-1.03-.97-1.03-1.61,0-.4.17-.8.41-1.12l3.07-4.06-7.26-2.29c-.96-.33-1.43-.89-1.43-1.61,0-.16.08-.4.16-.64l3.17-7.34c.33-.8.89-1.11,1.53-1.11.32,0,.56.08.88.17l10.3,3.11,5.25-6.84-17.2-.28c-1.12,0-1.44-.65-1.43-1.61l.06-9.28c0-1.36.73-1.52,1.69-1.51l52.64.76c6.08.12,8.7,3.34,8.66,9.1,0,.88-.09,1.76-.18,2.72l-1.61,12.71c1.68-.15,3.2-.62,4.65-1.17.24-.08.48-.16.72-.15.64,0,1.04.49,1.19,1.29l1.53,9.93c0,.24.08.4.08.64,0,1.44-.74,2.71-1.62,3.03-4.25,1.73-10.74,3.05-15.46,3.01h-.24Z"/><path class="h" d="M218.6,890.69c-1.04,0-2.15-.89-2.31-1.94-.68-5.12-1.1-14.65-1.02-26.65.05-7.36.27-15.6.73-24.32.09-1.04.89-1.91,2.01-1.91l14.08.34c1.04,0,1.91.97,1.91,2.01,0,0-1.1,31.35-1.19,45.75l-.03,4.08c0,.96-.65,1.83-1.61,1.83l-12.57.79ZM276.21,890.53c-.25,1.52-1.61,1.51-2.97,1.5-11.68-.08-22.54-3.43-30.11-7.17-.88-.41-1.51-1.05-1.51-1.93v-.24s1.91-10.47,1.91-10.47c.17-.88.89-1.59,1.69-1.59.16,0,.32,0,.48.08,8.38,2.46,20.45,4.3,30.85,5.01.96.09,1.59,1.05,1.59,2.01v.16s-1.93,12.63-1.93,12.63ZM245.02,853.35c-.96-.09-1.75-.97-1.75-1.93v-.16s.96-11.35.96-11.35c.17-1.84,1.77-1.91,11.53-1.84,17.04.12,17.27,1.32,17.26,2.84v.16s-.88,11.92-.88,11.92c-.09.96-1.05,1.67-2.09,1.67l-25.03-1.29Z"/><path class="h" d="M287.08,890.77c-.64-.4-.95-.97-.95-1.69,0-.48.17-.96.57-1.52l18-23.24c.48-.64.97-.87,1.61-.87.48,0,.96.17,1.52.57l10.99,7.68c.56.32.79.96.79,1.69,0,.48-.17.96-.41,1.36l-15.75,22.05c-.65.96-1.93,1.43-3.21,1.42-.96,0-1.92-.25-2.79-.82l-10.36-6.63ZM342.31,898.19c-.72.47-1.6.63-2.48.62-1.44,0-2.96-.66-3.67-1.79-6.81-10.77-10.75-18.95-12.46-26.89l-5.19-24.28c-.47-2-1.42-2.81-3.5-2.9l-17.03-.84c-1.44-.09-1.83-.89-1.83-2.01v-.4s.98-13.35.98-13.35c.09-.88.65-1.44,1.85-1.43h.24s26.07,1.38,26.07,1.38c5.44.28,8.77,3.82,9.86,8.95l6.04,28.52c1.08,5.13,5.6,12.28,13.52,23.61.4.56.55,1.12.55,1.6,0,.8-.49,1.44-1.21,1.91l-11.73,7.28Z"/><path class="h" d="M366.07,863.71c-.72-.25-1.43-.81-1.43-2.17.04-5.36,3.08-17.26,3.41-18.46.25-1.04.97-1.67,2.01-1.67.16,0,.4.08.56.08l14.38,2.66c.72.08,1.75.81,1.74,2.41,0,.24-.08.48-.08.72l-2.44,17.26c-.17.96-1.13,1.99-2.57,1.98-.24,0-.4-.08-.64-.08l-14.94-2.74ZM394.99,893.11c-.8-.25-1.03-.81-1.03-1.37,0-.56.17-1.12.49-1.68,3-5.26,4.16-11.65,4.21-18.37.08-11.84-3.27-24.66-6.64-34.37-.16-.4-.23-.8-.23-1.12,0-.88.49-1.6,1.53-1.91l14.35-3.5c.48-.08.88-.15,1.2-.15,1.6.01,2.07,1.05,2.39,1.94,4.49,10.59,8.15,24.14,8.07,37.02-.07,9.84-2.37,19.34-8.19,26.9-.73.88-1.45,1.35-2.49,1.34-.48,0-1.12-.17-1.84-.41l-11.81-4.32Z"/><path class="h" d="M464.86,877.83c-.03,4.32-20.24,11.62-25.52,11.58-1.2,0-2.32-.5-2.95-1.54-6.17-10.12-8.83-19.02-8.78-26.54.13-18.8,16.34-26.37,31.62-26.26,22,.15,35.42,14.4,35.3,32.32-.07,10-4.77,19.65-13.31,28.23-.97.95-1.85,1.35-2.73,1.34-.56,0-1.2-.25-1.76-.49q-12.2-6.08-12.19-7.04c0-.48.25-.96.81-1.43,6.6-5.96,10.57-13.69,10.62-20.57.04-6.16-4.21-16.27-17.01-16.36-8.8-.06-15.39,4.69-15.44,11.81,0,.48.51,6.96,2.99,6.98.16,0,.4-.08.56-.16,2.81-1.42,8.67-4.9,10.84-6.01.64-.32,1.12-.47,1.52-.47.56,0,.96.33,1.11.81,0,0,4.31,12.67,4.31,13.79Z"/><path class="h" d="M945.91,877.27c-.19,4.32-20.66,10.86-25.93,10.63-1.2-.05-2.3-.58-2.89-1.65-5.79-10.34-8.12-19.33-7.79-26.85.83-18.78,17.31-25.75,32.57-25.08,21.98.97,34.87,15.71,34.08,33.61-.44,9.99-5.5,19.46-14.35,27.72-1,.92-1.9,1.28-2.78,1.24-.56-.02-1.19-.29-1.74-.56q-11.97-6.53-11.92-7.49c.02-.48.28-.95.86-1.4,6.82-5.71,11.07-13.29,11.38-20.16.27-6.15-3.6-16.41-16.39-16.98-8.79-.39-15.56,4.12-15.87,11.23-.02.48.25,6.98,2.73,7.09.16,0,.4-.06.57-.14,2.86-1.32,8.85-4.58,11.06-5.6.65-.29,1.14-.43,1.54-.41.56.02.95.36,1.08.85,0,0,3.84,12.82,3.79,13.94Z"/><path class="h" d="M1021.95,867.08l-15.91,32.21c-.53,1.18-2.17,2.07-3.85,1.99-.56-.03-1.04-.13-1.58-.39l-13.04-5.7c-.87-.36-1.24-1.02-1.21-1.66.02-.4.12-.88.38-1.26l13.75-25.1-13.93.03h-.16c-1.28-.06-1.65-.8-1.69-1.6l-.39-12.91v-.24c.06-1.04.63-1.33,1.59-1.37l21.87-.08,7.36-21.7c.28-.79.94-1.24,1.74-1.2h.32s15.68,3.91,15.68,3.91c.79.19,1.4.86,1.37,1.74,0,.16-.02.4-.11.56l-5.45,16.58,24.11-.06h.16c.88.05,1.41.63,1.38,1.51l-.25,12.96c-.05,1.04-.55,1.58-1.51,1.61l-30.6.18ZM1041.11,903.07c-.9.52-1.88.8-2.84.76-1.28-.06-2.38-.58-2.9-1.49l-9.56-17.64c-.3-.49-.44-.98-.42-1.46.03-.64.37-1.19,1.11-1.55l11.78-5.57c.49-.22.98-.36,1.38-.34.72.03,1.34.46,1.79,1.2l10.98,16.18c.38.5.52.98.5,1.46-.03.64-.46,1.26-1.2,1.71l-10.63,6.74Z"/><path class="h" d="M1086.2,893.84l-1.82,4.88c-.37,1.03-1.44,1.78-2.4,1.74-.08,0-.24-.09-.32-.09l-11.06-3.53c-1.03-.29-1.55-1.19-1.51-1.99.01-.24.1-.48.19-.71l1.89-4.64c-5.85-1.78-8.34-3.41-8.14-7.88.03-.56.05-1.12.15-1.68l2.87-17.97h-1.84s-.24-.01-.24-.01c-1.2-.05-1.81-.72-1.84-1.84l-.43-10.19.02-.4c.05-1.2.79-1.65,1.92-1.68l4.65-.12,2-12.8c.21-1.03,1.03-1.64,1.99-1.59h.32s13.35,2.44,13.35,2.44c1.11.21,1.8.88,1.76,1.84v.32s-1.47,9.46-1.47,9.46l9.06-.16h.24c.96.05,1.66.56,1.69,1.69l.1,10.42v.16c-.06,1.12-.73,1.81-1.85,1.84l-14.75.31-2.21,13.76,3.16.94,4.07-10.63c.28-.79.93-1.16,1.65-1.13.24.01.48.02.72.11l6.15,2.19c.87.36,1.23,1.09,1.2,1.89-.01.24-.02.48-.11.72l-3.72,9.93,3.24.94c.87.28,1.49.79,1.45,1.75-.01.24-.02.48-.11.72l-2.8,9.09c-.47,1.5-1.58,3.05-3.49,2.97-.32-.01-.64-.11-.95-.2l-2.77-.84ZM1105.92,904.24c-.79-.2-1.58-.55-1.54-1.43.01-.24.02-.56.2-.87,2.19-4.39,3.17-6.51,3.27-8.83.02-.48.04-.88-.02-1.36l-.73-9-7.54.31h-.24c-1.2-.06-1.58-.56-1.69-1.69l-.65-10.84.02-.48c.05-1.12.62-1.33,1.58-1.37l8.99-.41c3.31-6.02,6.73-12.92,8.94-17.62l-14.83-1.37c-1.44-.14-2.05-.81-2-1.93v-.16s1.1-12.12,1.1-12.12c.14-1.36.95-1.64,1.91-1.6l.48.02,27.03,2.63c3.19.3,5.02,2.3,4.91,4.94v.16s-.41,5.59-.41,5.59c-.05,1.12-.64,3.73-1.27,5.23-1.88,4.4-4.51,9.73-7.49,15.45l8.74-.34h.24c1.04.06,1.5.56,1.52,1.76l.33,10.66v.24c-.06,1.04-.48,1.66-1.61,1.69l-10.59.5.89,10.77c.04.8.09,1.61.05,2.48-.1,2.24-.62,4.94-1.99,8.72-.55,1.66-1.89,2.88-4.05,2.79-.24-.01-.56-.02-.88-.12l-12.71-2.4Z"/><path class="h" d="M1168.43,906.91c-.36.87-.93,1.16-1.81,1.12-2.48-.11-16.96-4.03-23.48-8.72-.47-.34-.99-1.08-.96-1.96.01-.24.1-.56.28-.87l6.11-11.42c.44-.78.79-1.65,1.75-1.6.32.01.72.11,1.18.37,4.46,2.44,14.82,7.22,20.57,9.31.71.27,1.24.94,1.2,1.81-.01.32-.03.64-.2.95l-4.65,11.01ZM1183.19,889.86c-.33.15-.81.28-1.21.27-.64-.03-1.19-.29-1.64-.95-2.73-3.56-5.08-8.31-7.17-13.69l-27.08.33c-.88-.04-1.57-.79-1.61-1.67l-.03-10.25v-.32c.05-.72.31-1.27,1.19-1.31l23.39-.17c-.41-1.62-.74-3.24-1.07-4.85l-19.8-1.27c-.96-.04-1.57-.79-1.53-1.67l.69-10.22c.04-.96.79-1.57,1.67-1.53l16.93,1.14c-.16-1.93-.24-3.61-.25-5.14.04-.8.63-1.65,1.92-1.68l12.1-.11.72.03c.96.04,1.91.32,2.16,1.94.24,1.93.63,3.95,1.02,6.05l6.55.45c.88.04,1.49.79,1.45,1.67l-.61,10.22c-.12.96-.87,1.56-1.75,1.53l-2.71-.2c.27,1.13.54,2.27.89,3.4l6.17-.05c.88.04,2.05.81,2.01,1.69l.11,10.25c-.04.88-.71,1.57-1.67,1.53l-2.96.03c.91,3,1.75,5.84,2.67,8.61.14.49.36.9.34,1.38-.02.48-.28.95-.95,1.48l-9.91,3.09Z"/><path class="h" d="M1262.95,893.44c-.28.79-1.04,1.72-2.4,1.66-.24,0-1.91-.24-3.97-.73-1.55,9.7-10.63,16.03-21.58,15.55-9.35-.41-16.88-5.95-16.51-14.18.17-3.84,2.1-7.68,5.2-10.74-.08,0-.24.07-.4.06-.16,0-.4-.1-.64-.11l-12.55-2.39c-.63-.27-1.24-1.02-1.2-1.89,0-.16.02-.4.1-.56.84-2.61,1.97-8.48,3.14-14.92l-6.17.05c-.88-.04-1.49-.71-1.45-1.59l.3-12.32v-.16c.04-.8.79-1.41,1.51-1.38l8.41-.03c.55-3.34.9-5.97,1.04-7.32.22-1.27.97-2.04,2.57-1.97h.24s12.28,1.11,12.28,1.11c1.36.06,1.79,1.28,1.75,2.16-.16,1.75-.33,3.83-.59,6.06h3.92c.8.05,1.41.71,1.45,1.6l-.38,12.32v.16c-.04.8-.71,1.41-1.51,1.38l-5.85-.02c-1.28,7.31-2.95,14.28-4.73,18.45l-.17.31c4.91-4.27,10.71-5.05,16.98-5.5.15-1.67.31-3.35.37-4.87.15-1.59.49-2.14,2.09-2.07h.32s12.35,1.44,12.35,1.44c1.83.24,2.29.82,2.23,2.18v.32c-.06,1.12-.2,2.39-.34,3.75l4.85.85c1.43.3,1.63,1.19,1.6,1.75-.01.32-.1.56-.1.56l-2.17,11.04ZM1232.9,893.88c-.07,1.52,1.4,2.86,3.23,2.95,3.36.15,3.97-2.95,4.5-5.89-5.83-.26-7.67,1.34-7.74,2.94ZM1248.75,866.71c-.56-.02-1.1-.45-1.3-1.42l-2.04-11.78c-.07-.24-.06-.4-.06-.56.08-1.76,11.49-6.38,17.81-6.1.64.03,1.27.22,1.61,1.59l2.76,13.65c.07.24.06.48.05.72-.04.88-.54,1.34-1.51,1.46-3.63.56-12.81,1.76-17,2.46h-.32Z"/><path class="h" d="M1306.55,910.81c-.96-.04-1.72-.96-1.68-1.92v-.16s6.02-62.2,6.02-62.2c.05-1.04.96-1.8,2.08-1.75l14.51,1.44h.32s22.01,2.18,22.01,2.18c.96.04,1.8.96,1.75,2v.16s-1.47,15.07-1.47,15.07c-.04.96-.96,1.8-2,1.75h-.16s-19.14-1.89-19.14-1.89l-.59,6.14,13.92,2.05c1.03.21,1.72,1.04,1.67,2v.24s-2.36,13.35-2.36,13.35c-.12.96-1.04,1.72-2.08,1.67h-.16s-12.73-1.93-12.73-1.93l-2.07,21.61c-.12,1.04-1.04,1.8-2.08,1.75l-15.79-1.58Z"/><path class="h" d="M1373.93,915.45l-16.75-1.62c-.96-.12-1.56-.87-1.52-1.83l6.05-63.08c.04-.8.79-1.49,1.67-1.45h.16s14.6,1.37,14.6,1.37c3.24-.9,6.46-1.32,9.58-1.18,14.79.65,27.65,12.19,26.97,27.61-.65,14.79-11.17,24.65-27.8,23.92-3.36-.15-6.61-.77-9.61-1.78l-1.53,16.51c-.12.88-.87,1.56-1.67,1.53h-.16ZM1378.78,881.55c1.72.88,3.94,1.54,6.09,1.63,8.79.39,9.17-8.17,9.19-8.73.25-5.59-4.06-9.71-9.97-9.97-1.12-.05-2.41.05-3.7.32l-1.62,16.74Z"/><path class="h" d="M1417.83,904.17c-.07-.16-.06-.4-.06-.56.05-1.2,1.27-1.55,1.75-1.52h.32c5.43.25,11.48-2.37,11.7-7.4.12-2.64-1.22-5.1-5.24-12-3.06-5.1-4.3-9.64-4.13-13.55.55-12.63,15.25-19.11,28.68-18.52,3.12.14,4.7.53,5.11,2.23l2.28,11.95c.07.24.06.48.05.64-.06,1.28-1.28,1.71-1.75,1.68l-.48-.02c-5.2-.23-10.15,1.48-10.35,6.03-.12,2.72,1.71,6.56,5.16,11.92,3.14,5.1,4.38,9.64,4.21,13.64-.58,13.27-16.83,20.4-30.66,19.79-.8-.04-1.52-.07-2.31-.18-1.04-.04-1.96-.97-2.15-2.02l-2.11-12.1Z"/><path class="h" d="M1475.04,923.34c-7.51-.33-13.32-6.67-12.99-14.18s6.67-13.4,14.19-13.07,13.32,6.75,12.99,14.26c-.33,7.51-6.67,13.32-14.18,12.99ZM1475.85,904.96c-2.64-.12-4.89,1.95-5.01,4.58s1.95,4.81,4.59,4.93c2.64.12,4.89-1.87,5-4.5s-1.95-4.89-4.58-5.01Z"/><path class="h" d="M610.46,893.71c-.96,0-1.75-.89-1.75-1.85v-.16s3.71-62.38,3.71-62.38c0-1.04.89-1.83,2.01-1.83l14.55.9h.32s22.07,1.35,22.07,1.35c.96,0,1.83.89,1.83,1.93v.16s-.91,15.11-.91,15.11c0,.96-.89,1.83-1.93,1.83h-.16s-19.19-1.17-19.19-1.17l-.36,6.16,13.99,1.54c1.04.17,1.75.97,1.75,1.93v.24s-1.85,13.43-1.85,13.43c-.09.96-.97,1.75-2.01,1.75h-.16s-12.79-1.45-12.79-1.45l-1.27,21.67c-.09,1.04-.97,1.83-2.01,1.83l-15.83-.99Z"/><path class="h" d="M677.97,895.85l-16.79-1c-.96-.09-1.59-.81-1.59-1.77l3.72-63.26c0-.8.73-1.51,1.61-1.51h.16s14.64.82,14.64.82c3.21-1.02,6.41-1.55,9.53-1.53,14.8.1,28.08,11.15,27.98,26.59-.1,14.8-10.25,25.05-26.89,24.94-3.36-.02-6.64-.53-9.67-1.43l-.91,16.55c-.09.88-.81,1.59-1.61,1.59h-.16ZM681.56,861.8c1.75.81,3.99,1.39,6.15,1.4,8.8.06,8.86-8.5,8.86-9.06.04-5.6-4.42-9.55-10.33-9.59-1.12,0-2.4.14-3.68.46l-1,16.79Z"/><path class="h" d="M721.42,882.95c-.08-.16-.08-.4-.08-.56,0-1.2,1.21-1.59,1.69-1.59h.32c5.44.04,11.38-2.8,11.41-7.84.02-2.64-1.41-5.05-5.68-11.8-3.25-4.98-4.66-9.47-4.63-13.39.09-12.64,14.54-19.66,27.98-19.57,3.12.02,4.72.35,5.19,2.04l2.72,11.86c.08.24.08.48.08.64,0,1.28-1.21,1.75-1.69,1.75h-.48c-5.2-.04-10.09,1.85-10.12,6.41-.02,2.72,1.96,6.49,5.6,11.72,3.33,4.98,4.73,9.47,4.71,13.47-.09,13.28-16.06,21.01-29.9,20.92-.8,0-1.52-.01-2.32-.1-1.04,0-1.99-.89-2.23-1.94l-2.56-12.02Z"/><path id="c" class="i" d="M806.68,111.8q-7.01,5.61-9.85,7.71c-9.52,7.48-15.8,17.33-17.46,29.46-.15,5.05-.07,10.02.15,15.07.04,1.73.08,3.46.12,5.24.1,4.22.24,8.42.41,12.64,1.33.43,2.66.87,4.03,1.31q4.38,1.49,7.19,2.89c-1.48,4.77-2.82,8.43-5.61,12.62-4,.32-7.83.44-11.83.44-16.72.53-26.98,6.33-38.68,18.41-21.9,23.89-33.51,56.99-46.25,86.33-6.94.46-13.88.93-21.03,1.4-.48,1.46-.96,2.91-1.46,4.41-1.8,5.46-3.61,10.93-5.43,16.39-.78,2.35-1.56,4.7-2.33,7.06q-7.81,23.67-12.05,33.83-3.93,8.83-5.31,18.23c2.12,4.47,5.72,6.17,9.84,8.78,1.55.99,3.1,1.98,4.69,3,1.2.74,2.4,1.49,3.63,2.26-.78,7.85-2.17,14.84-4.82,22.26-.28.9-.55,1.8-.84,2.73-2.37,6.63-5.67,10.25-10.9,14.94-9.27,8.83-12.48,19.04-16.48,30.88-.73,2.08-1.47,4.15-2.2,6.22-1.34,3.76-2.65,7.52-3.94,11.3q-1.48,4.22-2.88,7.02-3.16.53-7.01.79-4.64-.04-8.41,2.02c-.32,2.47-.56,4.96-.76,7.45-.13,1.59-.26,3.18-.4,4.82-.14,1.74-.27,3.47-.42,5.26-.3,3.65-.6,7.3-.91,10.95-.47,5.78-.94,11.55-1.4,17.33-.45,5.56-.91,11.12-1.37,16.68-.13,1.72-.27,3.43-.41,5.2-.72,8.61-1.91,16.52-4.16,24.85-.12,2.14-.21,4.29-.21,6.43-.53,5.31-1.89,7.55-5.89,11.07-1.97,1.51-3.97,2.98-5.99,4.42-3.95,2.94-7.87,5.91-11.74,8.94-.83.64-1.67,1.29-2.53,1.95-15.19,13.29-22.02,38.04-29.64,56.24-2.07,4.94-4.15,9.88-6.22,14.81-.53,1.26-1.05,2.51-1.6,3.81-3.25,7.72-6.57,15.4-9.95,23.06-2.21,5-4.4,10.01-6.58,15.02-1.04,2.37-2.09,4.73-3.15,7.08q-10.75,23.38-10.92,48.51c.7,4.97-1.19,7.46-3.68,11.75-.89,1.56-1.78,3.12-2.7,4.72-.96,1.63-1.91,3.26-2.87,4.89-.95,1.66-1.91,3.31-2.86,4.97-2.33,4.05-4.68,8.09-7.05,12.12h70.12q0-18.12.44-24.89c.08-1.44.16-2.88.25-4.36,1.73-10.63,7.18-17.69,13.78-25.88,1.78-2.24,3.55-4.48,5.32-6.73.91-1.14,1.81-2.28,2.75-3.45,4.24-5.34,8.43-10.73,12.61-16.12.81-1.04,1.62-2.09,2.46-3.16,6.25-8.04,12.45-16.13,18.62-24.23,5.61-7.35,11.27-14.66,16.95-21.95.82-1.06,1.65-2.12,2.5-3.21q6.3-8.09,9.08-11.65c.62-.8,1.25-1.59,1.89-2.42.53-.68,1.06-1.35,1.6-2.05,11.89-15.4,22.15-30.11,29.81-48.08.77-1.76,1.53-3.51,2.3-5.27,1.61-3.68,3.21-7.37,4.8-11.06,2.46-5.7,4.94-11.38,7.44-17.06,3.31-7.53,6.61-15.07,9.9-22.61.4-.91.79-1.82,1.2-2.75,2.34-5.36,4.67-10.72,7-16.09,1.77-4.07,3.54-8.13,5.31-12.2.64-1.48,1.27-2.95,1.93-4.47.59-1.34,1.17-2.68,1.77-4.06.51-1.17,1.01-2.34,1.54-3.54,2.11-4.19,3.46-5.46,8.08-6.51,6.12,1.18,7.1,3.65,10.6,8.55,4.56,6.82,8.75,13.86,12.98,20.9q18.19,33.4,45.31,58.28c1.1.56,2.19,1.12,3.32,1.7.81.39,1.63.78,2.47,1.19-.84,5.49-2.52,9.61-5.18,14.47-.77,1.41-1.54,2.82-2.33,4.27-.82,1.48-1.64,2.96-2.48,4.49q-1.24,2.29-2.51,4.63-6.88,12.61-10.27,17.63c-10.56,15.77-12.24,35.59-15.33,53.95-3.39,20.03-7.79,39.04-14.08,58.35-2.56,8.08-4.61,16.3-6.71,24.51-.28,1.02-.57,2.03-.86,3.08-2.53,9.23-3.36,18.07-4.75,27.77h119.2c.46-4.16.93-8.33,1.4-12.62-.94-.21-1.88-.41-2.84-.62-4.69-1.1-9.33-2.32-13.98-3.58-.98-.25-1.95-.5-2.96-.75-14.42-3.79-22.8-7.35-30.62-20.55-1.66-4.41-1.88-5.31-.08-9.54,1.83-1.82,3.67-3.62,5.6-5.33,11.1-9.89,16.06-20.23,21.22-33.93.86-2.18,1.72-4.36,2.59-6.53,1.86-4.67,3.69-9.34,5.51-14.03,4.69-12.01,9.63-23.91,14.53-35.83,1.59-3.88,3.17-7.75,4.76-11.63,5.44-13.34,10.92-26.66,16.61-39.89.44-1.03.88-2.06,1.33-3.13.39-.9.77-1.8,1.17-2.73,2.08-5.44,2.63-10.3,2.66-16.11.02-1.35.04-2.7.06-4.09-.89-13.37-4.92-23.53-11.28-35.27-.81-1.52-1.62-3.05-2.45-4.62-6.15-11.5-12.52-22.88-18.99-34.21-6.45-11.3-12.66-22.72-18.8-34.19q-7.51-15.22-17.71-28.52c-3.67-3.76-3.45-6.52-3.66-11.7-.08-1.72-.16-3.45-.24-5.22-.17-7.87-.23-15.74-.12-23.61.79.13,1.58.25,2.39.38,4.05.18,6.5-.14,10.23-1.79,4.59-6,7.46-12.78,10.52-19.63.9-1.93,1.81-3.87,2.72-5.79,1.36-2.87,2.71-5.75,4.04-8.63,3.96-8.57,8.38-16.83,13.08-25.01q2.66-4.76,3.04-10.07-1.13-2.57-3.43-5.09-1.93-2.89-2.02-6.22c2.05-5.06,5.14-9.29,9.9-12.1,8.16.06,15.74,6.38,22.39,10.63,8.4,4.99,14.39,5.56,23.89,3.39q4.14-1.09,7.54-2.63c1.11-.46,2.22-.92,3.36-1.39,6.45-3.28,9.37-6.17,12.04-12.96.55-1.38,1.1-2.76,1.67-4.18.55-1.44,1.11-2.87,1.68-4.35q.86-2.18,1.75-4.4c1.42-3.58,2.82-7.17,4.21-10.76h4.21c1.6,5.98,2.8,10.61,2.8,16.83,13.88-3.24,27.77-6.48,42.07-9.82q-1.01-8.74-2.77-17.13c-.25-.99-.5-1.98-.75-3-.52-2.01-1.04-4.01-1.57-6.01-2.68-10.75-3.12-18.47,2.28-28.54.88-3.67,1.64-7.25,2.28-10.96q1.77-9.92,3.33-11.48c3.58-.13,7.13-.18,10.71-.16q1.68,0,3.4,0c3.73,0,7.45.01,11.18.02,2.58,0,5.15,0,7.73,0,6.79,0,13.59.02,20.38.03,6.93.01,13.85.02,20.78.03,13.6.02,27.2.04,40.81.07v-22.44h44.87v-11.22h-44.87c-.46-5.55-.93-11.11-1.4-16.83l-5.61,1.4c-1.85,3.24-3.7,6.48-5.61,9.82h-197.73v-8.41q6.25-.69,12.62-1.4c.94-4.09,1.88-8.18,2.8-12.27.27-1.16.54-2.31.81-3.51q.38-1.68.77-3.4c.24-1.03.47-2.06.71-3.12q.68-3.38.51-8.56c-1.04-.55-2.08-1.1-3.16-1.67-4.95-3.26-5.77-6.34-7.95-11.7-8.04-18.34-21.41-26.84-39.38-34.31v-1.4"/><path class="i" d="M128.86,602.87c-18.88-17.12-29.94-30.07-32.3-40.69-3.95-17.81,13.44-29.53,33.75-34.04l1.87-.42c1.87-.42,6.14-3.33,5.04-8.33-.14-.62-.35-1.56-.87-2.43l-21.19-43.81c-3.33-6.14-9.86-6.01-22.04-3.3-52.48,11.65-102.55,51.93-91.59,101.29,3.4,15.31,12.9,31.56,30.01,48.08,22.69,22.5,30.4,30.62,32.68,40.93,4.37,19.68-16.26,36.06-37.5,40.77l-1.25.28c-1.87.42-6.21,3.02-5.17,7.7.14.62.35,1.56.8,2.12l20.71,44.57c1.84,3.85,6.35,6.46,10.41,5.56,3.19-.38,6.01-1,9.13-1.7,54.05-11.99,109.42-56.4,97.91-108.26-3.47-15.62-12.97-31.87-30.39-48.33Z"/><path class="i" d="M309.81,583.45l-21.19-6.35c4.04-12.85,8.23-26.33,11.97-39.26,1.26-5.29-.49-9-5.71-10.57l-58.17-16.79-1.25-.3c-8.09-1.92-10.12,3.84-11.32,7.51-4.12,13.17-7.77,25.78-11.21,37.46l-19.63-5.98c-3.74-.89-7.2,1.25-8.33,4.6l-16.02,50.79c-.81,3.43,1.25,7.2,4.6,8.33l23.05,6.8c-17.17,79.14-6.25,110.68,41.51,132.56.86.53,1.79.76,2.73.98,4.67,1.11,8.21-1.34,12.11-6.66l25.52-35.38c.53-.86,1.07-1.72,1.21-2.34.81-3.42-2.63-5.56-5.68-7.93-12.29-9.17-10.92-31.54-4.18-59.87l20.33,5.82.62.15c3.42.81,6.58-1.4,7.63-4.43l16.02-50.79c.89-3.74-1.17-7.52-4.6-8.33Z"/><path class="i" d="M432.52,620.51c1.28.31,2.57.62,3.53.61,3.84-.03,7.02-2.29,7.95-6.78l8.96-45.19c.31-1.6.62-2.89.61-4.16-.03-3.84-1.97-6.39-6.77-7.63-9.94-2.17-20.51-3.37-31.39-3.29-16,.11-32.62,2.79-49.86,8.36l-37.11,2.19c-3.52.03-6.38,3.25-6.35,7.09l10.16,166.34c.03,3.84,3.25,6.38,7.09,6.35l63.65-3.98c3.52-.03,6.38-2.93,6.35-6.45v-.64s-6.9-113.24-6.9-113.24c5.11-1.32,9.59-1.99,14.07-2.02,5.44-.04,10.89.88,16.02,2.45Z"/><path class="i" d="M500.84,699.91c.57-1.29,1.12-2.55,1.67-3.81,2.17-4.94,4.34-9.87,6.51-14.81,7.8-17.84,14.83-41.97,30.06-55.43l12.64-39.6c1.13-2.99-.55-6.7-3.55-7.83l-.6-.23-61.02-19.56c-3.71-1.05-7.12.74-8.47,4.33l-47.44,148.66c-.94,3.41.44,7,3.73,8.25l.6.23,49.51,15.87c1.98-4.34,3.96-8.67,5.96-13,3.54-7.66,7.01-15.34,10.41-23.06Z"/><path class="i" d="M576.18,517.22c.15-1.79.29-3.53.44-5.26.14-1.64.28-3.23.42-4.82.17-2.02.38-4.04.63-6.05-4.4-12.82-14.24-23.62-27.83-28.74-24.56-9.25-51.77,3.07-61.02,27.63-9.14,24.26,3.18,51.47,27.74,60.72,22.09,8.32,46.62-1.16,57.73-21.24.32-3.76.63-7.52.95-11.28.32-3.65.63-7.3.95-10.95Z"/><path class="i" d="M1005.58,666.28c20.25-8.38,39.47-16.23,47.84-19.16,4.03-1.48,6.25-4.14,6.61-7.32.21-1.91-.21-3.89-1.27-5.94l-21.64-45.87c-2.09-4.42-4.81-6.01-7.35-6.29-13.99-1.55-73.21,33.09-87.38,41.82l7.99-135.95c.07-3.53-2.16-6.68-5.66-7.07l-.64-.07-63.96-3.87c-3.22-.03-6.4,2.51-6.75,5.69l-.07.64-4.25,71.76c3.2,5.5,6.35,11.02,9.45,16.57.87,1.57,1.72,3.1,2.57,4.62,6.65,11.73,10.86,21.9,11.79,35.27-.02,1.39-.04,2.74-.06,4.09-.04,5.82-.61,10.67-2.78,16.11-.42.93-.82,1.83-1.22,2.73-.47,1.06-.93,2.1-1.39,3.13-5.94,13.24-11.68,26.55-17.36,39.89-1.65,3.88-3.31,7.76-4.97,11.63-1.52,3.54-3.05,7.09-4.57,10.63l-2.66,44.9c-.11,3.85,2.79,6.75,6.29,7.14l64,3.56c3.82.42,6.71-2.48,7.14-6.29l3.17-54.7,2.01-.74c6.71-2.48,22.23-8.8,39.47-16.23l-26.68,25.7c-1.8,1.73-2.61,3.25-2.79,4.84-.32,2.86,1.31,5.62,3.08,7.1,15.09,11.98,52.13,40.88,68.36,54.27,1.77,1.48,3.6,2.33,5.2,2.51,3.18.35,5.94-1.27,8.87-4.49l29.54-34.07c1.87-2.37,2.72-4.21,2.93-6.11,1.31-11.77-41.36-50.95-62.84-60.42Z"/><path class="i" d="M1249.93,624.58c-2.7-10.21-24.19-77.68-100.91-57.38-70.53,18.66-89.5,73.33-77.8,117.57,12.44,47.02,60.39,85.65,130.62,67.07l3.71-.98c8.97-2.37,11.85-7.77,13.01-13.37,1.86-11.75,4.34-34.91,3.52-38-1.39-5.26-7.39-6.65-11.72-5.51l-.62.16c-2.08.88-4.56,1.54-6.72,2.11-38.67,10.23-61.31-10.26-67.12-32.23-5.07-19.18,3.86-35.45,18.71-39.38,12.99-3.44,21.49,4.91,22.23,7.69,1.15,4.33-.86,5.52-15.96,13.49-3.78,1.99-5.84,4.19-4.94,7.6.33,1.24,11.52,19.79,17.94,29.02,2.22,3.38,4.34,5.14,9.29,3.83,15.92-4.87,37.92-14.33,51.15-23.13,16.61-11.02,19.38-24.33,15.62-38.56Z"/><path class="i" d="M292.43,206.28c1.24-2.95,1.13-6.81-.31-9.16-13.02-19.38-35.18-36-61.43-47.06-69.89-29.44-153.73-17.54-191.38,71.82-31.56,74.91,6.15,151.91,73.68,180.36,35.39,14.91,78.93,16.24,125.03-2.54,4.61-1.88,6.91-4.03,8.03-6.69.87-2.06.85-4.5.54-7.06l-5.47-48.84c-.19-2.86-2.68-5.99-5.63-7.23-1.47-.62-3.49-.78-5.17-.09-26.9,11.93-54.05,11.26-74.7,2.56-30.96-13.05-48.76-44.16-34.1-78.95,15.16-35.98,46.38-49.91,83.53-34.26,16.81,7.08,31.21,19.05,37.87,28.8.64.96,1.69,1.75,2.87,2.25,3.24,1.37,7.31-.04,9.19-2.03l36.14-39.64c.67-.76.92-1.35,1.29-2.24Z"/><path class="i" d="M362.79,242.95c-56.32,0-105.6,34.24-105.6,100.16,0,56.32,45.76,94.08,97.92,94.08,45.44,0,108.8-34.88,108.8-97.28,0-41.6-30.4-96.96-101.12-96.96ZM362.79,376.07c-18.24,0-35.52-14.72-35.52-36.8,0-14.4,7.68-37.12,34.56-37.12,32.64,0,33.92,31.04,33.92,37.12,0,18.24-10.24,36.8-32.96,36.8Z"/><path class="i" d="M634,396.92c-1.67-1.02-3.29-2.01-4.91-3-4.31-2.6-8.07-4.31-10.28-8.78q1.44-9.4,5.55-18.23,4.44-10.16,12.6-33.83c.81-2.35,1.62-4.71,2.44-7.06,1.89-5.46,3.79-10.92,5.67-16.39.52-1.5,5.02-13.96,5.52-15.41,7.48-.48,15.48-.94,22.73-1.4,2.44-5.37.09.14,2.52-5.4l-9.76-56.02c-.85-3.74-4.06-6.29-7.81-5.44l-62.87,10.73c-3.43.78-5.98,3.99-5.44,7.81l18.87,108.61c-6.95,5.52-13.94,9.42-20.17,10.84-13.1,2.99-24.6-4.23-31.97-30.78-10.34-36.7-14.81-53.41-21.45-73.88-1.17-3.67-4.37-6.22-10.61-4.8-5.3,1.21-52.88,15.67-53.05,16.37-3.67,1.17-7.47,4.66-4.55,17.45,4.87,19.9,14.32,58.44,19.88,78.51,16.05,57.39,55.29,74.04,98.66,64.14,13.73-3.13,27.82-8.97,41.73-17.07l8.22-1.4c1.07-4.31,1.79-8.66,2.27-13.31-1.29-.77-2.54-1.51-3.8-2.26Z"/><path class="i" d="M935.25,343.46l-16.41,73.84c-.64,3.79,1.41,7.05,5.14,8l62.58,13.78.63.11c3.16.53,6.47-1.83,7.01-4.99l25.28-113.54c22.82,5.14,36.58,21.73,31,54.87l-1.81,10.73c-9.46,56.17,38.22,81.4,43.9,82.35,2.84.48,6.16.06,9.74-1.93,0,0,35.01-17.15,35.12-17.78,2.47-1.21,3.74-2.94,4.06-4.83.58-3.47-2.04-7.16-3.67-9.05-10.92-14.17-12.63-29.06-9.66-46.73l1.75-10.41c10.15-60.27-31.86-107.58-95.92-118.37-10.53-1.77-21.52-2.49-33.21-2.23-.42,1.95-.88,3.9-1.37,5.88-5.64,10.07-5.19,17.79-2.39,28.54.55,2,1.1,4.01,1.64,6.01.27,1.02.53,2.01.79,3,1.84,8.4,2.81,18.6,3.87,27.33l-68.08,15.42Z"/><path class="i" d="M1282.75,299.97l-21.14-6.51c4.14-12.82,8.43-26.27,12.25-39.17,1.3-5.28-.43-9-5.63-10.61l-58.05-17.22-1.24-.31c-8.08-1.98-10.15,3.77-11.38,7.42-4.21,13.13-7.96,25.72-11.48,37.38l-19.58-6.13c-3.73-.92-7.21,1.19-8.36,4.54l-16.4,50.67c-.84,3.42,1.19,7.21,4.54,8.36l23,6.97c-17.75,79.01-7.06,110.63,40.53,132.86.86.54,1.79.77,2.72,1,4.66,1.14,8.22-1.28,12.16-6.57l25.77-35.19c.54-.86,1.08-1.71,1.23-2.33.84-3.42-2.58-5.58-5.62-7.97-12.23-9.26-10.69-31.62-3.75-59.9l20.28,5.97.62.15c3.42.84,6.59-1.35,7.67-4.38l16.4-50.67c.92-3.73-1.12-7.52-4.54-8.36Z"/><path class="i" d="M1394.42,273.83c-72.96,0-105.28,48-105.28,93.76,0,48.64,36.48,98.24,109.12,98.24h3.84c9.28,0,13.44-4.48,16-9.6,4.8-10.88,13.12-32.64,13.12-35.84,0-5.44-5.44-8.32-9.92-8.32h-.64c-2.24.32-4.8.32-7.04.32-40,0-56.64-25.6-56.64-48.32,0-19.84,12.8-33.28,28.16-33.28,13.44,0,19.52,10.24,19.52,13.12,0,4.48-2.24,5.12-18.88,8.96-4.16.96-6.72,2.56-6.72,6.08,0,1.28,6.08,22.08,9.92,32.64,1.28,3.84,2.88,6.08,8,6.08,16.64-.64,40.32-4.16,55.36-9.28,18.88-6.4,24.96-18.56,24.96-33.28,0-10.56-3.52-81.28-82.88-81.28Z"/><path class="i" d="M1610.58,270.46c-.65-3.78-2.98-5.98-7.93-6.43-10.16-.52-20.78.02-31.5,1.87-15.77,2.72-31.73,8.07-47.83,16.38l-36.25,8.21c-3.47.6-5.76,4.24-5.11,8.03l37.14,162.45c.65,3.78,4.24,5.76,8.03,5.11l62.15-14.3c3.47-.6,5.82-3.93,5.22-7.4l-.11-.63-25.26-110.6c4.83-2.13,9.13-3.52,13.55-4.29,5.36-.93,10.88-.9,16.2-.2,1.32.1,2.63.19,3.58.03,3.78-.65,6.56-3.41,6.74-7.98l1.47-46.04c.04-1.63.14-2.95-.08-4.21Z"/><path class="i" d="M1417.45,791.92c-4.2-1.31-5.94-6.47-4.39-11.43l19.58-62.61c2.03-6.49,5.09-12.24,11.29-11.98,69.75,2.12,119.05-33.6,130.63-70.63,9.07-29.01-4.76-58.49-49.04-72.34-8.02-2.51-17.42-4.61-27.44-6.07-.76-.24-2.41-.34-4.32-.93-4.2-1.31-9.19-4.13-7.8-11.24l11.68-58.79.72-2.29c1.67-5.35,5.39-9.21,9.57-9.16,25.08,1.56,47.29,5.57,66.76,11.66,92.39,28.89,119.83,103.28,100.37,165.5-13.25,42.38-48.12,78.83-99.52,90.41-2.77.81-4.27,1.6-4.63,2.74-.48,1.53,1.46,3.39,3.36,3.99l.38.12,80.41,24.31c4.58,1.43,6.44,6.2,4.77,11.55l-20.77,66.43c-1.67,5.34-6.68,7.97-11.26,6.54l-210.35-65.79Z"/><path class="i" d="M369.14,144.38c-1.25-.56-1.43-1.69-1.26-2.75.11-.71.33-1.28.66-1.84,14.39-20.78,22.21-39.94,22.34-40.77.11-.71-.13-1.48-1.41-1.81l-13.43-3.37c-7.87,17.21-16.87,34.72-25.16,47.73-.78,1.09-2.12,1.85-3.42,1.64l-.36-.06-18.5-5.88c-1.15-.43-1.92-1.65-1.73-2.83.04-.24.18-.34.21-.57,5.32-11.18,13.49-29.55,21.06-47.18l-12.84-3.28c-1.17-.31-1.96-1.41-1.75-2.71l.04-.24,4.25-17.43c.33-1.28,1.55-2.06,2.85-1.85l.24.04,16.26,3.95c3.19-7.75,5.85-14.5,7.56-19.08.41-1.03,1.86-1.77,3.17-1.56l.24.04c4.39,1.43,15.26,4.88,21.07,6.54,1.74.52,2.4,2.45,2.19,3.76-.25,1.54-4.29,12.32-6.17,17.24l28.55,6.89c5.02,1.29,11.37,7.17,10.17,14.63-1.31,8.18-16.35,40.52-35.34,57.4-.55.4-2.02,1.26-3.8.97-.36-.06-.81-.25-1.27-.45l-14.4-7.17Z"/><path class="i" d="M464.52,158.98c-1.13-.62-2.01-1.33-1.88-2.41.06-.48.35-.92.92-1.58,17.34-18.32,32.44-43.07,32.72-45.34.16-1.31-.6-2.01-2.14-2.32l-20.06-4.02-.83-.1c-1.91-.23-2.48.54-2.93,2.18l-2.7,11.28c-.43,1.52-2.05,2.89-3.59,2.71l-.24-.03-22.09-4.26c-1.77-.34-2.94-1.69-2.76-3.12l.04-.36,6.81-29.15c.79-3.53,4.3-5.52,7.99-5.07l.71.09,66.32,13.27c6.37,1.26,12.28,6.33,11.43,13.36-.35,2.86-8.02,32.14-47.37,61.44-.65.4-2.32,1.17-4.22.94-.48-.06-.95-.12-1.52-.43l-14.61-7.1ZM477.53,78c-1.67-.2-2.97-1.45-2.79-2.88l1.91-15.72c.19-1.55,1.91-2.79,3.46-2.6l27.04,3.29c1.79.22,3.04,1.82,2.85,3.37l-1.91,15.72c-.19,1.55-2.21,2.27-3.52,2.11l-27.04-3.29Z"/><path class="i" d="M569.81,98.88c-1.32.96-2.16,1.32-2.88,1.32-.84,0-1.44-.6-2.28-1.44-18-18.36-20.4-20.88-20.4-22.92,0-.6.24-1.08.84-1.44l16.08-10.68c1.08-.84,2.28-1.44,3.48-1.44,3.48,0,25.32,14.64,25.32,20.88,0,.96-.36,1.68-1.32,2.4l-18.84,13.32ZM640.48,115.2c.24.36.24.72.24.96,0,.84-.48,1.68-1.2,2.28-21.6,17.04-44.64,29.04-68.52,36-.36.12-.72.24-1.08.24-.84,0-1.68-.48-2.16-1.32l-11.88-21.24c-.12-.36-.24-.72-.24-1.08,0-.84.48-1.68,1.32-2.16,18.84-7.32,54.96-24.12,69.96-33.48.36-.12.72-.24.96-.24.84,0,1.68.48,2.16,1.32l10.44,18.72Z"/><path class="i" d="M720.56,97.52c-.73,1.73-1.4,2.43-2.2,2.67-.57.17-1.14-.03-1.97-.28-2-.4-6.74-1.97-12.57-3.84-11.86,18.39-23.85,29.29-25.11,29.67-1.15.35-3.16.33-5.1-.71l-13.05-7.08c-.75-.4-1.15-.91-1.33-1.48-.21-.69.09-1.78,1.11-2.97,6.04-6.97,12.37-16.29,17.84-25.97l-13.95-4.67c-1.51-.42-2.89-1.26-3.2-2.29-.1-.34-.09-.72.15-1.17l5.99-12.1c.61-1.31,1.27-2.01,2.42-2.36,2.53-.77,11.79.44,19.24,1.44,3.53-8.21,4.59-10.92,4.1-12.53-.31-1.03-1.36-1.59-2.89-1.26l-16.69,3.68c-2.42,2.36-16.39,16.25-21.22,17.71-1.03.31-2.06.25-3.06-.58l-14.77-12.33c-.82-.63-1.14-1.28-1.28-1.74-.31-1.03.09-1.78.87-2.52,10.41-8.67,19.64-21.25,25.31-29.86.43-.63,1.1-1.34,1.9-1.58,1.26-.38,1.53-.34,10.63,6.94l36.24-7.84c4.93-1.12,12.42,1.25,14.57,8.37,1.84,6.09,1,21.51-6.21,39.12,9.09,2.26,12.38,4.02,12.97,5.98.17.57.08,1.1-.2,1.82l-8.54,17.76Z"/><path class="i" d="M753.85,67.43c-1.29.27-3.18-.57-3.5-2.09l-4.43-21.39c-.29-1.41.99-2.9,2.29-3.17l79.81-16.4c1.29-.27,3.06.59,3.38,2.12l4.4,21.27c.29,1.41-1.02,2.78-2.31,3.05l-79.64,16.61Z"/><path class="i" d="M863.2,77.93c-.39-.66-.67-1.3-.59-1.9.13-.95.96-1.68,2.72-2.17,25.9-8.67,47.74-35.34,48.56-41.28.2-1.43-.54-2.25-2.3-2.62l-24.91-5.61c-1.29-.3-2.09-1.5-1.91-2.81l.03-.24,4.48-19.37c.3-1.29,1.5-2.09,2.81-1.91l.24.03,46.92,10.22c5.28,1.21,12,6.98,10.9,14.95-.07.48-.23.82-.3,1.29-6.79,29.11-38.74,60.56-71.99,67.13-1.12.21-2.12.43-3.19.29s-2.07-.77-2.96-2.22l-8.52-13.77ZM934.14,65.89c1-1.07,2.11-1.28,3.18-1.14.95.13,15.21,3.91,28.65,14.48,1.09.88,1.57,1.79,1.44,2.74-.1.71-.55,1.38-1.14,2.14-3.52,4.48-11.33,13.7-15.13,18.39-.73.87-1.49,1.13-2.32,1.01-.71-.1-1.5-.57-2.04-1.01-5.85-5.04-18.35-15.37-23.81-19.75-.87-.73-1.62-1.43-1.49-2.39.07-.48.38-1.04.94-1.57l11.71-12.92Z"/><path class="i" d="M985.66,127.06c-1.29-.29-2.13-1.47-1.83-2.76l22.47-98.63c.29-1.29,1.59-2.1,2.87-1.81l23.05,5.25c1.29.29,1.98,1.56,1.69,2.85l-9.14,40.13,8-7.04c1.09-.98,2.22-1.09,3.39-.83,3.51.8,21.05,9.72,29.97,17.53,1.13,1,1.53,1.95,1.31,2.88-.24,1.05-.87,1.65-18.36,19.57-.8.8-1.7.97-2.52.78s-1.56-.72-2.06-1.21c-5.02-4.96-15.61-14.14-22.48-19.64l-10.58,46.45c-.29,1.29-1.44,2.01-2.73,1.72l-23.05-5.25Z"/><path class="i" d="M1112.79,141.34c-1.07-.72-2.1-1.68-1.82-2.97.13-.59.46-1.01.96-1.63,10.94-11.52,22.09-28.03,22.62-30.49.33-1.53-.82-1.9-1.5-2.16l-45.19-13.62c-1.15-.37-1.89-1.51-1.63-2.68l.05-.23,5.71-18.04c.37-1.15,1.63-1.86,2.8-1.61l.23.05,65.88,19.54c7.03,2.12,11.07,7.9,9.68,14.35-1.49,6.92-14.15,32.8-38.4,47.97-.71.46-2.46,1.19-4.22.81-.59-.13-1.03-.34-1.57-.7l-13.62-8.57ZM1156.41,75.34c-14.68-3.64-34.35-9.21-46.36-12.16-1.52-.33-2.49-2.13-2.19-3.54l.05-.23,5.11-16.95c.56-1.47,2.1-2.37,3.63-2.04l.23.05c12.81,3.24,35.91,8.81,46.49,11.57,1.5.44,2.37,2.1,2.07,3.51l-.05.23-5.12,17.56c-.44,1.5-2.1,2.37-3.63,2.04l-.23-.05Z"/><path class="i" d="M1232.96,161.64c-1.32-.08-2.34-1.11-2.25-2.42l3.16-51.02c-18.25,5.36-31.47,7.31-32.91,7.22-1.08-.07-2.01-.61-2.3-1.7l-5.96-18.4c-.1-.37-.2-.61-.18-.97.06-.96.71-1.76,1.57-2.07,24.65-7.85,59.25-22.91,79.36-31.28.37-.1.73-.2,1.09-.17,1.2.07,2.6.76,3.03,1.63l11.26,21.98c.11.25.2.61.18.97-.07,1.08-.74,2.24-1.74,2.78-9.8,4.92-25.94,11.26-42.5,16.61l15.81.98c1.32.08,2.21,1.22,2.13,2.54l-3.26,52.7c-.08,1.32-1.1,2.22-2.42,2.14l-24.07-1.49Z"/><path class="i" d="M1326.86,143.41c-.71-.46-1.04-.89-1.17-1.47-.17-.82.24-1.77,1.34-2.98,19.48-18.79,36.73-51.21,36.09-54.26-.2-.94-1.14-1.36-2.58-1.18l-13.49,1.72c-13.45,9.56-22.02,14.29-24.6,14.84-1.17.25-2.19.09-3.26-.91l-13.47-13.98c-.62-.61-1-1.26-1.1-1.73-.22-1.06.34-1.91,1.32-2.48,11.35-6.67,22.23-17.4,29.01-24.83.49-.59,1.12-1.09,1.94-1.26,1.53-.32,2.62.8,8.61,7.15l37.23-4.85c4.89-.66,12,2.27,13.47,9.32.15.7.18,1.43.21,2.16,1.46,39.17-46.96,83.75-52.59,84.93-.82.17-1.6-.03-2.6-.68l-14.37-9.5Z"/><path class="i" d="M1281.58,612.22c-.47-.09-.96-.07-1.32-.14-2-.4-2.07-1.27-2.23-2.9-.54-5.25-2.45-24.36-2.05-26.36.24-1.18.8-2.16,2-2.05l18.8,1.45,1.06.21c1.41.28,2.66.78,3.29,2.5,2.18,4.97,6.93,19.14,5.58,25.84-.31,1.53-1.16,2.71-2.97,2.59l-22.17-1.15ZM1293.03,657.6c-.75-.52-1.27-1.6-1.08-2.54.09-.47.28-.8.71-1.08,14.22-11.1,29.67-28.31,41.97-43.84l-18.61-.55c-.61,0-1.2-.12-1.55-.19-1.65-.33-1.72-1.2-1.9-2.71-.58-4.4-2.92-24.45-2.57-26.22.26-1.29.83-2.28,2.03-2.16l18.17.95c.49-.02.96.07,1.44.17,1.29.26,2.4.85,2.96,2.31,2.09,4.83,5.21,13.65,6.01,20.67,4.03-5.43,7.61-10.47,10.44-14.79.66-.85,1.58-1.15,2.64-.94.35.07.68.26,1.01.45l19.4,13.69c.73.64.92,1.53.7,2.59-1.04,5.18-27.57,45.87-61.4,64.41-.66.85-1.58,1.15-2.64.94-.35-.07-.68-.26-1.01-.45l-16.7-10.7Z"/><path class="i" d="M1392.8,643.34c-1.32-.04-2.96-1.3-2.91-2.86l.72-21.83c.05-1.44,1.65-2.59,2.96-2.54l81.43,2.82c1.32.04,2.84,1.29,2.79,2.85l-.72,21.71c-.05,1.44-1.64,2.47-2.96,2.42l-81.32-2.57Z"/><path class="i" d="M50.27,834.07c-.06,8.8-7.77,13.23-15.85,13.17-7.84-.05-18.13-4.53-18.04-16.92.07-10.8,7.56-18.11,17.51-21.4l.04-5.12-10.56.25c-.8,0-1.52-.65-1.51-1.45l-.16-11.44v-.08c0-.8.73-1.35,1.53-1.43l10.72-.17c.01-1.92-.06-3.36-.05-4.16,0-.96.17-1.76,1.61-1.75l12.96.09c1.36,0,1.91,1.37,1.9,2.25l-.02,3.2,4.96-.05h.16c.8,0,1.44.73,1.43,1.45l.08,11.36c0,.8-.65,1.52-1.53,1.59l-5.28.04c0,1.28.06,2.48.05,3.76,18.23,1.73,29.58,14.84,29.49,28.36-.06,8.64-4.83,15.33-6.75,15.31-1.2,0-11.33-5.04-11.88-5.28-.56-.24-.88-.73-.87-1.29,0-.24.08-.48.25-.8,1.13-1.67,1.87-4.87,1.89-7.83.06-8.72-6.88-11.81-12.15-12.72l.09,10.72v.32ZM34.18,823.71c-2.49.94-4.82,2.53-4.84,5.73-.02,2.88,2.14,2.9,2.38,2.9,1.2,0,2.41-.86,2.42-2.54l.04-6.08ZM75.29,814.08c-.4.32-.72.48-1.04.47-.4,0-.8-.25-1.2-.65-2.62-3.22-8.89-10.7-11.51-13.76-.16-.24-.32-.48-.31-.8,0-.32.17-.72.65-1.04l7.72-6.03c.4-.32.64-.48,1.04-.47,1.92.01,14.08,11.14,14.07,13.62,0,.4-.17.8-.65,1.2l-8.77,7.46Z"/><path class="i" d="M105.34,807c-1.44,0-1.76-.57-1.75-1.77v-1.92c-.31.08-.63.08-.95.07-.72,0-1.36-.09-1.92-.33l-10.93-4.48c-.96-.41-1.43-1.13-1.43-1.93,0-.4.17-.8.41-1.12l12.93-18.23c.48-.72,1.13-1.03,1.93-1.03.4,0,.8.09,1.28.25l12.29,4c.8.25,1.35,1.05,1.35,1.85v.16s41.83,1.89,41.83,1.89c1.2.09,1.6.65,1.59,1.77l-.39,10.32c0,1.04-.65,1.68-1.69,1.67h-.16s-49.5-2.58-49.5-2.58l-2.75,4.06,44.16.7c1.12,0,1.68.49,1.67,1.45v.24s-.19,4.32-.19,4.32c-.09,1.12-.65,1.76-1.77,1.75l-45.99-1.12ZM147.75,852.74c-6-.04-8.62-3.18-8.58-8.3,0-.56,0-1.2.09-1.92l1.87-15.83v-.56c.01-1.6-.94-2.25-2.54-2.26l-20.64-.3,10.6,5.19c.56.32.87.89.87,1.53,0,.4-.17.8-.41,1.2l-2.99,3.98,8.06,2.46c.72.25,1.19.81,1.19,1.61,0,.24,0,.56-.17.88l-2.77,7.74c-.25.72-.89,1.11-1.69,1.11-.24,0-.48-.08-.8-.17l-11.18-3.52-3.88,5.25c-.65.88-1.85,1.27-2.97,1.26-.56,0-1.12-.17-1.6-.33l-11.01-4.88c-.72-.32-1.03-.97-1.03-1.61,0-.4.17-.8.41-1.12l3.07-4.06-7.26-2.29c-.96-.33-1.43-.89-1.43-1.61,0-.16.08-.4.16-.64l3.17-7.34c.33-.8.89-1.11,1.53-1.11.32,0,.56.08.88.17l10.3,3.11,5.25-6.84-17.2-.28c-1.12,0-1.44-.65-1.43-1.61l.06-9.28c0-1.36.73-1.52,1.69-1.51l52.64.76c6.08.12,8.7,3.34,8.66,9.1,0,.88-.09,1.76-.18,2.72l-1.61,12.71c1.68-.15,3.2-.62,4.65-1.17.24-.08.48-.16.72-.15.64,0,1.04.49,1.19,1.29l1.53,9.93c0,.24.08.4.08.64,0,1.44-.74,2.71-1.62,3.03-4.25,1.73-10.74,3.05-15.46,3.01h-.24Z"/><path class="i" d="M176.6,844.69c-1.04,0-2.15-.89-2.31-1.94-.68-5.12-1.1-14.65-1.02-26.65.05-7.36.27-15.6.73-24.32.09-1.04.89-1.91,2.01-1.91l14.08.34c1.04,0,1.91.97,1.91,2.01,0,0-1.1,31.35-1.19,45.75l-.03,4.08c0,.96-.65,1.83-1.61,1.83l-12.57.79ZM234.21,844.53c-.25,1.52-1.61,1.51-2.97,1.5-11.68-.08-22.54-3.43-30.11-7.17-.88-.41-1.51-1.05-1.51-1.93v-.24s1.91-10.47,1.91-10.47c.17-.88.89-1.59,1.69-1.59.16,0,.32,0,.48.08,8.38,2.46,20.45,4.3,30.85,5.01.96.09,1.59,1.05,1.59,2.01v.16s-1.93,12.63-1.93,12.63ZM203.02,807.35c-.96-.09-1.75-.97-1.75-1.93v-.16s.96-11.35.96-11.35c.17-1.84,1.77-1.91,11.53-1.84,17.04.12,17.27,1.32,17.26,2.84v.16s-.88,11.92-.88,11.92c-.09.96-1.05,1.67-2.09,1.67l-25.03-1.29Z"/><path class="i" d="M245.08,844.77c-.64-.4-.95-.97-.95-1.69,0-.48.17-.96.57-1.52l18-23.24c.48-.64.97-.87,1.61-.87.48,0,.96.17,1.52.57l10.99,7.68c.56.32.79.96.79,1.69,0,.48-.17.96-.41,1.36l-15.75,22.05c-.65.96-1.93,1.43-3.21,1.42-.96,0-1.92-.25-2.79-.82l-10.36-6.63ZM300.31,852.19c-.72.47-1.6.63-2.48.62-1.44,0-2.96-.66-3.67-1.79-6.81-10.77-10.75-18.95-12.46-26.89l-5.19-24.28c-.47-2-1.42-2.81-3.5-2.9l-17.03-.84c-1.44-.09-1.83-.89-1.83-2.01v-.4s.98-13.35.98-13.35c.09-.88.65-1.44,1.85-1.43h.24s26.07,1.38,26.07,1.38c5.44.28,8.77,3.82,9.86,8.95l6.04,28.52c1.08,5.13,5.6,12.28,13.52,23.61.4.56.55,1.12.55,1.6,0,.8-.49,1.44-1.21,1.91l-11.73,7.28Z"/><path class="i" d="M324.07,817.71c-.72-.25-1.43-.81-1.43-2.17.04-5.36,3.08-17.26,3.41-18.46.25-1.04.97-1.67,2.01-1.67.16,0,.4.08.56.08l14.38,2.66c.72.08,1.75.81,1.74,2.41,0,.24-.08.48-.08.72l-2.44,17.26c-.17.96-1.13,1.99-2.57,1.98-.24,0-.4-.08-.64-.08l-14.94-2.74ZM352.99,847.11c-.8-.25-1.03-.81-1.03-1.37,0-.56.17-1.12.49-1.68,3-5.26,4.16-11.65,4.21-18.37.08-11.84-3.27-24.66-6.64-34.37-.16-.4-.23-.8-.23-1.12,0-.88.49-1.6,1.53-1.91l14.35-3.5c.48-.08.88-.15,1.2-.15,1.6.01,2.07,1.05,2.39,1.94,4.49,10.59,8.15,24.14,8.07,37.02-.07,9.84-2.37,19.34-8.19,26.9-.73.88-1.45,1.35-2.49,1.34-.48,0-1.12-.17-1.84-.41l-11.81-4.32Z"/><path class="i" d="M422.86,831.83c-.03,4.32-20.24,11.62-25.52,11.58-1.2,0-2.32-.5-2.95-1.54-6.17-10.12-8.83-19.02-8.78-26.54.13-18.8,16.34-26.37,31.62-26.26,22,.15,35.42,14.4,35.3,32.32-.07,10-4.77,19.65-13.31,28.23-.97.95-1.85,1.35-2.73,1.34-.56,0-1.2-.25-1.76-.49q-12.2-6.08-12.19-7.04c0-.48.25-.96.81-1.43,6.6-5.96,10.57-13.69,10.62-20.57.04-6.16-4.21-16.27-17.01-16.36-8.8-.06-15.39,4.69-15.44,11.81,0,.48.51,6.96,2.99,6.98.16,0,.4-.08.56-.16,2.81-1.42,8.67-4.9,10.84-6.01.64-.32,1.12-.47,1.52-.47.56,0,.96.33,1.11.81,0,0,4.31,12.67,4.31,13.79Z"/><path class="i" d="M903.91,831.27c-.19,4.32-20.66,10.86-25.93,10.63-1.2-.05-2.3-.58-2.89-1.65-5.79-10.34-8.12-19.33-7.79-26.85.83-18.78,17.31-25.75,32.57-25.08,21.98.97,34.87,15.71,34.08,33.61-.44,9.99-5.5,19.46-14.35,27.72-1,.92-1.9,1.28-2.78,1.24-.56-.02-1.19-.29-1.74-.56q-11.97-6.53-11.92-7.49c.02-.48.28-.95.86-1.4,6.82-5.71,11.07-13.29,11.38-20.16.27-6.15-3.6-16.41-16.39-16.98-8.79-.39-15.56,4.12-15.87,11.23-.02.48.25,6.98,2.73,7.09.16,0,.4-.06.57-.14,2.86-1.32,8.85-4.58,11.06-5.6.65-.29,1.14-.43,1.54-.41.56.02.95.36,1.08.85,0,0,3.84,12.82,3.79,13.94Z"/><path class="i" d="M979.95,821.08l-15.91,32.21c-.53,1.18-2.17,2.07-3.85,1.99-.56-.03-1.04-.13-1.58-.39l-13.04-5.7c-.87-.36-1.24-1.02-1.21-1.66.02-.4.12-.88.38-1.26l13.75-25.1-13.93.03h-.16c-1.28-.06-1.65-.8-1.69-1.6l-.39-12.91v-.24c.06-1.04.63-1.33,1.59-1.37l21.87-.08,7.36-21.7c.28-.79.94-1.24,1.74-1.2h.32s15.68,3.91,15.68,3.91c.79.19,1.4.86,1.37,1.74,0,.16-.02.4-.11.56l-5.45,16.58,24.11-.06h.16c.88.05,1.41.63,1.38,1.51l-.25,12.96c-.05,1.04-.55,1.58-1.51,1.61l-30.6.18ZM999.11,857.07c-.9.52-1.88.8-2.84.76-1.28-.06-2.38-.58-2.9-1.49l-9.56-17.64c-.3-.49-.44-.98-.42-1.46.03-.64.37-1.19,1.11-1.55l11.78-5.57c.49-.22.98-.36,1.38-.34.72.03,1.34.46,1.79,1.2l10.98,16.18c.38.5.52.98.5,1.46-.03.64-.46,1.26-1.2,1.71l-10.63,6.74Z"/><path class="i" d="M1044.2,847.84l-1.82,4.88c-.37,1.03-1.44,1.78-2.4,1.74-.08,0-.24-.09-.32-.09l-11.06-3.53c-1.03-.29-1.55-1.19-1.51-1.99.01-.24.1-.48.19-.71l1.89-4.64c-5.85-1.78-8.34-3.41-8.14-7.88.03-.56.05-1.12.15-1.68l2.87-17.97h-1.84s-.24-.01-.24-.01c-1.2-.05-1.81-.72-1.84-1.84l-.43-10.19.02-.4c.05-1.2.79-1.65,1.92-1.68l4.65-.12,2-12.8c.21-1.03,1.03-1.64,1.99-1.59h.32s13.35,2.44,13.35,2.44c1.11.21,1.8.88,1.76,1.84v.32s-1.47,9.46-1.47,9.46l9.06-.16h.24c.96.05,1.66.56,1.69,1.69l.1,10.42v.16c-.06,1.12-.73,1.81-1.85,1.84l-14.75.31-2.21,13.76,3.16.94,4.07-10.63c.28-.79.93-1.16,1.65-1.13.24.01.48.02.72.11l6.15,2.19c.87.36,1.23,1.09,1.2,1.89-.01.24-.02.48-.11.72l-3.72,9.93,3.24.94c.87.28,1.49.79,1.45,1.75-.01.24-.02.48-.11.72l-2.8,9.09c-.47,1.5-1.58,3.05-3.49,2.97-.32-.01-.64-.11-.95-.2l-2.77-.84ZM1063.92,858.24c-.79-.2-1.58-.55-1.54-1.43.01-.24.02-.56.2-.87,2.19-4.39,3.17-6.51,3.27-8.83.02-.48.04-.88-.02-1.36l-.73-9-7.54.31h-.24c-1.2-.06-1.58-.56-1.69-1.69l-.65-10.84.02-.48c.05-1.12.62-1.33,1.58-1.37l8.99-.41c3.31-6.02,6.73-12.92,8.94-17.62l-14.83-1.37c-1.44-.14-2.05-.81-2-1.93v-.16s1.1-12.12,1.1-12.12c.14-1.36.95-1.64,1.91-1.6l.48.02,27.03,2.63c3.19.3,5.02,2.3,4.91,4.94v.16s-.41,5.59-.41,5.59c-.05,1.12-.64,3.73-1.27,5.23-1.88,4.4-4.51,9.73-7.49,15.45l8.74-.34h.24c1.04.06,1.5.56,1.52,1.76l.33,10.66v.24c-.06,1.04-.48,1.66-1.61,1.69l-10.59.5.89,10.77c.04.8.09,1.61.05,2.48-.1,2.24-.62,4.94-1.99,8.72-.55,1.66-1.89,2.88-4.05,2.79-.24-.01-.56-.02-.88-.12l-12.71-2.4Z"/><path class="i" d="M1126.43,860.91c-.36.87-.93,1.16-1.81,1.12-2.48-.11-16.96-4.03-23.48-8.72-.47-.34-.99-1.08-.96-1.96.01-.24.1-.56.28-.87l6.11-11.42c.44-.78.79-1.65,1.75-1.6.32.01.72.11,1.18.37,4.46,2.44,14.82,7.22,20.57,9.31.71.27,1.24.94,1.2,1.81-.01.32-.03.64-.2.95l-4.65,11.01ZM1141.19,843.86c-.33.15-.81.28-1.21.27-.64-.03-1.19-.29-1.64-.95-2.73-3.56-5.08-8.31-7.17-13.69l-27.08.33c-.88-.04-1.57-.79-1.61-1.67l-.03-10.25v-.32c.05-.72.31-1.27,1.19-1.31l23.39-.17c-.41-1.62-.74-3.24-1.07-4.85l-19.8-1.27c-.96-.04-1.57-.79-1.53-1.67l.69-10.22c.04-.96.79-1.57,1.67-1.53l16.93,1.14c-.16-1.93-.24-3.61-.25-5.14.04-.8.63-1.65,1.92-1.68l12.1-.11.72.03c.96.04,1.91.32,2.16,1.94.24,1.93.63,3.95,1.02,6.05l6.55.45c.88.04,1.49.79,1.45,1.67l-.61,10.22c-.12.96-.87,1.56-1.75,1.53l-2.71-.2c.27,1.13.54,2.27.89,3.4l6.17-.05c.88.04,2.05.81,2.01,1.69l.11,10.25c-.04.88-.71,1.57-1.67,1.53l-2.96.03c.91,3,1.75,5.84,2.67,8.61.14.49.36.9.34,1.38-.02.48-.28.95-.95,1.48l-9.91,3.09Z"/><path class="i" d="M1220.95,847.44c-.28.79-1.04,1.72-2.4,1.66-.24,0-1.91-.24-3.97-.73-1.55,9.7-10.63,16.03-21.58,15.55-9.35-.41-16.88-5.95-16.51-14.18.17-3.84,2.1-7.68,5.2-10.74-.08,0-.24.07-.4.06-.16,0-.4-.1-.64-.11l-12.55-2.39c-.63-.27-1.24-1.02-1.2-1.89,0-.16.02-.4.1-.56.84-2.61,1.97-8.48,3.14-14.92l-6.17.05c-.88-.04-1.49-.71-1.45-1.59l.3-12.32v-.16c.04-.8.79-1.41,1.51-1.38l8.41-.03c.55-3.34.9-5.97,1.04-7.32.22-1.27.97-2.04,2.57-1.97h.24s12.28,1.11,12.28,1.11c1.36.06,1.79,1.28,1.75,2.16-.16,1.75-.33,3.83-.59,6.06h3.92c.8.05,1.41.71,1.45,1.6l-.38,12.32v.16c-.04.8-.71,1.41-1.51,1.38l-5.85-.02c-1.28,7.31-2.95,14.28-4.73,18.45l-.17.31c4.91-4.27,10.71-5.05,16.98-5.5.15-1.67.31-3.35.37-4.87.15-1.59.49-2.14,2.09-2.07h.32s12.35,1.44,12.35,1.44c1.83.24,2.29.82,2.23,2.18v.32c-.06,1.12-.2,2.39-.34,3.75l4.85.85c1.43.3,1.63,1.19,1.6,1.75-.01.32-.1.56-.1.56l-2.17,11.04ZM1190.9,847.88c-.07,1.52,1.4,2.86,3.23,2.95,3.36.15,3.97-2.95,4.5-5.89-5.83-.26-7.67,1.34-7.74,2.94ZM1206.75,820.71c-.56-.02-1.1-.45-1.3-1.42l-2.04-11.78c-.07-.24-.06-.4-.06-.56.08-1.76,11.49-6.38,17.81-6.1.64.03,1.27.22,1.61,1.59l2.76,13.65c.07.24.06.48.05.72-.04.88-.54,1.34-1.51,1.46-3.63.56-12.81,1.76-17,2.46h-.32Z"/><path class="i" d="M1264.55,864.81c-.96-.04-1.72-.96-1.68-1.92v-.16s6.02-62.2,6.02-62.2c.05-1.04.96-1.8,2.08-1.75l14.51,1.44h.32s22.01,2.18,22.01,2.18c.96.04,1.8.96,1.75,2v.16s-1.47,15.07-1.47,15.07c-.04.96-.96,1.8-2,1.75h-.16s-19.14-1.89-19.14-1.89l-.59,6.14,13.92,2.05c1.03.21,1.72,1.04,1.67,2v.24s-2.36,13.35-2.36,13.35c-.12.96-1.04,1.72-2.08,1.67h-.16s-12.73-1.93-12.73-1.93l-2.07,21.61c-.12,1.04-1.04,1.8-2.08,1.75l-15.79-1.58Z"/><path class="i" d="M1331.93,869.45l-16.75-1.62c-.96-.12-1.56-.87-1.52-1.83l6.05-63.08c.04-.8.79-1.49,1.67-1.45h.16s14.6,1.37,14.6,1.37c3.24-.9,6.46-1.32,9.58-1.18,14.79.65,27.65,12.19,26.97,27.61-.65,14.79-11.17,24.65-27.8,23.92-3.36-.15-6.61-.77-9.61-1.78l-1.53,16.51c-.12.88-.87,1.56-1.67,1.53h-.16ZM1336.78,835.55c1.72.88,3.94,1.54,6.09,1.63,8.79.39,9.17-8.17,9.19-8.73.25-5.59-4.06-9.71-9.97-9.97-1.12-.05-2.41.05-3.7.32l-1.62,16.74Z"/><path class="i" d="M1375.83,858.17c-.07-.16-.06-.4-.06-.56.05-1.2,1.27-1.55,1.75-1.52h.32c5.43.25,11.48-2.37,11.7-7.4.12-2.64-1.22-5.1-5.24-12-3.06-5.1-4.3-9.64-4.13-13.55.55-12.63,15.25-19.11,28.68-18.52,3.12.14,4.7.53,5.11,2.23l2.28,11.95c.07.24.06.48.05.64-.06,1.28-1.28,1.71-1.75,1.68l-.48-.02c-5.2-.23-10.15,1.48-10.35,6.03-.12,2.72,1.71,6.56,5.16,11.92,3.14,5.1,4.38,9.64,4.21,13.64-.58,13.27-16.83,20.4-30.66,19.79-.8-.04-1.52-.07-2.31-.18-1.04-.04-1.96-.97-2.15-2.02l-2.11-12.1Z"/><path class="i" d="M1433.04,877.34c-7.51-.33-13.32-6.67-12.99-14.18s6.67-13.4,14.19-13.07,13.32,6.75,12.99,14.26c-.33,7.51-6.67,13.32-14.18,12.99ZM1433.85,858.96c-2.64-.12-4.89,1.95-5.01,4.58s1.95,4.81,4.59,4.93c2.64.12,4.89-1.87,5-4.5s-1.95-4.89-4.58-5.01Z"/><path class="i" d="M568.46,847.71c-.96,0-1.75-.89-1.75-1.85v-.16s3.71-62.38,3.71-62.38c0-1.04.89-1.83,2.01-1.83l14.55.9h.32s22.07,1.35,22.07,1.35c.96,0,1.83.89,1.83,1.93v.16s-.91,15.11-.91,15.11c0,.96-.89,1.83-1.93,1.83h-.16s-19.19-1.17-19.19-1.17l-.36,6.16,13.99,1.54c1.04.17,1.75.97,1.75,1.93v.24s-1.85,13.43-1.85,13.43c-.09.96-.97,1.75-2.01,1.75h-.16s-12.79-1.45-12.79-1.45l-1.27,21.67c-.09,1.04-.97,1.83-2.01,1.83l-15.83-.99Z"/><path class="i" d="M635.97,849.85l-16.79-1c-.96-.09-1.59-.81-1.59-1.77l3.72-63.26c0-.8.73-1.51,1.61-1.51h.16s14.64.82,14.64.82c3.21-1.02,6.41-1.55,9.53-1.53,14.8.1,28.08,11.15,27.98,26.59-.1,14.8-10.25,25.05-26.89,24.94-3.36-.02-6.64-.53-9.67-1.43l-.91,16.55c-.09.88-.81,1.59-1.61,1.59h-.16ZM639.56,815.8c1.75.81,3.99,1.39,6.15,1.4,8.8.06,8.86-8.5,8.86-9.06.04-5.6-4.42-9.55-10.33-9.59-1.12,0-2.4.14-3.68.46l-1,16.79Z"/><path class="i" d="M679.42,836.95c-.08-.16-.08-.4-.08-.56,0-1.2,1.21-1.59,1.69-1.59h.32c5.44.04,11.38-2.8,11.41-7.84.02-2.64-1.41-5.05-5.68-11.8-3.25-4.98-4.66-9.47-4.63-13.39.09-12.64,14.54-19.66,27.98-19.57,3.12.02,4.72.35,5.19,2.04l2.72,11.86c.08.24.08.48.08.64,0,1.28-1.21,1.75-1.69,1.75h-.48c-5.2-.04-10.09,1.85-10.12,6.41-.02,2.72,1.96,6.49,5.6,11.72,3.33,4.98,4.73,9.47,4.71,13.47-.09,13.28-16.06,21.01-29.9,20.92-.8,0-1.52-.01-2.32-.1-1.04,0-1.99-.89-2.23-1.94l-2.56-12.02Z"/><path id="d" class="e" d="M806.68,111.8q-7.01,5.61-9.85,7.71c-9.52,7.48-15.8,17.33-17.46,29.46-.15,5.05-.07,10.02.15,15.07.04,1.73.08,3.46.12,5.24.1,4.22.24,8.42.41,12.64,1.33.43,2.66.87,4.03,1.31q4.38,1.49,7.19,2.89c-1.48,4.77-2.82,8.43-5.61,12.62-4,.32-7.83.44-11.83.44-16.72.53-26.98,6.33-38.68,18.41-21.9,23.89-33.51,56.99-46.25,86.33-6.94.46-13.88.93-21.03,1.4-.48,1.46-.96,2.91-1.46,4.41-1.8,5.46-3.61,10.93-5.43,16.39-.78,2.35-1.56,4.7-2.33,7.06q-7.81,23.67-12.05,33.83-3.93,8.83-5.31,18.23c2.12,4.47,5.72,6.17,9.84,8.78,1.55.99,3.1,1.98,4.69,3,1.2.74,2.4,1.49,3.63,2.26-.78,7.85-2.17,14.84-4.82,22.26-.28.9-.55,1.8-.84,2.73-2.37,6.63-5.67,10.25-10.9,14.94-9.27,8.83-12.48,19.04-16.48,30.88-.73,2.08-1.47,4.15-2.2,6.22-1.34,3.76-2.65,7.52-3.94,11.3q-1.48,4.22-2.88,7.02-3.16.53-7.01.79-4.64-.04-8.41,2.02c-.32,2.47-.56,4.96-.76,7.45-.13,1.59-.26,3.18-.4,4.82-.14,1.74-.27,3.47-.42,5.26-.3,3.65-.6,7.3-.91,10.95-.47,5.78-.94,11.55-1.4,17.33-.45,5.56-.91,11.12-1.37,16.68-.13,1.72-.27,3.43-.41,5.2-.72,8.61-1.91,16.52-4.16,24.85-.12,2.14-.21,4.29-.21,6.43-.53,5.31-1.89,7.55-5.89,11.07-1.97,1.51-3.97,2.98-5.99,4.42-3.95,2.94-7.87,5.91-11.74,8.94-.83.64-1.67,1.29-2.53,1.95-15.19,13.29-22.02,38.04-29.64,56.24-2.07,4.94-4.15,9.88-6.22,14.81-.53,1.26-1.05,2.51-1.6,3.81-3.25,7.72-6.57,15.4-9.95,23.06-2.21,5-4.4,10.01-6.58,15.02-1.04,2.37-2.09,4.73-3.15,7.08q-10.75,23.38-10.92,48.51c.7,4.97-1.19,7.46-3.68,11.75-.89,1.56-1.78,3.12-2.7,4.72-.96,1.63-1.91,3.26-2.87,4.89-.95,1.66-1.91,3.31-2.86,4.97-2.33,4.05-4.68,8.09-7.05,12.12h70.12q0-18.12.44-24.89c.08-1.44.16-2.88.25-4.36,1.73-10.63,7.18-17.69,13.78-25.88,1.78-2.24,3.55-4.48,5.32-6.73.91-1.14,1.81-2.28,2.75-3.45,4.24-5.34,8.43-10.73,12.61-16.12.81-1.04,1.62-2.09,2.46-3.16,6.25-8.04,12.45-16.13,18.62-24.23,5.61-7.35,11.27-14.66,16.95-21.95.82-1.06,1.65-2.12,2.5-3.21q6.3-8.09,9.08-11.65c.62-.8,1.25-1.59,1.89-2.42.53-.68,1.06-1.35,1.6-2.05,11.89-15.4,22.15-30.11,29.81-48.08.77-1.76,1.53-3.51,2.3-5.27,1.61-3.68,3.21-7.37,4.8-11.06,2.46-5.7,4.94-11.38,7.44-17.06,3.31-7.53,6.61-15.07,9.9-22.61.4-.91.79-1.82,1.2-2.75,2.34-5.36,4.67-10.72,7-16.09,1.77-4.07,3.54-8.13,5.31-12.2.64-1.48,1.27-2.95,1.93-4.47.59-1.34,1.17-2.68,1.77-4.06.51-1.17,1.01-2.34,1.54-3.54,2.11-4.19,3.46-5.46,8.08-6.51,6.12,1.18,7.1,3.65,10.6,8.55,4.56,6.82,8.75,13.86,12.98,20.9q18.19,33.4,45.31,58.28c1.1.56,2.19,1.12,3.32,1.7.81.39,1.63.78,2.47,1.19-.84,5.49-2.52,9.61-5.18,14.47-.77,1.41-1.54,2.82-2.33,4.27-.82,1.48-1.64,2.96-2.48,4.49q-1.24,2.29-2.51,4.63-6.88,12.61-10.27,17.63c-10.56,15.77-12.24,35.59-15.33,53.95-3.39,20.03-7.79,39.04-14.08,58.35-2.56,8.08-4.61,16.3-6.71,24.51-.28,1.02-.57,2.03-.86,3.08-2.53,9.23-3.36,18.07-4.75,27.77h119.2c.46-4.16.93-8.33,1.4-12.62-.94-.21-1.88-.41-2.84-.62-4.69-1.1-9.33-2.32-13.98-3.58-.98-.25-1.95-.5-2.96-.75-14.42-3.79-22.8-7.35-30.62-20.55-1.66-4.41-1.88-5.31-.08-9.54,1.83-1.82,3.67-3.62,5.6-5.33,11.1-9.89,16.06-20.23,21.22-33.93.86-2.18,1.72-4.36,2.59-6.53,1.86-4.67,3.69-9.34,5.51-14.03,4.69-12.01,9.63-23.91,14.53-35.83,1.59-3.88,3.17-7.75,4.76-11.63,5.44-13.34,10.92-26.66,16.61-39.89.44-1.03.88-2.06,1.33-3.13.39-.9.77-1.8,1.17-2.73,2.08-5.44,2.63-10.3,2.66-16.11.02-1.35.04-2.7.06-4.09-.89-13.37-4.92-23.53-11.28-35.27-.81-1.52-1.62-3.05-2.45-4.62-6.15-11.5-12.52-22.88-18.99-34.21-6.45-11.3-12.66-22.72-18.8-34.19q-7.51-15.22-17.71-28.52c-3.67-3.76-3.45-6.52-3.66-11.7-.08-1.72-.16-3.45-.24-5.22-.17-7.87-.23-15.74-.12-23.61.79.13,1.58.25,2.39.38,4.05.18,6.5-.14,10.23-1.79,4.59-6,7.46-12.78,10.52-19.63.9-1.93,1.81-3.87,2.72-5.79,1.36-2.87,2.71-5.75,4.04-8.63,3.96-8.57,8.38-16.83,13.08-25.01q2.66-4.76,3.04-10.07-1.13-2.57-3.43-5.09-1.93-2.89-2.02-6.22c2.05-5.06,5.14-9.29,9.9-12.1,8.16.06,15.74,6.38,22.39,10.63,8.4,4.99,14.39,5.56,23.89,3.39q4.14-1.09,7.54-2.63c1.11-.46,2.22-.92,3.36-1.39,6.45-3.28,9.37-6.17,12.04-12.96.55-1.38,1.1-2.76,1.67-4.18.55-1.44,1.11-2.87,1.68-4.35q.86-2.18,1.75-4.4c1.42-3.58,2.82-7.17,4.21-10.76h4.21c1.6,5.98,2.8,10.61,2.8,16.83,13.88-3.24,27.77-6.48,42.07-9.82q-1.01-8.74-2.77-17.13c-.25-.99-.5-1.98-.75-3-.52-2.01-1.04-4.01-1.57-6.01-2.68-10.75-3.12-18.47,2.28-28.54.88-3.67,1.64-7.25,2.28-10.96q1.77-9.92,3.33-11.48c3.58-.13,7.13-.18,10.71-.16q1.68,0,3.4,0c3.73,0,7.45.01,11.18.02,2.58,0,5.15,0,7.73,0,6.79,0,13.59.02,20.38.03,6.93.01,13.85.02,20.78.03,13.6.02,27.2.04,40.81.07v-22.44h44.87v-11.22h-44.87c-.46-5.55-.93-11.11-1.4-16.83l-5.61,1.4c-1.85,3.24-3.7,6.48-5.61,9.82h-197.73v-8.41q6.25-.69,12.62-1.4c.94-4.09,1.88-8.18,2.8-12.27.27-1.16.54-2.31.81-3.51q.38-1.68.77-3.4c.24-1.03.47-2.06.71-3.12q.68-3.38.51-8.56c-1.04-.55-2.08-1.1-3.16-1.67-4.95-3.26-5.77-6.34-7.95-11.7-8.04-18.34-21.41-26.84-39.38-34.31v-1.4"/><path class="g" d="M128.86,602.87c-18.88-17.12-29.94-30.07-32.3-40.69-3.95-17.81,13.44-29.53,33.75-34.04l1.87-.42c1.87-.42,6.14-3.33,5.04-8.33-.14-.62-.35-1.56-.87-2.43l-21.19-43.81c-3.33-6.14-9.86-6.01-22.04-3.3-52.48,11.65-102.55,51.93-91.59,101.29,3.4,15.31,12.9,31.56,30.01,48.08,22.69,22.5,30.4,30.62,32.68,40.93,4.37,19.68-16.26,36.06-37.5,40.77l-1.25.28c-1.87.42-6.21,3.02-5.17,7.7.14.62.35,1.56.8,2.12l20.71,44.57c1.84,3.85,6.35,6.46,10.41,5.56,3.19-.38,6.01-1,9.13-1.7,54.05-11.99,109.42-56.4,97.91-108.26-3.47-15.62-12.97-31.87-30.39-48.33Z"/><path class="g" d="M309.81,583.45l-21.19-6.35c4.04-12.85,8.23-26.33,11.97-39.26,1.26-5.29-.49-9-5.71-10.57l-58.17-16.79-1.25-.3c-8.09-1.92-10.12,3.84-11.32,7.51-4.12,13.17-7.77,25.78-11.21,37.46l-19.63-5.98c-3.74-.89-7.2,1.25-8.33,4.6l-16.02,50.79c-.81,3.43,1.25,7.2,4.6,8.33l23.05,6.8c-17.17,79.14-6.25,110.68,41.51,132.56.86.53,1.79.76,2.73.98,4.67,1.11,8.21-1.34,12.11-6.66l25.52-35.38c.53-.86,1.07-1.72,1.21-2.34.81-3.42-2.63-5.56-5.68-7.93-12.29-9.17-10.92-31.54-4.18-59.87l20.33,5.82.62.15c3.42.81,6.58-1.4,7.63-4.43l16.02-50.79c.89-3.74-1.17-7.52-4.6-8.33Z"/><path class="g" d="M432.52,620.51c1.28.31,2.57.62,3.53.61,3.84-.03,7.02-2.29,7.95-6.78l8.96-45.19c.31-1.6.62-2.89.61-4.16-.03-3.84-1.97-6.39-6.77-7.63-9.94-2.17-20.51-3.37-31.39-3.29-16,.11-32.62,2.79-49.86,8.36l-37.11,2.19c-3.52.03-6.38,3.25-6.35,7.09l10.16,166.34c.03,3.84,3.25,6.38,7.09,6.35l63.65-3.98c3.52-.03,6.38-2.93,6.35-6.45v-.64s-6.9-113.24-6.9-113.24c5.11-1.32,9.59-1.99,14.07-2.02,5.44-.04,10.89.88,16.02,2.45Z"/><path class="g" d="M500.84,699.91c.57-1.29,1.12-2.55,1.67-3.81,2.17-4.94,4.34-9.87,6.51-14.81,7.8-17.84,14.83-41.97,30.06-55.43l12.64-39.6c1.13-2.99-.55-6.7-3.55-7.83l-.6-.23-61.02-19.56c-3.71-1.05-7.12.74-8.47,4.33l-47.44,148.66c-.94,3.41.44,7,3.73,8.25l.6.23,49.51,15.87c1.98-4.34,3.96-8.67,5.96-13,3.54-7.66,7.01-15.34,10.41-23.06Z"/><path class="g" d="M576.18,517.22c.15-1.79.29-3.53.44-5.26.14-1.64.28-3.23.42-4.82.17-2.02.38-4.04.63-6.05-4.4-12.82-14.24-23.62-27.83-28.74-24.56-9.25-51.77,3.07-61.02,27.63-9.14,24.26,3.18,51.47,27.74,60.72,22.09,8.32,46.62-1.16,57.73-21.24.32-3.76.63-7.52.95-11.28.32-3.65.63-7.3.95-10.95Z"/><path class="g" d="M1005.58,666.28c20.25-8.38,39.47-16.23,47.84-19.16,4.03-1.48,6.25-4.14,6.61-7.32.21-1.91-.21-3.89-1.27-5.94l-21.64-45.87c-2.09-4.42-4.81-6.01-7.35-6.29-13.99-1.55-73.21,33.09-87.38,41.82l7.99-135.95c.07-3.53-2.16-6.68-5.66-7.07l-.64-.07-63.96-3.87c-3.22-.03-6.4,2.51-6.75,5.69l-.07.64-4.25,71.76c3.2,5.5,6.35,11.02,9.45,16.57.87,1.57,1.72,3.1,2.57,4.62,6.65,11.73,10.86,21.9,11.79,35.27-.02,1.39-.04,2.74-.06,4.09-.04,5.82-.61,10.67-2.78,16.11-.42.93-.82,1.83-1.22,2.73-.47,1.06-.93,2.1-1.39,3.13-5.94,13.24-11.68,26.55-17.36,39.89-1.65,3.88-3.31,7.76-4.97,11.63-1.52,3.54-3.05,7.09-4.57,10.63l-2.66,44.9c-.11,3.85,2.79,6.75,6.29,7.14l64,3.56c3.82.42,6.71-2.48,7.14-6.29l3.17-54.7,2.01-.74c6.71-2.48,22.23-8.8,39.47-16.23l-26.68,25.7c-1.8,1.73-2.61,3.25-2.79,4.84-.32,2.86,1.31,5.62,3.08,7.1,15.09,11.98,52.13,40.88,68.36,54.27,1.77,1.48,3.6,2.33,5.2,2.51,3.18.35,5.94-1.27,8.87-4.49l29.54-34.07c1.87-2.37,2.72-4.21,2.93-6.11,1.31-11.77-41.36-50.95-62.84-60.42Z"/><path class="g" d="M1249.93,624.58c-2.7-10.21-24.19-77.68-100.91-57.38-70.53,18.66-89.5,73.33-77.8,117.57,12.44,47.02,60.39,85.65,130.62,67.07l3.71-.98c8.97-2.37,11.85-7.77,13.01-13.37,1.86-11.75,4.34-34.91,3.52-38-1.39-5.26-7.39-6.65-11.72-5.51l-.62.16c-2.08.88-4.56,1.54-6.72,2.11-38.67,10.23-61.31-10.26-67.12-32.23-5.07-19.18,3.86-35.45,18.71-39.38,12.99-3.44,21.49,4.91,22.23,7.69,1.15,4.33-.86,5.52-15.96,13.49-3.78,1.99-5.84,4.19-4.94,7.6.33,1.24,11.52,19.79,17.94,29.02,2.22,3.38,4.34,5.14,9.29,3.83,15.92-4.87,37.92-14.33,51.15-23.13,16.61-11.02,19.38-24.33,15.62-38.56Z"/><path class="f" d="M292.43,206.28c1.24-2.95,1.13-6.81-.31-9.16-13.02-19.38-35.18-36-61.43-47.06-69.89-29.44-153.73-17.54-191.38,71.82-31.56,74.91,6.15,151.91,73.68,180.36,35.39,14.91,78.93,16.24,125.03-2.54,4.61-1.88,6.91-4.03,8.03-6.69.87-2.06.85-4.5.54-7.06l-5.47-48.84c-.19-2.86-2.68-5.99-5.63-7.23-1.47-.62-3.49-.78-5.17-.09-26.9,11.93-54.05,11.26-74.7,2.56-30.96-13.05-48.76-44.16-34.1-78.95,15.16-35.98,46.38-49.91,83.53-34.26,16.81,7.08,31.21,19.05,37.87,28.8.64.96,1.69,1.75,2.87,2.25,3.24,1.37,7.31-.04,9.19-2.03l36.14-39.64c.67-.76.92-1.35,1.29-2.24Z"/><path class="f" d="M362.79,242.95c-56.32,0-105.6,34.24-105.6,100.16,0,56.32,45.76,94.08,97.92,94.08,45.44,0,108.8-34.88,108.8-97.28,0-41.6-30.4-96.96-101.12-96.96ZM362.79,376.07c-18.24,0-35.52-14.72-35.52-36.8,0-14.4,7.68-37.12,34.56-37.12,32.64,0,33.92,31.04,33.92,37.12,0,18.24-10.24,36.8-32.96,36.8Z"/><path class="f" d="M634,396.92c-1.67-1.02-3.29-2.01-4.91-3-4.31-2.6-8.07-4.31-10.28-8.78q1.44-9.4,5.55-18.23,4.44-10.16,12.6-33.83c.81-2.35,1.62-4.71,2.44-7.06,1.89-5.46,3.79-10.92,5.67-16.39.52-1.5,5.02-13.96,5.52-15.41,7.48-.48,15.48-.94,22.73-1.4,2.44-5.37.09.14,2.52-5.4l-9.76-56.02c-.85-3.74-4.06-6.29-7.81-5.44l-62.87,10.73c-3.43.78-5.98,3.99-5.44,7.81l18.87,108.61c-6.95,5.52-13.94,9.42-20.17,10.84-13.1,2.99-24.6-4.23-31.97-30.78-10.34-36.7-14.81-53.41-21.45-73.88-1.17-3.67-4.37-6.22-10.61-4.8-5.3,1.21-52.88,15.67-53.05,16.37-3.67,1.17-7.47,4.66-4.55,17.45,4.87,19.9,14.32,58.44,19.88,78.51,16.05,57.39,55.29,74.04,98.66,64.14,13.73-3.13,27.82-8.97,41.73-17.07l8.22-1.4c1.07-4.31,1.79-8.66,2.27-13.31-1.29-.77-2.54-1.51-3.8-2.26Z"/><path class="f" d="M935.25,343.46l-16.41,73.84c-.64,3.79,1.41,7.05,5.14,8l62.58,13.78.63.11c3.16.53,6.47-1.83,7.01-4.99l25.28-113.54c22.82,5.14,36.58,21.73,31,54.87l-1.81,10.73c-9.46,56.17,38.22,81.4,43.9,82.35,2.84.48,6.16.06,9.74-1.93,0,0,35.01-17.15,35.12-17.78,2.47-1.21,3.74-2.94,4.06-4.83.58-3.47-2.04-7.16-3.67-9.05-10.92-14.17-12.63-29.06-9.66-46.73l1.75-10.41c10.15-60.27-31.86-107.58-95.92-118.37-10.53-1.77-21.52-2.49-33.21-2.23-.42,1.95-.88,3.9-1.37,5.88-5.64,10.07-5.19,17.79-2.39,28.54.55,2,1.1,4.01,1.64,6.01.27,1.02.53,2.01.79,3,1.84,8.4,2.81,18.6,3.87,27.33l-68.08,15.42Z"/><path class="f" d="M1282.75,299.97l-21.14-6.51c4.14-12.82,8.43-26.27,12.25-39.17,1.3-5.28-.43-9-5.63-10.61l-58.05-17.22-1.24-.31c-8.08-1.98-10.15,3.77-11.38,7.42-4.21,13.13-7.96,25.72-11.48,37.38l-19.58-6.13c-3.73-.92-7.21,1.19-8.36,4.54l-16.4,50.67c-.84,3.42,1.19,7.21,4.54,8.36l23,6.97c-17.75,79.01-7.06,110.63,40.53,132.86.86.54,1.79.77,2.72,1,4.66,1.14,8.22-1.28,12.16-6.57l25.77-35.19c.54-.86,1.08-1.71,1.23-2.33.84-3.42-2.58-5.58-5.62-7.97-12.23-9.26-10.69-31.62-3.75-59.9l20.28,5.97.62.15c3.42.84,6.59-1.35,7.67-4.38l16.4-50.67c.92-3.73-1.12-7.52-4.54-8.36Z"/><path class="f" d="M1394.42,273.83c-72.96,0-105.28,48-105.28,93.76,0,48.64,36.48,98.24,109.12,98.24h3.84c9.28,0,13.44-4.48,16-9.6,4.8-10.88,13.12-32.64,13.12-35.84,0-5.44-5.44-8.32-9.92-8.32h-.64c-2.24.32-4.8.32-7.04.32-40,0-56.64-25.6-56.64-48.32,0-19.84,12.8-33.28,28.16-33.28,13.44,0,19.52,10.24,19.52,13.12,0,4.48-2.24,5.12-18.88,8.96-4.16.96-6.72,2.56-6.72,6.08,0,1.28,6.08,22.08,9.92,32.64,1.28,3.84,2.88,6.08,8,6.08,16.64-.64,40.32-4.16,55.36-9.28,18.88-6.4,24.96-18.56,24.96-33.28,0-10.56-3.52-81.28-82.88-81.28Z"/><path class="f" d="M1610.58,270.46c-.65-3.78-2.98-5.98-7.93-6.43-10.16-.52-20.78.02-31.5,1.87-15.77,2.72-31.73,8.07-47.83,16.38l-36.25,8.21c-3.47.6-5.76,4.24-5.11,8.03l37.14,162.45c.65,3.78,4.24,5.76,8.03,5.11l62.15-14.3c3.47-.6,5.82-3.93,5.22-7.4l-.11-.63-25.26-110.6c4.83-2.13,9.13-3.52,13.55-4.29,5.36-.93,10.88-.9,16.2-.2,1.32.1,2.63.19,3.58.03,3.78-.65,6.56-3.41,6.74-7.98l1.47-46.04c.04-1.63.14-2.95-.08-4.21Z"/><path class="e" d="M1417.45,791.92c-4.2-1.31-5.94-6.47-4.39-11.43l19.58-62.61c2.03-6.49,5.09-12.24,11.29-11.98,69.75,2.12,119.05-33.6,130.63-70.63,9.07-29.01-4.76-58.49-49.04-72.34-8.02-2.51-17.42-4.61-27.44-6.07-.76-.24-2.41-.34-4.32-.93-4.2-1.31-9.19-4.13-7.8-11.24l11.68-58.79.72-2.29c1.67-5.35,5.39-9.21,9.57-9.16,25.08,1.56,47.29,5.57,66.76,11.66,92.39,28.89,119.83,103.28,100.37,165.5-13.25,42.38-48.12,78.83-99.52,90.41-2.77.81-4.27,1.6-4.63,2.74-.48,1.53,1.46,3.39,3.36,3.99l.38.12,80.41,24.31c4.58,1.43,6.44,6.2,4.77,11.55l-20.77,66.43c-1.67,5.34-6.68,7.97-11.26,6.54l-210.35-65.79Z"/><path class="g" d="M369.14,144.38c-1.25-.56-1.43-1.69-1.26-2.75.11-.71.33-1.28.66-1.84,14.39-20.78,22.21-39.94,22.34-40.77.11-.71-.13-1.48-1.41-1.81l-13.43-3.37c-7.87,17.21-16.87,34.72-25.16,47.73-.78,1.09-2.12,1.85-3.42,1.64l-.36-.06-18.5-5.88c-1.15-.43-1.92-1.65-1.73-2.83.04-.24.18-.34.21-.57,5.32-11.18,13.49-29.55,21.06-47.18l-12.84-3.28c-1.17-.31-1.96-1.41-1.75-2.71l.04-.24,4.25-17.43c.33-1.28,1.55-2.06,2.85-1.85l.24.04,16.26,3.95c3.19-7.75,5.85-14.5,7.56-19.08.41-1.03,1.86-1.77,3.17-1.56l.24.04c4.39,1.43,15.26,4.88,21.07,6.54,1.74.52,2.4,2.45,2.19,3.76-.25,1.54-4.29,12.32-6.17,17.24l28.55,6.89c5.02,1.29,11.37,7.17,10.17,14.63-1.31,8.18-16.35,40.52-35.34,57.4-.55.4-2.02,1.26-3.8.97-.36-.06-.81-.25-1.27-.45l-14.4-7.17Z"/><path class="g" d="M464.52,158.98c-1.13-.62-2.01-1.33-1.88-2.41.06-.48.35-.92.92-1.58,17.34-18.32,32.44-43.07,32.72-45.34.16-1.31-.6-2.01-2.14-2.32l-20.06-4.02-.83-.1c-1.91-.23-2.48.54-2.93,2.18l-2.7,11.28c-.43,1.52-2.05,2.89-3.59,2.71l-.24-.03-22.09-4.26c-1.77-.34-2.94-1.69-2.76-3.12l.04-.36,6.81-29.15c.79-3.53,4.3-5.52,7.99-5.07l.71.09,66.32,13.27c6.37,1.26,12.28,6.33,11.43,13.36-.35,2.86-8.02,32.14-47.37,61.44-.65.4-2.32,1.17-4.22.94-.48-.06-.95-.12-1.52-.43l-14.61-7.1ZM477.53,78c-1.67-.2-2.97-1.45-2.79-2.88l1.91-15.72c.19-1.55,1.91-2.79,3.46-2.6l27.04,3.29c1.79.22,3.04,1.82,2.85,3.37l-1.91,15.72c-.19,1.55-2.21,2.27-3.52,2.11l-27.04-3.29Z"/><path class="g" d="M569.81,98.88c-1.32.96-2.16,1.32-2.88,1.32-.84,0-1.44-.6-2.28-1.44-18-18.36-20.4-20.88-20.4-22.92,0-.6.24-1.08.84-1.44l16.08-10.68c1.08-.84,2.28-1.44,3.48-1.44,3.48,0,25.32,14.64,25.32,20.88,0,.96-.36,1.68-1.32,2.4l-18.84,13.32ZM640.48,115.2c.24.36.24.72.24.96,0,.84-.48,1.68-1.2,2.28-21.6,17.04-44.64,29.04-68.52,36-.36.12-.72.24-1.08.24-.84,0-1.68-.48-2.16-1.32l-11.88-21.24c-.12-.36-.24-.72-.24-1.08,0-.84.48-1.68,1.32-2.16,18.84-7.32,54.96-24.12,69.96-33.48.36-.12.72-.24.96-.24.84,0,1.68.48,2.16,1.32l10.44,18.72Z"/><path class="g" d="M720.56,97.52c-.73,1.73-1.4,2.43-2.2,2.67-.57.17-1.14-.03-1.97-.28-2-.4-6.74-1.97-12.57-3.84-11.86,18.39-23.85,29.29-25.11,29.67-1.15.35-3.16.33-5.1-.71l-13.05-7.08c-.75-.4-1.15-.91-1.33-1.48-.21-.69.09-1.78,1.11-2.97,6.04-6.97,12.37-16.29,17.84-25.97l-13.95-4.67c-1.51-.42-2.89-1.26-3.2-2.29-.1-.34-.09-.72.15-1.17l5.99-12.1c.61-1.31,1.27-2.01,2.42-2.36,2.53-.77,11.79.44,19.24,1.44,3.53-8.21,4.59-10.92,4.1-12.53-.31-1.03-1.36-1.59-2.89-1.26l-16.69,3.68c-2.42,2.36-16.39,16.25-21.22,17.71-1.03.31-2.06.25-3.06-.58l-14.77-12.33c-.82-.63-1.14-1.28-1.28-1.74-.31-1.03.09-1.78.87-2.52,10.41-8.67,19.64-21.25,25.31-29.86.43-.63,1.1-1.34,1.9-1.58,1.26-.38,1.53-.34,10.63,6.94l36.24-7.84c4.93-1.12,12.42,1.25,14.57,8.37,1.84,6.09,1,21.51-6.21,39.12,9.09,2.26,12.38,4.02,12.97,5.98.17.57.08,1.1-.2,1.82l-8.54,17.76Z"/><path class="g" d="M753.85,67.43c-1.29.27-3.18-.57-3.5-2.09l-4.43-21.39c-.29-1.41.99-2.9,2.29-3.17l79.81-16.4c1.29-.27,3.06.59,3.38,2.12l4.4,21.27c.29,1.41-1.02,2.78-2.31,3.05l-79.64,16.61Z"/><path class="f" d="M863.2,77.93c-.39-.66-.67-1.3-.59-1.9.13-.95.96-1.68,2.72-2.17,25.9-8.67,47.74-35.34,48.56-41.28.2-1.43-.54-2.25-2.3-2.62l-24.91-5.61c-1.29-.3-2.09-1.5-1.91-2.81l.03-.24,4.48-19.37c.3-1.29,1.5-2.09,2.81-1.91l.24.03,46.92,10.22c5.28,1.21,12,6.98,10.9,14.95-.07.48-.23.82-.3,1.29-6.79,29.11-38.74,60.56-71.99,67.13-1.12.21-2.12.43-3.19.29s-2.07-.77-2.96-2.22l-8.52-13.77ZM934.14,65.89c1-1.07,2.11-1.28,3.18-1.14.95.13,15.21,3.91,28.65,14.48,1.09.88,1.57,1.79,1.44,2.74-.1.71-.55,1.38-1.14,2.14-3.52,4.48-11.33,13.7-15.13,18.39-.73.87-1.49,1.13-2.32,1.01-.71-.1-1.5-.57-2.04-1.01-5.85-5.04-18.35-15.37-23.81-19.75-.87-.73-1.62-1.43-1.49-2.39.07-.48.38-1.04.94-1.57l11.71-12.92Z"/><path class="f" d="M985.66,127.06c-1.29-.29-2.13-1.47-1.83-2.76l22.47-98.63c.29-1.29,1.59-2.1,2.87-1.81l23.05,5.25c1.29.29,1.98,1.56,1.69,2.85l-9.14,40.13,8-7.04c1.09-.98,2.22-1.09,3.39-.83,3.51.8,21.05,9.72,29.97,17.53,1.13,1,1.53,1.95,1.31,2.88-.24,1.05-.87,1.65-18.36,19.57-.8.8-1.7.97-2.52.78s-1.56-.72-2.06-1.21c-5.02-4.96-15.61-14.14-22.48-19.64l-10.58,46.45c-.29,1.29-1.44,2.01-2.73,1.72l-23.05-5.25Z"/><path class="f" d="M1112.79,141.34c-1.07-.72-2.1-1.68-1.82-2.97.13-.59.46-1.01.96-1.63,10.94-11.52,22.09-28.03,22.62-30.49.33-1.53-.82-1.9-1.5-2.16l-45.19-13.62c-1.15-.37-1.89-1.51-1.63-2.68l.05-.23,5.71-18.04c.37-1.15,1.63-1.86,2.8-1.61l.23.05,65.88,19.54c7.03,2.12,11.07,7.9,9.68,14.35-1.49,6.92-14.15,32.8-38.4,47.97-.71.46-2.46,1.19-4.22.81-.59-.13-1.03-.34-1.57-.7l-13.62-8.57ZM1156.41,75.34c-14.68-3.64-34.35-9.21-46.36-12.16-1.52-.33-2.49-2.13-2.19-3.54l.05-.23,5.11-16.95c.56-1.47,2.1-2.37,3.63-2.04l.23.05c12.81,3.24,35.91,8.81,46.49,11.57,1.5.44,2.37,2.1,2.07,3.51l-.05.23-5.12,17.56c-.44,1.5-2.1,2.37-3.63,2.04l-.23-.05Z"/><path class="f" d="M1232.96,161.64c-1.32-.08-2.34-1.11-2.25-2.42l3.16-51.02c-18.25,5.36-31.47,7.31-32.91,7.22-1.08-.07-2.01-.61-2.3-1.7l-5.96-18.4c-.1-.37-.2-.61-.18-.97.06-.96.71-1.76,1.57-2.07,24.65-7.85,59.25-22.91,79.36-31.28.37-.1.73-.2,1.09-.17,1.2.07,2.6.76,3.03,1.63l11.26,21.98c.11.25.2.61.18.97-.07,1.08-.74,2.24-1.74,2.78-9.8,4.92-25.94,11.26-42.5,16.61l15.81.98c1.32.08,2.21,1.22,2.13,2.54l-3.26,52.7c-.08,1.32-1.1,2.22-2.42,2.14l-24.07-1.49Z"/><path class="f" d="M1326.86,143.41c-.71-.46-1.04-.89-1.17-1.47-.17-.82.24-1.77,1.34-2.98,19.48-18.79,36.73-51.21,36.09-54.26-.2-.94-1.14-1.36-2.58-1.18l-13.49,1.72c-13.45,9.56-22.02,14.29-24.6,14.84-1.17.25-2.19.09-3.26-.91l-13.47-13.98c-.62-.61-1-1.26-1.1-1.73-.22-1.06.34-1.91,1.32-2.48,11.35-6.67,22.23-17.4,29.01-24.83.49-.59,1.12-1.09,1.94-1.26,1.53-.32,2.62.8,8.61,7.15l37.23-4.85c4.89-.66,12,2.27,13.47,9.32.15.7.18,1.43.21,2.16,1.46,39.17-46.96,83.75-52.59,84.93-.82.17-1.6-.03-2.6-.68l-14.37-9.5Z"/><path class="e" d="M1281.58,612.22c-.47-.09-.96-.07-1.32-.14-2-.4-2.07-1.27-2.23-2.9-.54-5.25-2.45-24.36-2.05-26.36.24-1.18.8-2.16,2-2.05l18.8,1.45,1.06.21c1.41.28,2.66.78,3.29,2.5,2.18,4.97,6.93,19.14,5.58,25.84-.31,1.53-1.16,2.71-2.97,2.59l-22.17-1.15ZM1293.03,657.6c-.75-.52-1.27-1.6-1.08-2.54.09-.47.28-.8.71-1.08,14.22-11.1,29.67-28.31,41.97-43.84l-18.61-.55c-.61,0-1.2-.12-1.55-.19-1.65-.33-1.72-1.2-1.9-2.71-.58-4.4-2.92-24.45-2.57-26.22.26-1.29.83-2.28,2.03-2.16l18.17.95c.49-.02.96.07,1.44.17,1.29.26,2.4.85,2.96,2.31,2.09,4.83,5.21,13.65,6.01,20.67,4.03-5.43,7.61-10.47,10.44-14.79.66-.85,1.58-1.15,2.64-.94.35.07.68.26,1.01.45l19.4,13.69c.73.64.92,1.53.7,2.59-1.04,5.18-27.57,45.87-61.4,64.41-.66.85-1.58,1.15-2.64.94-.35-.07-.68-.26-1.01-.45l-16.7-10.7Z"/><path class="e" d="M1392.8,643.34c-1.32-.04-2.96-1.3-2.91-2.86l.72-21.83c.05-1.44,1.65-2.59,2.96-2.54l81.43,2.82c1.32.04,2.84,1.29,2.79,2.85l-.72,21.71c-.05,1.44-1.64,2.47-2.96,2.42l-81.32-2.57Z"/><path class="e" d="M50.27,834.07c-.06,8.8-7.77,13.23-15.85,13.17-7.84-.05-18.13-4.53-18.04-16.92.07-10.8,7.56-18.11,17.51-21.4l.04-5.12-10.56.25c-.8,0-1.52-.65-1.51-1.45l-.16-11.44v-.08c0-.8.73-1.35,1.53-1.43l10.72-.17c.01-1.92-.06-3.36-.05-4.16,0-.96.17-1.76,1.61-1.75l12.96.09c1.36,0,1.91,1.37,1.9,2.25l-.02,3.2,4.96-.05h.16c.8,0,1.44.73,1.43,1.45l.08,11.36c0,.8-.65,1.52-1.53,1.59l-5.28.04c0,1.28.06,2.48.05,3.76,18.23,1.73,29.58,14.84,29.49,28.36-.06,8.64-4.83,15.33-6.75,15.31-1.2,0-11.33-5.04-11.88-5.28-.56-.24-.88-.73-.87-1.29,0-.24.08-.48.25-.8,1.13-1.67,1.87-4.87,1.89-7.83.06-8.72-6.88-11.81-12.15-12.72l.09,10.72v.32ZM34.18,823.71c-2.49.94-4.82,2.53-4.84,5.73-.02,2.88,2.14,2.9,2.38,2.9,1.2,0,2.41-.86,2.42-2.54l.04-6.08ZM75.29,814.08c-.4.32-.72.48-1.04.47-.4,0-.8-.25-1.2-.65-2.62-3.22-8.89-10.7-11.51-13.76-.16-.24-.32-.48-.31-.8,0-.32.17-.72.65-1.04l7.72-6.03c.4-.32.64-.48,1.04-.47,1.92.01,14.08,11.14,14.07,13.62,0,.4-.17.8-.65,1.2l-8.77,7.46Z"/><path class="e" d="M105.34,807c-1.44,0-1.76-.57-1.75-1.77v-1.92c-.31.08-.63.08-.95.07-.72,0-1.36-.09-1.92-.33l-10.93-4.48c-.96-.41-1.43-1.13-1.43-1.93,0-.4.17-.8.41-1.12l12.93-18.23c.48-.72,1.13-1.03,1.93-1.03.4,0,.8.09,1.28.25l12.29,4c.8.25,1.35,1.05,1.35,1.85v.16s41.83,1.89,41.83,1.89c1.2.09,1.6.65,1.59,1.77l-.39,10.32c0,1.04-.65,1.68-1.69,1.67h-.16s-49.5-2.58-49.5-2.58l-2.75,4.06,44.16.7c1.12,0,1.68.49,1.67,1.45v.24s-.19,4.32-.19,4.32c-.09,1.12-.65,1.76-1.77,1.75l-45.99-1.12ZM147.75,852.74c-6-.04-8.62-3.18-8.58-8.3,0-.56,0-1.2.09-1.92l1.87-15.83v-.56c.01-1.6-.94-2.25-2.54-2.26l-20.64-.3,10.6,5.19c.56.32.87.89.87,1.53,0,.4-.17.8-.41,1.2l-2.99,3.98,8.06,2.46c.72.25,1.19.81,1.19,1.61,0,.24,0,.56-.17.88l-2.77,7.74c-.25.72-.89,1.11-1.69,1.11-.24,0-.48-.08-.8-.17l-11.18-3.52-3.88,5.25c-.65.88-1.85,1.27-2.97,1.26-.56,0-1.12-.17-1.6-.33l-11.01-4.88c-.72-.32-1.03-.97-1.03-1.61,0-.4.17-.8.41-1.12l3.07-4.06-7.26-2.29c-.96-.33-1.43-.89-1.43-1.61,0-.16.08-.4.16-.64l3.17-7.34c.33-.8.89-1.11,1.53-1.11.32,0,.56.08.88.17l10.3,3.11,5.25-6.84-17.2-.28c-1.12,0-1.44-.65-1.43-1.61l.06-9.28c0-1.36.73-1.52,1.69-1.51l52.64.76c6.08.12,8.7,3.34,8.66,9.1,0,.88-.09,1.76-.18,2.72l-1.61,12.71c1.68-.15,3.2-.62,4.65-1.17.24-.08.48-.16.72-.15.64,0,1.04.49,1.19,1.29l1.53,9.93c0,.24.08.4.08.64,0,1.44-.74,2.71-1.62,3.03-4.25,1.73-10.74,3.05-15.46,3.01h-.24Z"/><path class="e" d="M176.6,844.69c-1.04,0-2.15-.89-2.31-1.94-.68-5.12-1.1-14.65-1.02-26.65.05-7.36.27-15.6.73-24.32.09-1.04.89-1.91,2.01-1.91l14.08.34c1.04,0,1.91.97,1.91,2.01,0,0-1.1,31.35-1.19,45.75l-.03,4.08c0,.96-.65,1.83-1.61,1.83l-12.57.79ZM234.21,844.53c-.25,1.52-1.61,1.51-2.97,1.5-11.68-.08-22.54-3.43-30.11-7.17-.88-.41-1.51-1.05-1.51-1.93v-.24s1.91-10.47,1.91-10.47c.17-.88.89-1.59,1.69-1.59.16,0,.32,0,.48.08,8.38,2.46,20.45,4.3,30.85,5.01.96.09,1.59,1.05,1.59,2.01v.16s-1.93,12.63-1.93,12.63ZM203.02,807.35c-.96-.09-1.75-.97-1.75-1.93v-.16s.96-11.35.96-11.35c.17-1.84,1.77-1.91,11.53-1.84,17.04.12,17.27,1.32,17.26,2.84v.16s-.88,11.92-.88,11.92c-.09.96-1.05,1.67-2.09,1.67l-25.03-1.29Z"/><path class="e" d="M245.08,844.77c-.64-.4-.95-.97-.95-1.69,0-.48.17-.96.57-1.52l18-23.24c.48-.64.97-.87,1.61-.87.48,0,.96.17,1.52.57l10.99,7.68c.56.32.79.96.79,1.69,0,.48-.17.96-.41,1.36l-15.75,22.05c-.65.96-1.93,1.43-3.21,1.42-.96,0-1.92-.25-2.79-.82l-10.36-6.63ZM300.31,852.19c-.72.47-1.6.63-2.48.62-1.44,0-2.96-.66-3.67-1.79-6.81-10.77-10.75-18.95-12.46-26.89l-5.19-24.28c-.47-2-1.42-2.81-3.5-2.9l-17.03-.84c-1.44-.09-1.83-.89-1.83-2.01v-.4s.98-13.35.98-13.35c.09-.88.65-1.44,1.85-1.43h.24s26.07,1.38,26.07,1.38c5.44.28,8.77,3.82,9.86,8.95l6.04,28.52c1.08,5.13,5.6,12.28,13.52,23.61.4.56.55,1.12.55,1.6,0,.8-.49,1.44-1.21,1.91l-11.73,7.28Z"/><path class="e" d="M324.07,817.71c-.72-.25-1.43-.81-1.43-2.17.04-5.36,3.08-17.26,3.41-18.46.25-1.04.97-1.67,2.01-1.67.16,0,.4.08.56.08l14.38,2.66c.72.08,1.75.81,1.74,2.41,0,.24-.08.48-.08.72l-2.44,17.26c-.17.96-1.13,1.99-2.57,1.98-.24,0-.4-.08-.64-.08l-14.94-2.74ZM352.99,847.11c-.8-.25-1.03-.81-1.03-1.37,0-.56.17-1.12.49-1.68,3-5.26,4.16-11.65,4.21-18.37.08-11.84-3.27-24.66-6.64-34.37-.16-.4-.23-.8-.23-1.12,0-.88.49-1.6,1.53-1.91l14.35-3.5c.48-.08.88-.15,1.2-.15,1.6.01,2.07,1.05,2.39,1.94,4.49,10.59,8.15,24.14,8.07,37.02-.07,9.84-2.37,19.34-8.19,26.9-.73.88-1.45,1.35-2.49,1.34-.48,0-1.12-.17-1.84-.41l-11.81-4.32Z"/><path class="e" d="M422.86,831.83c-.03,4.32-20.24,11.62-25.52,11.58-1.2,0-2.32-.5-2.95-1.54-6.17-10.12-8.83-19.02-8.78-26.54.13-18.8,16.34-26.37,31.62-26.26,22,.15,35.42,14.4,35.3,32.32-.07,10-4.77,19.65-13.31,28.23-.97.95-1.85,1.35-2.73,1.34-.56,0-1.2-.25-1.76-.49q-12.2-6.08-12.19-7.04c0-.48.25-.96.81-1.43,6.6-5.96,10.57-13.69,10.62-20.57.04-6.16-4.21-16.27-17.01-16.36-8.8-.06-15.39,4.69-15.44,11.81,0,.48.51,6.96,2.99,6.98.16,0,.4-.08.56-.16,2.81-1.42,8.67-4.9,10.84-6.01.64-.32,1.12-.47,1.52-.47.56,0,.96.33,1.11.81,0,0,4.31,12.67,4.31,13.79Z"/><path class="e" d="M903.91,831.27c-.19,4.32-20.66,10.86-25.93,10.63-1.2-.05-2.3-.58-2.89-1.65-5.79-10.34-8.12-19.33-7.79-26.85.83-18.78,17.31-25.75,32.57-25.08,21.98.97,34.87,15.71,34.08,33.61-.44,9.99-5.5,19.46-14.35,27.72-1,.92-1.9,1.28-2.78,1.24-.56-.02-1.19-.29-1.74-.56q-11.97-6.53-11.92-7.49c.02-.48.28-.95.86-1.4,6.82-5.71,11.07-13.29,11.38-20.16.27-6.15-3.6-16.41-16.39-16.98-8.79-.39-15.56,4.12-15.87,11.23-.02.48.25,6.98,2.73,7.09.16,0,.4-.06.57-.14,2.86-1.32,8.85-4.58,11.06-5.6.65-.29,1.14-.43,1.54-.41.56.02.95.36,1.08.85,0,0,3.84,12.82,3.79,13.94Z"/><path class="e" d="M979.95,821.08l-15.91,32.21c-.53,1.18-2.17,2.07-3.85,1.99-.56-.03-1.04-.13-1.58-.39l-13.04-5.7c-.87-.36-1.24-1.02-1.21-1.66.02-.4.12-.88.38-1.26l13.75-25.1-13.93.03h-.16c-1.28-.06-1.65-.8-1.69-1.6l-.39-12.91v-.24c.06-1.04.63-1.33,1.59-1.37l21.87-.08,7.36-21.7c.28-.79.94-1.24,1.74-1.2h.32s15.68,3.91,15.68,3.91c.79.19,1.4.86,1.37,1.74,0,.16-.02.4-.11.56l-5.45,16.58,24.11-.06h.16c.88.05,1.41.63,1.38,1.51l-.25,12.96c-.05,1.04-.55,1.58-1.51,1.61l-30.6.18ZM999.11,857.07c-.9.52-1.88.8-2.84.76-1.28-.06-2.38-.58-2.9-1.49l-9.56-17.64c-.3-.49-.44-.98-.42-1.46.03-.64.37-1.19,1.11-1.55l11.78-5.57c.49-.22.98-.36,1.38-.34.72.03,1.34.46,1.79,1.2l10.98,16.18c.38.5.52.98.5,1.46-.03.64-.46,1.26-1.2,1.71l-10.63,6.74Z"/><path class="e" d="M1044.2,847.84l-1.82,4.88c-.37,1.03-1.44,1.78-2.4,1.74-.08,0-.24-.09-.32-.09l-11.06-3.53c-1.03-.29-1.55-1.19-1.51-1.99.01-.24.1-.48.19-.71l1.89-4.64c-5.85-1.78-8.34-3.41-8.14-7.88.03-.56.05-1.12.15-1.68l2.87-17.97h-1.84s-.24-.01-.24-.01c-1.2-.05-1.81-.72-1.84-1.84l-.43-10.19.02-.4c.05-1.2.79-1.65,1.92-1.68l4.65-.12,2-12.8c.21-1.03,1.03-1.64,1.99-1.59h.32s13.35,2.44,13.35,2.44c1.11.21,1.8.88,1.76,1.84v.32s-1.47,9.46-1.47,9.46l9.06-.16h.24c.96.05,1.66.56,1.69,1.69l.1,10.42v.16c-.06,1.12-.73,1.81-1.85,1.84l-14.75.31-2.21,13.76,3.16.94,4.07-10.63c.28-.79.93-1.16,1.65-1.13.24.01.48.02.72.11l6.15,2.19c.87.36,1.23,1.09,1.2,1.89-.01.24-.02.48-.11.72l-3.72,9.93,3.24.94c.87.28,1.49.79,1.45,1.75-.01.24-.02.48-.11.72l-2.8,9.09c-.47,1.5-1.58,3.05-3.49,2.97-.32-.01-.64-.11-.95-.2l-2.77-.84ZM1063.92,858.24c-.79-.2-1.58-.55-1.54-1.43.01-.24.02-.56.2-.87,2.19-4.39,3.17-6.51,3.27-8.83.02-.48.04-.88-.02-1.36l-.73-9-7.54.31h-.24c-1.2-.06-1.58-.56-1.69-1.69l-.65-10.84.02-.48c.05-1.12.62-1.33,1.58-1.37l8.99-.41c3.31-6.02,6.73-12.92,8.94-17.62l-14.83-1.37c-1.44-.14-2.05-.81-2-1.93v-.16s1.1-12.12,1.1-12.12c.14-1.36.95-1.64,1.91-1.6l.48.02,27.03,2.63c3.19.3,5.02,2.3,4.91,4.94v.16s-.41,5.59-.41,5.59c-.05,1.12-.64,3.73-1.27,5.23-1.88,4.4-4.51,9.73-7.49,15.45l8.74-.34h.24c1.04.06,1.5.56,1.52,1.76l.33,10.66v.24c-.06,1.04-.48,1.66-1.61,1.69l-10.59.5.89,10.77c.04.8.09,1.61.05,2.48-.1,2.24-.62,4.94-1.99,8.72-.55,1.66-1.89,2.88-4.05,2.79-.24-.01-.56-.02-.88-.12l-12.71-2.4Z"/><path class="e" d="M1126.43,860.91c-.36.87-.93,1.16-1.81,1.12-2.48-.11-16.96-4.03-23.48-8.72-.47-.34-.99-1.08-.96-1.96.01-.24.1-.56.28-.87l6.11-11.42c.44-.78.79-1.65,1.75-1.6.32.01.72.11,1.18.37,4.46,2.44,14.82,7.22,20.57,9.31.71.27,1.24.94,1.2,1.81-.01.32-.03.64-.2.95l-4.65,11.01ZM1141.19,843.86c-.33.15-.81.28-1.21.27-.64-.03-1.19-.29-1.64-.95-2.73-3.56-5.08-8.31-7.17-13.69l-27.08.33c-.88-.04-1.57-.79-1.61-1.67l-.03-10.25v-.32c.05-.72.31-1.27,1.19-1.31l23.39-.17c-.41-1.62-.74-3.24-1.07-4.85l-19.8-1.27c-.96-.04-1.57-.79-1.53-1.67l.69-10.22c.04-.96.79-1.57,1.67-1.53l16.93,1.14c-.16-1.93-.24-3.61-.25-5.14.04-.8.63-1.65,1.92-1.68l12.1-.11.72.03c.96.04,1.91.32,2.16,1.94.24,1.93.63,3.95,1.02,6.05l6.55.45c.88.04,1.49.79,1.45,1.67l-.61,10.22c-.12.96-.87,1.56-1.75,1.53l-2.71-.2c.27,1.13.54,2.27.89,3.4l6.17-.05c.88.04,2.05.81,2.01,1.69l.11,10.25c-.04.88-.71,1.57-1.67,1.53l-2.96.03c.91,3,1.75,5.84,2.67,8.61.14.49.36.9.34,1.38-.02.48-.28.95-.95,1.48l-9.91,3.09Z"/><path class="e" d="M1220.95,847.44c-.28.79-1.04,1.72-2.4,1.66-.24,0-1.91-.24-3.97-.73-1.55,9.7-10.63,16.03-21.58,15.55-9.35-.41-16.88-5.95-16.51-14.18.17-3.84,2.1-7.68,5.2-10.74-.08,0-.24.07-.4.06-.16,0-.4-.1-.64-.11l-12.55-2.39c-.63-.27-1.24-1.02-1.2-1.89,0-.16.02-.4.1-.56.84-2.61,1.97-8.48,3.14-14.92l-6.17.05c-.88-.04-1.49-.71-1.45-1.59l.3-12.32v-.16c.04-.8.79-1.41,1.51-1.38l8.41-.03c.55-3.34.9-5.97,1.04-7.32.22-1.27.97-2.04,2.57-1.97h.24s12.28,1.11,12.28,1.11c1.36.06,1.79,1.28,1.75,2.16-.16,1.75-.33,3.83-.59,6.06h3.92c.8.05,1.41.71,1.45,1.6l-.38,12.32v.16c-.04.8-.71,1.41-1.51,1.38l-5.85-.02c-1.28,7.31-2.95,14.28-4.73,18.45l-.17.31c4.91-4.27,10.71-5.05,16.98-5.5.15-1.67.31-3.35.37-4.87.15-1.59.49-2.14,2.09-2.07h.32s12.35,1.44,12.35,1.44c1.83.24,2.29.82,2.23,2.18v.32c-.06,1.12-.2,2.39-.34,3.75l4.85.85c1.43.3,1.63,1.19,1.6,1.75-.01.32-.1.56-.1.56l-2.17,11.04ZM1190.9,847.88c-.07,1.52,1.4,2.86,3.23,2.95,3.36.15,3.97-2.95,4.5-5.89-5.83-.26-7.67,1.34-7.74,2.94ZM1206.75,820.71c-.56-.02-1.1-.45-1.3-1.42l-2.04-11.78c-.07-.24-.06-.4-.06-.56.08-1.76,11.49-6.38,17.81-6.1.64.03,1.27.22,1.61,1.59l2.76,13.65c.07.24.06.48.05.72-.04.88-.54,1.34-1.51,1.46-3.63.56-12.81,1.76-17,2.46h-.32Z"/><path class="e" d="M1264.55,864.81c-.96-.04-1.72-.96-1.68-1.92v-.16s6.02-62.2,6.02-62.2c.05-1.04.96-1.8,2.08-1.75l14.51,1.44h.32s22.01,2.18,22.01,2.18c.96.04,1.8.96,1.75,2v.16s-1.47,15.07-1.47,15.07c-.04.96-.96,1.8-2,1.75h-.16s-19.14-1.89-19.14-1.89l-.59,6.14,13.92,2.05c1.03.21,1.72,1.04,1.67,2v.24s-2.36,13.35-2.36,13.35c-.12.96-1.04,1.72-2.08,1.67h-.16s-12.73-1.93-12.73-1.93l-2.07,21.61c-.12,1.04-1.04,1.8-2.08,1.75l-15.79-1.58Z"/><path class="e" d="M1331.93,869.45l-16.75-1.62c-.96-.12-1.56-.87-1.52-1.83l6.05-63.08c.04-.8.79-1.49,1.67-1.45h.16s14.6,1.37,14.6,1.37c3.24-.9,6.46-1.32,9.58-1.18,14.79.65,27.65,12.19,26.97,27.61-.65,14.79-11.17,24.65-27.8,23.92-3.36-.15-6.61-.77-9.61-1.78l-1.53,16.51c-.12.88-.87,1.56-1.67,1.53h-.16ZM1336.78,835.55c1.72.88,3.94,1.54,6.09,1.63,8.79.39,9.17-8.17,9.19-8.73.25-5.59-4.06-9.71-9.97-9.97-1.12-.05-2.41.05-3.7.32l-1.62,16.74Z"/><path class="e" d="M1375.83,858.17c-.07-.16-.06-.4-.06-.56.05-1.2,1.27-1.55,1.75-1.52h.32c5.43.25,11.48-2.37,11.7-7.4.12-2.64-1.22-5.1-5.24-12-3.06-5.1-4.3-9.64-4.13-13.55.55-12.63,15.25-19.11,28.68-18.52,3.12.14,4.7.53,5.11,2.23l2.28,11.95c.07.24.06.48.05.64-.06,1.28-1.28,1.71-1.75,1.68l-.48-.02c-5.2-.23-10.15,1.48-10.35,6.03-.12,2.72,1.71,6.56,5.16,11.92,3.14,5.1,4.38,9.64,4.21,13.64-.58,13.27-16.83,20.4-30.66,19.79-.8-.04-1.52-.07-2.31-.18-1.04-.04-1.96-.97-2.15-2.02l-2.11-12.1Z"/><path class="e" d="M1433.04,877.34c-7.51-.33-13.32-6.67-12.99-14.18s6.67-13.4,14.19-13.07,13.32,6.75,12.99,14.26c-.33,7.51-6.67,13.32-14.18,12.99ZM1433.85,858.96c-2.64-.12-4.89,1.95-5.01,4.58s1.95,4.81,4.59,4.93c2.64.12,4.89-1.87,5-4.5s-1.95-4.89-4.58-5.01Z"/><path class="e" d="M568.46,847.71c-.96,0-1.75-.89-1.75-1.85v-.16s3.71-62.38,3.71-62.38c0-1.04.89-1.83,2.01-1.83l14.55.9h.32s22.07,1.35,22.07,1.35c.96,0,1.83.89,1.83,1.93v.16s-.91,15.11-.91,15.11c0,.96-.89,1.83-1.93,1.83h-.16s-19.19-1.17-19.19-1.17l-.36,6.16,13.99,1.54c1.04.17,1.75.97,1.75,1.93v.24s-1.85,13.43-1.85,13.43c-.09.96-.97,1.75-2.01,1.75h-.16s-12.79-1.45-12.79-1.45l-1.27,21.67c-.09,1.04-.97,1.83-2.01,1.83l-15.83-.99Z"/><path class="e" d="M635.97,849.85l-16.79-1c-.96-.09-1.59-.81-1.59-1.77l3.72-63.26c0-.8.73-1.51,1.61-1.51h.16s14.64.82,14.64.82c3.21-1.02,6.41-1.55,9.53-1.53,14.8.1,28.08,11.15,27.98,26.59-.1,14.8-10.25,25.05-26.89,24.94-3.36-.02-6.64-.53-9.67-1.43l-.91,16.55c-.09.88-.81,1.59-1.61,1.59h-.16ZM639.56,815.8c1.75.81,3.99,1.39,6.15,1.4,8.8.06,8.86-8.5,8.86-9.06.04-5.6-4.42-9.55-10.33-9.59-1.12,0-2.4.14-3.68.46l-1,16.79Z"/><path class="e" d="M679.42,836.95c-.08-.16-.08-.4-.08-.56,0-1.2,1.21-1.59,1.69-1.59h.32c5.44.04,11.38-2.8,11.41-7.84.02-2.64-1.41-5.05-5.68-11.8-3.25-4.98-4.66-9.47-4.63-13.39.09-12.64,14.54-19.66,27.98-19.57,3.12.02,4.72.35,5.19,2.04l2.72,11.86c.08.24.08.48.08.64,0,1.28-1.21,1.75-1.69,1.75h-.48c-5.2-.04-10.09,1.85-10.12,6.41-.02,2.72,1.96,6.49,5.6,11.72,3.33,4.98,4.73,9.47,4.71,13.47-.09,13.28-16.06,21.01-29.9,20.92-.8,0-1.52-.01-2.32-.1-1.04,0-1.99-.89-2.23-1.94l-2.56-12.02Z"/></svg>