<?xml version="1.0" encoding="UTF-8"?><svg id="a" xmlns="http://www.w3.org/2000/svg" viewBox="0 0 179 85"><defs><style>.am{fill:#ff4d42;}.am,.an,.ao{stroke-width:0px;}.ap{stroke:#000;}.ap,.aq{fill:none;stroke-linecap:round;stroke-linejoin:round;stroke-width:6px;}.aq,.ar{stroke:#fff;}.an{fill:#727579;}.ao{fill:#87eb00;}.ar{fill:#fff;stroke-width:3px;}</style></defs><g id="b"><path id="c" class="ap" d="M158,55.5l-103.29,22.02-21.79-11.07-8.74-24.45c4.94-5.5,9.87-11.01,14.81-16.51,1.88,1.3,6.14,3.85,12,4,2.88.07,5.28-.46,7-1,4.81.36,9.62.72,14.43,1.09l13.57-3.09,12-6,31,7,23.72-6.75,5.28,34.75Z"/><g id="d"><path class="ap" d="M153.69,58.35c-.58.09-1.05.2-1.47.1-.42-.1-.74-.4-1-.96-1.46-3.52-6.43-18.73-7.91-21.92-.04-.07-.07-.18-.05-.24l-2.53,1.03-3.92,16.75c-.14.58-.79.98-1.37.85l-11.1-2.6c-.63-.15-.99-.79-.85-1.37l9.71-41.48c.15-.63.73-1,1.37-.85l11.1,2.6c.58.14,1,.74.85,1.37l-2.44,10.41c.77-.43,16.51-8.85,18.89-8.29.42.1.8.41,1.14,1.1l4.05,8.42c.23.45.3.85.22,1.22-.12.53-.55.93-1.22,1.16-2.56.96-13.41,5.39-20.57,8.34l7.28-.86c.58-.09,1.12-.24,1.64-.12,3.28.77,8.4,20.08,7.84,22.46-.12.53-.46,1.01-1.27,1.15l-8.37,1.72Z"/><path class="ap" d="M134.28,7.64c.09,0,.19.01.28.03l11.1,2.6c.58.14,1,.74.85,1.37l-2.44,10.41c.75-.42,15.51-8.31,18.62-8.31.1,0,.19,0,.27.03.42.1.8.41,1.14,1.1l4.05,8.42c.23.45.3.85.22,1.22-.12.53-.55.93-1.22,1.16-2.56.96-13.41,5.39-20.57,8.34l7.28-.86c.42-.06.82-.16,1.21-.16.14,0,.29.01.43.05,3.28.77,8.4,20.08,7.84,22.46-.12.53-.46,1.01-1.27,1.15l-8.37,1.72c-.42.06-.78.14-1.11.14-.13,0-.25-.01-.37-.04-.42-.1-.74-.4-1-.96-1.46-3.52-6.43-18.73-7.91-21.92-.04-.07-.07-.18-.05-.24l-2.53,1.03-3.92,16.75c-.12.5-.62.88-1.14.88-.08,0-.16,0-.23-.03l-11.1-2.6c-.63-.15-.99-.79-.85-1.37l9.71-41.48c.13-.54.57-.88,1.09-.88M134.28,6.64c-.98,0-1.83.68-2.06,1.65l-9.71,41.48c-.13.53-.03,1.11.25,1.59.3.5.78.85,1.34.98l11.1,2.6c.15.03.3.05.46.05.98,0,1.89-.71,2.11-1.65l3.8-16.25,1.1-.45c.92,2.22,2.64,7.2,4.18,11.65,1.42,4.11,2.77,7.99,3.43,9.58.4.87.97,1.38,1.7,1.55.18.04.38.07.59.07.33,0,.65-.05.98-.11l.28-.04h.03s.03,0,.03,0l8.37-1.72c1.07-.19,1.8-.87,2.04-1.9.42-1.78-1.31-8.53-2.5-12.36-3.31-10.65-5.4-11.14-6.09-11.3-.21-.05-.42-.07-.66-.07-.37,0-.7.06-1.03.12-.11.02-.22.04-.33.06,5.87-2.4,11.95-4.87,13.78-5.55.98-.34,1.64-1.01,1.84-1.87.14-.61.04-1.25-.3-1.91l-4.03-8.39c-.46-.93-1.05-1.46-1.81-1.64-.15-.03-.31-.05-.49-.05-2.79,0-12.85,5.13-17.14,7.39l1.93-8.26c.13-.56.04-1.13-.27-1.61-.3-.48-.78-.83-1.33-.96l-11.1-2.6c-.17-.04-.34-.06-.51-.06h0Z"/><path class="ap" d="M48.19,64.84c-.47.35-.83.67-1.25.79s-.84,0-1.34-.37c-2.95-2.41-14.52-13.46-17.33-15.57-.07-.04-.15-.13-.16-.18l-1.74,2.1,4.46,16.62c.15.58-.23,1.24-.8,1.4l-11.01,2.95c-.63.17-1.24-.23-1.4-.81L6.58,30.61c-.17-.63.17-1.23.8-1.4l11.01-2.95c.58-.16,1.23.18,1.4.8l2.77,10.33c.47-.75,10.37-15.6,12.73-16.23.42-.11.89-.02,1.52.43l7.55,5.5c.41.28.67.61.77.97.14.52-.05,1.08-.53,1.6-1.81,2.06-9.27,11.09-14.18,17.07l6.01-4.2c.47-.35.87-.74,1.39-.88,3.25-.87,16.89,13.73,17.52,16.09.14.52.07,1.11-.58,1.62l-6.57,5.47Z"/><path class="ap" d="M35.61,21.12c.34,0,.73.14,1.2.48l7.55,5.5c.41.28.67.61.77.97.14.52-.05,1.08-.53,1.6-1.81,2.06-9.27,11.09-14.18,17.07l6.01-4.2c.47-.35.87-.74,1.39-.88.09-.03.2-.04.31-.04,3.72,0,16.6,13.83,17.22,16.12.14.52.07,1.11-.58,1.62l-6.57,5.47c-.47.35-.83.67-1.25.79-.1.03-.21.04-.31.04-.32,0-.65-.13-1.03-.41-2.95-2.41-14.52-13.46-17.33-15.57-.07-.04-.15-.13-.16-.18l-1.74,2.1,4.46,16.62c.15.58-.23,1.24-.8,1.4l-11.01,2.95c-.1.03-.2.04-.29.04-.52,0-.97-.36-1.1-.85L6.58,30.61c-.17-.63.17-1.23.8-1.4l11.01-2.95c.1-.03.19-.04.29-.04.49,0,.97.32,1.11.84l2.77,10.33c.47-.75,10.37-15.6,12.73-16.23.1-.03.21-.04.32-.04M35.61,20.12c-.2,0-.39.03-.58.08-2.35.63-9.24,10.58-12.08,14.8l-2.2-8.19c-.25-.93-1.1-1.58-2.07-1.58-.19,0-.37.02-.55.07l-11,2.95c-.56.15-1.03.5-1.31.99-.28.49-.35,1.07-.2,1.63l11.05,41.14c.25.93,1.1,1.59,2.07,1.59.19,0,.37-.02.55-.07l11.01-2.95c1.12-.3,1.81-1.5,1.51-2.62l-4.33-16.12.76-.92c1.86,1.52,5.72,5.08,9.16,8.26,3.21,2.96,6.24,5.76,7.58,6.85.58.44,1.11.64,1.66.64.19,0,.38-.03.57-.08.54-.14.96-.47,1.36-.78l.23-.17.02-.02.02-.02,6.57-5.47c.85-.67,1.18-1.61.9-2.64-.73-2.71-13.9-16.87-18.18-16.87-.2,0-.39.02-.57.07-.61.16-1.06.52-1.46.84-.09.07-.18.14-.27.21h0c4-4.84,8.23-9.93,9.53-11.41.7-.77.97-1.67.74-2.52-.16-.6-.55-1.12-1.17-1.54l-7.52-5.49c-.63-.45-1.21-.67-1.79-.67h0Z"/><path class="ap" d="M73.71,65.86c-8.82.62-17.01-5.22-17.69-14.75-.79-11.15,7.14-17.53,16.67-18.2,11.96-.84,17.77,8.16,18.26,15.2.74,10.56-9.56,17.21-17.25,17.75ZM79.42,48.81c-.07-1.03-.66-6.26-6.18-5.88-4.55.32-5.58,4.26-5.4,6.69.26,3.73,3.36,6.02,6.45,5.8,3.84-.27,5.35-3.53,5.14-6.62Z"/><path class="ap" d="M107.66,49.88c-8.82.62-17.01-5.22-17.69-14.75-.79-11.15,7.14-17.53,16.67-18.2,11.96-.84,17.77,8.16,18.26,15.2.74,10.56-9.56,17.21-17.25,17.75ZM113.37,32.83c-.07-1.03-.66-6.26-6.18-5.88-4.55.32-5.58,4.26-5.4,6.69.26,3.73,3.36,6.02,6.45,5.8,3.84-.27,5.35-3.53,5.14-6.62Z"/></g><g id="e"><path id="f" class="ap" d="M54.91,40.49c.15.23.09.54-.14.69l-.4.27-.38.25-.46.29h0l-.43.26-.33.19-.16.09h0l-.31.16c-2.15,1.09-3.41.87-4.98-.9l.82-.55c1.22,1.36,2.16,1.44,3.92.47l.29-.16.3-.18.32-.2.33-.21.54-.35.38-.25c.23-.15.54-.09.69.14ZM52.29,38.44l1.27-.86-.05.23-.04.16-.08.3c-.52,1.81-1.36,2.46-3.25,2.09-.18-.04-.35-.08-.51-.12l1.17-.79c.78.06,1.19-.21,1.49-1ZM46.3,38.76l.05.06-.83.56c-.16-.23-.1-.54.13-.7.21-.14.48-.1.65.08h0ZM51.73,32.18c1.26.24,1.91.73,2.16,1.57l-.9.6c-.09-.71-.51-1.01-1.45-1.19l-.12-.02c-1.2-.21-1.66.14-2.02,1.51l-.04.15-.07.29-.07.32-.2,1.02-.07.4-.04.27-1.06.71c0-.14.01-.29.02-.45l.02-.16.04-.3.02-.16.03-.16.06-.34.2-1.02.07-.34.04-.16.04-.16.08-.3c.52-1.81,1.36-2.46,3.25-2.09Z"/><path id="g" class="ap" d="M56.45,33.23c.23-.15.54-.09.69.14.14.21.1.48-.08.65l-.06.05-12.17,8.2c-.23.15-.54.09-.69-.14-.14-.21-.1-.48.08-.65l.06-.05,12.17-8.2Z"/></g><g id="h"><path id="i" class="ap" d="M173.43,31.38l.11.28s.04.1.05.15l.11.31.11.33.1.35.1.37.1.39.1.41.11.46.1.42.07.34c.87.23,1.15.8,1.2,2.07v.3c0,.05,0,.1,0,.16v.33s-.02.31-.02.31c-.08,1.59-.45,2.12-1.73,2.22h-.25s-.27.02-.27.02h-.29c-1.81-.05-2.49-1.25-2.47-2.84.02-1.59.74-2.76,2.55-2.71h.15s-.09-.37-.09-.37l-.16-.64-.18-.7-.09-.32-.09-.3-.06-.19.69-1.16s0,.01,0,.02ZM167.61,41.91l-.14.08-.26.14-.22.11,1.74-2.94c.25,1-.02,1.94-1.12,2.61ZM171.74,37.78c-.02,1.07.34,1.7,1.42,1.73h.45s.19,0,.19,0h.16c.45-.04.59-.19.64-.72v-.19s.02-.22.02-.22l.02-1.06v-.22s0-.19,0-.19c-.03-.53-.16-.69-.61-.75l-.16-.02h-.29s-.35-.02-.35-.02c-1.08-.03-1.46.59-1.47,1.66ZM167.68,29.75l.4-.09.38-.08c.06-.01.12-.03.18-.04l.35-.07c.06-.01.11-.02.17-.03l.33-.05c.54-.08,1-.11,1.41-.08l-.63,1.06h-.13s-.24.04-.24.04l-.26.04-.27.05-.29.06-.47.1-.69.16-.91.23-.48.13-.3.09-.28.09-.26.09s-.08.03-.12.04l-.23.09c-1.23.51-1.55,1.15-1.35,2.59l.04.26.05.28.09.45.11.5.13.55.16.64.1.37.13-.07c.62-.35,1.18-.45,1.68-.36l-.65,1.11c-.12.03-.25.08-.39.15l-.11.06-.3.17-.25.15-.14.09c-.35.24-.41.43-.24.85l.04.09.08.17.1.2.03.06-.63,1.07h0s-.16-.29-.16-.29l-.04-.07h0l-.04-.07-.13-.27c-.55-1.15-.56-1.78.09-2.39l-.04-.14-.11-.39-.11-.44-.16-.65-.09-.4-.08-.38-.07-.36-.06-.34-.05-.32c0-.05-.01-.1-.02-.16l-.03-.3c-.17-1.94.47-2.83,2.41-3.55l.3-.11c.05-.02.1-.03.16-.05l.33-.1c.06-.02.12-.03.17-.05l.36-.1.38-.1.61-.15Z"/><path id="j" class="ap" d="M172.13,29.3c.14-.24.45-.32.68-.17.22.13.3.4.21.63l-.03.07-7.49,12.73c-.14.24-.45.32-.68.17-.22-.13-.3-.4-.21-.63l.03-.07,7.49-12.73Z"/></g><g id="k"><g id="l"><path class="ap" d="M63.48,22.42c.12.06.24.17.25.33,0,.09-.03.19-.1.29-.98,1.53-2.44,4.14-2.41,4.58,0,.09.04.16.15.25,1.42,1.3,3.56,3.37,3.6,3.93.01.23-.13.43-1.75,1.88-.05.05-.14.07-.23.07-.11,0-.23-.01-.31-.08,0,0-3.29-2.94-4.6-4.06-.38-.33-.53-.6-.55-.93-.07-1.06,1.19-4.39,3.41-7.17.05-.06.16-.13.29-.13.07,0,.14,0,.22.04l2.02,1.01Z"/></g><g id="m"><path class="ap" d="M66.82,28.27c-.16,0-.36-.13-.37-.32l-.09-2.61c0-.17.18-.32.33-.33l9.73-.32c.16,0,.35.13.36.32l.09,2.59c0,.17-.18.31-.33.31l-9.72.35Z"/></g><g id="n"><path class="ap" d="M85.88,22.09c.09.1.18.24.14.39-.02.08-.09.17-.18.25-1.4,1.16-3.58,3.2-3.69,3.63-.02.08-.01.16.06.28.96,1.67,2.37,4.29,2.23,4.83-.06.22-.25.36-2.24,1.26-.07.03-.15.02-.24,0-.11-.03-.22-.08-.27-.17,0,0-2.24-3.8-3.15-5.27-.26-.43-.32-.73-.24-1.05.26-1.03,2.46-3.82,5.43-5.8.07-.04.19-.07.32-.04.07.02.14.05.2.11l1.62,1.57Z"/></g></g><path class="ap" d="M31.14,81.66s-.07.02-.09.02c-.16.02-.21-.06-.24-.21l-.74-4.33-.67-.05c-.17-.02-.27-.12-.29-.25,0-.03,0-.08.01-.12l1.2-4.39c.03-.13.12-.19.23-.21.04,0,.1,0,.15.02l1.79.45c.13.03.2.13.21.23,0,.06,0,.1-.02.16l-.89,3.21.33-.05h.03c.16-.02.27.04.29.2l.75,4.4v.03c.03.24-.09.37-.27.43l-1.78.46ZM40.25,80.83c-.01.31-.26.45-.51.47-1.01.08-2.04.09-2.63.05l-.39-.03-.1.25c-.07.2-.3.27-.47.29-.06,0-.1,0-.14,0l-1.64-.11c-.13,0-.2-.07-.21-.15,0-.04.01-.09.03-.14l.14-.29-.72-.05c-.1-.01-.16-.09-.17-.18,0-.03,0-.06,0-.09l.22-1.23c.01-.12.07-.17.17-.18.02,0,.05,0,.08,0l1.15.03.04-.56-1.19.14c-.26.03-.36-.06-.4-.31l-.55-3.83v-.02c-.03-.22.16-.44.39-.47l1.37-.19-.1-.8-1.49.11c-.17.02-.27-.06-.28-.21l-.15-1.49c-.02-.19.08-.27.23-.29l6.02-.48c.15-.02.23.07.25.21l.11,1.51c.02.16-.06.26-.21.27l-2.13.17.07.64.96-.13h.08c.79-.09,1.32.34,1.41,1.17v.03s.26,2.67.26,2.67c.05.48-.15.75-.57.8l-1.77.21-.05.88c.42,0,1.15-.04,1.96-.13.22-.02.45-.06.68-.08.16-.02.24.04.26.18v.04s-.04,1.29-.04,1.29ZM35.22,75.56l-.66.08.09.68.65-.03-.08-.73ZM35.39,77.14l-.62.02.11.82.59-.07-.08-.76ZM37.73,75.65c-.02-.18-.16-.37-.39-.35l-.39.05.09.84.75-.04-.05-.51ZM37.87,77.01l-.75.03.07.64.74-.09-.06-.58Z"/><path class="ap" d="M43.38,80.85h-.04c-.19.03-.34-.11-.36-.26l-.17-1.32c-.04.07-.11.13-.19.13h-.02s-1.4-.03-1.4-.03c-.12-.01-.22-.1-.22-.19,0-.01,0-.03,0-.05l.38-1.93c.03-.09.1-.15.2-.16h.04s.94.11.94.11l-.14-1.02-1.3.17c-.16.02-.25-.04-.27-.21l-.17-1.33c-.02-.15.03-.23.18-.25l1.23-.17-.14-1.12-.6.15s-.08.02-.12.02c-.24.03-.36-.08-.41-.25l-.34-1.28s-.02-.08-.02-.1c-.01-.15.05-.21.17-.25l4.25-1.03h.06c.12-.02.21.04.23.16l.25,1.42v.04c.02.14-.02.23-.15.27l-.88.23.17,1.41,1.05-.13c.17-.02.24.04.26.2l.14,1.33c.02.17-.03.26-.21.28l-1.07.13.22,1.65.67-.63s.05-.04.08-.04c.06,0,.12.02.15.05l.87.73s.05.06.06.12c0,.07-.02.14-.07.2l-.75.77s-.08.05-.13.06c-.06,0-.13-.02-.15-.05l-.67-.71.26,2.08c.02.19-.12.39-.28.43l-1.58.36ZM46.93,77.4h-.04c-.13.02-.22-.06-.24-.19l-.5-4.86c-.01-.13.02-.23.18-.25h.02s.82-.06.82-.06c.15,0,.22.08.24.21l.48,4.59c.02.15,0,.29-.2.34l-.76.21ZM48.26,79.96c-.1-.01-.22-.07-.24-.21,0-.07,0-.14.03-.22.24-.61.55-1.32.52-1.7l-.64-7.22c-.02-.17.05-.26.2-.27h.04s1.85-.04,1.85-.04c.17,0,.29.08.31.24l.67,7.43c.04.53-.12,1.18-.36,1.86-.09.23-.27.38-.5.41-.05,0-.11,0-.17,0l-1.71-.26Z"/><path class="ap" d="M60.58,76.4c-.02.12-.11.26-.3.28-.03,0-.27,0-.57-.02-.01,1.39-1.15,2.46-2.69,2.63-1.32.14-2.48-.48-2.61-1.63-.06-.54.13-1.12.5-1.61-.01,0-.03.01-.06.02-.02,0-.06,0-.09,0l-1.8-.07c-.09-.02-.19-.12-.21-.24,0-.02,0-.06,0-.08.06-.38.1-1.23.13-2.15l-.86.14c-.12.01-.22-.07-.24-.19l-.22-1.73v-.02c-.01-.11.08-.21.18-.22l1.17-.18c0-.48,0-.85,0-1.04,0-.18.09-.31.32-.33h.03s1.74-.11,1.74-.11c.19-.02.28.14.29.26.02.25.04.54.05.86l.55-.08c.11-.01.21.07.24.19l.21,1.73v.02c.01.11-.07.21-.18.22l-.82.12c-.03,1.05-.11,2.06-.27,2.68l-.02.05c.6-.7,1.39-.93,2.26-1.12-.01-.24-.03-.47-.05-.69-.01-.23.02-.31.25-.33h.04s1.76-.07,1.76-.07c.26,0,.34.07.36.26v.04c.02.16.03.34.04.53l.7.02c.21.01.25.13.26.21,0,.04,0,.08,0,.08l-.07,1.59ZM56.39,77.09c.02.21.25.37.51.34.47-.05.49-.5.51-.92-.82.09-1.04.35-1.02.57ZM58.04,72.96c-.08,0-.16-.04-.21-.17l-.53-1.6s-.02-.05-.02-.08c-.03-.25,1.47-1.13,2.36-1.23.09,0,.18,0,.26.19l.67,1.85s.02.07.02.1c.01.12-.05.2-.18.23-.5.16-1.75.52-2.33.7h-.04Z"/><path class="ap" d="M61.97,75.9c-.03-.07-.04-.11-.05-.15-.01-.13.11-.17.22-.21.63-.2,1.66-.57,2.01-.71.03-.01.08-.02.11-.02.11-.01.2.04.25.11l.98,1.41c.05.06.08.14.09.21,0,.08-.02.15-.09.21-.9.77-1.97,1.17-2.26,1.21-.12.01-.19-.04-.26-.16l-1-1.9ZM66.2,78.03c-.13.01-.25-.08-.26-.2l-.45-4.22-2.57.15c-.11,0-.22-.08-.24-.2v-.02s-.11-1.84-.11-1.84c-.01-.11.08-.22.19-.24h.02s2.45-.14,2.45-.14l-.19-1.79c-.01-.13.08-.25.21-.26l2.2-.23c.12-.01.24.08.25.21l.2,1.92,1.7-.09c.11-.01.22.08.24.19v.02s.11,1.85.11,1.85c.01.12-.09.23-.21.24l-1.58.09.43,4.07c.01.12-.08.24-.2.25l-2.2.23ZM69.29,70.63s-.07.02-.09.02c-.14.01-.21-.05-.25-.14l-.44-.85c-.03-.05-.04-.1-.05-.13-.01-.11.07-.16.2-.19l.78-.22h.03c.13-.02.26.11.31.24l.29.82s.02.05.02.09c.01.11-.06.18-.24.22l-.56.15ZM70.7,77.07c-.11.07-.18.1-.23.1-.07,0-.11-.03-.17-.1-.41-.45-1.11-1.14-1.41-1.47-.08-.07-.12-.17-.13-.24,0-.06.01-.1.05-.13l1.3-.89c.08-.05.16-.1.25-.11.39-.04,2.12,1.15,2.16,1.54,0,.07-.02.13-.1.17l-1.75,1.11ZM71.39,70.5c-.06.05-.11.08-.16.08-.07,0-.13-.02-.19-.08l-.81-.71c-.06-.05-.08-.09-.08-.14,0-.08.04-.14.08-.18l.55-.5c.05-.04.1-.07.15-.07.08,0,.15.03.23.09l.67.65c.09.07.14.13.14.19,0,.06-.02.12-.09.18l-.48.49Z"/><path class="ap" d="M77.5,77.28c-.12.01-.23-.07-.25-.19l-.51-4.79c-1.61.78-2.81,1.17-2.94,1.19-.1.01-.2-.02-.24-.12l-.84-1.62s-.03-.05-.03-.09c0-.09.04-.17.11-.22,2.17-1.12,5.15-3.06,6.88-4.15.03-.01.07-.03.1-.03.11-.01.25.03.31.1l1.39,1.87s.03.05.03.09c.01.1-.03.22-.12.29-.83.61-2.23,1.45-3.69,2.21l1.48-.16c.12-.01.22.08.24.2l.52,4.95c.01.12-.07.22-.19.24l-2.26.24Z"/><path class="ap" d="M81.83,75.44c-.05-.05-.09-.1-.1-.16,0-.09.05-.18.2-.26,2.17-1.38,3.57-4.31,3.51-4.87-.01-.13-.1-.19-.27-.19l-2.41.05c-.12,0-.23-.09-.24-.21v-.02s-.03-1.87-.03-1.87c0-.12.09-.23.21-.24h.02s4.52-.13,4.52-.13c.51,0,1.26.37,1.33,1.12,0,.04,0,.08,0,.12.04,2.82-2.18,6.42-5.07,7.77-.1.04-.18.09-.29.1s-.21-.02-.32-.14l-1.09-1.07ZM88.05,72.73c.07-.12.16-.17.26-.18.09,0,1.48.01,2.95.68.12.06.18.13.19.22,0,.07-.02.14-.06.22-.22.49-.73,1.51-.97,2.02-.05.1-.11.14-.19.15-.07,0-.15-.02-.21-.05-.65-.33-2.03-.99-2.62-1.27-.1-.05-.18-.09-.19-.18,0-.05.01-.1.05-.16l.78-1.45Z"/><path class="ap" d="M98.01,71.26c-.66,2.91-2.78,4.36-3.03,4.39-.13.01-.27-.05-.46-.17l-1.24-.73c-.06-.04-.09-.08-.09-.13-.01-.1.08-.21.18-.3.96-.81,1.49-1.81,1.76-2.89l-2.96.17c-.11.01-.21-.08-.22-.19v-.02s-.08-1.7-.08-1.7c-.01-.11.02-.22.13-.23h.02s3.37-.2,3.37-.2c0-.24,0-.48,0-.73,0-.1.05-.19.13-.25-.36.06-.72.11-1.07.15-.26.03-.52.04-.77.06-.09,0-.18-.03-.21-.12l-.39-1.42v-.02c-.01-.09.02-.17.1-.19,1.38-.4,3.61-1.22,4.82-1.74.03-.01.05-.02.09-.02.13-.01.26.06.3.16l.79,1.76s.02.07.02.1c.01.11-.03.22-.19.29-.84.35-1.86.66-2.93.88l1.65-.06c.25,0,.4.09.42.32.02.23.04.45.04.68l2.59-.15c.14,0,.29.09.31.22l.07,1.7c.01.12-.09.23-.21.24l-2.96.17Z"/><path class="ap" d="M104.58,74.44h-.02c-.14.02-.24-.09-.26-.21-.23-.87-.52-2.53-.74-4.04l-1.17.04c-.14,0-.23-.1-.24-.23l-.07-1.41c0-.13.09-.23.2-.24h.02s.99-.03.99-.03c-.06-.44-.1-.81-.12-1.04,0-.11.03-.25.17-.27.26-.03,1.12-.09,1.53-.14.18-.02.3.14.32.25,0,.04.08.5.18,1.16l2.55-.06c.44,0,1.05.14,1.12.83.14,1.37-1.35,2.8-1.74,2.84-.16.02-.29-.09-.69-.42-.22-.15-.43-.3-.44-.43,0-.08.03-.16.08-.22.19-.22.35-.6.34-.69,0-.04-.03-.04-.06-.04l-.88.03c.26,1.81.55,3.78.55,3.78.01.14-.09.26-.22.29l-1.38.25Z"/><path class="ap" d="M110.84,70.12s-.07.02-.1.02c-.17.02-.21-.07-.27-.19-.69-1.67-.69-1.7-.7-1.75-.01-.12.03-.22.13-.24l1.3-.3s.07-.02.1-.02c.1-.01.22.01.31.13.35.41.89,1.24.94,1.65.01.13-.02.26-.18.3l-1.53.39ZM112.55,72.94c-.08-.03-.16-.11-.17-.21,0-.03,0-.08.03-.12.7-1.02,1.37-2.44,1.86-3.73l-1.15.33s-.09.02-.12.02c-.16.02-.2-.05-.25-.17-.51-1.09-.72-1.69-.73-1.74-.01-.11.02-.22.12-.24l1.25-.33s.07-.02.1-.02c.11-.01.22.01.31.12.22.26.58.72.79,1.16.14-.4.26-.78.34-1.09.04-.08.12-.14.2-.15.03,0,.07,0,.1.01l1.6.51c.1.04.14.11.15.19.04.37-.84,3.66-2.79,5.69-.04.08-.11.12-.19.13-.03,0-.08,0-.12-.01l-1.34-.36Z"/><path class="ap" d="M119.26,72.85c-.12.01-.23-.07-.25-.19l-1-9.48c-.01-.12.08-.24.2-.25l2.21-.23c.12-.01.22.08.24.2l.41,3.86.5-.87c.07-.12.16-.17.28-.18.34-.04,2.17.23,3.21.65.13.05.2.13.21.22.01.1-.03.17-1.04,2.3-.05.1-.12.14-.2.15-.08,0-.16-.02-.22-.04-.6-.29-1.82-.79-2.6-1.07l.47,4.46c.01.12-.07.22-.19.24l-2.21.23Z"/><path class="ap" d="M127.21,67.11s-.09.02-.12.02c-.19.02-.22-.06-.28-.2-.2-.46-.91-2.12-.93-2.31-.01-.11.01-.22.12-.24l1.73-.4h.1c.13-.03.26-.02.37.12.34.38,1.16,1.53,1.23,2.17.02.15-.03.28-.19.32l-2.03.52ZM129.52,70.87c-.08-.03-.16-.11-.17-.2,0-.04,0-.08.03-.12.97-1.4,1.87-3.38,2.54-5.12l-1.69.47c-.05.02-.11.02-.14.03-.16.02-.19-.06-.25-.19-.18-.38-.95-2.12-.97-2.29-.01-.12.01-.23.12-.25l1.66-.43s.09-.02.13-.03c.12-.01.24,0,.33.12.32.38.85,1.08,1.12,1.69.21-.6.39-1.16.52-1.62.04-.09.11-.15.21-.16.03,0,.07,0,.1.01l2.13.68c.08.04.12.11.14.21.05.5-1.19,4.9-3.71,7.52-.04.09-.11.15-.21.16-.03,0-.07,0-.1-.01l-1.8-.49Z"/><path class="ap" d="M136.99,67.27c-.12.01-.29-.08-.31-.23l-.22-2.05c-.01-.13.12-.26.24-.28l7.64-.79c.12-.01.28.08.3.23l.21,2.04c.01.13-.12.25-.25.26l-7.62.82Z"/><path class="ap" d="M146.16,67.87c-.2-.04-.26-.1-.27-.19,0-.07.02-.15.05-.25.33-.92.76-2.57.98-3.52.05-.21.15-.29.29-.3.03,0,.08,0,.11,0l1.96.3c.17.03.31.12.33.32.07.64-1.05,3.9-1.58,3.95-.06,0-.11,0-.19-.01l-1.67-.3ZM150.04,61.46c-.02-.15.02-.3.17-.31l2.15-.33h.02c.15-.02.3.05.32.18l.41,3.91c.02.19.06.24.17.23.1-.01.22-.06,1.5-.52.05-.02.11-.05.15-.05.09,0,.16.03.24.15,1.01,1.38,1.03,1.43,1.04,1.55.01.1-.04.2-.14.29-1.34,1.22-4.09,2.19-4.75,2.26-.28.03-.39-.14-.42-.4l-.87-6.96Z"/><path class="ap" d="M114.89,58.82c-.61.18-1.18.21-1.73.11-1.73-.34-2.96-2.02-2.62-3.79.23-1.2,1.44-3.02,3.57-2.6.51.1.99.32,1.37.58.07-.06.19-.08.31-.05h.06s1.77.51,1.77.51c.26.08.31.23.29.37v.06c-.35.95-.68,1.85-.83,2.58-.23,1.17.14,1.33.27,1.35.63.12,1.27-1.38,1.41-2.14.45-2.34-1.2-4.18-3.47-4.63-2.79-.54-5.29.86-5.85,3.73-.49,2.53.87,5.06,3.66,5.61.83.16,1.7.15,2.54.02.04,0,.07,0,.1,0,.29.06.4.53.33.85-.03.14-.08.24-.17.28-.71.3-1.71.34-2.75.14-1.91-.37-3.96-1.56-4.7-3.5-.47-1.23-.55-2.52-.32-3.7.86-4.43,4.94-5.13,7.38-4.66,3.41.66,5.16,3.4,4.63,6.11-.41,2.13-2.03,3.83-4.01,3.44-.45-.09-.88-.3-1.24-.66v-.02ZM114.51,56.96c.01-.3.06-.62.13-.96.05-.27.12-.56.2-.87-.08-.25-.34-.44-.65-.5-.59-.11-1.13.32-1.27,1.01-.12.61.19,1.21.87,1.34.21.04.43.04.7-.02h.01Z"/><path class="ap" d="M102.32,59.13l.32,2.32c.04.18-.11.29-.28.33-.11,0-1.78.25-1.98.29-.15.02-.31-.07-.34-.21v-.03s-.32-2.19-.32-2.19l-.94.18.43,2.23c.04.19-.09.32-.27.35l-1.95.38c-.17.03-.34-.05-.37-.21l-.44-2.24-1.18.23c-.12.02-.27-.08-.29-.2l-.35-1.77c-.03-.17.09-.27.2-.29l1.18-.23-.39-1.98-1.18.23c-.12.02-.27-.08-.29-.2l-.34-1.77c-.03-.17.09-.27.2-.3l1.18-.23-.4-2.08c-.03-.14.08-.27.2-.29l2.09-.41c.17-.03.27.08.3.2l.4,2.08,1.29-.25-.31-2.17c0-.11.08-.24.19-.27h.03c.19-.04,1.96-.3,2.11-.32.14-.01.25.09.27.19v.03c.03.14.14.93.3,2.01l.84-.16c.19-.04.32.09.35.27l.32,1.65c.03.17-.05.32-.22.36l-.98.19.29,1.99,1.06-.21c.19-.04.32.09.35.27l.32,1.65c.03.15-.05.32-.22.36l-1.18.23ZM99.11,55.34l-1.17.23.4,1.98,1.06-.22-.29-1.99Z"/><path id="o" class="aq" d="M155.5,52.5l-103.29,22.02-21.79-11.07-8.74-24.45c4.94-5.5,9.87-11.01,14.81-16.51,1.88,1.3,6.14,3.85,12,4,2.88.07,5.28-.46,7-1,4.81.36,9.62.72,14.43,1.09l13.57-3.09,12-6,31,7,23.72-6.75,5.28,34.75Z"/><g id="p"><path class="aq" d="M151.19,55.35c-.58.09-1.05.2-1.47.1-.42-.1-.74-.4-1-.96-1.46-3.52-6.43-18.73-7.91-21.92-.04-.07-.07-.18-.05-.24l-2.53,1.03-3.92,16.75c-.14.58-.79.98-1.37.85l-11.1-2.6c-.63-.15-.99-.79-.85-1.37l9.71-41.48c.15-.63.73-1,1.37-.85l11.1,2.6c.58.14,1,.74.85,1.37l-2.44,10.41c.77-.43,16.51-8.85,18.89-8.29.42.1.8.41,1.14,1.1l4.05,8.42c.23.45.3.85.22,1.22-.12.53-.55.93-1.22,1.16-2.56.96-13.41,5.39-20.57,8.34l7.28-.86c.58-.09,1.12-.24,1.64-.12,3.28.77,8.4,20.08,7.84,22.46-.12.53-.46,1.01-1.27,1.15l-8.37,1.72Z"/><path class="aq" d="M131.78,4.64c.09,0,.19.01.28.03l11.1,2.6c.58.14,1,.74.85,1.37l-2.44,10.41c.75-.42,15.51-8.31,18.62-8.31.1,0,.19,0,.27.03.42.1.8.41,1.14,1.1l4.05,8.42c.23.45.3.85.22,1.22-.12.53-.55.93-1.22,1.16-2.56.96-13.41,5.39-20.57,8.34l7.28-.86c.42-.06.82-.16,1.21-.16.14,0,.29.01.43.05,3.28.77,8.4,20.08,7.84,22.46-.12.53-.46,1.01-1.27,1.15l-8.37,1.72c-.42.06-.78.14-1.11.14-.13,0-.25-.01-.37-.04-.42-.1-.74-.4-1-.96-1.46-3.52-6.43-18.73-7.91-21.92-.04-.07-.07-.18-.05-.24l-2.53,1.03-3.92,16.75c-.12.5-.62.88-1.14.88-.08,0-.16,0-.23-.03l-11.1-2.6c-.63-.15-.99-.79-.85-1.37l9.71-41.48c.13-.54.57-.88,1.09-.88M131.78,3.64c-.98,0-1.83.68-2.06,1.65l-9.71,41.48c-.13.53-.03,1.11.25,1.59.3.5.78.85,1.34.98l11.1,2.6c.15.03.3.05.46.05.98,0,1.89-.71,2.11-1.65l3.8-16.25,1.1-.45c.92,2.22,2.64,7.2,4.18,11.65,1.42,4.11,2.77,7.99,3.43,9.58.4.87.97,1.38,1.7,1.55.18.04.38.07.59.07.33,0,.65-.05.98-.11l.28-.04h.03s.03,0,.03,0l8.37-1.72c1.07-.19,1.8-.87,2.04-1.9.42-1.78-1.31-8.53-2.5-12.36-3.31-10.65-5.4-11.14-6.09-11.3-.21-.05-.42-.07-.66-.07-.37,0-.7.06-1.03.12-.11.02-.22.04-.33.06,5.87-2.4,11.95-4.87,13.78-5.55.98-.34,1.64-1.01,1.84-1.87.14-.61.04-1.25-.3-1.91l-4.03-8.39c-.46-.93-1.05-1.46-1.81-1.64-.15-.03-.31-.05-.49-.05-2.79,0-12.85,5.13-17.14,7.39l1.93-8.26c.13-.56.04-1.13-.27-1.61-.3-.48-.78-.83-1.33-.96l-11.1-2.6c-.17-.04-.34-.06-.51-.06h0Z"/><path class="aq" d="M45.69,61.84c-.47.35-.83.67-1.25.79s-.84,0-1.34-.37c-2.95-2.41-14.52-13.46-17.33-15.57-.07-.04-.15-.13-.16-.18l-1.74,2.1,4.46,16.62c.15.58-.23,1.24-.8,1.4l-11.01,2.95c-.63.17-1.24-.23-1.4-.81L4.08,27.61c-.17-.63.17-1.23.8-1.4l11.01-2.95c.58-.16,1.23.18,1.4.8l2.77,10.33c.47-.75,10.37-15.6,12.73-16.23.42-.11.89-.02,1.52.43l7.55,5.5c.41.28.67.61.77.97.14.52-.05,1.08-.53,1.6-1.81,2.06-9.27,11.09-14.18,17.07l6.01-4.2c.47-.35.87-.74,1.39-.88,3.25-.87,16.89,13.73,17.52,16.09.14.52.07,1.11-.58,1.62l-6.57,5.47Z"/><path class="aq" d="M33.11,18.12c.34,0,.73.14,1.2.48l7.55,5.5c.41.28.67.61.77.97.14.52-.05,1.08-.53,1.6-1.81,2.06-9.27,11.09-14.18,17.07l6.01-4.2c.47-.35.87-.74,1.39-.88.09-.03.2-.04.31-.04,3.72,0,16.6,13.83,17.22,16.12.14.52.07,1.11-.58,1.62l-6.57,5.47c-.47.35-.83.67-1.25.79-.1.03-.21.04-.31.04-.32,0-.65-.13-1.03-.41-2.95-2.41-14.52-13.46-17.33-15.57-.07-.04-.15-.13-.16-.18l-1.74,2.1,4.46,16.62c.15.58-.23,1.24-.8,1.4l-11.01,2.95c-.1.03-.2.04-.29.04-.52,0-.97-.36-1.1-.85L4.08,27.61c-.17-.63.17-1.23.8-1.4l11.01-2.95c.1-.03.19-.04.29-.04.49,0,.97.32,1.11.84l2.77,10.33c.47-.75,10.37-15.6,12.73-16.23.1-.03.21-.04.32-.04M33.11,17.12c-.2,0-.39.03-.58.08-2.35.63-9.24,10.58-12.08,14.8l-2.2-8.19c-.25-.93-1.1-1.58-2.07-1.58-.19,0-.37.02-.55.07l-11,2.95c-.56.15-1.03.5-1.31.99-.28.49-.35,1.07-.2,1.63l11.05,41.14c.25.93,1.1,1.59,2.07,1.59.19,0,.37-.02.55-.07l11.01-2.95c1.12-.3,1.81-1.5,1.51-2.62l-4.33-16.12.76-.92c1.86,1.52,5.72,5.08,9.16,8.26,3.21,2.96,6.24,5.76,7.58,6.85.58.44,1.11.64,1.66.64.19,0,.38-.03.57-.08.54-.14.96-.47,1.36-.78l.23-.17.02-.02.02-.02,6.57-5.47c.85-.67,1.18-1.61.9-2.64-.73-2.71-13.9-16.87-18.18-16.87-.2,0-.39.02-.57.07-.61.16-1.06.52-1.46.84-.09.07-.18.14-.27.21h0c4-4.84,8.23-9.93,9.53-11.41.7-.77.97-1.67.74-2.52-.16-.6-.55-1.12-1.17-1.54l-7.52-5.49c-.63-.45-1.21-.67-1.79-.67h0Z"/><path class="aq" d="M71.21,62.86c-8.82.62-17.01-5.22-17.69-14.75-.79-11.15,7.14-17.53,16.67-18.2,11.96-.84,17.77,8.16,18.26,15.2.74,10.56-9.56,17.21-17.25,17.75ZM76.92,45.81c-.07-1.03-.66-6.26-6.18-5.88-4.55.32-5.58,4.26-5.4,6.69.26,3.73,3.36,6.02,6.45,5.8,3.84-.27,5.35-3.53,5.14-6.62Z"/><path class="aq" d="M105.16,46.88c-8.82.62-17.01-5.22-17.69-14.75-.79-11.15,7.14-17.53,16.67-18.2,11.96-.84,17.77,8.16,18.26,15.2.74,10.56-9.56,17.21-17.25,17.75ZM110.87,29.83c-.07-1.03-.66-6.26-6.18-5.88-4.55.32-5.58,4.26-5.4,6.69.26,3.73,3.36,6.02,6.45,5.8,3.84-.27,5.35-3.53,5.14-6.62Z"/></g><g id="q"><path id="r" class="aq" d="M52.41,37.49c.15.23.09.54-.14.69l-.4.27-.38.25-.46.29h0l-.43.26-.33.19-.16.09h0l-.31.16c-2.15,1.09-3.41.87-4.98-.9l.82-.55c1.22,1.36,2.16,1.44,3.92.47l.29-.16.3-.18.32-.2.33-.21.54-.35.38-.25c.23-.15.54-.09.69.14ZM49.79,35.44l1.27-.86-.05.23-.04.16-.08.3c-.52,1.81-1.36,2.46-3.25,2.09-.18-.04-.35-.08-.51-.12l1.17-.79c.78.06,1.19-.21,1.49-1ZM43.8,35.76l.05.06-.83.56c-.16-.23-.1-.54.13-.7.21-.14.48-.1.65.08h0ZM49.23,29.18c1.26.24,1.91.73,2.16,1.57l-.9.6c-.09-.71-.51-1.01-1.45-1.19l-.12-.02c-1.2-.21-1.66.14-2.02,1.51l-.04.15-.07.29-.07.32-.2,1.02-.07.4-.04.27-1.06.71c0-.14.01-.29.02-.45l.02-.16.04-.3.02-.16.03-.16.06-.34.2-1.02.07-.34.04-.16.04-.16.08-.3c.52-1.81,1.36-2.46,3.25-2.09Z"/><path id="s" class="aq" d="M53.95,30.23c.23-.15.54-.09.69.14.14.21.1.48-.08.65l-.06.05-12.17,8.2c-.23.15-.54.09-.69-.14-.14-.21-.1-.48.08-.65l.06-.05,12.17-8.2Z"/></g><g id="t"><path id="u" class="aq" d="M170.93,28.38l.11.28s.04.1.05.15l.11.31.11.33.1.35.1.37.1.39.1.41.11.46.1.42.07.34c.87.23,1.15.8,1.2,2.07v.3c0,.05,0,.1,0,.16v.33s-.02.31-.02.31c-.08,1.59-.45,2.12-1.73,2.22h-.25s-.27.02-.27.02h-.29c-1.81-.05-2.49-1.25-2.47-2.84.02-1.59.74-2.76,2.55-2.71h.15s-.09-.37-.09-.37l-.16-.64-.18-.7-.09-.32-.09-.3-.06-.19.69-1.16s0,.01,0,.02ZM165.11,38.91l-.14.08-.26.14-.22.11,1.74-2.94c.25,1-.02,1.94-1.12,2.61ZM169.24,34.78c-.02,1.07.34,1.7,1.42,1.73h.45s.19,0,.19,0h.16c.45-.04.59-.19.64-.72v-.19s.02-.22.02-.22l.02-1.06v-.22s0-.19,0-.19c-.03-.53-.16-.69-.61-.75l-.16-.02h-.29s-.35-.02-.35-.02c-1.08-.03-1.46.59-1.47,1.66ZM165.18,26.75l.4-.09.38-.08c.06-.01.12-.03.18-.04l.35-.07c.06-.01.11-.02.17-.03l.33-.05c.54-.08,1-.11,1.41-.08l-.63,1.06h-.13s-.24.04-.24.04l-.26.04-.27.05-.29.06-.47.1-.69.16-.91.23-.48.13-.3.09-.28.09-.26.09s-.08.03-.12.04l-.23.09c-1.23.51-1.55,1.15-1.35,2.59l.04.26.05.28.09.45.11.5.13.55.16.64.1.37.13-.07c.62-.35,1.18-.45,1.68-.36l-.65,1.11c-.12.03-.25.08-.39.15l-.11.06-.3.17-.25.15-.14.09c-.35.24-.41.43-.24.85l.04.09.08.17.1.2.03.06-.63,1.07h0s-.16-.29-.16-.29l-.04-.07h0l-.04-.07-.13-.27c-.55-1.15-.56-1.78.09-2.39l-.04-.14-.11-.39-.11-.44-.16-.65-.09-.4-.08-.38-.07-.36-.06-.34-.05-.32c0-.05-.01-.1-.02-.16l-.03-.3c-.17-1.94.47-2.83,2.41-3.55l.3-.11c.05-.02.1-.03.16-.05l.33-.1c.06-.02.12-.03.17-.05l.36-.1.38-.1.61-.15Z"/><path id="v" class="aq" d="M169.63,26.3c.14-.24.45-.32.68-.17.22.13.3.4.21.63l-.03.07-7.49,12.73c-.14.24-.45.32-.68.17-.22-.13-.3-.4-.21-.63l.03-.07,7.49-12.73Z"/></g><g id="w"><g id="x"><path class="aq" d="M60.98,19.42c.12.06.24.17.25.33,0,.09-.03.19-.1.29-.98,1.53-2.44,4.14-2.41,4.58,0,.09.04.16.15.25,1.42,1.3,3.56,3.37,3.6,3.93.01.23-.13.43-1.75,1.88-.05.05-.14.07-.23.07-.11,0-.23-.01-.31-.08,0,0-3.29-2.94-4.6-4.06-.38-.33-.53-.6-.55-.93-.07-1.06,1.19-4.39,3.41-7.17.05-.06.16-.13.29-.13.07,0,.14,0,.22.04l2.02,1.01Z"/></g><g id="y"><path class="aq" d="M64.32,25.27c-.16,0-.36-.13-.37-.32l-.09-2.61c0-.17.18-.32.33-.33l9.73-.32c.16,0,.35.13.36.32l.09,2.59c0,.17-.18.31-.33.31l-9.72.35Z"/></g><g id="z"><path class="aq" d="M83.38,19.09c.09.1.18.24.14.39-.02.08-.09.17-.18.25-1.4,1.16-3.58,3.2-3.69,3.63-.02.08-.01.16.06.28.96,1.67,2.37,4.29,2.23,4.83-.06.22-.25.36-2.24,1.26-.07.03-.15.02-.24,0-.11-.03-.22-.08-.27-.17,0,0-2.24-3.8-3.15-5.27-.26-.43-.32-.73-.24-1.05.26-1.03,2.46-3.82,5.43-5.8.07-.04.19-.07.32-.04.07.02.14.05.2.11l1.62,1.57Z"/></g></g><path class="aq" d="M28.64,78.66s-.07.02-.09.02c-.16.02-.21-.06-.24-.21l-.74-4.33-.67-.05c-.17-.02-.27-.12-.29-.25,0-.03,0-.08.01-.12l1.2-4.39c.03-.13.12-.19.23-.21.04,0,.1,0,.15.02l1.79.45c.13.03.2.13.21.23,0,.06,0,.1-.02.16l-.89,3.21.33-.05h.03c.16-.02.27.04.29.2l.75,4.4v.03c.03.24-.09.37-.27.43l-1.78.46ZM37.75,77.83c-.01.31-.26.45-.51.47-1.01.08-2.04.09-2.63.05l-.39-.03-.1.25c-.07.2-.3.27-.47.29-.06,0-.1,0-.14,0l-1.64-.11c-.13,0-.2-.07-.21-.15,0-.04.01-.09.03-.14l.14-.29-.72-.05c-.1-.01-.16-.09-.17-.18,0-.03,0-.06,0-.09l.22-1.23c.01-.12.07-.17.17-.18.02,0,.05,0,.08,0l1.15.03.04-.56-1.19.14c-.26.03-.36-.06-.4-.31l-.55-3.83v-.02c-.03-.22.16-.44.39-.47l1.37-.19-.1-.8-1.49.11c-.17.02-.27-.06-.28-.21l-.15-1.49c-.02-.19.08-.27.23-.29l6.02-.48c.15-.02.23.07.25.21l.11,1.51c.02.16-.06.26-.21.27l-2.13.17.07.64.96-.13h.08c.79-.09,1.32.34,1.41,1.17v.03s.26,2.67.26,2.67c.05.48-.15.75-.57.8l-1.77.21-.05.88c.42,0,1.15-.04,1.96-.13.22-.02.45-.06.68-.08.16-.02.24.04.26.18v.04s-.04,1.29-.04,1.29ZM32.72,72.56l-.66.08.09.68.65-.03-.08-.73ZM32.89,74.14l-.62.02.11.82.59-.07-.08-.76ZM35.23,72.65c-.02-.18-.16-.37-.39-.35l-.39.05.09.84.75-.04-.05-.51ZM35.37,74.01l-.75.03.07.64.74-.09-.06-.58Z"/><path class="aq" d="M40.88,77.85h-.04c-.19.03-.34-.11-.36-.26l-.17-1.32c-.04.07-.11.13-.19.13h-.02s-1.4-.03-1.4-.03c-.12-.01-.22-.1-.22-.19,0-.01,0-.03,0-.05l.38-1.93c.03-.09.1-.15.2-.16h.04s.94.11.94.11l-.14-1.02-1.3.17c-.16.02-.25-.04-.27-.21l-.17-1.33c-.02-.15.03-.23.18-.25l1.23-.17-.14-1.12-.6.15s-.08.02-.12.02c-.24.03-.36-.08-.41-.25l-.34-1.28s-.02-.08-.02-.1c-.01-.15.05-.21.17-.25l4.25-1.03h.06c.12-.02.21.04.23.16l.25,1.42v.04c.02.14-.02.23-.15.27l-.88.23.17,1.41,1.05-.13c.17-.02.24.04.26.2l.14,1.33c.02.17-.03.26-.21.28l-1.07.13.22,1.65.67-.63s.05-.04.08-.04c.06,0,.12.02.15.05l.87.73s.05.06.06.12c0,.07-.02.14-.07.2l-.75.77s-.08.05-.13.06c-.06,0-.13-.02-.15-.05l-.67-.71.26,2.08c.02.19-.12.39-.28.43l-1.58.36ZM44.43,74.4h-.04c-.13.02-.22-.06-.24-.19l-.5-4.86c-.01-.13.02-.23.18-.25h.02s.82-.06.82-.06c.15,0,.22.08.24.21l.48,4.59c.02.15,0,.29-.2.34l-.76.21ZM45.76,76.96c-.1-.01-.22-.07-.24-.21,0-.07,0-.14.03-.22.24-.61.55-1.32.52-1.7l-.64-7.22c-.02-.17.05-.26.2-.27h.04s1.85-.04,1.85-.04c.17,0,.29.08.31.24l.67,7.43c.04.53-.12,1.18-.36,1.86-.09.23-.27.38-.5.41-.05,0-.11,0-.17,0l-1.71-.26Z"/><path class="aq" d="M58.08,73.4c-.02.12-.11.26-.3.28-.03,0-.27,0-.57-.02-.01,1.39-1.15,2.46-2.69,2.63-1.32.14-2.48-.48-2.61-1.63-.06-.54.13-1.12.5-1.61-.01,0-.03.01-.06.02-.02,0-.06,0-.09,0l-1.8-.07c-.09-.02-.19-.12-.21-.24,0-.02,0-.06,0-.08.06-.38.1-1.23.13-2.15l-.86.14c-.12.01-.22-.07-.24-.19l-.22-1.73v-.02c-.01-.11.08-.21.18-.22l1.17-.18c0-.48,0-.85,0-1.04,0-.18.09-.31.32-.33h.03s1.74-.11,1.74-.11c.19-.02.28.14.29.26.02.25.04.54.05.86l.55-.08c.11-.01.21.07.24.19l.21,1.73v.02c.01.11-.07.21-.18.22l-.82.12c-.03,1.05-.11,2.06-.27,2.68l-.02.05c.6-.7,1.39-.93,2.26-1.12-.01-.24-.03-.47-.05-.69-.01-.23.02-.31.25-.33h.04s1.76-.07,1.76-.07c.26,0,.34.07.36.26v.04c.02.16.03.34.04.53l.7.02c.21.01.25.13.26.21,0,.04,0,.08,0,.08l-.07,1.59ZM53.89,74.09c.02.21.25.37.51.34.47-.05.49-.5.51-.92-.82.09-1.04.35-1.02.57ZM55.54,69.96c-.08,0-.16-.04-.21-.17l-.53-1.6s-.02-.05-.02-.08c-.03-.25,1.47-1.13,2.36-1.23.09,0,.18,0,.26.19l.67,1.85s.02.07.02.1c.01.12-.05.2-.18.23-.5.16-1.75.52-2.33.7h-.04Z"/><path class="aq" d="M59.47,72.9c-.03-.07-.04-.11-.05-.15-.01-.13.11-.17.22-.21.63-.2,1.66-.57,2.01-.71.03-.01.08-.02.11-.02.11-.01.2.04.25.11l.98,1.41c.05.06.08.14.09.21,0,.08-.02.15-.09.21-.9.77-1.97,1.17-2.26,1.21-.12.01-.19-.04-.26-.16l-1-1.9ZM63.7,75.03c-.13.01-.25-.08-.26-.2l-.45-4.22-2.57.15c-.11,0-.22-.08-.24-.2v-.02s-.11-1.84-.11-1.84c-.01-.11.08-.22.19-.24h.02s2.45-.14,2.45-.14l-.19-1.79c-.01-.13.08-.25.21-.26l2.2-.23c.12-.01.24.08.25.21l.2,1.92,1.7-.09c.11-.01.22.08.24.19v.02s.11,1.85.11,1.85c.01.12-.09.23-.21.24l-1.58.09.43,4.07c.01.12-.08.24-.2.25l-2.2.23ZM66.79,67.63s-.07.02-.09.02c-.14.01-.21-.05-.25-.14l-.44-.85c-.03-.05-.04-.1-.05-.13-.01-.11.07-.16.2-.19l.78-.22h.03c.13-.02.26.11.31.24l.29.82s.02.05.02.09c.01.11-.06.18-.24.22l-.56.15ZM68.2,74.07c-.11.07-.18.1-.23.1-.07,0-.11-.03-.17-.1-.41-.45-1.11-1.14-1.41-1.47-.08-.07-.12-.17-.13-.24,0-.06.01-.1.05-.13l1.3-.89c.08-.05.16-.1.25-.11.39-.04,2.12,1.15,2.16,1.54,0,.07-.02.13-.1.17l-1.75,1.11ZM68.89,67.5c-.06.05-.11.08-.16.08-.07,0-.13-.02-.19-.08l-.81-.71c-.06-.05-.08-.09-.08-.14,0-.08.04-.14.08-.18l.55-.5c.05-.04.1-.07.15-.07.08,0,.15.03.23.09l.67.65c.09.07.14.13.14.19,0,.06-.02.12-.09.18l-.48.49Z"/><path class="aq" d="M75,74.28c-.12.01-.23-.07-.25-.19l-.51-4.79c-1.61.78-2.81,1.17-2.94,1.19-.1.01-.2-.02-.24-.12l-.84-1.62s-.03-.05-.03-.09c0-.09.04-.17.11-.22,2.17-1.12,5.15-3.06,6.88-4.15.03-.01.07-.03.1-.03.11-.01.25.03.31.1l1.39,1.87s.03.05.03.09c.01.1-.03.22-.12.29-.83.61-2.23,1.45-3.69,2.21l1.48-.16c.12-.01.22.08.24.2l.52,4.95c.01.12-.07.22-.19.24l-2.26.24Z"/><path class="aq" d="M79.33,72.44c-.05-.05-.09-.1-.1-.16,0-.09.05-.18.2-.26,2.17-1.38,3.57-4.31,3.51-4.87-.01-.13-.1-.19-.27-.19l-2.41.05c-.12,0-.23-.09-.24-.21v-.02s-.03-1.87-.03-1.87c0-.12.09-.23.21-.24h.02s4.52-.13,4.52-.13c.51,0,1.26.37,1.33,1.12,0,.04,0,.08,0,.12.04,2.82-2.18,6.42-5.07,7.77-.1.04-.18.09-.29.1s-.21-.02-.32-.14l-1.09-1.07ZM85.55,69.73c.07-.12.16-.17.26-.18.09,0,1.48.01,2.95.68.12.06.18.13.19.22,0,.07-.02.14-.06.22-.22.49-.73,1.51-.97,2.02-.05.1-.11.14-.19.15-.07,0-.15-.02-.21-.05-.65-.33-2.03-.99-2.62-1.27-.1-.05-.18-.09-.19-.18,0-.05.01-.1.05-.16l.78-1.45Z"/><path class="aq" d="M95.51,68.26c-.66,2.91-2.78,4.36-3.03,4.39-.13.01-.27-.05-.46-.17l-1.24-.73c-.06-.04-.09-.08-.09-.13-.01-.1.08-.21.18-.3.96-.81,1.49-1.81,1.76-2.89l-2.96.17c-.11.01-.21-.08-.22-.19v-.02s-.08-1.7-.08-1.7c-.01-.11.02-.22.13-.23h.02s3.37-.2,3.37-.2c0-.24,0-.48,0-.73,0-.1.05-.19.13-.25-.36.06-.72.11-1.07.15-.26.03-.52.04-.77.06-.09,0-.18-.03-.21-.12l-.39-1.42v-.02c-.01-.09.02-.17.1-.19,1.38-.4,3.61-1.22,4.82-1.74.03-.01.05-.02.09-.02.13-.01.26.06.3.16l.79,1.76s.02.07.02.1c.01.11-.03.22-.19.29-.84.35-1.86.66-2.93.88l1.65-.06c.25,0,.4.09.42.32.02.23.04.45.04.68l2.59-.15c.14,0,.29.09.31.22l.07,1.7c.01.12-.09.23-.21.24l-2.96.17Z"/><path class="aq" d="M102.08,71.44h-.02c-.14.02-.24-.09-.26-.21-.23-.87-.52-2.53-.74-4.04l-1.17.04c-.14,0-.23-.1-.24-.23l-.07-1.41c0-.13.09-.23.2-.24h.02s.99-.03.99-.03c-.06-.44-.1-.81-.12-1.04,0-.11.03-.25.17-.27.26-.03,1.12-.09,1.53-.14.18-.02.3.14.32.25,0,.04.08.5.18,1.16l2.55-.06c.44,0,1.05.14,1.12.83.14,1.37-1.35,2.8-1.74,2.84-.16.02-.29-.09-.69-.42-.22-.15-.43-.3-.44-.43,0-.08.03-.16.08-.22.19-.22.35-.6.34-.69,0-.04-.03-.04-.06-.04l-.88.03c.26,1.81.55,3.78.55,3.78.01.14-.09.26-.22.29l-1.38.25Z"/><path class="aq" d="M108.34,67.12s-.07.02-.1.02c-.17.02-.21-.07-.27-.19-.69-1.67-.69-1.7-.7-1.75-.01-.12.03-.22.13-.24l1.3-.3s.07-.02.1-.02c.1-.01.22.01.31.13.35.41.89,1.24.94,1.65.01.13-.02.26-.18.3l-1.53.39ZM110.05,69.94c-.08-.03-.16-.11-.17-.21,0-.03,0-.08.03-.12.7-1.02,1.37-2.44,1.86-3.73l-1.15.33s-.09.02-.12.02c-.16.02-.2-.05-.25-.17-.51-1.09-.72-1.69-.73-1.74-.01-.11.02-.22.12-.24l1.25-.33s.07-.02.1-.02c.11-.01.22.01.31.12.22.26.58.72.79,1.16.14-.4.26-.78.34-1.09.04-.08.12-.14.2-.15.03,0,.07,0,.1.01l1.6.51c.1.04.14.11.15.19.04.37-.84,3.66-2.79,5.69-.04.08-.11.12-.19.13-.03,0-.08,0-.12-.01l-1.34-.36Z"/><path class="aq" d="M116.76,69.85c-.12.01-.23-.07-.25-.19l-1-9.48c-.01-.12.08-.24.2-.25l2.21-.23c.12-.01.22.08.24.2l.41,3.86.5-.87c.07-.12.16-.17.28-.18.34-.04,2.17.23,3.21.65.13.05.2.13.21.22.01.1-.03.17-1.04,2.3-.05.1-.12.14-.2.15-.08,0-.16-.02-.22-.04-.6-.29-1.82-.79-2.6-1.07l.47,4.46c.01.12-.07.22-.19.24l-2.21.23Z"/><path class="aq" d="M124.71,64.11s-.09.02-.12.02c-.19.02-.22-.06-.28-.2-.2-.46-.91-2.12-.93-2.31-.01-.11.01-.22.12-.24l1.73-.4h.1c.13-.03.26-.02.37.12.34.38,1.16,1.53,1.23,2.17.02.15-.03.28-.19.32l-2.03.52ZM127.02,67.87c-.08-.03-.16-.11-.17-.2,0-.04,0-.08.03-.12.97-1.4,1.87-3.38,2.54-5.12l-1.69.47c-.05.02-.11.02-.14.03-.16.02-.19-.06-.25-.19-.18-.38-.95-2.12-.97-2.29-.01-.12.01-.23.12-.25l1.66-.43s.09-.02.13-.03c.12-.01.24,0,.33.12.32.38.85,1.08,1.12,1.69.21-.6.39-1.16.52-1.62.04-.09.11-.15.21-.16.03,0,.07,0,.1.01l2.13.68c.08.04.12.11.14.21.05.5-1.19,4.9-3.71,7.52-.04.09-.11.15-.21.16-.03,0-.07,0-.1-.01l-1.8-.49Z"/><path class="aq" d="M134.49,64.27c-.12.01-.29-.08-.31-.23l-.22-2.05c-.01-.13.12-.26.24-.28l7.64-.79c.12-.01.28.08.3.23l.21,2.04c.01.13-.12.25-.25.26l-7.62.82Z"/><path class="aq" d="M143.66,64.87c-.2-.04-.26-.1-.27-.19,0-.07.02-.15.05-.25.33-.92.76-2.57.98-3.52.05-.21.15-.29.29-.3.03,0,.08,0,.11,0l1.96.3c.17.03.31.12.33.32.07.64-1.05,3.9-1.58,3.95-.06,0-.11,0-.19-.01l-1.67-.3ZM147.54,58.46c-.02-.15.02-.3.17-.31l2.15-.33h.02c.15-.02.3.05.32.18l.41,3.91c.02.19.06.24.17.23.1-.01.22-.06,1.5-.52.05-.02.11-.05.15-.05.09,0,.16.03.24.15,1.01,1.38,1.03,1.43,1.04,1.55.01.1-.04.2-.14.29-1.34,1.22-4.09,2.19-4.75,2.26-.28.03-.39-.14-.42-.4l-.87-6.96Z"/><path class="aq" d="M112.39,55.82c-.61.18-1.18.21-1.73.11-1.73-.34-2.96-2.02-2.62-3.79.23-1.2,1.44-3.02,3.57-2.6.51.1.99.32,1.37.58.07-.06.19-.08.31-.05h.06s1.77.51,1.77.51c.26.08.31.23.29.37v.06c-.35.95-.68,1.85-.83,2.58-.23,1.17.14,1.33.27,1.35.63.12,1.27-1.38,1.41-2.14.45-2.34-1.2-4.18-3.47-4.63-2.79-.54-5.29.86-5.85,3.73-.49,2.53.87,5.06,3.66,5.61.83.16,1.7.15,2.54.02.04,0,.07,0,.1,0,.29.06.4.53.33.85-.03.14-.08.24-.17.28-.71.3-1.71.34-2.75.14-1.91-.37-3.96-1.56-4.7-3.5-.47-1.23-.55-2.52-.32-3.7.86-4.43,4.94-5.13,7.38-4.66,3.41.66,5.16,3.4,4.63,6.11-.41,2.13-2.03,3.83-4.01,3.44-.45-.09-.88-.3-1.24-.66v-.02ZM112.01,53.96c.01-.3.06-.62.13-.96.05-.27.12-.56.2-.87-.08-.25-.34-.44-.65-.5-.59-.11-1.13.32-1.27,1.01-.12.61.19,1.21.87,1.34.21.04.43.04.7-.02h.01Z"/><path class="aq" d="M99.82,56.13l.32,2.32c.04.18-.11.29-.28.33-.11,0-1.78.25-1.98.29-.15.02-.31-.07-.34-.21v-.03s-.32-2.19-.32-2.19l-.94.18.43,2.23c.04.19-.09.32-.27.35l-1.95.38c-.17.03-.34-.05-.37-.21l-.44-2.24-1.18.23c-.12.02-.27-.08-.29-.2l-.35-1.77c-.03-.17.09-.27.2-.29l1.18-.23-.39-1.98-1.18.23c-.12.02-.27-.08-.29-.2l-.34-1.77c-.03-.17.09-.27.2-.3l1.18-.23-.4-2.08c-.03-.14.08-.27.2-.29l2.09-.41c.17-.03.27.08.3.2l.4,2.08,1.29-.25-.31-2.17c0-.11.08-.24.19-.27h.03c.19-.04,1.96-.3,2.11-.32.14-.01.25.09.27.19v.03c.03.14.14.93.3,2.01l.84-.16c.19-.04.32.09.35.27l.32,1.65c.03.17-.05.32-.22.36l-.98.19.29,1.99,1.06-.21c.19-.04.32.09.35.27l.32,1.65c.03.15-.05.32-.22.36l-1.18.23ZM96.61,52.34l-1.17.23.4,1.98,1.06-.22-.29-1.99Z"/><path id="aa" class="ar" d="M155.5,52.5l-103.29,22.02-21.79-11.07-8.74-24.45c4.94-5.5,9.87-11.01,14.81-16.51,1.88,1.3,6.14,3.85,12,4,2.88.07,5.28-.46,7-1,4.81.36,9.62.72,14.43,1.09l13.57-3.09,12-6,31,7,23.72-6.75,5.28,34.75Z"/><g id="ab"><path class="ao" d="M151.19,55.35c-.58.09-1.05.2-1.47.1-.42-.1-.74-.4-1-.96-1.46-3.52-6.43-18.73-7.91-21.92-.04-.07-.07-.18-.05-.24l-2.53,1.03-3.92,16.75c-.14.58-.79.98-1.37.85l-11.1-2.6c-.63-.15-.99-.79-.85-1.37l9.71-41.48c.15-.63.73-1,1.37-.85l11.1,2.6c.58.14,1,.74.85,1.37l-2.44,10.41c.77-.43,16.51-8.85,18.89-8.29.42.1.8.41,1.14,1.1l4.05,8.42c.23.45.3.85.22,1.22-.12.53-.55.93-1.22,1.16-2.56.96-13.41,5.39-20.57,8.34l7.28-.86c.58-.09,1.12-.24,1.64-.12,3.28.77,8.4,20.08,7.84,22.46-.12.53-.46,1.01-1.27,1.15l-8.37,1.72Z"/><path class="ao" d="M45.69,61.84c-.47.35-.83.67-1.25.79s-.84,0-1.34-.37c-2.95-2.41-14.52-13.46-17.33-15.57-.07-.04-.15-.13-.16-.18l-1.74,2.1,4.46,16.62c.15.58-.23,1.24-.8,1.4l-11.01,2.95c-.63.17-1.24-.23-1.4-.81L4.08,27.61c-.17-.63.17-1.23.8-1.4l11.01-2.95c.58-.16,1.23.18,1.4.8l2.77,10.33c.47-.75,10.37-15.6,12.73-16.23.42-.11.89-.02,1.52.43l7.55,5.5c.41.28.67.61.77.97.14.52-.05,1.08-.53,1.6-1.81,2.06-9.27,11.09-14.18,17.07l6.01-4.2c.47-.35.87-.74,1.39-.88,3.25-.87,16.89,13.73,17.52,16.09.14.52.07,1.11-.58,1.62l-6.57,5.47Z"/><path class="ao" d="M71.21,62.86c-8.82.62-17.01-5.22-17.69-14.75-.79-11.15,7.14-17.53,16.67-18.2,11.96-.84,17.77,8.16,18.26,15.2.74,10.56-9.56,17.21-17.25,17.75ZM76.92,45.81c-.07-1.03-.66-6.26-6.18-5.88-4.55.32-5.58,4.26-5.4,6.69.26,3.73,3.36,6.02,6.45,5.8,3.84-.27,5.35-3.53,5.14-6.62Z"/><path class="ao" d="M105.16,46.88c-8.82.62-17.01-5.22-17.69-14.75-.79-11.15,7.14-17.53,16.67-18.2,11.96-.84,17.77,8.16,18.26,15.2.74,10.56-9.56,17.21-17.25,17.75ZM110.87,29.83c-.07-1.03-.66-6.26-6.18-5.88-4.55.32-5.58,4.26-5.4,6.69.26,3.73,3.36,6.02,6.45,5.8,3.84-.27,5.35-3.53,5.14-6.62Z"/></g><g id="ac"><path id="ad" class="an" d="M52.41,37.49c.15.23.09.54-.14.69l-.4.27-.38.25-.46.29h0l-.43.26-.33.19-.16.09h0l-.31.16c-2.15,1.09-3.41.87-4.98-.9l.82-.55c1.22,1.36,2.16,1.44,3.92.47l.29-.16.3-.18.32-.2.33-.21.54-.35.38-.25c.23-.15.54-.09.69.14ZM49.79,35.44l1.27-.86-.05.23-.04.16-.08.3c-.52,1.81-1.36,2.46-3.25,2.09-.18-.04-.35-.08-.51-.12l1.17-.79c.78.06,1.19-.21,1.49-1ZM43.8,35.76l.05.06-.83.56c-.16-.23-.1-.54.13-.7.21-.14.48-.1.65.08h0ZM49.23,29.18c1.26.24,1.91.73,2.16,1.57l-.9.6c-.09-.71-.51-1.01-1.45-1.19l-.12-.02c-1.2-.21-1.66.14-2.02,1.51l-.04.15-.07.29-.07.32-.2,1.02-.07.4-.04.27-1.06.71c0-.14.01-.29.02-.45l.02-.16.04-.3.02-.16.03-.16.06-.34.2-1.02.07-.34.04-.16.04-.16.08-.3c.52-1.81,1.36-2.46,3.25-2.09Z"/><path id="ae" class="am" d="M53.95,30.23c.23-.15.54-.09.69.14.14.21.1.48-.08.65l-.06.05-12.17,8.2c-.23.15-.54.09-.69-.14-.14-.21-.1-.48.08-.65l.06-.05,12.17-8.2Z"/></g><g id="af"><path id="ag" class="an" d="M170.93,28.38l.11.28s.04.1.05.15l.11.31.11.33.1.35.1.37.1.39.1.41.11.46.1.42.07.34c.87.23,1.15.8,1.2,2.07v.3c0,.05,0,.1,0,.16v.33s-.02.31-.02.31c-.08,1.59-.45,2.12-1.73,2.22h-.25s-.27.02-.27.02h-.29c-1.81-.05-2.49-1.25-2.47-2.84.02-1.59.74-2.76,2.55-2.71h.15s-.09-.37-.09-.37l-.16-.64-.18-.7-.09-.32-.09-.3-.06-.19.69-1.16s0,.01,0,.02ZM165.11,38.91l-.14.08-.26.14-.22.11,1.74-2.94c.25,1-.02,1.94-1.12,2.61ZM169.24,34.78c-.02,1.07.34,1.7,1.42,1.73h.45s.19,0,.19,0h.16c.45-.04.59-.19.64-.72v-.19s.02-.22.02-.22l.02-1.06v-.22s0-.19,0-.19c-.03-.53-.16-.69-.61-.75l-.16-.02h-.29s-.35-.02-.35-.02c-1.08-.03-1.46.59-1.47,1.66ZM165.18,26.75l.4-.09.38-.08c.06-.01.12-.03.18-.04l.35-.07c.06-.01.11-.02.17-.03l.33-.05c.54-.08,1-.11,1.41-.08l-.63,1.06h-.13s-.24.04-.24.04l-.26.04-.27.05-.29.06-.47.1-.69.16-.91.23-.48.13-.3.09-.28.09-.26.09s-.08.03-.12.04l-.23.09c-1.23.51-1.55,1.15-1.35,2.59l.04.26.05.28.09.45.11.5.13.55.16.64.1.37.13-.07c.62-.35,1.18-.45,1.68-.36l-.65,1.11c-.12.03-.25.08-.39.15l-.11.06-.3.17-.25.15-.14.09c-.35.24-.41.43-.24.85l.04.09.08.17.1.2.03.06-.63,1.07h0s-.16-.29-.16-.29l-.04-.07h0l-.04-.07-.13-.27c-.55-1.15-.56-1.78.09-2.39l-.04-.14-.11-.39-.11-.44-.16-.65-.09-.4-.08-.38-.07-.36-.06-.34-.05-.32c0-.05-.01-.1-.02-.16l-.03-.3c-.17-1.94.47-2.83,2.41-3.55l.3-.11c.05-.02.1-.03.16-.05l.33-.1c.06-.02.12-.03.17-.05l.36-.1.38-.1.61-.15Z"/><path id="ah" class="am" d="M169.63,26.3c.14-.24.45-.32.68-.17.22.13.3.4.21.63l-.03.07-7.49,12.73c-.14.24-.45.32-.68.17-.22-.13-.3-.4-.21-.63l.03-.07,7.49-12.73Z"/></g><g id="ai"><g id="aj"><path class="ao" d="M60.98,19.42c.12.06.24.17.25.33,0,.09-.03.19-.1.29-.98,1.53-2.44,4.14-2.41,4.58,0,.09.04.16.15.25,1.42,1.3,3.56,3.37,3.6,3.93.01.23-.13.43-1.75,1.88-.05.05-.14.07-.23.07-.11,0-.23-.01-.31-.08,0,0-3.29-2.94-4.6-4.06-.38-.33-.53-.6-.55-.93-.07-1.06,1.19-4.39,3.41-7.17.05-.06.16-.13.29-.13.07,0,.14,0,.22.04l2.02,1.01Z"/></g><g id="ak"><path class="ao" d="M64.32,25.27c-.16,0-.36-.13-.37-.32l-.09-2.61c0-.17.18-.32.33-.33l9.73-.32c.16,0,.35.13.36.32l.09,2.59c0,.17-.18.31-.33.31l-9.72.35Z"/></g><g id="al"><path class="ao" d="M83.38,19.09c.09.1.18.24.14.39-.02.08-.09.17-.18.25-1.4,1.16-3.58,3.2-3.69,3.63-.02.08-.01.16.06.28.96,1.67,2.37,4.29,2.23,4.83-.06.22-.25.36-2.24,1.26-.07.03-.15.02-.24,0-.11-.03-.22-.08-.27-.17,0,0-2.24-3.8-3.15-5.27-.26-.43-.32-.73-.24-1.05.26-1.03,2.46-3.82,5.43-5.8.07-.04.19-.07.32-.04.07.02.14.05.2.11l1.62,1.57Z"/></g></g><path class="ao" d="M28.64,78.66s-.07.02-.09.02c-.16.02-.21-.06-.24-.21l-.74-4.33-.67-.05c-.17-.02-.27-.12-.29-.25,0-.03,0-.08.01-.12l1.2-4.39c.03-.13.12-.19.23-.21.04,0,.1,0,.15.02l1.79.45c.13.03.2.13.21.23,0,.06,0,.1-.02.16l-.89,3.21.33-.05h.03c.16-.02.27.04.29.2l.75,4.4v.03c.03.24-.09.37-.27.43l-1.78.46ZM37.75,77.83c-.01.31-.26.45-.51.47-1.01.08-2.04.09-2.63.05l-.39-.03-.1.25c-.07.2-.3.27-.47.29-.06,0-.1,0-.14,0l-1.64-.11c-.13,0-.2-.07-.21-.15,0-.04.01-.09.03-.14l.14-.29-.72-.05c-.1-.01-.16-.09-.17-.18,0-.03,0-.06,0-.09l.22-1.23c.01-.12.07-.17.17-.18.02,0,.05,0,.08,0l1.15.03.04-.56-1.19.14c-.26.03-.36-.06-.4-.31l-.55-3.83v-.02c-.03-.22.16-.44.39-.47l1.37-.19-.1-.8-1.49.11c-.17.02-.27-.06-.28-.21l-.15-1.49c-.02-.19.08-.27.23-.29l6.02-.48c.15-.02.23.07.25.21l.11,1.51c.02.16-.06.26-.21.27l-2.13.17.07.64.96-.13h.08c.79-.09,1.32.34,1.41,1.17v.03s.26,2.67.26,2.67c.05.48-.15.75-.57.8l-1.77.21-.05.88c.42,0,1.15-.04,1.96-.13.22-.02.45-.06.68-.08.16-.02.24.04.26.18v.04s-.04,1.29-.04,1.29ZM32.72,72.56l-.66.08.09.68.65-.03-.08-.73ZM32.89,74.14l-.62.02.11.82.59-.07-.08-.76ZM35.23,72.65c-.02-.18-.16-.37-.39-.35l-.39.05.09.84.75-.04-.05-.51ZM35.37,74.01l-.75.03.07.64.74-.09-.06-.58Z"/><path class="ao" d="M40.88,77.85h-.04c-.19.03-.34-.11-.36-.26l-.17-1.32c-.04.07-.11.13-.19.13h-.02s-1.4-.03-1.4-.03c-.12-.01-.22-.1-.22-.19,0-.01,0-.03,0-.05l.38-1.93c.03-.09.1-.15.2-.16h.04s.94.11.94.11l-.14-1.02-1.3.17c-.16.02-.25-.04-.27-.21l-.17-1.33c-.02-.15.03-.23.18-.25l1.23-.17-.14-1.12-.6.15s-.08.02-.12.02c-.24.03-.36-.08-.41-.25l-.34-1.28s-.02-.08-.02-.1c-.01-.15.05-.21.17-.25l4.25-1.03h.06c.12-.02.21.04.23.16l.25,1.42v.04c.02.14-.02.23-.15.27l-.88.23.17,1.41,1.05-.13c.17-.02.24.04.26.2l.14,1.33c.02.17-.03.26-.21.28l-1.07.13.22,1.65.67-.63s.05-.04.08-.04c.06,0,.12.02.15.05l.87.73s.05.06.06.12c0,.07-.02.14-.07.2l-.75.77s-.08.05-.13.06c-.06,0-.13-.02-.15-.05l-.67-.71.26,2.08c.02.19-.12.39-.28.43l-1.58.36ZM44.43,74.4h-.04c-.13.02-.22-.06-.24-.19l-.5-4.86c-.01-.13.02-.23.18-.25h.02s.82-.06.82-.06c.15,0,.22.08.24.21l.48,4.59c.02.15,0,.29-.2.34l-.76.21ZM45.76,76.96c-.1-.01-.22-.07-.24-.21,0-.07,0-.14.03-.22.24-.61.55-1.32.52-1.7l-.64-7.22c-.02-.17.05-.26.2-.27h.04s1.85-.04,1.85-.04c.17,0,.29.08.31.24l.67,7.43c.04.53-.12,1.18-.36,1.86-.09.23-.27.38-.5.41-.05,0-.11,0-.17,0l-1.71-.26Z"/><path class="ao" d="M58.08,73.4c-.02.12-.11.26-.3.28-.03,0-.27,0-.57-.02-.01,1.39-1.15,2.46-2.69,2.63-1.32.14-2.48-.48-2.61-1.63-.06-.54.13-1.12.5-1.61-.01,0-.03.01-.06.02-.02,0-.06,0-.09,0l-1.8-.07c-.09-.02-.19-.12-.21-.24,0-.02,0-.06,0-.08.06-.38.1-1.23.13-2.15l-.86.14c-.12.01-.22-.07-.24-.19l-.22-1.73v-.02c-.01-.11.08-.21.18-.22l1.17-.18c0-.48,0-.85,0-1.04,0-.18.09-.31.32-.33h.03s1.74-.11,1.74-.11c.19-.02.28.14.29.26.02.25.04.54.05.86l.55-.08c.11-.01.21.07.24.19l.21,1.73v.02c.01.11-.07.21-.18.22l-.82.12c-.03,1.05-.11,2.06-.27,2.68l-.02.05c.6-.7,1.39-.93,2.26-1.12-.01-.24-.03-.47-.05-.69-.01-.23.02-.31.25-.33h.04s1.76-.07,1.76-.07c.26,0,.34.07.36.26v.04c.02.16.03.34.04.53l.7.02c.21.01.25.13.26.21,0,.04,0,.08,0,.08l-.07,1.59ZM53.89,74.09c.02.21.25.37.51.34.47-.05.49-.5.51-.92-.82.09-1.04.35-1.02.57ZM55.54,69.96c-.08,0-.16-.04-.21-.17l-.53-1.6s-.02-.05-.02-.08c-.03-.25,1.47-1.13,2.36-1.23.09,0,.18,0,.26.19l.67,1.85s.02.07.02.1c.01.12-.05.2-.18.23-.5.16-1.75.52-2.33.7h-.04Z"/><path class="ao" d="M59.47,72.9c-.03-.07-.04-.11-.05-.15-.01-.13.11-.17.22-.21.63-.2,1.66-.57,2.01-.71.03-.01.08-.02.11-.02.11-.01.2.04.25.11l.98,1.41c.05.06.08.14.09.21,0,.08-.02.15-.09.21-.9.77-1.97,1.17-2.26,1.21-.12.01-.19-.04-.26-.16l-1-1.9ZM63.7,75.03c-.13.01-.25-.08-.26-.2l-.45-4.22-2.57.15c-.11,0-.22-.08-.24-.2v-.02s-.11-1.84-.11-1.84c-.01-.11.08-.22.19-.24h.02s2.45-.14,2.45-.14l-.19-1.79c-.01-.13.08-.25.21-.26l2.2-.23c.12-.01.24.08.25.21l.2,1.92,1.7-.09c.11-.01.22.08.24.19v.02s.11,1.85.11,1.85c.01.12-.09.23-.21.24l-1.58.09.43,4.07c.01.12-.08.24-.2.25l-2.2.23ZM66.79,67.63s-.07.02-.09.02c-.14.01-.21-.05-.25-.14l-.44-.85c-.03-.05-.04-.1-.05-.13-.01-.11.07-.16.2-.19l.78-.22h.03c.13-.02.26.11.31.24l.29.82s.02.05.02.09c.01.11-.06.18-.24.22l-.56.15ZM68.2,74.07c-.11.07-.18.1-.23.1-.07,0-.11-.03-.17-.1-.41-.45-1.11-1.14-1.41-1.47-.08-.07-.12-.17-.13-.24,0-.06.01-.1.05-.13l1.3-.89c.08-.05.16-.1.25-.11.39-.04,2.12,1.15,2.16,1.54,0,.07-.02.13-.1.17l-1.75,1.11ZM68.89,67.5c-.06.05-.11.08-.16.08-.07,0-.13-.02-.19-.08l-.81-.71c-.06-.05-.08-.09-.08-.14,0-.08.04-.14.08-.18l.55-.5c.05-.04.1-.07.15-.07.08,0,.15.03.23.09l.67.65c.09.07.14.13.14.19,0,.06-.02.12-.09.18l-.48.49Z"/><path class="ao" d="M75,74.28c-.12.01-.23-.07-.25-.19l-.51-4.79c-1.61.78-2.81,1.17-2.94,1.19-.1.01-.2-.02-.24-.12l-.84-1.62s-.03-.05-.03-.09c0-.09.04-.17.11-.22,2.17-1.12,5.15-3.06,6.88-4.15.03-.01.07-.03.1-.03.11-.01.25.03.31.1l1.39,1.87s.03.05.03.09c.01.1-.03.22-.12.29-.83.61-2.23,1.45-3.69,2.21l1.48-.16c.12-.01.22.08.24.2l.52,4.95c.01.12-.07.22-.19.24l-2.26.24Z"/><path class="ao" d="M79.33,72.44c-.05-.05-.09-.1-.1-.16,0-.09.05-.18.2-.26,2.17-1.38,3.57-4.31,3.51-4.87-.01-.13-.1-.19-.27-.19l-2.41.05c-.12,0-.23-.09-.24-.21v-.02s-.03-1.87-.03-1.87c0-.12.09-.23.21-.24h.02s4.52-.13,4.52-.13c.51,0,1.26.37,1.33,1.12,0,.04,0,.08,0,.12.04,2.82-2.18,6.42-5.07,7.77-.1.04-.18.09-.29.1s-.21-.02-.32-.14l-1.09-1.07ZM85.55,69.73c.07-.12.16-.17.26-.18.09,0,1.48.01,2.95.68.12.06.18.13.19.22,0,.07-.02.14-.06.22-.22.49-.73,1.51-.97,2.02-.05.1-.11.14-.19.15-.07,0-.15-.02-.21-.05-.65-.33-2.03-.99-2.62-1.27-.1-.05-.18-.09-.19-.18,0-.05.01-.1.05-.16l.78-1.45Z"/><path class="ao" d="M95.51,68.26c-.66,2.91-2.78,4.36-3.03,4.39-.13.01-.27-.05-.46-.17l-1.24-.73c-.06-.04-.09-.08-.09-.13-.01-.1.08-.21.18-.3.96-.81,1.49-1.81,1.76-2.89l-2.96.17c-.11.01-.21-.08-.22-.19v-.02s-.08-1.7-.08-1.7c-.01-.11.02-.22.13-.23h.02s3.37-.2,3.37-.2c0-.24,0-.48,0-.73,0-.1.05-.19.13-.25-.36.06-.72.11-1.07.15-.26.03-.52.04-.77.06-.09,0-.18-.03-.21-.12l-.39-1.42v-.02c-.01-.09.02-.17.1-.19,1.38-.4,3.61-1.22,4.82-1.74.03-.01.05-.02.09-.02.13-.01.26.06.3.16l.79,1.76s.02.07.02.1c.01.11-.03.22-.19.29-.84.35-1.86.66-2.93.88l1.65-.06c.25,0,.4.09.42.32.02.23.04.45.04.68l2.59-.15c.14,0,.29.09.31.22l.07,1.7c.01.12-.09.23-.21.24l-2.96.17Z"/><path class="ao" d="M102.08,71.44h-.02c-.14.02-.24-.09-.26-.21-.23-.87-.52-2.53-.74-4.04l-1.17.04c-.14,0-.23-.1-.24-.23l-.07-1.41c0-.13.09-.23.2-.24h.02s.99-.03.99-.03c-.06-.44-.1-.81-.12-1.04,0-.11.03-.25.17-.27.26-.03,1.12-.09,1.53-.14.18-.02.3.14.32.25,0,.04.08.5.18,1.16l2.55-.06c.44,0,1.05.14,1.12.83.14,1.37-1.35,2.8-1.74,2.84-.16.02-.29-.09-.69-.42-.22-.15-.43-.3-.44-.43,0-.08.03-.16.08-.22.19-.22.35-.6.34-.69,0-.04-.03-.04-.06-.04l-.88.03c.26,1.81.55,3.78.55,3.78.01.14-.09.26-.22.29l-1.38.25Z"/><path class="ao" d="M108.34,67.12s-.07.02-.1.02c-.17.02-.21-.07-.27-.19-.69-1.67-.69-1.7-.7-1.75-.01-.12.03-.22.13-.24l1.3-.3s.07-.02.1-.02c.1-.01.22.01.31.13.35.41.89,1.24.94,1.65.01.13-.02.26-.18.3l-1.53.39ZM110.05,69.94c-.08-.03-.16-.11-.17-.21,0-.03,0-.08.03-.12.7-1.02,1.37-2.44,1.86-3.73l-1.15.33s-.09.02-.12.02c-.16.02-.2-.05-.25-.17-.51-1.09-.72-1.69-.73-1.74-.01-.11.02-.22.12-.24l1.25-.33s.07-.02.1-.02c.11-.01.22.01.31.12.22.26.58.72.79,1.16.14-.4.26-.78.34-1.09.04-.08.12-.14.2-.15.03,0,.07,0,.1.01l1.6.51c.1.04.14.11.15.19.04.37-.84,3.66-2.79,5.69-.04.08-.11.12-.19.13-.03,0-.08,0-.12-.01l-1.34-.36Z"/><path class="ao" d="M116.76,69.85c-.12.01-.23-.07-.25-.19l-1-9.48c-.01-.12.08-.24.2-.25l2.21-.23c.12-.01.22.08.24.2l.41,3.86.5-.87c.07-.12.16-.17.28-.18.34-.04,2.17.23,3.21.65.13.05.2.13.21.22.01.1-.03.17-1.04,2.3-.05.1-.12.14-.2.15-.08,0-.16-.02-.22-.04-.6-.29-1.82-.79-2.6-1.07l.47,4.46c.01.12-.07.22-.19.24l-2.21.23Z"/><path class="ao" d="M124.71,64.11s-.09.02-.12.02c-.19.02-.22-.06-.28-.2-.2-.46-.91-2.12-.93-2.31-.01-.11.01-.22.12-.24l1.73-.4h.1c.13-.03.26-.02.37.12.34.38,1.16,1.53,1.23,2.17.02.15-.03.28-.19.32l-2.03.52ZM127.02,67.87c-.08-.03-.16-.11-.17-.2,0-.04,0-.08.03-.12.97-1.4,1.87-3.38,2.54-5.12l-1.69.47c-.05.02-.11.02-.14.03-.16.02-.19-.06-.25-.19-.18-.38-.95-2.12-.97-2.29-.01-.12.01-.23.12-.25l1.66-.43s.09-.02.13-.03c.12-.01.24,0,.33.12.32.38.85,1.08,1.12,1.69.21-.6.39-1.16.52-1.62.04-.09.11-.15.21-.16.03,0,.07,0,.1.01l2.13.68c.08.04.12.11.14.21.05.5-1.19,4.9-3.71,7.52-.04.09-.11.15-.21.16-.03,0-.07,0-.1-.01l-1.8-.49Z"/><path class="ao" d="M134.49,64.27c-.12.01-.29-.08-.31-.23l-.22-2.05c-.01-.13.12-.26.24-.28l7.64-.79c.12-.01.28.08.3.23l.21,2.04c.01.13-.12.25-.25.26l-7.62.82Z"/><path class="ao" d="M143.66,64.87c-.2-.04-.26-.1-.27-.19,0-.07.02-.15.05-.25.33-.92.76-2.57.98-3.52.05-.21.15-.29.29-.3.03,0,.08,0,.11,0l1.96.3c.17.03.31.12.33.32.07.64-1.05,3.9-1.58,3.95-.06,0-.11,0-.19-.01l-1.67-.3ZM147.54,58.46c-.02-.15.02-.3.17-.31l2.15-.33h.02c.15-.02.3.05.32.18l.41,3.91c.02.19.06.24.17.23.1-.01.22-.06,1.5-.52.05-.02.11-.05.15-.05.09,0,.16.03.24.15,1.01,1.38,1.03,1.43,1.04,1.55.01.1-.04.2-.14.29-1.34,1.22-4.09,2.19-4.75,2.26-.28.03-.39-.14-.42-.4l-.87-6.96Z"/><path class="ao" d="M112.39,55.82c-.61.18-1.18.21-1.73.11-1.73-.34-2.96-2.02-2.62-3.79.23-1.2,1.44-3.02,3.57-2.6.51.1.99.32,1.37.58.07-.06.19-.08.31-.05h.06s1.77.51,1.77.51c.26.08.31.23.29.37v.06c-.35.95-.68,1.85-.83,2.58-.23,1.17.14,1.33.27,1.35.63.12,1.27-1.38,1.41-2.14.45-2.34-1.2-4.18-3.47-4.63-2.79-.54-5.29.86-5.85,3.73-.49,2.53.87,5.06,3.66,5.61.83.16,1.7.15,2.54.02.04,0,.07,0,.1,0,.29.06.4.53.33.85-.03.14-.08.24-.17.28-.71.3-1.71.34-2.75.14-1.91-.37-3.96-1.56-4.7-3.5-.47-1.23-.55-2.52-.32-3.7.86-4.43,4.94-5.13,7.38-4.66,3.41.66,5.16,3.4,4.63,6.11-.41,2.13-2.03,3.83-4.01,3.44-.45-.09-.88-.3-1.24-.66v-.02ZM112.01,53.96c.01-.3.06-.62.13-.96.05-.27.12-.56.2-.87-.08-.25-.34-.44-.65-.5-.59-.11-1.13.32-1.27,1.01-.12.61.19,1.21.87,1.34.21.04.43.04.7-.02h.01Z"/><path class="ao" d="M99.82,56.13l.32,2.32c.04.18-.11.29-.28.33-.11,0-1.78.25-1.98.29-.15.02-.31-.07-.34-.21v-.03s-.32-2.19-.32-2.19l-.94.18.43,2.23c.04.19-.09.32-.27.35l-1.95.38c-.17.03-.34-.05-.37-.21l-.44-2.24-1.18.23c-.12.02-.27-.08-.29-.2l-.35-1.77c-.03-.17.09-.27.2-.29l1.18-.23-.39-1.98-1.18.23c-.12.02-.27-.08-.29-.2l-.34-1.77c-.03-.17.09-.27.2-.3l1.18-.23-.4-2.08c-.03-.14.08-.27.2-.29l2.09-.41c.17-.03.27.08.3.2l.4,2.08,1.29-.25-.31-2.17c0-.11.08-.24.19-.27h.03c.19-.04,1.96-.3,2.11-.32.14-.01.25.09.27.19v.03c.03.14.14.93.3,2.01l.84-.16c.19-.04.32.09.35.27l.32,1.65c.03.17-.05.32-.22.36l-.98.19.29,1.99,1.06-.21c.19-.04.32.09.35.27l.32,1.65c.03.15-.05.32-.22.36l-1.18.23ZM96.61,52.34l-1.17.23.4,1.98,1.06-.22-.29-1.99Z"/></g></svg>