<?xml version="1.0" encoding="UTF-8"?><svg id="a" xmlns="http://www.w3.org/2000/svg" viewBox="0 0 197 91"><defs><style>.am{fill:#ff4d42;}.am,.an,.ao{stroke-width:0px;}.ap{stroke:#000;}.ap,.aq{fill:none;stroke-linecap:round;stroke-linejoin:round;stroke-width:12px;}.aq,.ar{stroke:#fff;}.an{fill:#727579;}.ao{fill:#87eb00;}.ar{fill:#fff;stroke-width:3px;}</style></defs><g id="b"><path id="c" class="ap" d="M161.5,59.5l-103.29,22.02-21.79-11.07-8.74-24.45c4.94-5.5,9.87-11.01,14.81-16.51,1.88,1.3,6.14,3.85,12,4,2.88.07,5.28-.46,7-1,4.81.36,9.62.72,14.43,1.09l13.57-3.09,12-6,31,7,23.72-6.75,5.28,34.75Z"/><g id="d"><path class="ap" d="M157.19,62.35c-.58.09-1.05.2-1.47.1-.42-.1-.74-.4-1-.96-1.46-3.52-6.43-18.73-7.91-21.92-.04-.07-.07-.18-.05-.24l-2.53,1.03-3.92,16.75c-.14.58-.79.98-1.37.85l-11.1-2.6c-.63-.15-.99-.79-.85-1.37l9.71-41.48c.15-.63.73-1,1.37-.85l11.1,2.6c.58.14,1,.74.85,1.37l-2.44,10.41c.77-.43,16.51-8.85,18.89-8.29.42.1.8.41,1.14,1.1l4.05,8.42c.23.45.3.85.22,1.22-.12.53-.55.93-1.22,1.16-2.56.96-13.41,5.39-20.57,8.34l7.28-.86c.58-.09,1.12-.24,1.64-.12,3.28.77,8.4,20.08,7.84,22.46-.12.53-.46,1.01-1.27,1.15l-8.37,1.72Z"/><path class="ap" d="M137.78,11.64c.09,0,.19.01.28.03l11.1,2.6c.58.14,1,.74.85,1.37l-2.44,10.41c.75-.42,15.51-8.31,18.62-8.31.1,0,.19,0,.27.03.42.1.8.41,1.14,1.1l4.05,8.42c.23.45.3.85.22,1.22-.12.53-.55.93-1.22,1.16-2.56.96-13.41,5.39-20.57,8.34l7.28-.86c.42-.06.82-.16,1.21-.16.14,0,.29.01.43.05,3.28.77,8.4,20.08,7.84,22.46-.12.53-.46,1.01-1.27,1.15l-8.37,1.72c-.42.06-.78.14-1.11.14-.13,0-.25-.01-.37-.04-.42-.1-.74-.4-1-.96-1.46-3.52-6.43-18.73-7.91-21.92-.04-.07-.07-.18-.05-.24l-2.53,1.03-3.92,16.75c-.12.5-.62.88-1.14.88-.08,0-.16,0-.23-.03l-11.1-2.6c-.63-.15-.99-.79-.85-1.37l9.71-41.48c.13-.54.57-.88,1.09-.88M137.78,10.64c-.98,0-1.83.68-2.06,1.65l-9.71,41.48c-.13.53-.03,1.11.25,1.59.3.5.78.85,1.34.98l11.1,2.6c.15.03.3.05.46.05.98,0,1.89-.71,2.11-1.65l3.8-16.25,1.1-.45c.92,2.22,2.64,7.2,4.18,11.65,1.42,4.11,2.77,7.99,3.43,9.58.4.87.97,1.38,1.7,1.55.18.04.38.07.59.07.33,0,.65-.05.98-.11l.28-.04h.03s.03,0,.03,0l8.37-1.72c1.07-.19,1.8-.87,2.04-1.9.42-1.78-1.31-8.53-2.5-12.36-3.31-10.65-5.4-11.14-6.09-11.3-.21-.05-.42-.07-.66-.07-.37,0-.7.06-1.03.12-.11.02-.22.04-.33.06,5.87-2.4,11.95-4.87,13.78-5.55.98-.34,1.64-1.01,1.84-1.87.14-.61.04-1.25-.3-1.91l-4.03-8.39c-.46-.93-1.05-1.46-1.81-1.64-.15-.03-.31-.05-.49-.05-2.79,0-12.85,5.13-17.14,7.39l1.93-8.26c.13-.56.04-1.13-.27-1.61-.3-.48-.78-.83-1.33-.96l-11.1-2.6c-.17-.04-.34-.06-.51-.06h0Z"/><path class="ap" d="M51.69,68.84c-.47.35-.83.67-1.25.79s-.84,0-1.34-.37c-2.95-2.41-14.52-13.46-17.33-15.57-.07-.04-.15-.13-.16-.18l-1.74,2.1,4.46,16.62c.15.58-.23,1.24-.8,1.4l-11.01,2.95c-.63.17-1.24-.23-1.4-.81l-11.05-41.14c-.17-.63.17-1.23.8-1.4l11.01-2.95c.58-.16,1.23.18,1.4.8l2.77,10.33c.47-.75,10.37-15.6,12.73-16.23.42-.11.89-.02,1.52.43l7.55,5.5c.41.28.67.61.77.97.14.52-.05,1.08-.53,1.6-1.81,2.06-9.27,11.09-14.18,17.07l6.01-4.2c.47-.35.87-.74,1.39-.88,3.25-.87,16.89,13.73,17.52,16.09.14.52.07,1.11-.58,1.62l-6.57,5.47Z"/><path class="ap" d="M39.11,25.12c.34,0,.73.14,1.2.48l7.55,5.5c.41.28.67.61.77.97.14.52-.05,1.08-.53,1.6-1.81,2.06-9.27,11.09-14.18,17.07l6.01-4.2c.47-.35.87-.74,1.39-.88.09-.03.2-.04.31-.04,3.72,0,16.6,13.83,17.22,16.12.14.52.07,1.11-.58,1.62l-6.57,5.47c-.47.35-.83.67-1.25.79-.1.03-.21.04-.31.04-.32,0-.65-.13-1.03-.41-2.95-2.41-14.52-13.46-17.33-15.57-.07-.04-.15-.13-.16-.18l-1.74,2.1,4.46,16.62c.15.58-.23,1.24-.8,1.4l-11.01,2.95c-.1.03-.2.04-.29.04-.52,0-.97-.36-1.1-.85l-11.05-41.14c-.17-.63.17-1.23.8-1.4l11.01-2.95c.1-.03.19-.04.29-.04.49,0,.97.32,1.11.84l2.77,10.33c.47-.75,10.37-15.6,12.73-16.23.1-.03.21-.04.32-.04M39.11,24.12c-.2,0-.39.03-.58.08-2.35.63-9.24,10.58-12.08,14.8l-2.2-8.19c-.25-.93-1.1-1.58-2.07-1.58-.19,0-.37.02-.55.07l-11,2.95c-.56.15-1.03.5-1.31.99-.28.49-.35,1.07-.2,1.63l11.05,41.14c.25.93,1.1,1.59,2.07,1.59.19,0,.37-.02.55-.07l11.01-2.95c1.12-.3,1.81-1.5,1.51-2.62l-4.33-16.12.76-.92c1.86,1.52,5.72,5.08,9.16,8.26,3.21,2.96,6.24,5.76,7.58,6.85.58.44,1.11.64,1.66.64.19,0,.38-.03.57-.08.54-.14.96-.47,1.36-.78l.23-.17.02-.02.02-.02,6.57-5.47c.85-.67,1.18-1.61.9-2.64-.73-2.71-13.9-16.87-18.18-16.87-.2,0-.39.02-.57.07-.61.16-1.06.52-1.46.84-.09.07-.18.14-.27.21h0c4-4.84,8.23-9.93,9.53-11.41.7-.77.97-1.67.74-2.52-.16-.6-.55-1.12-1.17-1.54l-7.52-5.49c-.63-.45-1.21-.67-1.79-.67h0Z"/><path class="ap" d="M77.21,69.86c-8.82.62-17.01-5.22-17.69-14.75-.79-11.15,7.14-17.53,16.67-18.2,11.96-.84,17.77,8.16,18.26,15.2.74,10.56-9.56,17.21-17.25,17.75ZM82.92,52.81c-.07-1.03-.66-6.26-6.18-5.88-4.55.32-5.58,4.26-5.4,6.69.26,3.73,3.36,6.02,6.45,5.8,3.84-.27,5.35-3.53,5.14-6.62Z"/><path class="ap" d="M111.16,53.88c-8.82.62-17.01-5.22-17.69-14.75-.79-11.15,7.14-17.53,16.67-18.2,11.96-.84,17.77,8.16,18.26,15.2.74,10.56-9.56,17.21-17.25,17.75ZM116.87,36.83c-.07-1.03-.66-6.26-6.18-5.88-4.55.32-5.58,4.26-5.4,6.69.26,3.73,3.36,6.02,6.45,5.8,3.84-.27,5.35-3.53,5.14-6.62Z"/></g><g id="e"><path id="f" class="ap" d="M58.41,44.49c.15.23.09.54-.14.69l-.4.27-.38.25-.46.29h0l-.43.26-.33.19-.16.09h0l-.31.16c-2.15,1.09-3.41.87-4.98-.9l.82-.55c1.22,1.36,2.16,1.44,3.92.47l.29-.16.3-.18.32-.2.33-.21.54-.35.38-.25c.23-.15.54-.09.69.14ZM55.79,42.44l1.27-.86-.05.23-.04.16-.08.3c-.52,1.81-1.36,2.46-3.25,2.09-.18-.04-.35-.08-.51-.12l1.17-.79c.78.06,1.19-.21,1.49-1ZM49.8,42.76l.05.06-.83.56c-.16-.23-.1-.54.13-.7.21-.14.48-.1.65.08h0ZM55.23,36.18c1.26.24,1.91.73,2.16,1.57l-.9.6c-.09-.71-.51-1.01-1.45-1.19l-.12-.02c-1.2-.21-1.66.14-2.02,1.51l-.04.15-.07.29-.07.32-.2,1.02-.07.4-.04.27-1.06.71c0-.14.01-.29.02-.45l.02-.16.04-.3.02-.16.03-.16.06-.34.2-1.02.07-.34.04-.16.04-.16.08-.3c.52-1.81,1.36-2.46,3.25-2.09Z"/><path id="g" class="ap" d="M59.95,37.23c.23-.15.54-.09.69.14.14.21.1.48-.08.65l-.06.05-12.17,8.2c-.23.15-.54.09-.69-.14-.14-.21-.1-.48.08-.65l.06-.05,12.17-8.2Z"/></g><g id="h"><path id="i" class="ap" d="M176.93,35.38l.11.28s.04.1.05.15l.11.31.11.33.1.35.1.37.1.39.1.41.11.46.1.42.07.34c.87.23,1.15.8,1.2,2.07v.3c0,.05,0,.1,0,.16v.33s-.02.31-.02.31c-.08,1.59-.45,2.12-1.73,2.22h-.25s-.27.02-.27.02h-.29c-1.81-.05-2.49-1.25-2.47-2.84.02-1.59.74-2.76,2.55-2.71h.15s-.09-.37-.09-.37l-.16-.64-.18-.7-.09-.32-.09-.3-.06-.19.69-1.16s0,.01,0,.02ZM171.11,45.91l-.14.08-.26.14-.22.11,1.74-2.94c.25,1-.02,1.94-1.12,2.61ZM175.24,41.78c-.02,1.07.34,1.7,1.42,1.73h.45s.19,0,.19,0h.16c.45-.04.59-.19.64-.72v-.19s.02-.22.02-.22l.02-1.06v-.22s0-.19,0-.19c-.03-.53-.16-.69-.61-.75l-.16-.02h-.29s-.35-.02-.35-.02c-1.08-.03-1.46.59-1.47,1.66ZM171.18,33.75l.4-.09.38-.08c.06-.01.12-.03.18-.04l.35-.07c.06-.01.11-.02.17-.03l.33-.05c.54-.08,1-.11,1.41-.08l-.63,1.06h-.13s-.24.04-.24.04l-.26.04-.27.05-.29.06-.47.1-.69.16-.91.23-.48.13-.3.09-.28.09-.26.09s-.08.03-.12.04l-.23.09c-1.23.51-1.55,1.15-1.35,2.59l.04.26.05.28.09.45.11.5.13.55.16.64.1.37.13-.07c.62-.35,1.18-.45,1.68-.36l-.65,1.11c-.12.03-.25.08-.39.15l-.11.06-.3.17-.25.15-.14.09c-.35.24-.41.43-.24.85l.04.09.08.17.1.2.03.06-.63,1.07h0s-.16-.29-.16-.29l-.04-.07h0l-.04-.07-.13-.27c-.55-1.15-.56-1.78.09-2.39l-.04-.14-.11-.39-.11-.44-.16-.65-.09-.4-.08-.38-.07-.36-.06-.34-.05-.32c0-.05-.01-.1-.02-.16l-.03-.3c-.17-1.94.47-2.83,2.41-3.55l.3-.11c.05-.02.1-.03.16-.05l.33-.1c.06-.02.12-.03.17-.05l.36-.1.38-.1.61-.15Z"/><path id="j" class="ap" d="M175.63,33.3c.14-.24.45-.32.68-.17.22.13.3.4.21.63l-.03.07-7.49,12.73c-.14.24-.45.32-.68.17-.22-.13-.3-.4-.21-.63l.03-.07,7.49-12.73Z"/></g><g id="k"><g id="l"><path class="ap" d="M66.98,26.42c.12.06.24.17.25.33,0,.09-.03.19-.1.29-.98,1.53-2.44,4.14-2.41,4.58,0,.09.04.16.15.25,1.42,1.3,3.56,3.37,3.6,3.93.01.23-.13.43-1.75,1.88-.05.05-.14.07-.23.07-.11,0-.23-.01-.31-.08,0,0-3.29-2.94-4.6-4.06-.38-.33-.53-.6-.55-.93-.07-1.06,1.19-4.39,3.41-7.17.05-.06.16-.13.29-.13.07,0,.14,0,.22.04l2.02,1.01Z"/></g><g id="m"><path class="ap" d="M70.32,32.27c-.16,0-.36-.13-.37-.32l-.09-2.61c0-.17.18-.32.33-.33l9.73-.32c.16,0,.35.13.36.32l.09,2.59c0,.17-.18.31-.33.31l-9.72.35Z"/></g><g id="n"><path class="ap" d="M89.38,26.09c.09.1.18.24.14.39-.02.08-.09.17-.18.25-1.4,1.16-3.58,3.2-3.69,3.63-.02.08-.01.16.06.28.96,1.67,2.37,4.29,2.23,4.83-.06.22-.25.36-2.24,1.26-.07.03-.15.02-.24,0-.11-.03-.22-.08-.27-.17,0,0-2.24-3.8-3.15-5.27-.26-.43-.32-.73-.24-1.05.26-1.03,2.46-3.82,5.43-5.8.07-.04.19-.07.32-.04.07.02.14.05.2.11l1.62,1.57Z"/></g></g><path class="ap" d="M118.39,62.82c-.61.18-1.18.21-1.73.11-1.73-.34-2.96-2.02-2.62-3.79.23-1.2,1.44-3.02,3.57-2.6.51.1.99.32,1.37.58.07-.06.19-.08.31-.05h.06s1.77.51,1.77.51c.26.08.31.23.29.37v.06c-.35.95-.68,1.85-.83,2.58-.23,1.17.14,1.33.27,1.35.63.12,1.27-1.38,1.41-2.14.45-2.34-1.2-4.18-3.47-4.63-2.79-.54-5.29.86-5.85,3.73-.49,2.53.87,5.06,3.66,5.61.83.16,1.7.15,2.54.02.04,0,.07,0,.1,0,.29.06.4.53.33.85-.03.14-.08.24-.17.28-.71.3-1.71.34-2.75.14-1.91-.37-3.96-1.56-4.7-3.5-.47-1.23-.55-2.52-.32-3.7.86-4.43,4.94-5.13,7.38-4.66,3.41.66,5.16,3.4,4.63,6.11-.41,2.13-2.03,3.83-4.01,3.44-.45-.09-.88-.3-1.24-.66v-.02ZM118.01,60.96c.01-.3.06-.62.13-.96.05-.27.12-.56.2-.87-.08-.25-.34-.44-.65-.5-.59-.11-1.13.32-1.27,1.01-.12.61.19,1.21.87,1.34.21.04.43.04.7-.02h.01Z"/><path class="ap" d="M105.82,63.13l.32,2.32c.04.18-.11.29-.28.33-.11,0-1.78.25-1.98.29-.15.02-.31-.07-.34-.21v-.03s-.32-2.19-.32-2.19l-.94.18.43,2.23c.04.19-.09.32-.27.35l-1.95.38c-.17.03-.34-.05-.37-.21l-.44-2.24-1.18.23c-.12.02-.27-.08-.29-.2l-.35-1.77c-.03-.17.09-.27.2-.29l1.18-.23-.39-1.98-1.18.23c-.12.02-.27-.08-.29-.2l-.34-1.77c-.03-.17.09-.27.2-.3l1.18-.23-.4-2.08c-.03-.14.08-.27.2-.29l2.09-.41c.17-.03.27.08.3.2l.4,2.08,1.29-.25-.31-2.17c0-.11.08-.24.19-.27h.03c.19-.04,1.96-.3,2.11-.32.14-.01.25.09.27.19v.03c.03.14.14.93.3,2.01l.84-.16c.19-.04.32.09.35.27l.32,1.65c.03.17-.05.32-.22.36l-.98.19.29,1.99,1.06-.21c.19-.04.32.09.35.27l.32,1.65c.03.15-.05.32-.22.36l-1.18.23ZM102.61,59.34l-1.17.23.4,1.98,1.06-.22-.29-1.99Z"/><path class="ap" d="M87.19,80.75c-.03-.06-.05-.11-.06-.15-.02-.13.1-.17.21-.21.62-.22,1.64-.63,1.98-.78.03-.02.08-.02.11-.03.11-.02.2.03.25.1l1.03,1.37c.05.06.09.14.1.2.01.08-.01.15-.08.22-.87.8-1.93,1.24-2.22,1.28-.12.02-.19-.03-.26-.15l-1.06-1.86ZM91.49,82.73c-.13.02-.25-.07-.27-.19l-.59-4.2-2.56.24c-.11,0-.23-.07-.24-.19v-.02s-.17-1.84-.17-1.84c-.02-.11.07-.23.18-.24h.02s2.45-.22,2.45-.22l-.25-1.78c-.02-.13.07-.25.2-.27l2.19-.31c.12-.02.24.07.26.2l.27,1.91,1.69-.15c.11-.02.23.07.24.18v.02s.17,1.85.17,1.85c.02.12-.08.23-.21.25l-1.58.14.57,4.05c.02.12-.07.24-.19.26l-2.19.31ZM94.32,75.23s-.07.02-.09.02c-.13.02-.21-.04-.26-.13l-.47-.84c-.03-.05-.05-.1-.05-.13-.02-.11.07-.16.19-.2l.78-.25h.03c.13-.02.27.09.32.22l.32.81s.02.05.02.09c.02.11-.05.18-.23.23l-.56.17ZM95.96,81.61c-.1.07-.18.11-.22.11-.07,0-.11-.03-.17-.09-.43-.43-1.15-1.1-1.46-1.42-.08-.07-.13-.17-.14-.23,0-.06,0-.1.05-.13l1.27-.93c.08-.06.16-.1.25-.11.39-.06,2.16,1.08,2.22,1.47,0,.07-.02.13-.09.17l-1.71,1.17ZM96.41,75.03c-.06.05-.1.08-.16.09-.07,0-.13-.02-.19-.08l-.84-.68c-.06-.05-.08-.09-.09-.14-.01-.08.04-.14.08-.18l.53-.52c.05-.04.09-.07.15-.08.08-.01.15.02.23.08l.69.62c.09.07.14.13.15.18,0,.06-.02.12-.09.18l-.46.51Z"/><path class="ap" d="M102.76,81.59c-.12.02-.24-.06-.25-.18l-.67-4.77c-1.58.84-2.77,1.27-2.9,1.29-.1.01-.2-.02-.24-.11l-.9-1.59s-.03-.05-.04-.09c-.01-.09.03-.18.11-.22,2.13-1.19,5.04-3.23,6.74-4.39.03-.02.06-.03.1-.04.11-.02.25.02.31.09l1.46,1.82s.03.05.04.09c.01.1-.03.22-.11.29-.81.64-2.18,1.53-3.61,2.34l1.48-.21c.12-.02.23.07.24.19l.7,4.93c.02.12-.06.23-.18.24l-2.25.32Z"/><path class="ap" d="M107.02,79.59c-.05-.05-.09-.1-.1-.16-.01-.09.04-.18.19-.27,2.12-1.45,3.42-4.43,3.34-4.99-.02-.13-.11-.19-.28-.18l-2.4.13c-.12,0-.23-.08-.25-.2v-.02s-.1-1.87-.1-1.87c0-.12.08-.23.21-.25h.02s4.52-.29,4.52-.29c.51-.03,1.27.32,1.37,1.07,0,.04,0,.08,0,.12.13,2.81-1.95,6.49-4.79,7.94-.1.05-.18.09-.28.11s-.21-.02-.33-.13l-1.13-1.03ZM113.14,76.68c.06-.12.16-.17.26-.18.09-.01,1.48-.04,2.97.57.12.05.19.12.2.21,0,.07-.01.14-.05.22-.2.5-.67,1.53-.9,2.06-.04.1-.11.14-.18.15-.07,0-.15-.01-.21-.04-.66-.31-2.06-.92-2.67-1.18-.1-.04-.18-.09-.2-.18,0-.04,0-.1.04-.17l.73-1.47Z"/><path class="ap" d="M123.05,74.86c-.56,2.93-2.63,4.46-2.87,4.49-.13.02-.27-.04-.47-.15l-1.26-.69c-.06-.04-.09-.08-.1-.12-.01-.1.07-.22.17-.31.93-.84,1.43-1.86,1.66-2.95l-2.95.27c-.11.02-.22-.07-.23-.18v-.02s-.14-1.69-.14-1.69c-.02-.11.01-.22.13-.23h.02s3.36-.32,3.36-.32c0-.24,0-.48-.02-.73,0-.1.04-.19.12-.26-.36.07-.71.13-1.06.18-.26.04-.52.06-.76.08-.09.01-.19-.02-.21-.12l-.44-1.4v-.02c-.02-.09.02-.17.09-.2,1.36-.44,3.57-1.35,4.75-1.9.03-.02.05-.02.09-.02.13-.02.26.05.31.15l.85,1.73s.02.07.03.1c.02.11-.03.22-.17.3-.83.38-1.84.73-2.9.98l1.65-.12c.25-.01.4.08.43.3.03.22.05.45.06.68l2.58-.24c.14,0,.3.08.31.21l.12,1.69c.02.12-.08.23-.21.25l-2.95.27Z"/><path class="ap" d="M129.72,77.81h-.02c-.13.02-.24-.08-.27-.2-.26-.87-.6-2.51-.88-4.01l-1.16.08c-.14,0-.23-.09-.25-.22l-.12-1.41c0-.12.08-.23.19-.24h.02s.98-.06.98-.06c-.07-.44-.12-.81-.16-1.04,0-.11.02-.25.16-.27.26-.04,1.11-.13,1.53-.19.18-.03.3.13.33.24,0,.04.09.5.22,1.16l2.55-.15c.44-.02,1.05.1,1.15.79.19,1.37-1.25,2.85-1.63,2.9-.16.02-.3-.08-.71-.39-.22-.14-.44-.28-.46-.42-.01-.08.02-.16.07-.23.18-.23.32-.62.31-.71,0-.04-.03-.04-.06-.04l-.88.06c.32,1.8.68,3.76.68,3.76.02.13-.08.26-.21.29l-1.37.3Z"/><path class="ap" d="M135.83,73.27s-.07.02-.1.03c-.17.02-.21-.06-.28-.18-.75-1.64-.75-1.67-.76-1.72-.02-.12.03-.22.12-.25l1.29-.34s.06-.02.1-.02c.1-.01.22,0,.31.12.36.39.93,1.2.99,1.62.02.13,0,.26-.17.31l-1.51.44ZM137.63,76.03c-.08-.02-.16-.1-.18-.2,0-.03,0-.08.03-.12.66-1.04,1.28-2.49,1.73-3.79l-1.14.37s-.09.02-.12.03c-.16.02-.2-.04-.25-.16-.55-1.08-.78-1.66-.79-1.72-.02-.11.01-.22.11-.24l1.24-.37s.07-.02.1-.03c.11-.02.22,0,.31.1.23.25.6.7.83,1.13.12-.41.23-.79.3-1.1.03-.08.12-.14.2-.15.03,0,.07,0,.1,0l1.62.46c.1.03.14.11.15.18.05.37-.71,3.69-2.59,5.79-.03.08-.11.13-.19.14-.03,0-.08,0-.12,0l-1.36-.31Z"/><path class="ap" d="M144.33,75.7c-.12.02-.24-.06-.25-.18l-1.33-9.44c-.02-.12.07-.24.19-.26l2.21-.31c.12-.02.23.07.24.19l.54,3.84.47-.89c.06-.12.16-.17.27-.19.34-.05,2.18.15,3.23.54.13.05.2.12.21.21.01.1-.02.17-.96,2.34-.04.1-.12.14-.2.15-.08.01-.16-.01-.22-.04-.61-.27-1.85-.72-2.64-.98l.63,4.44c.02.12-.06.23-.18.24l-2.21.31Z"/><path class="ap" d="M159.35,68.19c-.31,4.12-2.5,5.72-2.71,5.75-.12.02-.25-.06-.43-.17l-1.19-.72c-.06-.04-.09-.08-.1-.13-.01-.1.07-.22.16-.31,1.04-1,1.45-2.44,1.57-3.94l-1.36.25.23.97v.02c.02.15-.09.34-.3.41l-1.77.43c-.24,0-.38-.16-.67-1.39l-1.46.25h-.02c-.11.02-.22-.07-.25-.19l-.28-1.7c-.02-.12,0-.24.12-.26l1.44-.26c-.06-.36-.12-.7-.17-1.04-.02-.17.05-.29.24-.34l1.76-.44h.02c.1-.02.3.03.37.32l.25,1.07,1.85-.33c-.03-.5-.07-.96-.11-1.41-.02-.2.04-.37.26-.4l1.79-.23c.42-.06.49.14.65,1.26l.04.31.95-.17c.12-.02.3.06.32.19l.28,1.7c.02.12-.07.24-.19.27l-1.32.23Z"/><path class="ap" d="M162.43,69.43c-.12.02-.3-.07-.32-.22l-.29-2.04c-.02-.13.11-.27.23-.28l7.6-1.06c.12-.02.28.07.3.22l.29,2.03c.02.13-.11.26-.24.27l-7.59,1.08Z"/><path class="ap" d="M178.6,70.54l-4.58.42c-1.64.14-2.1-.59-2.25-1.65v-.1s-.79-6.16-.79-6.16c-.02-.19.05-.28.23-.31l2.12-.29c.18-.03.29.05.32.24.06.62.16,1.39.26,2.18.03-.03.07-.04.13-.06.6-.27,2.72-1.3,3.04-1.46.05-.03.1-.05.14-.05.11-.02.19.03.23.09l1,1.61c.04.06.08.13.08.19.01.08-.01.16-.11.22-1.33.91-3.37,1.39-3.43,1.4-.18.03-.26-.02-.34-.17l-.7-1.38c.07.54.31,2.7.37,3.1.04.28.23.3.37.28l3.89-.41c.17-.02.3.06.34.31l.21,1.48c.04.27-.14.47-.48.51h-.06ZM177.04,62.94h-.08c-.16.03-.24-.01-.29-.12l-.36-.83c-.02-.05-.04-.09-.04-.13-.02-.13.06-.19.18-.23l.8-.22h.03c.16-.03.29.09.34.22l.31.81s.02.07.02.1c.02.12-.05.2-.24.25l-.69.14ZM179.22,62.72c-.05.05-.1.08-.15.09-.08.01-.15-.02-.22-.07l-.83-.67c-.06-.05-.09-.1-.1-.15-.01-.08.06-.15.1-.19l.51-.52c.05-.05.1-.07.16-.08.09-.01.17.02.26.07l.73.5.04.02c.08.05.11.1.11.15,0,.07-.03.14-.08.22l-.54.62Z"/><path class="ap" d="M180.35,69.25c-.05-.05-.09-.1-.1-.16-.01-.09.04-.18.19-.27,2.12-1.45,3.42-4.43,3.34-4.99-.02-.13-.11-.19-.28-.18l-2.4.13c-.12,0-.23-.08-.25-.21v-.02s-.1-1.87-.1-1.87c0-.12.08-.23.21-.25h.02s4.52-.29,4.52-.29c.51-.03,1.27.32,1.37,1.07,0,.04,0,.08,0,.12.13,2.81-1.95,6.49-4.79,7.94-.1.05-.18.09-.28.11-.1.01-.21-.02-.33-.13l-1.13-1.03ZM186.47,66.33c.06-.12.16-.17.26-.19.09-.01,1.48-.04,2.97.57.12.05.19.12.2.21,0,.07-.01.14-.05.22-.2.5-.67,1.53-.9,2.06-.04.1-.11.14-.18.15-.07,0-.15-.01-.21-.04-.66-.31-2.06-.92-2.67-1.18-.1-.04-.18-.09-.2-.18,0-.04,0-.1.05-.17l.73-1.47Z"/><path class="ap" d="M32.14,84.49s-.07.02-.09.02c-.16.02-.21-.06-.24-.21l-.74-4.33-.67-.05c-.17-.02-.27-.12-.29-.25,0-.03,0-.08.01-.12l1.2-4.39c.03-.13.12-.19.23-.21.04,0,.1,0,.15.02l1.79.45c.13.03.2.13.21.23,0,.06,0,.1-.02.16l-.89,3.21.33-.05h.03c.16-.02.27.04.29.2l.75,4.4v.03c.03.24-.09.37-.27.43l-1.78.46ZM41.13,83.64c-.01.31-.26.45-.51.47-.83.08-2.17.15-2.94.14l-.06.15c-.07.2-.3.27-.47.29-.06,0-.1,0-.14,0l-1.64-.11c-.13,0-.2-.07-.21-.15,0-.04.01-.09.03-.14l.16-.32-.66-.08c-.1-.01-.16-.09-.17-.18,0-.03,0-.06,0-.09l.23-1.23c.02-.12.07-.17.17-.18.02,0,.06,0,.08,0l1.05.08.03-.47-1.16.13c-.26.03-.36-.06-.4-.31l-.47-3.01v-.02c-.03-.23.16-.44.39-.47l1.4-.21-.08-.79-1.54.12c-.17.02-.27-.06-.28-.21l-.15-1.49c-.02-.19.08-.27.23-.29l1.52-.12-.07-.65c-.02-.18.1-.27.21-.28l1.89-.19c.17-.02.23.05.25.2l.08.73,2.2-.17c.15-.02.24.07.25.21l.12,1.51c.02.16-.06.26-.21.27l-2.14.17.07.64.93-.13h.08c.79-.09,1.32.34,1.41,1.17v.03s.18,1.85.18,1.85c.04.49-.15.76-.58.8l-1.8.21-.06.91c.18,0,.41-.03.64-.06.57-.06,1.27-.16,1.91-.25h.02c.15-.02.22.05.24.18v.04s-.04,1.26-.04,1.26ZM36.4,79.34l-.73.09.2,1.27.66-.08-.14-1.28ZM38.84,79.44c-.02-.19-.17-.37-.39-.35l-.42.05.12,1.27.76-.09-.08-.89Z"/><path class="ap" d="M43.38,76.2s.09-.03.12-.04c.09,0,.17.04.24.24.27.82,1.01,2.43,1.43,2.99.09.12.17.15.24.15.07,0,.13-.04.21-.09.18-.11.2-.11.22-.11.09,0,.15.03.19.12.14.25.65,1.09.84,1.46.03.06.07.11.07.17.03.33-1.55,1.72-2.09,1.78-.12.01-.26-.02-.39-.11-1.49-1.08-2.62-3.85-2.89-5.65-.01-.1.01-.22.19-.28l1.62-.61ZM49.81,79.4s-.05.02-.09.02c-.12.01-.22-.07-.26-.22-.22-.79-.71-2.39-.91-3.09v-.06c-.02-.09.02-.16.18-.21l1.7-.49s.08-.02.11-.02c.1-.01.17.04.29.23.43.72,1.12,2.43,1.17,2.89.01.11-.03.24-.21.29l-1.98.65Z"/><path class="ap" d="M61.12,79.05c-.48.05-1.18.06-1.6.05-.18,0-.25-.09-.26-.22,0-.03,0-.08,0-.12.01-.11.01-.23,0-.33-.09-.84-.81-1.32-2.33-1.19q1.94,4.12,1.94,4.15c.01.1-.05.21-.14.27l-1.61.82s-.04.02-.07.02c-.1.01-.21-.05-.26-.14-.59-.96-1.51-2.8-2.34-4.53-.34.12-.69.24-1.07.4-.03.01-.07.02-.1.02-.1.01-.21-.03-.24-.19l-.31-1.63v-.07c-.03-.19,0-.22.8-.5-.4-.91-.72-1.62-.73-1.74,0-.08,0-.15.08-.19.32-.12,1.29-.51,1.8-.72.03-.01.05-.02.08-.02.13-.01.26.08.31.17.03.07.41.83.89,1.86.3-.05.59-.1.86-.12.64-.07,1.2-.07,1.7-.02l-2.13-.93s-.1-.07-.1-.13c0-.03,0-.08.03-.13l.63-1.38c.04-.08.07-.13.17-.14.29-.03,2.66.51,2.71.96,0,.03,0,.07-.02.12l-.67,1.64s-.03.06-.05.07c1.62.33,2.44,1.31,2.57,2.56.03.3.02.62-.02.96-.04.21-.17.35-.4.37h-.1Z"/><path class="ap" d="M68.75,74.6c.11.65.21,1.3.27,1.95.27.37.46.84.52,1.4.08.75-.07,1.69-.56,2.8-.12.25-.22.3-1.65.45-.43.04-.46.01-.47-.05,0-.03.01-.07.02-.12.12-.43.21-.82.26-1.15-.23.07-.46.12-.7.14-1.06.11-2.41-.25-2.59-1.89-.17-1.62,1.03-2.56,2.36-2.71h.08s-.11-.66-.11-.66l-3.56.23c-.12.01-.22-.07-.23-.18l-.14-1.83c-.01-.11.09-.21.21-.23l3.33-.21-.18-.93v-.04c-.02-.1,0-.19.19-.22l1.88-.31h.02c.23-.03.27.08.56,1.34l2.54-.17c.12-.01.22.08.24.2l.12,1.81c.01.12-.08.22-.2.24l-2.24.15ZM66.26,77.21c-.26.03-.46.22-.44.47.02.17.19.49.51.46.41-.04.41-.45.37-.81-.15-.1-.3-.13-.44-.11Z"/><path class="ap" d="M74.07,72.95s.09-.03.12-.04c.09,0,.17.04.24.24.27.82,1.01,2.43,1.43,2.99.09.11.16.15.24.14.07,0,.13-.04.21-.09.18-.11.2-.11.21-.11.09,0,.15.03.19.12.14.25.65,1.09.84,1.46.03.06.07.11.08.17.03.33-1.55,1.72-2.09,1.78-.12.01-.26-.02-.39-.11-1.49-1.08-2.62-3.85-2.89-5.65-.01-.1.01-.22.19-.28l1.62-.61ZM80.51,76.16s-.06.02-.09.02c-.12.01-.22-.07-.26-.22-.22-.8-.71-2.39-.91-3.09v-.06c-.02-.09.02-.16.18-.21l1.7-.49s.08-.02.11-.02c.1-.01.17.04.29.23.43.72,1.12,2.43,1.17,2.89.01.11-.03.24-.21.29l-1.98.65Z"/><path id="o" class="aq" d="M158.5,55.5l-103.29,22.02-21.79-11.07-8.74-24.45c4.94-5.5,9.87-11.01,14.81-16.51,1.88,1.3,6.14,3.85,12,4,2.88.07,5.28-.46,7-1,4.81.36,9.62.72,14.43,1.09l13.57-3.09,12-6,31,7,23.72-6.75,5.28,34.75Z"/><g id="p"><path class="aq" d="M154.19,58.35c-.58.09-1.05.2-1.47.1-.42-.1-.74-.4-1-.96-1.46-3.52-6.43-18.73-7.91-21.92-.04-.07-.07-.18-.05-.24l-2.53,1.03-3.92,16.75c-.14.58-.79.98-1.37.85l-11.1-2.6c-.63-.15-.99-.79-.85-1.37l9.71-41.48c.15-.63.73-1,1.37-.85l11.1,2.6c.58.14,1,.74.85,1.37l-2.44,10.41c.77-.43,16.51-8.85,18.89-8.29.42.1.8.41,1.14,1.1l4.05,8.42c.23.45.3.85.22,1.22-.12.53-.55.93-1.22,1.16-2.56.96-13.41,5.39-20.57,8.34l7.28-.86c.58-.09,1.12-.24,1.64-.12,3.28.77,8.4,20.08,7.84,22.46-.12.53-.46,1.01-1.27,1.15l-8.37,1.72Z"/><path class="aq" d="M134.78,7.64c.09,0,.19.01.28.03l11.1,2.6c.58.14,1,.74.85,1.37l-2.44,10.41c.75-.42,15.51-8.31,18.62-8.31.1,0,.19,0,.27.03.42.1.8.41,1.14,1.1l4.05,8.42c.23.45.3.85.22,1.22-.12.53-.55.93-1.22,1.16-2.56.96-13.41,5.39-20.57,8.34l7.28-.86c.42-.06.82-.16,1.21-.16.14,0,.29.01.43.05,3.28.77,8.4,20.08,7.84,22.46-.12.53-.46,1.01-1.27,1.15l-8.37,1.72c-.42.06-.78.14-1.11.14-.13,0-.25-.01-.37-.04-.42-.1-.74-.4-1-.96-1.46-3.52-6.43-18.73-7.91-21.92-.04-.07-.07-.18-.05-.24l-2.53,1.03-3.92,16.75c-.12.5-.62.88-1.14.88-.08,0-.16,0-.23-.03l-11.1-2.6c-.63-.15-.99-.79-.85-1.37l9.71-41.48c.13-.54.57-.88,1.09-.88M134.78,6.64c-.98,0-1.83.68-2.06,1.65l-9.71,41.48c-.13.53-.03,1.11.25,1.59.3.5.78.85,1.34.98l11.1,2.6c.15.03.3.05.46.05.98,0,1.89-.71,2.11-1.65l3.8-16.25,1.1-.45c.92,2.22,2.64,7.2,4.18,11.65,1.42,4.11,2.77,7.99,3.43,9.58.4.87.97,1.38,1.7,1.55.18.04.38.07.59.07.33,0,.65-.05.98-.11l.28-.04h.03s.03,0,.03,0l8.37-1.72c1.07-.19,1.8-.87,2.04-1.9.42-1.78-1.31-8.53-2.5-12.36-3.31-10.65-5.4-11.14-6.09-11.3-.21-.05-.42-.07-.66-.07-.37,0-.7.06-1.03.12-.11.02-.22.04-.33.06,5.87-2.4,11.95-4.87,13.78-5.55.98-.34,1.64-1.01,1.84-1.87.14-.61.04-1.25-.3-1.91l-4.03-8.39c-.46-.93-1.05-1.46-1.81-1.64-.15-.03-.31-.05-.49-.05-2.79,0-12.85,5.13-17.14,7.39l1.93-8.26c.13-.56.04-1.13-.27-1.61-.3-.48-.78-.83-1.33-.96l-11.1-2.6c-.17-.04-.34-.06-.51-.06h0Z"/><path class="aq" d="M48.69,64.84c-.47.35-.83.67-1.25.79s-.84,0-1.34-.37c-2.95-2.41-14.52-13.46-17.33-15.57-.07-.04-.15-.13-.16-.18l-1.74,2.1,4.46,16.62c.15.58-.23,1.24-.8,1.4l-11.01,2.95c-.63.17-1.24-.23-1.4-.81L7.08,30.61c-.17-.63.17-1.23.8-1.4l11.01-2.95c.58-.16,1.23.18,1.4.8l2.77,10.33c.47-.75,10.37-15.6,12.73-16.23.42-.11.89-.02,1.52.43l7.55,5.5c.41.28.67.61.77.97.14.52-.05,1.08-.53,1.6-1.81,2.06-9.27,11.09-14.18,17.07l6.01-4.2c.47-.35.87-.74,1.39-.88,3.25-.87,16.89,13.73,17.52,16.09.14.52.07,1.11-.58,1.62l-6.57,5.47Z"/><path class="aq" d="M36.11,21.12c.34,0,.73.14,1.2.48l7.55,5.5c.41.28.67.61.77.97.14.52-.05,1.08-.53,1.6-1.81,2.06-9.27,11.09-14.18,17.07l6.01-4.2c.47-.35.87-.74,1.39-.88.09-.03.2-.04.31-.04,3.72,0,16.6,13.83,17.22,16.12.14.52.07,1.11-.58,1.62l-6.57,5.47c-.47.35-.83.67-1.25.79-.1.03-.21.04-.31.04-.32,0-.65-.13-1.03-.41-2.95-2.41-14.52-13.46-17.33-15.57-.07-.04-.15-.13-.16-.18l-1.74,2.1,4.46,16.62c.15.58-.23,1.24-.8,1.4l-11.01,2.95c-.1.03-.2.04-.29.04-.52,0-.97-.36-1.1-.85L7.08,30.61c-.17-.63.17-1.23.8-1.4l11.01-2.95c.1-.03.19-.04.29-.04.49,0,.97.32,1.11.84l2.77,10.33c.47-.75,10.37-15.6,12.73-16.23.1-.03.21-.04.32-.04M36.11,20.12c-.2,0-.39.03-.58.08-2.35.63-9.24,10.58-12.08,14.8l-2.2-8.19c-.25-.93-1.1-1.58-2.07-1.58-.19,0-.37.02-.55.07l-11,2.95c-.56.15-1.03.5-1.31.99-.28.49-.35,1.07-.2,1.63l11.05,41.14c.25.93,1.1,1.59,2.07,1.59.19,0,.37-.02.55-.07l11.01-2.95c1.12-.3,1.81-1.5,1.51-2.62l-4.33-16.12.76-.92c1.86,1.52,5.72,5.08,9.16,8.26,3.21,2.96,6.24,5.76,7.58,6.85.58.44,1.11.64,1.66.64.19,0,.38-.03.57-.08.54-.14.96-.47,1.36-.78l.23-.17.02-.02.02-.02,6.57-5.47c.85-.67,1.18-1.61.9-2.64-.73-2.71-13.9-16.87-18.18-16.87-.2,0-.39.02-.57.07-.61.16-1.06.52-1.46.84-.09.07-.18.14-.27.21h0c4-4.84,8.23-9.93,9.53-11.41.7-.77.97-1.67.74-2.52-.16-.6-.55-1.12-1.17-1.54l-7.52-5.49c-.63-.45-1.21-.67-1.79-.67h0Z"/><path class="aq" d="M74.21,65.86c-8.82.62-17.01-5.22-17.69-14.75-.79-11.15,7.14-17.53,16.67-18.2,11.96-.84,17.77,8.16,18.26,15.2.74,10.56-9.56,17.21-17.25,17.75ZM79.92,48.81c-.07-1.03-.66-6.26-6.18-5.88-4.55.32-5.58,4.26-5.4,6.69.26,3.73,3.36,6.02,6.45,5.8,3.84-.27,5.35-3.53,5.14-6.62Z"/><path class="aq" d="M108.16,49.88c-8.82.62-17.01-5.22-17.69-14.75-.79-11.15,7.14-17.53,16.67-18.2,11.96-.84,17.77,8.16,18.26,15.2.74,10.56-9.56,17.21-17.25,17.75ZM113.87,32.83c-.07-1.03-.66-6.26-6.18-5.88-4.55.32-5.58,4.26-5.4,6.69.26,3.73,3.36,6.02,6.45,5.8,3.84-.27,5.35-3.53,5.14-6.62Z"/></g><g id="q"><path id="r" class="aq" d="M55.41,40.49c.15.23.09.54-.14.69l-.4.27-.38.25-.46.29h0l-.43.26-.33.19-.16.09h0l-.31.16c-2.15,1.09-3.41.87-4.98-.9l.82-.55c1.22,1.36,2.16,1.44,3.92.47l.29-.16.3-.18.32-.2.33-.21.54-.35.38-.25c.23-.15.54-.09.69.14ZM52.79,38.44l1.27-.86-.05.23-.04.16-.08.3c-.52,1.81-1.36,2.46-3.25,2.09-.18-.04-.35-.08-.51-.12l1.17-.79c.78.06,1.19-.21,1.49-1ZM46.8,38.76l.05.06-.83.56c-.16-.23-.1-.54.13-.7.21-.14.48-.1.65.08h0ZM52.23,32.18c1.26.24,1.91.73,2.16,1.57l-.9.6c-.09-.71-.51-1.01-1.45-1.19l-.12-.02c-1.2-.21-1.66.14-2.02,1.51l-.04.15-.07.29-.07.32-.2,1.02-.07.4-.04.27-1.06.71c0-.14.01-.29.02-.45l.02-.16.04-.3.02-.16.03-.16.06-.34.2-1.02.07-.34.04-.16.04-.16.08-.3c.52-1.81,1.36-2.46,3.25-2.09Z"/><path id="s" class="aq" d="M56.95,33.23c.23-.15.54-.09.69.14.14.21.1.48-.08.65l-.06.05-12.17,8.2c-.23.15-.54.09-.69-.14-.14-.21-.1-.48.08-.65l.06-.05,12.17-8.2Z"/></g><g id="t"><path id="u" class="aq" d="M173.93,31.38l.11.28s.04.1.05.15l.11.31.11.33.1.35.1.37.1.39.1.41.11.46.1.42.07.34c.87.23,1.15.8,1.2,2.07v.3c0,.05,0,.1,0,.16v.33s-.02.31-.02.31c-.08,1.59-.45,2.12-1.73,2.22h-.25s-.27.02-.27.02h-.29c-1.81-.05-2.49-1.25-2.47-2.84.02-1.59.74-2.76,2.55-2.71h.15s-.09-.37-.09-.37l-.16-.64-.18-.7-.09-.32-.09-.3-.06-.19.69-1.16s0,.01,0,.02ZM168.11,41.91l-.14.08-.26.14-.22.11,1.74-2.94c.25,1-.02,1.94-1.12,2.61ZM172.24,37.78c-.02,1.07.34,1.7,1.42,1.73h.45s.19,0,.19,0h.16c.45-.04.59-.19.64-.72v-.19s.02-.22.02-.22l.02-1.06v-.22s0-.19,0-.19c-.03-.53-.16-.69-.61-.75l-.16-.02h-.29s-.35-.02-.35-.02c-1.08-.03-1.46.59-1.47,1.66ZM168.18,29.75l.4-.09.38-.08c.06-.01.12-.03.18-.04l.35-.07c.06-.01.11-.02.17-.03l.33-.05c.54-.08,1-.11,1.41-.08l-.63,1.06h-.13s-.24.04-.24.04l-.26.04-.27.05-.29.06-.47.1-.69.16-.91.23-.48.13-.3.09-.28.09-.26.09s-.08.03-.12.04l-.23.09c-1.23.51-1.55,1.15-1.35,2.59l.04.26.05.28.09.45.11.5.13.55.16.64.1.37.13-.07c.62-.35,1.18-.45,1.68-.36l-.65,1.11c-.12.03-.25.08-.39.15l-.11.06-.3.17-.25.15-.14.09c-.35.24-.41.43-.24.85l.04.09.08.17.1.2.03.06-.63,1.07h0s-.16-.29-.16-.29l-.04-.07h0l-.04-.07-.13-.27c-.55-1.15-.56-1.78.09-2.39l-.04-.14-.11-.39-.11-.44-.16-.65-.09-.4-.08-.38-.07-.36-.06-.34-.05-.32c0-.05-.01-.1-.02-.16l-.03-.3c-.17-1.94.47-2.83,2.41-3.55l.3-.11c.05-.02.1-.03.16-.05l.33-.1c.06-.02.12-.03.17-.05l.36-.1.38-.1.61-.15Z"/><path id="v" class="aq" d="M172.63,29.3c.14-.24.45-.32.68-.17.22.13.3.4.21.63l-.03.07-7.49,12.73c-.14.24-.45.32-.68.17-.22-.13-.3-.4-.21-.63l.03-.07,7.49-12.73Z"/></g><g id="w"><g id="x"><path class="aq" d="M63.98,22.42c.12.06.24.17.25.33,0,.09-.03.19-.1.29-.98,1.53-2.44,4.14-2.41,4.58,0,.09.04.16.15.25,1.42,1.3,3.56,3.37,3.6,3.93.01.23-.13.43-1.75,1.88-.05.05-.14.07-.23.07-.11,0-.23-.01-.31-.08,0,0-3.29-2.94-4.6-4.06-.38-.33-.53-.6-.55-.93-.07-1.06,1.19-4.39,3.41-7.17.05-.06.16-.13.29-.13.07,0,.14,0,.22.04l2.02,1.01Z"/></g><g id="y"><path class="aq" d="M67.32,28.27c-.16,0-.36-.13-.37-.32l-.09-2.61c0-.17.18-.32.33-.33l9.73-.32c.16,0,.35.13.36.32l.09,2.59c0,.17-.18.31-.33.31l-9.72.35Z"/></g><g id="z"><path class="aq" d="M86.38,22.09c.09.1.18.24.14.39-.02.08-.09.17-.18.25-1.4,1.16-3.58,3.2-3.69,3.63-.02.08-.01.16.06.28.96,1.67,2.37,4.29,2.23,4.83-.06.22-.25.36-2.24,1.26-.07.03-.15.02-.24,0-.11-.03-.22-.08-.27-.17,0,0-2.24-3.8-3.15-5.27-.26-.43-.32-.73-.24-1.05.26-1.03,2.46-3.82,5.43-5.8.07-.04.19-.07.32-.04.07.02.14.05.2.11l1.62,1.57Z"/></g></g><path class="aq" d="M115.39,58.82c-.61.18-1.18.21-1.73.11-1.73-.34-2.96-2.02-2.62-3.79.23-1.2,1.44-3.02,3.57-2.6.51.1.99.32,1.37.58.07-.06.19-.08.31-.05h.06s1.77.51,1.77.51c.26.08.31.23.29.37v.06c-.35.95-.68,1.85-.83,2.58-.23,1.17.14,1.33.27,1.35.63.12,1.27-1.38,1.41-2.14.45-2.34-1.2-4.18-3.47-4.63-2.79-.54-5.29.86-5.85,3.73-.49,2.53.87,5.06,3.66,5.61.83.16,1.7.15,2.54.02.04,0,.07,0,.1,0,.29.06.4.53.33.85-.03.14-.08.24-.17.28-.71.3-1.71.34-2.75.14-1.91-.37-3.96-1.56-4.7-3.5-.47-1.23-.55-2.52-.32-3.7.86-4.43,4.94-5.13,7.38-4.66,3.41.66,5.16,3.4,4.63,6.11-.41,2.13-2.03,3.83-4.01,3.44-.45-.09-.88-.3-1.24-.66v-.02ZM115.01,56.96c.01-.3.06-.62.13-.96.05-.27.12-.56.2-.87-.08-.25-.34-.44-.65-.5-.59-.11-1.13.32-1.27,1.01-.12.61.19,1.21.87,1.34.21.04.43.04.7-.02h.01Z"/><path class="aq" d="M102.82,59.13l.32,2.32c.04.18-.11.29-.28.33-.11,0-1.78.25-1.98.29-.15.02-.31-.07-.34-.21v-.03s-.32-2.19-.32-2.19l-.94.18.43,2.23c.04.19-.09.32-.27.35l-1.95.38c-.17.03-.34-.05-.37-.21l-.44-2.24-1.18.23c-.12.02-.27-.08-.29-.2l-.35-1.77c-.03-.17.09-.27.2-.29l1.18-.23-.39-1.98-1.18.23c-.12.02-.27-.08-.29-.2l-.34-1.77c-.03-.17.09-.27.2-.3l1.18-.23-.4-2.08c-.03-.14.08-.27.2-.29l2.09-.41c.17-.03.27.08.3.2l.4,2.08,1.29-.25-.31-2.17c0-.11.08-.24.19-.27h.03c.19-.04,1.96-.3,2.11-.32.14-.01.25.09.27.19v.03c.03.14.14.93.3,2.01l.84-.16c.19-.04.32.09.35.27l.32,1.65c.03.17-.05.32-.22.36l-.98.19.29,1.99,1.06-.21c.19-.04.32.09.35.27l.32,1.65c.03.15-.05.32-.22.36l-1.18.23ZM99.61,55.34l-1.17.23.4,1.98,1.06-.22-.29-1.99Z"/><path class="aq" d="M84.19,76.75c-.03-.06-.05-.11-.06-.15-.02-.13.1-.17.21-.21.62-.22,1.64-.63,1.98-.78.03-.02.08-.02.11-.03.11-.02.2.03.25.1l1.03,1.37c.05.06.09.14.1.2.01.08-.01.15-.08.22-.87.8-1.93,1.24-2.22,1.28-.12.02-.19-.03-.26-.15l-1.06-1.86ZM88.49,78.73c-.13.02-.25-.07-.27-.19l-.59-4.2-2.56.24c-.11,0-.23-.07-.24-.19v-.02s-.17-1.84-.17-1.84c-.02-.11.07-.23.18-.24h.02s2.45-.22,2.45-.22l-.25-1.78c-.02-.13.07-.25.2-.27l2.19-.31c.12-.02.24.07.26.2l.27,1.91,1.69-.15c.11-.02.23.07.24.18v.02s.17,1.85.17,1.85c.02.12-.08.23-.21.25l-1.58.14.57,4.05c.02.12-.07.24-.19.26l-2.19.31ZM91.32,71.23s-.07.02-.09.02c-.13.02-.21-.04-.26-.13l-.47-.84c-.03-.05-.05-.1-.05-.13-.02-.11.07-.16.19-.2l.78-.25h.03c.13-.02.27.09.32.22l.32.81s.02.05.02.09c.02.11-.05.18-.23.23l-.56.17ZM92.96,77.61c-.1.07-.18.11-.22.11-.07,0-.11-.03-.17-.09-.43-.43-1.15-1.1-1.46-1.42-.08-.07-.13-.17-.14-.23,0-.06,0-.1.05-.13l1.27-.93c.08-.06.16-.1.25-.11.39-.06,2.16,1.08,2.22,1.47,0,.07-.02.13-.09.17l-1.71,1.17ZM93.41,71.03c-.06.05-.1.08-.16.09-.07,0-.13-.02-.19-.08l-.84-.68c-.06-.05-.08-.09-.09-.14-.01-.08.04-.14.08-.18l.53-.52c.05-.04.09-.07.15-.08.08-.01.15.02.23.08l.69.62c.09.07.14.13.15.18,0,.06-.02.12-.09.18l-.46.51Z"/><path class="aq" d="M99.76,77.59c-.12.02-.24-.06-.25-.18l-.67-4.77c-1.58.84-2.77,1.27-2.9,1.29-.1.01-.2-.02-.24-.11l-.9-1.59s-.03-.05-.04-.09c-.01-.09.03-.18.11-.22,2.13-1.19,5.04-3.23,6.74-4.39.03-.02.06-.03.1-.04.11-.02.25.02.31.09l1.46,1.82s.03.05.04.09c.01.1-.03.22-.11.29-.81.64-2.18,1.53-3.61,2.34l1.48-.21c.12-.02.23.07.24.19l.7,4.93c.02.12-.06.23-.18.24l-2.25.32Z"/><path class="aq" d="M104.02,75.59c-.05-.05-.09-.1-.1-.16-.01-.09.04-.18.19-.27,2.12-1.45,3.42-4.43,3.34-4.99-.02-.13-.11-.19-.28-.18l-2.4.13c-.12,0-.23-.08-.25-.2v-.02s-.1-1.87-.1-1.87c0-.12.08-.23.21-.25h.02s4.52-.29,4.52-.29c.51-.03,1.27.32,1.37,1.07,0,.04,0,.08,0,.12.13,2.81-1.95,6.49-4.79,7.94-.1.05-.18.09-.28.11s-.21-.02-.33-.13l-1.13-1.03ZM110.14,72.68c.06-.12.16-.17.26-.18.09-.01,1.48-.04,2.97.57.12.05.19.12.2.21,0,.07-.01.14-.05.22-.2.5-.67,1.53-.9,2.06-.04.1-.11.14-.18.15-.07,0-.15-.01-.21-.04-.66-.31-2.06-.92-2.67-1.18-.1-.04-.18-.09-.2-.18,0-.04,0-.1.04-.17l.73-1.47Z"/><path class="aq" d="M120.05,70.86c-.56,2.93-2.63,4.46-2.87,4.49-.13.02-.27-.04-.47-.15l-1.26-.69c-.06-.04-.09-.08-.1-.12-.01-.1.07-.22.17-.31.93-.84,1.43-1.86,1.66-2.95l-2.95.27c-.11.02-.22-.07-.23-.18v-.02s-.14-1.69-.14-1.69c-.02-.11.01-.22.13-.23h.02s3.36-.32,3.36-.32c0-.24,0-.48-.02-.73,0-.1.04-.19.12-.26-.36.07-.71.13-1.06.18-.26.04-.52.06-.76.08-.09.01-.19-.02-.21-.12l-.44-1.4v-.02c-.02-.09.02-.17.09-.2,1.36-.44,3.57-1.35,4.75-1.9.03-.02.05-.02.09-.02.13-.02.26.05.31.15l.85,1.73s.02.07.03.1c.02.11-.03.22-.17.3-.83.38-1.84.73-2.9.98l1.65-.12c.25-.01.4.08.43.3.03.22.05.45.06.68l2.58-.24c.14,0,.3.08.31.21l.12,1.69c.02.12-.08.23-.21.25l-2.95.27Z"/><path class="aq" d="M126.72,73.81h-.02c-.13.02-.24-.08-.27-.2-.26-.87-.6-2.51-.88-4.01l-1.16.08c-.14,0-.23-.09-.25-.22l-.12-1.41c0-.12.08-.23.19-.24h.02s.98-.06.98-.06c-.07-.44-.12-.81-.16-1.04,0-.11.02-.25.16-.27.26-.04,1.11-.13,1.53-.19.18-.03.3.13.33.24,0,.04.09.5.22,1.16l2.55-.15c.44-.02,1.05.1,1.15.79.19,1.37-1.25,2.85-1.63,2.9-.16.02-.3-.08-.71-.39-.22-.14-.44-.28-.46-.42-.01-.08.02-.16.07-.23.18-.23.32-.62.31-.71,0-.04-.03-.04-.06-.04l-.88.06c.32,1.8.68,3.76.68,3.76.02.13-.08.26-.21.29l-1.37.3Z"/><path class="aq" d="M132.83,69.27s-.07.02-.1.03c-.17.02-.21-.06-.28-.18-.75-1.64-.75-1.67-.76-1.72-.02-.12.03-.22.12-.25l1.29-.34s.06-.02.1-.02c.1-.01.22,0,.31.12.36.39.93,1.2.99,1.62.02.13,0,.26-.17.31l-1.51.44ZM134.63,72.03c-.08-.02-.16-.1-.18-.2,0-.03,0-.08.03-.12.66-1.04,1.28-2.49,1.73-3.79l-1.14.37s-.09.02-.12.03c-.16.02-.2-.04-.25-.16-.55-1.08-.78-1.66-.79-1.72-.02-.11.01-.22.11-.24l1.24-.37s.07-.02.1-.03c.11-.02.22,0,.31.1.23.25.6.7.83,1.13.12-.41.23-.79.3-1.1.03-.08.12-.14.2-.15.03,0,.07,0,.1,0l1.62.46c.1.03.14.11.15.18.05.37-.71,3.69-2.59,5.79-.03.08-.11.13-.19.14-.03,0-.08,0-.12,0l-1.36-.31Z"/><path class="aq" d="M141.33,71.7c-.12.02-.24-.06-.25-.18l-1.33-9.44c-.02-.12.07-.24.19-.26l2.21-.31c.12-.02.23.07.24.19l.54,3.84.47-.89c.06-.12.16-.17.27-.19.34-.05,2.18.15,3.23.54.13.05.2.12.21.21.01.1-.02.17-.96,2.34-.04.1-.12.14-.2.15-.08.01-.16-.01-.22-.04-.61-.27-1.85-.72-2.64-.98l.63,4.44c.02.12-.06.23-.18.24l-2.21.31Z"/><path class="aq" d="M156.35,64.19c-.31,4.12-2.5,5.72-2.71,5.75-.12.02-.25-.06-.43-.17l-1.19-.72c-.06-.04-.09-.08-.1-.13-.01-.1.07-.22.16-.31,1.04-1,1.45-2.44,1.57-3.94l-1.36.25.23.97v.02c.02.15-.09.34-.3.41l-1.77.43c-.24,0-.38-.16-.67-1.39l-1.46.25h-.02c-.11.02-.22-.07-.25-.19l-.28-1.7c-.02-.12,0-.24.12-.26l1.44-.26c-.06-.36-.12-.7-.17-1.04-.02-.17.05-.29.24-.34l1.76-.44h.02c.1-.02.3.03.37.32l.25,1.07,1.85-.33c-.03-.5-.07-.96-.11-1.41-.02-.2.04-.37.26-.4l1.79-.23c.42-.06.49.14.65,1.26l.04.31.95-.17c.12-.02.3.06.32.19l.28,1.7c.02.12-.07.24-.19.27l-1.32.23Z"/><path class="aq" d="M159.43,65.43c-.12.02-.3-.07-.32-.22l-.29-2.04c-.02-.13.11-.27.23-.28l7.6-1.06c.12-.02.28.07.3.22l.29,2.03c.02.13-.11.26-.24.27l-7.59,1.08Z"/><path class="aq" d="M175.6,66.54l-4.58.42c-1.64.14-2.1-.59-2.25-1.65v-.1s-.79-6.16-.79-6.16c-.02-.19.05-.28.23-.31l2.12-.29c.18-.03.29.05.32.24.06.62.16,1.39.26,2.18.03-.03.07-.04.13-.06.6-.27,2.72-1.3,3.04-1.46.05-.03.1-.05.14-.05.11-.02.19.03.23.09l1,1.61c.04.06.08.13.08.19.01.08-.01.16-.11.22-1.33.91-3.37,1.39-3.43,1.4-.18.03-.26-.02-.34-.17l-.7-1.38c.07.54.31,2.7.37,3.1.04.28.23.3.37.28l3.89-.41c.17-.02.3.06.34.31l.21,1.48c.04.27-.14.47-.48.51h-.06ZM174.04,58.94h-.08c-.16.03-.24-.01-.29-.12l-.36-.83c-.02-.05-.04-.09-.04-.13-.02-.13.06-.19.18-.23l.8-.22h.03c.16-.03.29.09.34.22l.31.81s.02.07.02.1c.02.12-.05.2-.24.25l-.69.14ZM176.22,58.72c-.05.05-.1.08-.15.09-.08.01-.15-.02-.22-.07l-.83-.67c-.06-.05-.09-.1-.1-.15-.01-.08.06-.15.1-.19l.51-.52c.05-.05.1-.07.16-.08.09-.01.17.02.26.07l.73.5.04.02c.08.05.11.1.11.15,0,.07-.03.14-.08.22l-.54.62Z"/><path class="aq" d="M177.35,65.25c-.05-.05-.09-.1-.1-.16-.01-.09.04-.18.19-.27,2.12-1.45,3.42-4.43,3.34-4.99-.02-.13-.11-.19-.28-.18l-2.4.13c-.12,0-.23-.08-.25-.21v-.02s-.1-1.87-.1-1.87c0-.12.08-.23.21-.25h.02s4.52-.29,4.52-.29c.51-.03,1.27.32,1.37,1.07,0,.04,0,.08,0,.12.13,2.81-1.95,6.49-4.79,7.94-.1.05-.18.09-.28.11-.1.01-.21-.02-.33-.13l-1.13-1.03ZM183.47,62.33c.06-.12.16-.17.26-.19.09-.01,1.48-.04,2.97.57.12.05.19.12.2.21,0,.07-.01.14-.05.22-.2.5-.67,1.53-.9,2.06-.04.1-.11.14-.18.15-.07,0-.15-.01-.21-.04-.66-.31-2.06-.92-2.67-1.18-.1-.04-.18-.09-.2-.18,0-.04,0-.1.05-.17l.73-1.47Z"/><path class="aq" d="M29.14,80.49s-.07.02-.09.02c-.16.02-.21-.06-.24-.21l-.74-4.33-.67-.05c-.17-.02-.27-.12-.29-.25,0-.03,0-.08.01-.12l1.2-4.39c.03-.13.12-.19.23-.21.04,0,.1,0,.15.02l1.79.45c.13.03.2.13.21.23,0,.06,0,.1-.02.16l-.89,3.21.33-.05h.03c.16-.02.27.04.29.2l.75,4.4v.03c.03.24-.09.37-.27.43l-1.78.46ZM38.13,79.64c-.01.31-.26.45-.51.47-.83.08-2.17.15-2.94.14l-.06.15c-.07.2-.3.27-.47.29-.06,0-.1,0-.14,0l-1.64-.11c-.13,0-.2-.07-.21-.15,0-.04.01-.09.03-.14l.16-.32-.66-.08c-.1-.01-.16-.09-.17-.18,0-.03,0-.06,0-.09l.23-1.23c.02-.12.07-.17.17-.18.02,0,.06,0,.08,0l1.05.08.03-.47-1.16.13c-.26.03-.36-.06-.4-.31l-.47-3.01v-.02c-.03-.23.16-.44.39-.47l1.4-.21-.08-.79-1.54.12c-.17.02-.27-.06-.28-.21l-.15-1.49c-.02-.19.08-.27.23-.29l1.52-.12-.07-.65c-.02-.18.1-.27.21-.28l1.89-.19c.17-.02.23.05.25.2l.08.73,2.2-.17c.15-.02.24.07.25.21l.12,1.51c.02.16-.06.26-.21.27l-2.14.17.07.64.93-.13h.08c.79-.09,1.32.34,1.41,1.17v.03s.18,1.85.18,1.85c.04.49-.15.76-.58.8l-1.8.21-.06.91c.18,0,.41-.03.64-.06.57-.06,1.27-.16,1.91-.25h.02c.15-.02.22.05.24.18v.04s-.04,1.26-.04,1.26ZM33.4,75.34l-.73.09.2,1.27.66-.08-.14-1.28ZM35.84,75.44c-.02-.19-.17-.37-.39-.35l-.42.05.12,1.27.76-.09-.08-.89Z"/><path class="aq" d="M40.38,72.2s.09-.03.12-.04c.09,0,.17.04.24.24.27.82,1.01,2.43,1.43,2.99.09.12.17.15.24.15.07,0,.13-.04.21-.09.18-.11.2-.11.22-.11.09,0,.15.03.19.12.14.25.65,1.09.84,1.46.03.06.07.11.07.17.03.33-1.55,1.72-2.09,1.78-.12.01-.26-.02-.39-.11-1.49-1.08-2.62-3.85-2.89-5.65-.01-.1.01-.22.19-.28l1.62-.61ZM46.81,75.4s-.05.02-.09.02c-.12.01-.22-.07-.26-.22-.22-.79-.71-2.39-.91-3.09v-.06c-.02-.09.02-.16.18-.21l1.7-.49s.08-.02.11-.02c.1-.01.17.04.29.23.43.72,1.12,2.43,1.17,2.89.01.11-.03.24-.21.29l-1.98.65Z"/><path class="aq" d="M58.12,75.05c-.48.05-1.18.06-1.6.05-.18,0-.25-.09-.26-.22,0-.03,0-.08,0-.12.01-.11.01-.23,0-.33-.09-.84-.81-1.32-2.33-1.19q1.94,4.12,1.94,4.15c.01.1-.05.21-.14.27l-1.61.82s-.04.02-.07.02c-.1.01-.21-.05-.26-.14-.59-.96-1.51-2.8-2.34-4.53-.34.12-.69.24-1.07.4-.03.01-.07.02-.1.02-.1.01-.21-.03-.24-.19l-.31-1.63v-.07c-.03-.19,0-.22.8-.5-.4-.91-.72-1.62-.73-1.74,0-.08,0-.15.08-.19.32-.12,1.29-.51,1.8-.72.03-.01.05-.02.08-.02.13-.01.26.08.31.17.03.07.41.83.89,1.86.3-.05.59-.1.86-.12.64-.07,1.2-.07,1.7-.02l-2.13-.93s-.1-.07-.1-.13c0-.03,0-.08.03-.13l.63-1.38c.04-.08.07-.13.17-.14.29-.03,2.66.51,2.71.96,0,.03,0,.07-.02.12l-.67,1.64s-.03.06-.05.07c1.62.33,2.44,1.31,2.57,2.56.03.3.02.62-.02.96-.04.21-.17.35-.4.37h-.1Z"/><path class="aq" d="M65.75,70.6c.11.65.21,1.3.27,1.95.27.37.46.84.52,1.4.08.75-.07,1.69-.56,2.8-.12.25-.22.3-1.65.45-.43.04-.46.01-.47-.05,0-.03.01-.07.02-.12.12-.43.21-.82.26-1.15-.23.07-.46.12-.7.14-1.06.11-2.41-.25-2.59-1.89-.17-1.62,1.03-2.56,2.36-2.71h.08s-.11-.66-.11-.66l-3.56.23c-.12.01-.22-.07-.23-.18l-.14-1.83c-.01-.11.09-.21.21-.23l3.33-.21-.18-.93v-.04c-.02-.1,0-.19.19-.22l1.88-.31h.02c.23-.03.27.08.56,1.34l2.54-.17c.12-.01.22.08.24.2l.12,1.81c.01.12-.08.22-.2.24l-2.24.15ZM63.26,73.21c-.26.03-.46.22-.44.47.02.17.19.49.51.46.41-.04.41-.45.37-.81-.15-.1-.3-.13-.44-.11Z"/><path class="aq" d="M71.07,68.95s.09-.03.12-.04c.09,0,.17.04.24.24.27.82,1.01,2.43,1.43,2.99.09.11.16.15.24.14.07,0,.13-.04.21-.09.18-.11.2-.11.21-.11.09,0,.15.03.19.12.14.25.65,1.09.84,1.46.03.06.07.11.08.17.03.33-1.55,1.72-2.09,1.78-.12.01-.26-.02-.39-.11-1.49-1.08-2.62-3.85-2.89-5.65-.01-.1.01-.22.19-.28l1.62-.61ZM77.51,72.16s-.06.02-.09.02c-.12.01-.22-.07-.26-.22-.22-.8-.71-2.39-.91-3.09v-.06c-.02-.09.02-.16.18-.21l1.7-.49s.08-.02.11-.02c.1-.01.17.04.29.23.43.72,1.12,2.43,1.17,2.89.01.11-.03.24-.21.29l-1.98.65Z"/><path id="aa" class="ar" d="M158.5,55.5l-103.29,22.02-21.79-11.07-8.74-24.45c4.94-5.5,9.87-11.01,14.81-16.51,1.88,1.3,6.14,3.85,12,4,2.88.07,5.28-.46,7-1,4.81.36,9.62.72,14.43,1.09l13.57-3.09,12-6,31,7,23.72-6.75,5.28,34.75Z"/><g id="ab"><path class="ao" d="M154.19,58.35c-.58.09-1.05.2-1.47.1-.42-.1-.74-.4-1-.96-1.46-3.52-6.43-18.73-7.91-21.92-.04-.07-.07-.18-.05-.24l-2.53,1.03-3.92,16.75c-.14.58-.79.98-1.37.85l-11.1-2.6c-.63-.15-.99-.79-.85-1.37l9.71-41.48c.15-.63.73-1,1.37-.85l11.1,2.6c.58.14,1,.74.85,1.37l-2.44,10.41c.77-.43,16.51-8.85,18.89-8.29.42.1.8.41,1.14,1.1l4.05,8.42c.23.45.3.85.22,1.22-.12.53-.55.93-1.22,1.16-2.56.96-13.41,5.39-20.57,8.34l7.28-.86c.58-.09,1.12-.24,1.64-.12,3.28.77,8.4,20.08,7.84,22.46-.12.53-.46,1.01-1.27,1.15l-8.37,1.72Z"/><path class="ao" d="M48.69,64.84c-.47.35-.83.67-1.25.79s-.84,0-1.34-.37c-2.95-2.41-14.52-13.46-17.33-15.57-.07-.04-.15-.13-.16-.18l-1.74,2.1,4.46,16.62c.15.58-.23,1.24-.8,1.4l-11.01,2.95c-.63.17-1.24-.23-1.4-.81L7.08,30.61c-.17-.63.17-1.23.8-1.4l11.01-2.95c.58-.16,1.23.18,1.4.8l2.77,10.33c.47-.75,10.37-15.6,12.73-16.23.42-.11.89-.02,1.52.43l7.55,5.5c.41.28.67.61.77.97.14.52-.05,1.08-.53,1.6-1.81,2.06-9.27,11.09-14.18,17.07l6.01-4.2c.47-.35.87-.74,1.39-.88,3.25-.87,16.89,13.73,17.52,16.09.14.52.07,1.11-.58,1.62l-6.57,5.47Z"/><path class="ao" d="M74.21,65.86c-8.82.62-17.01-5.22-17.69-14.75-.79-11.15,7.14-17.53,16.67-18.2,11.96-.84,17.77,8.16,18.26,15.2.74,10.56-9.56,17.21-17.25,17.75ZM79.92,48.81c-.07-1.03-.66-6.26-6.18-5.88-4.55.32-5.58,4.26-5.4,6.69.26,3.73,3.36,6.02,6.45,5.8,3.84-.27,5.35-3.53,5.14-6.62Z"/><path class="ao" d="M108.16,49.88c-8.82.62-17.01-5.22-17.69-14.75-.79-11.15,7.14-17.53,16.67-18.2,11.96-.84,17.77,8.16,18.26,15.2.74,10.56-9.56,17.21-17.25,17.75ZM113.87,32.83c-.07-1.03-.66-6.26-6.18-5.88-4.55.32-5.58,4.26-5.4,6.69.26,3.73,3.36,6.02,6.45,5.8,3.84-.27,5.35-3.53,5.14-6.62Z"/></g><g id="ac"><path id="ad" class="an" d="M55.41,40.49c.15.23.09.54-.14.69l-.4.27-.38.25-.46.29h0l-.43.26-.33.19-.16.09h0l-.31.16c-2.15,1.09-3.41.87-4.98-.9l.82-.55c1.22,1.36,2.16,1.44,3.92.47l.29-.16.3-.18.32-.2.33-.21.54-.35.38-.25c.23-.15.54-.09.69.14ZM52.79,38.44l1.27-.86-.05.23-.04.16-.08.3c-.52,1.81-1.36,2.46-3.25,2.09-.18-.04-.35-.08-.51-.12l1.17-.79c.78.06,1.19-.21,1.49-1ZM46.8,38.76l.05.06-.83.56c-.16-.23-.1-.54.13-.7.21-.14.48-.1.65.08h0ZM52.23,32.18c1.26.24,1.91.73,2.16,1.57l-.9.6c-.09-.71-.51-1.01-1.45-1.19l-.12-.02c-1.2-.21-1.66.14-2.02,1.51l-.04.15-.07.29-.07.32-.2,1.02-.07.4-.04.27-1.06.71c0-.14.01-.29.02-.45l.02-.16.04-.3.02-.16.03-.16.06-.34.2-1.02.07-.34.04-.16.04-.16.08-.3c.52-1.81,1.36-2.46,3.25-2.09Z"/><path id="ae" class="am" d="M56.95,33.23c.23-.15.54-.09.69.14.14.21.1.48-.08.65l-.06.05-12.17,8.2c-.23.15-.54.09-.69-.14-.14-.21-.1-.48.08-.65l.06-.05,12.17-8.2Z"/></g><g id="af"><path id="ag" class="an" d="M173.93,31.38l.11.28s.04.1.05.15l.11.31.11.33.1.35.1.37.1.39.1.41.11.46.1.42.07.34c.87.23,1.15.8,1.2,2.07v.3c0,.05,0,.1,0,.16v.33s-.02.31-.02.31c-.08,1.59-.45,2.12-1.73,2.22h-.25s-.27.02-.27.02h-.29c-1.81-.05-2.49-1.25-2.47-2.84.02-1.59.74-2.76,2.55-2.71h.15s-.09-.37-.09-.37l-.16-.64-.18-.7-.09-.32-.09-.3-.06-.19.69-1.16s0,.01,0,.02ZM168.11,41.91l-.14.08-.26.14-.22.11,1.74-2.94c.25,1-.02,1.94-1.12,2.61ZM172.24,37.78c-.02,1.07.34,1.7,1.42,1.73h.45s.19,0,.19,0h.16c.45-.04.59-.19.64-.72v-.19s.02-.22.02-.22l.02-1.06v-.22s0-.19,0-.19c-.03-.53-.16-.69-.61-.75l-.16-.02h-.29s-.35-.02-.35-.02c-1.08-.03-1.46.59-1.47,1.66ZM168.18,29.75l.4-.09.38-.08c.06-.01.12-.03.18-.04l.35-.07c.06-.01.11-.02.17-.03l.33-.05c.54-.08,1-.11,1.41-.08l-.63,1.06h-.13s-.24.04-.24.04l-.26.04-.27.05-.29.06-.47.1-.69.16-.91.23-.48.13-.3.09-.28.09-.26.09s-.08.03-.12.04l-.23.09c-1.23.51-1.55,1.15-1.35,2.59l.04.26.05.28.09.45.11.5.13.55.16.64.1.37.13-.07c.62-.35,1.18-.45,1.68-.36l-.65,1.11c-.12.03-.25.08-.39.15l-.11.06-.3.17-.25.15-.14.09c-.35.24-.41.43-.24.85l.04.09.08.17.1.2.03.06-.63,1.07h0s-.16-.29-.16-.29l-.04-.07h0l-.04-.07-.13-.27c-.55-1.15-.56-1.78.09-2.39l-.04-.14-.11-.39-.11-.44-.16-.65-.09-.4-.08-.38-.07-.36-.06-.34-.05-.32c0-.05-.01-.1-.02-.16l-.03-.3c-.17-1.94.47-2.83,2.41-3.55l.3-.11c.05-.02.1-.03.16-.05l.33-.1c.06-.02.12-.03.17-.05l.36-.1.38-.1.61-.15Z"/><path id="ah" class="am" d="M172.63,29.3c.14-.24.45-.32.68-.17.22.13.3.4.21.63l-.03.07-7.49,12.73c-.14.24-.45.32-.68.17-.22-.13-.3-.4-.21-.63l.03-.07,7.49-12.73Z"/></g><g id="ai"><g id="aj"><path class="ao" d="M63.98,22.42c.12.06.24.17.25.33,0,.09-.03.19-.1.29-.98,1.53-2.44,4.14-2.41,4.58,0,.09.04.16.15.25,1.42,1.3,3.56,3.37,3.6,3.93.01.23-.13.43-1.75,1.88-.05.05-.14.07-.23.07-.11,0-.23-.01-.31-.08,0,0-3.29-2.94-4.6-4.06-.38-.33-.53-.6-.55-.93-.07-1.06,1.19-4.39,3.41-7.17.05-.06.16-.13.29-.13.07,0,.14,0,.22.04l2.02,1.01Z"/></g><g id="ak"><path class="ao" d="M67.32,28.27c-.16,0-.36-.13-.37-.32l-.09-2.61c0-.17.18-.32.33-.33l9.73-.32c.16,0,.35.13.36.32l.09,2.59c0,.17-.18.31-.33.31l-9.72.35Z"/></g><g id="al"><path class="ao" d="M86.38,22.09c.09.1.18.24.14.39-.02.08-.09.17-.18.25-1.4,1.16-3.58,3.2-3.69,3.63-.02.08-.01.16.06.28.96,1.67,2.37,4.29,2.23,4.83-.06.22-.25.36-2.24,1.26-.07.03-.15.02-.24,0-.11-.03-.22-.08-.27-.17,0,0-2.24-3.8-3.15-5.27-.26-.43-.32-.73-.24-1.05.26-1.03,2.46-3.82,5.43-5.8.07-.04.19-.07.32-.04.07.02.14.05.2.11l1.62,1.57Z"/></g></g><path class="ao" d="M115.39,58.82c-.61.18-1.18.21-1.73.11-1.73-.34-2.96-2.02-2.62-3.79.23-1.2,1.44-3.02,3.57-2.6.51.1.99.32,1.37.58.07-.06.19-.08.31-.05h.06s1.77.51,1.77.51c.26.08.31.23.29.37v.06c-.35.95-.68,1.85-.83,2.58-.23,1.17.14,1.33.27,1.35.63.12,1.27-1.38,1.41-2.14.45-2.34-1.2-4.18-3.47-4.63-2.79-.54-5.29.86-5.85,3.73-.49,2.53.87,5.06,3.66,5.61.83.16,1.7.15,2.54.02.04,0,.07,0,.1,0,.29.06.4.53.33.85-.03.14-.08.24-.17.28-.71.3-1.71.34-2.75.14-1.91-.37-3.96-1.56-4.7-3.5-.47-1.23-.55-2.52-.32-3.7.86-4.43,4.94-5.13,7.38-4.66,3.41.66,5.16,3.4,4.63,6.11-.41,2.13-2.03,3.83-4.01,3.44-.45-.09-.88-.3-1.24-.66v-.02ZM115.01,56.96c.01-.3.06-.62.13-.96.05-.27.12-.56.2-.87-.08-.25-.34-.44-.65-.5-.59-.11-1.13.32-1.27,1.01-.12.61.19,1.21.87,1.34.21.04.43.04.7-.02h.01Z"/><path class="ao" d="M102.82,59.13l.32,2.32c.04.18-.11.29-.28.33-.11,0-1.78.25-1.98.29-.15.02-.31-.07-.34-.21v-.03s-.32-2.19-.32-2.19l-.94.18.43,2.23c.04.19-.09.32-.27.35l-1.95.38c-.17.03-.34-.05-.37-.21l-.44-2.24-1.18.23c-.12.02-.27-.08-.29-.2l-.35-1.77c-.03-.17.09-.27.2-.29l1.18-.23-.39-1.98-1.18.23c-.12.02-.27-.08-.29-.2l-.34-1.77c-.03-.17.09-.27.2-.3l1.18-.23-.4-2.08c-.03-.14.08-.27.2-.29l2.09-.41c.17-.03.27.08.3.2l.4,2.08,1.29-.25-.31-2.17c0-.11.08-.24.19-.27h.03c.19-.04,1.96-.3,2.11-.32.14-.01.25.09.27.19v.03c.03.14.14.93.3,2.01l.84-.16c.19-.04.32.09.35.27l.32,1.65c.03.17-.05.32-.22.36l-.98.19.29,1.99,1.06-.21c.19-.04.32.09.35.27l.32,1.65c.03.15-.05.32-.22.36l-1.18.23ZM99.61,55.34l-1.17.23.4,1.98,1.06-.22-.29-1.99Z"/><path class="ao" d="M84.19,76.75c-.03-.06-.05-.11-.06-.15-.02-.13.1-.17.21-.21.62-.22,1.64-.63,1.98-.78.03-.02.08-.02.11-.03.11-.02.2.03.25.1l1.03,1.37c.05.06.09.14.1.2.01.08-.01.15-.08.22-.87.8-1.93,1.24-2.22,1.28-.12.02-.19-.03-.26-.15l-1.06-1.86ZM88.49,78.73c-.13.02-.25-.07-.27-.19l-.59-4.2-2.56.24c-.11,0-.23-.07-.24-.19v-.02s-.17-1.84-.17-1.84c-.02-.11.07-.23.18-.24h.02s2.45-.22,2.45-.22l-.25-1.78c-.02-.13.07-.25.2-.27l2.19-.31c.12-.02.24.07.26.2l.27,1.91,1.69-.15c.11-.02.23.07.24.18v.02s.17,1.85.17,1.85c.02.12-.08.23-.21.25l-1.58.14.57,4.05c.02.12-.07.24-.19.26l-2.19.31ZM91.32,71.23s-.07.02-.09.02c-.13.02-.21-.04-.26-.13l-.47-.84c-.03-.05-.05-.1-.05-.13-.02-.11.07-.16.19-.2l.78-.25h.03c.13-.02.27.09.32.22l.32.81s.02.05.02.09c.02.11-.05.18-.23.23l-.56.17ZM92.96,77.61c-.1.07-.18.11-.22.11-.07,0-.11-.03-.17-.09-.43-.43-1.15-1.1-1.46-1.42-.08-.07-.13-.17-.14-.23,0-.06,0-.1.05-.13l1.27-.93c.08-.06.16-.1.25-.11.39-.06,2.16,1.08,2.22,1.47,0,.07-.02.13-.09.17l-1.71,1.17ZM93.41,71.03c-.06.05-.1.08-.16.09-.07,0-.13-.02-.19-.08l-.84-.68c-.06-.05-.08-.09-.09-.14-.01-.08.04-.14.08-.18l.53-.52c.05-.04.09-.07.15-.08.08-.01.15.02.23.08l.69.62c.09.07.14.13.15.18,0,.06-.02.12-.09.18l-.46.51Z"/><path class="ao" d="M99.76,77.59c-.12.02-.24-.06-.25-.18l-.67-4.77c-1.58.84-2.77,1.27-2.9,1.29-.1.01-.2-.02-.24-.11l-.9-1.59s-.03-.05-.04-.09c-.01-.09.03-.18.11-.22,2.13-1.19,5.04-3.23,6.74-4.39.03-.02.06-.03.1-.04.11-.02.25.02.31.09l1.46,1.82s.03.05.04.09c.01.1-.03.22-.11.29-.81.64-2.18,1.53-3.61,2.34l1.48-.21c.12-.02.23.07.24.19l.7,4.93c.02.12-.06.23-.18.24l-2.25.32Z"/><path class="ao" d="M104.02,75.59c-.05-.05-.09-.1-.1-.16-.01-.09.04-.18.19-.27,2.12-1.45,3.42-4.43,3.34-4.99-.02-.13-.11-.19-.28-.18l-2.4.13c-.12,0-.23-.08-.25-.2v-.02s-.1-1.87-.1-1.87c0-.12.08-.23.21-.25h.02s4.52-.29,4.52-.29c.51-.03,1.27.32,1.37,1.07,0,.04,0,.08,0,.12.13,2.81-1.95,6.49-4.79,7.94-.1.05-.18.09-.28.11s-.21-.02-.33-.13l-1.13-1.03ZM110.14,72.68c.06-.12.16-.17.26-.18.09-.01,1.48-.04,2.97.57.12.05.19.12.2.21,0,.07-.01.14-.05.22-.2.5-.67,1.53-.9,2.06-.04.1-.11.14-.18.15-.07,0-.15-.01-.21-.04-.66-.31-2.06-.92-2.67-1.18-.1-.04-.18-.09-.2-.18,0-.04,0-.1.04-.17l.73-1.47Z"/><path class="ao" d="M120.05,70.86c-.56,2.93-2.63,4.46-2.87,4.49-.13.02-.27-.04-.47-.15l-1.26-.69c-.06-.04-.09-.08-.1-.12-.01-.1.07-.22.17-.31.93-.84,1.43-1.86,1.66-2.95l-2.95.27c-.11.02-.22-.07-.23-.18v-.02s-.14-1.69-.14-1.69c-.02-.11.01-.22.13-.23h.02s3.36-.32,3.36-.32c0-.24,0-.48-.02-.73,0-.1.04-.19.12-.26-.36.07-.71.13-1.06.18-.26.04-.52.06-.76.08-.09.01-.19-.02-.21-.12l-.44-1.4v-.02c-.02-.09.02-.17.09-.2,1.36-.44,3.57-1.35,4.75-1.9.03-.02.05-.02.09-.02.13-.02.26.05.31.15l.85,1.73s.02.07.03.1c.02.11-.03.22-.17.3-.83.38-1.84.73-2.9.98l1.65-.12c.25-.01.4.08.43.3.03.22.05.45.06.68l2.58-.24c.14,0,.3.08.31.21l.12,1.69c.02.12-.08.23-.21.25l-2.95.27Z"/><path class="ao" d="M126.72,73.81h-.02c-.13.02-.24-.08-.27-.2-.26-.87-.6-2.51-.88-4.01l-1.16.08c-.14,0-.23-.09-.25-.22l-.12-1.41c0-.12.08-.23.19-.24h.02s.98-.06.98-.06c-.07-.44-.12-.81-.16-1.04,0-.11.02-.25.16-.27.26-.04,1.11-.13,1.53-.19.18-.03.3.13.33.24,0,.04.09.5.22,1.16l2.55-.15c.44-.02,1.05.1,1.15.79.19,1.37-1.25,2.85-1.63,2.9-.16.02-.3-.08-.71-.39-.22-.14-.44-.28-.46-.42-.01-.08.02-.16.07-.23.18-.23.32-.62.31-.71,0-.04-.03-.04-.06-.04l-.88.06c.32,1.8.68,3.76.68,3.76.02.13-.08.26-.21.29l-1.37.3Z"/><path class="ao" d="M132.83,69.27s-.07.02-.1.03c-.17.02-.21-.06-.28-.18-.75-1.64-.75-1.67-.76-1.72-.02-.12.03-.22.12-.25l1.29-.34s.06-.02.1-.02c.1-.01.22,0,.31.12.36.39.93,1.2.99,1.62.02.13,0,.26-.17.31l-1.51.44ZM134.63,72.03c-.08-.02-.16-.1-.18-.2,0-.03,0-.08.03-.12.66-1.04,1.28-2.49,1.73-3.79l-1.14.37s-.09.02-.12.03c-.16.02-.2-.04-.25-.16-.55-1.08-.78-1.66-.79-1.72-.02-.11.01-.22.11-.24l1.24-.37s.07-.02.1-.03c.11-.02.22,0,.31.1.23.25.6.7.83,1.13.12-.41.23-.79.3-1.1.03-.08.12-.14.2-.15.03,0,.07,0,.1,0l1.62.46c.1.03.14.11.15.18.05.37-.71,3.69-2.59,5.79-.03.08-.11.13-.19.14-.03,0-.08,0-.12,0l-1.36-.31Z"/><path class="ao" d="M141.33,71.7c-.12.02-.24-.06-.25-.18l-1.33-9.44c-.02-.12.07-.24.19-.26l2.21-.31c.12-.02.23.07.24.19l.54,3.84.47-.89c.06-.12.16-.17.27-.19.34-.05,2.18.15,3.23.54.13.05.2.12.21.21.01.1-.02.17-.96,2.34-.04.1-.12.14-.2.15-.08.01-.16-.01-.22-.04-.61-.27-1.85-.72-2.64-.98l.63,4.44c.02.12-.06.23-.18.24l-2.21.31Z"/><path class="ao" d="M156.35,64.19c-.31,4.12-2.5,5.72-2.71,5.75-.12.02-.25-.06-.43-.17l-1.19-.72c-.06-.04-.09-.08-.1-.13-.01-.1.07-.22.16-.31,1.04-1,1.45-2.44,1.57-3.94l-1.36.25.23.97v.02c.02.15-.09.34-.3.41l-1.77.43c-.24,0-.38-.16-.67-1.39l-1.46.25h-.02c-.11.02-.22-.07-.25-.19l-.28-1.7c-.02-.12,0-.24.12-.26l1.44-.26c-.06-.36-.12-.7-.17-1.04-.02-.17.05-.29.24-.34l1.76-.44h.02c.1-.02.3.03.37.32l.25,1.07,1.85-.33c-.03-.5-.07-.96-.11-1.41-.02-.2.04-.37.26-.4l1.79-.23c.42-.06.49.14.65,1.26l.04.31.95-.17c.12-.02.3.06.32.19l.28,1.7c.02.12-.07.24-.19.27l-1.32.23Z"/><path class="ao" d="M159.43,65.43c-.12.02-.3-.07-.32-.22l-.29-2.04c-.02-.13.11-.27.23-.28l7.6-1.06c.12-.02.28.07.3.22l.29,2.03c.02.13-.11.26-.24.27l-7.59,1.08Z"/><path class="ao" d="M175.6,66.54l-4.58.42c-1.64.14-2.1-.59-2.25-1.65v-.1s-.79-6.16-.79-6.16c-.02-.19.05-.28.23-.31l2.12-.29c.18-.03.29.05.32.24.06.62.16,1.39.26,2.18.03-.03.07-.04.13-.06.6-.27,2.72-1.3,3.04-1.46.05-.03.1-.05.14-.05.11-.02.19.03.23.09l1,1.61c.04.06.08.13.08.19.01.08-.01.16-.11.22-1.33.91-3.37,1.39-3.43,1.4-.18.03-.26-.02-.34-.17l-.7-1.38c.07.54.31,2.7.37,3.1.04.28.23.3.37.28l3.89-.41c.17-.02.3.06.34.31l.21,1.48c.04.27-.14.47-.48.51h-.06ZM174.04,58.94h-.08c-.16.03-.24-.01-.29-.12l-.36-.83c-.02-.05-.04-.09-.04-.13-.02-.13.06-.19.18-.23l.8-.22h.03c.16-.03.29.09.34.22l.31.81s.02.07.02.1c.02.12-.05.2-.24.25l-.69.14ZM176.22,58.72c-.05.05-.1.08-.15.09-.08.01-.15-.02-.22-.07l-.83-.67c-.06-.05-.09-.1-.1-.15-.01-.08.06-.15.1-.19l.51-.52c.05-.05.1-.07.16-.08.09-.01.17.02.26.07l.73.5.04.02c.08.05.11.1.11.15,0,.07-.03.14-.08.22l-.54.62Z"/><path class="ao" d="M177.35,65.25c-.05-.05-.09-.1-.1-.16-.01-.09.04-.18.19-.27,2.12-1.45,3.42-4.43,3.34-4.99-.02-.13-.11-.19-.28-.18l-2.4.13c-.12,0-.23-.08-.25-.21v-.02s-.1-1.87-.1-1.87c0-.12.08-.23.21-.25h.02s4.52-.29,4.52-.29c.51-.03,1.27.32,1.37,1.07,0,.04,0,.08,0,.12.13,2.81-1.95,6.49-4.79,7.94-.1.05-.18.09-.28.11-.1.01-.21-.02-.33-.13l-1.13-1.03ZM183.47,62.33c.06-.12.16-.17.26-.19.09-.01,1.48-.04,2.97.57.12.05.19.12.2.21,0,.07-.01.14-.05.22-.2.5-.67,1.53-.9,2.06-.04.1-.11.14-.18.15-.07,0-.15-.01-.21-.04-.66-.31-2.06-.92-2.67-1.18-.1-.04-.18-.09-.2-.18,0-.04,0-.1.05-.17l.73-1.47Z"/><path class="ao" d="M29.14,80.49s-.07.02-.09.02c-.16.02-.21-.06-.24-.21l-.74-4.33-.67-.05c-.17-.02-.27-.12-.29-.25,0-.03,0-.08.01-.12l1.2-4.39c.03-.13.12-.19.23-.21.04,0,.1,0,.15.02l1.79.45c.13.03.2.13.21.23,0,.06,0,.1-.02.16l-.89,3.21.33-.05h.03c.16-.02.27.04.29.2l.75,4.4v.03c.03.24-.09.37-.27.43l-1.78.46ZM38.13,79.64c-.01.31-.26.45-.51.47-.83.08-2.17.15-2.94.14l-.06.15c-.07.2-.3.27-.47.29-.06,0-.1,0-.14,0l-1.64-.11c-.13,0-.2-.07-.21-.15,0-.04.01-.09.03-.14l.16-.32-.66-.08c-.1-.01-.16-.09-.17-.18,0-.03,0-.06,0-.09l.23-1.23c.02-.12.07-.17.17-.18.02,0,.06,0,.08,0l1.05.08.03-.47-1.16.13c-.26.03-.36-.06-.4-.31l-.47-3.01v-.02c-.03-.23.16-.44.39-.47l1.4-.21-.08-.79-1.54.12c-.17.02-.27-.06-.28-.21l-.15-1.49c-.02-.19.08-.27.23-.29l1.52-.12-.07-.65c-.02-.18.1-.27.21-.28l1.89-.19c.17-.02.23.05.25.2l.08.73,2.2-.17c.15-.02.24.07.25.21l.12,1.51c.02.16-.06.26-.21.27l-2.14.17.07.64.93-.13h.08c.79-.09,1.32.34,1.41,1.17v.03s.18,1.85.18,1.85c.04.49-.15.76-.58.8l-1.8.21-.06.91c.18,0,.41-.03.64-.06.57-.06,1.27-.16,1.91-.25h.02c.15-.02.22.05.24.18v.04s-.04,1.26-.04,1.26ZM33.4,75.34l-.73.09.2,1.27.66-.08-.14-1.28ZM35.84,75.44c-.02-.19-.17-.37-.39-.35l-.42.05.12,1.27.76-.09-.08-.89Z"/><path class="ao" d="M40.38,72.2s.09-.03.12-.04c.09,0,.17.04.24.24.27.82,1.01,2.43,1.43,2.99.09.12.17.15.24.15.07,0,.13-.04.21-.09.18-.11.2-.11.22-.11.09,0,.15.03.19.12.14.25.65,1.09.84,1.46.03.06.07.11.07.17.03.33-1.55,1.72-2.09,1.78-.12.01-.26-.02-.39-.11-1.49-1.08-2.62-3.85-2.89-5.65-.01-.1.01-.22.19-.28l1.62-.61ZM46.81,75.4s-.05.02-.09.02c-.12.01-.22-.07-.26-.22-.22-.79-.71-2.39-.91-3.09v-.06c-.02-.09.02-.16.18-.21l1.7-.49s.08-.02.11-.02c.1-.01.17.04.29.23.43.72,1.12,2.43,1.17,2.89.01.11-.03.24-.21.29l-1.98.65Z"/><path class="ao" d="M58.12,75.05c-.48.05-1.18.06-1.6.05-.18,0-.25-.09-.26-.22,0-.03,0-.08,0-.12.01-.11.01-.23,0-.33-.09-.84-.81-1.32-2.33-1.19q1.94,4.12,1.94,4.15c.01.1-.05.21-.14.27l-1.61.82s-.04.02-.07.02c-.1.01-.21-.05-.26-.14-.59-.96-1.51-2.8-2.34-4.53-.34.12-.69.24-1.07.4-.03.01-.07.02-.1.02-.1.01-.21-.03-.24-.19l-.31-1.63v-.07c-.03-.19,0-.22.8-.5-.4-.91-.72-1.62-.73-1.74,0-.08,0-.15.08-.19.32-.12,1.29-.51,1.8-.72.03-.01.05-.02.08-.02.13-.01.26.08.31.17.03.07.41.83.89,1.86.3-.05.59-.1.86-.12.64-.07,1.2-.07,1.7-.02l-2.13-.93s-.1-.07-.1-.13c0-.03,0-.08.03-.13l.63-1.38c.04-.08.07-.13.17-.14.29-.03,2.66.51,2.71.96,0,.03,0,.07-.02.12l-.67,1.64s-.03.06-.05.07c1.62.33,2.44,1.31,2.57,2.56.03.3.02.62-.02.96-.04.21-.17.35-.4.37h-.1Z"/><path class="ao" d="M65.75,70.6c.11.65.21,1.3.27,1.95.27.37.46.84.52,1.4.08.75-.07,1.69-.56,2.8-.12.25-.22.3-1.65.45-.43.04-.46.01-.47-.05,0-.03.01-.07.02-.12.12-.43.21-.82.26-1.15-.23.07-.46.12-.7.14-1.06.11-2.41-.25-2.59-1.89-.17-1.62,1.03-2.56,2.36-2.71h.08s-.11-.66-.11-.66l-3.56.23c-.12.01-.22-.07-.23-.18l-.14-1.83c-.01-.11.09-.21.21-.23l3.33-.21-.18-.93v-.04c-.02-.1,0-.19.19-.22l1.88-.31h.02c.23-.03.27.08.56,1.34l2.54-.17c.12-.01.22.08.24.2l.12,1.81c.01.12-.08.22-.2.24l-2.24.15ZM63.26,73.21c-.26.03-.46.22-.44.47.02.17.19.49.51.46.41-.04.41-.45.37-.81-.15-.1-.3-.13-.44-.11Z"/><path class="ao" d="M71.07,68.95s.09-.03.12-.04c.09,0,.17.04.24.24.27.82,1.01,2.43,1.43,2.99.09.11.16.15.24.14.07,0,.13-.04.21-.09.18-.11.2-.11.21-.11.09,0,.15.03.19.12.14.25.65,1.09.84,1.46.03.06.07.11.08.17.03.33-1.55,1.72-2.09,1.78-.12.01-.26-.02-.39-.11-1.49-1.08-2.62-3.85-2.89-5.65-.01-.1.01-.22.19-.28l1.62-.61ZM77.51,72.16s-.06.02-.09.02c-.12.01-.22-.07-.26-.22-.22-.8-.71-2.39-.91-3.09v-.06c-.02-.09.02-.16.18-.21l1.7-.49s.08-.02.11-.02c.1-.01.17.04.29.23.43.72,1.12,2.43,1.17,2.89.01.11-.03.24-.21.29l-1.98.65Z"/></g></svg>