<?xml version="1.0" encoding="UTF-8"?><svg id="a" xmlns="http://www.w3.org/2000/svg" xmlns:xlink="http://www.w3.org/1999/xlink" viewBox="0 0 235 137"><defs><style>.bo,.bp{fill:#b378b4;}.bq,.br,.bs,.bt,.bu{fill:none;}.bq,.bv{stroke-width:2px;}.bq,.bu{stroke:#52acce;stroke-miterlimit:10;}.bw{fill:#000;}.bw,.bx,.bt,.bp,.by{stroke-width:0px;}.bx{fill:#319778;}.bz{clip-path:url(#aq);}.br{stroke:#908bb8;}.br,.bs{stroke-linejoin:round;stroke-width:21px;}.ca{clip-path:url(#ar);}.cb{clip-path:url(#bl);}.bs{stroke:#e7dbec;}.cc{clip-path:url(#bm);}.cd{clip-path:url(#v);}.bv{fill:#c7792a;stroke:#c7792a;}.bu{stroke-width:3px;}.by{fill:#52acce;}.ce{clip-path:url(#w);}</style><clipPath id="v"><path class="bt" d="M40.33,112.73c-.92-2.3-1.46-4.89-.83-7.92,1.52-7.31,6.56-8.54,10.2-7.78,3.45.72,6.55,3.4,7,7.22.19,1.58.13,3.16-.19,4.67-.82,3.92-4.34,9.76-10.49,8.48-2.49-.52-4.71-2.21-5.7-4.67ZM50.61,107.66c.87-4.16-1.01-5.06-1.85-5.24-1.03-.22-2.72.22-3.4,3.49,0,.02-1.05,5.52,1.6,6.07,1.74.36,3.12-1.8,3.64-4.32Z"/></clipPath><clipPath id="w"><path class="bt" d="M78.63,120.7c-.92-2.3-1.46-4.89-.83-7.92,1.52-7.31,6.56-8.54,10.2-7.78,3.45.72,6.55,3.4,7,7.22.19,1.58.13,3.16-.19,4.67-.82,3.92-4.34,9.76-10.49,8.48-2.49-.52-4.71-2.21-5.7-4.67ZM88.91,115.63c.87-4.16-1.01-5.06-1.85-5.24-1.03-.22-2.72.22-3.4,3.49,0,.02-1.05,5.52,1.6,6.07,1.74.36,3.12-1.8,3.64-4.32Z"/></clipPath><clipPath id="aq"><path class="bt" d="M37.33,108.73c-.92-2.3-1.46-4.89-.83-7.92,1.52-7.31,6.56-8.54,10.2-7.78,3.45.72,6.55,3.4,7,7.22.19,1.58.13,3.16-.19,4.67-.82,3.92-4.34,9.76-10.49,8.48-2.49-.52-4.71-2.21-5.7-4.67ZM47.61,103.66c.87-4.16-1.01-5.06-1.85-5.24-1.03-.22-2.72.22-3.4,3.49,0,.02-1.05,5.52,1.6,6.07,1.74.36,3.12-1.8,3.64-4.32Z"/></clipPath><clipPath id="ar"><path class="bt" d="M75.63,116.7c-.92-2.3-1.46-4.89-.83-7.92,1.52-7.31,6.56-8.54,10.2-7.78,3.45.72,6.55,3.4,7,7.22.19,1.58.13,3.16-.19,4.67-.82,3.92-4.34,9.76-10.49,8.48-2.49-.52-4.71-2.21-5.7-4.67ZM85.91,111.63c.87-4.16-1.01-5.06-1.85-5.24-1.03-.22-2.72.22-3.4,3.49,0,.02-1.05,5.52,1.6,6.07,1.74.36,3.12-1.8,3.64-4.32Z"/></clipPath><clipPath id="bl"><path class="bp" d="M37.33,108.73c-.92-2.3-1.46-4.89-.83-7.92,1.52-7.31,6.56-8.54,10.2-7.78,3.45.72,6.55,3.4,7,7.22.19,1.58.13,3.16-.19,4.67-.82,3.92-4.34,9.76-10.49,8.48-2.49-.52-4.71-2.21-5.7-4.67ZM47.61,103.66c.87-4.16-1.01-5.06-1.85-5.24-1.03-.22-2.72.22-3.4,3.49,0,.02-1.05,5.52,1.6,6.07,1.74.36,3.12-1.8,3.64-4.32Z"/></clipPath><clipPath id="bm"><path class="bp" d="M75.63,116.7c-.92-2.3-1.46-4.89-.83-7.92,1.52-7.31,6.56-8.54,10.2-7.78,3.45.72,6.55,3.4,7,7.22.19,1.58.13,3.16-.19,4.67-.82,3.92-4.34,9.76-10.49,8.48-2.49-.52-4.71-2.21-5.7-4.67ZM85.91,111.63c.87-4.16-1.01-5.06-1.85-5.24-1.03-.22-2.72.22-3.4,3.49,0,.02-1.05,5.52,1.6,6.07,1.74.36,3.12-1.8,3.64-4.32Z"/></clipPath></defs><g id="b"><g id="c"><g id="d"><path class="br" d="M185.73,112.17c-.82-.28-1.31-1.06-1.03-1.88l4.92-17.27c-2.8-.05-5.73-.59-8.59-1.57-12.87-4.41-18.98-15.25-14.73-27.65,4.25-12.4,18-17.43,29.99-13.32,2.86.98,5.67,2.55,8.23,4.64l11.59,3.28.14.05c.68.23,1.08,1.06.83,1.81l-15.64,54.77-.05.14c-.26.75-1.08,1.15-1.83.9l-13.81-3.89ZM197.26,66.27c-1.04-.74-2.13-1.34-3.22-1.71-4.77-1.63-9.43.42-11.04,5.12-1,2.93-1.14,7.98,4.52,9.92,1.91.65,4.07.79,5.76.53l3.99-13.86Z"/></g><g id="e"><path class="br" d="M159.68,96.11c-.41,1.43-.97,2.22-2.05,2.34-.21.02-.43.05-.65,0-11.78-.95-16.52-6.77-18.99-24.83l-5.4.34c-.79.02-1.52-.62-1.61-1.41l-.52-11.97c-.02-.79.55-1.51,1.41-1.61l4.61-.25c-.17-2.73-.37-5.68-.52-8.78-.03-.87-.04-2.24,1.82-2.46l.29-.03,13.59-.93c1.22-.07,1.88.58,2.02,1.79.21,3.02.36,6.19.49,9.22l4.97-.29c.79-.09,1.51.55,1.61,1.41l.52,11.97c.01.72-.49,1.43-1.27,1.53l-.14.02-4.75.34c.76,6.51,2.19,11.34,5.5,12.34.83.27,1.72.45,1.81,1.24.02.14-.03.37-.08.59l-2.67,9.44Z"/></g><g id="f"><path class="br" d="M115.16,98.49c-.78.15-1.54-.36-1.69-1.13l-11.38-57.72c-.17-.85.34-1.61,1.12-1.76l14.2-2.8c.78-.15,1.54.36,1.71,1.2l11.38,57.72c.15.78-.36,1.54-1.13,1.69l-14.2,2.8Z"/></g><g id="g"><path class="br" d="M92.08,99.59c-.9,1.05-1.74,1.53-2.66,1.33-.7-.16-5.37-2.38-8.15-6.47-4.08,1.08-8.06,1.08-11.64.28-11.74-2.62-19.85-13.87-17.32-25.19,1.88-8.43,10.57-19.26,24.48-16.15,3.51.78,6.78,2.33,9.26,4.13.53-.4,1.21-.47,2.05-.28l.35.08,11.92,3.77c1.8.55,2.08,1.57,1.9,2.41l-.08.35c-2.41,6.18-4.76,12.07-5.79,16.71-.94,4.22-.84,7.41,1.14,9.11.62.51,1.3,1.1,1.15,1.81-.03.14-.15.34-.35.59l-6.26,7.53ZM79.87,76.28c.41-1.83.9-3.71,1.51-5.79-.53-1.59-2.21-3-4.25-3.46-4.43-.99-7.84,2.75-8.64,6.33-.88,3.94,1.11,7.92,5.68,8.94,1.34.3,2.94.36,4.72.02.2-1.87.5-3.87.98-6.05Z"/></g><g id="h"><path class="br" d="M27.38,98.66c-1.54.36-2.31.24-3.01-.86l-4.97-7.42c-.12-.19-.24-.39-.27-.53-.24-1.05,1.13-1.52,1.97-1.71,4.12-1.03,5.63-3.45,5.24-5.13-.21-.91-1.38-1.82-2.66-2.86l-2.38-1.67c-3.9-2.79-5.86-5.52-6.48-8.18-1.84-7.93,8.62-14.79,17.81-16.92,2.74-.63,3.5-.52,4.29.63l5.04,7.41c.21.25.25.46.3.67.18.77-.53,1.23-1.44,1.44l-.28.07c-4.21.98-5.5,2.75-5.17,4.16.28,1.19,1.64,2.28,4.99,4.61,4.04,2.76,6.17,5.59,6.79,8.26,1.92,8.28-9.6,15.68-19,17.86l-.77.18Z"/></g></g><g id="i"><path class="br" d="M145.74,19.65l-1.41-3.76,1.75,3.42c1.44,4.68,1.95,6.64,2.62,10.31.99,5.2,1.16,11.46.48,15.73-.34,2.16-1.1,4.94-1.32,4.9-.09,0-.34-.27-.55-.58-.31-.49-.28-.82.14-2.38,1.96-6.99,1.12-17.69-2.05-26.78l-.82-2.4.96,3.48c2.91,10.58,3.39,18.39,1.58,25.6l-.4,1.57-1.53-1.71c-.84-.96-2.03-2.24-2.68-2.84-.63-.61-1.16-1.13-1.17-1.17-.02-.04.47-.3,1.09-.57.91-.39.79-.36-.71.1-2.93.92-3.56,1.01-4.14.56-1.69-1.28-3.99-2.82-5.15-3.45l-1.31-.71.25-1.15c.34-1.55,1.72-4.69,2.84-6.44,1-1.54,1.86-2.22,3.93-3.14.89-.38.78-.38-.62.09l-1.71.55,2.25-2.92c2.39-3.12,5.21-7.39,5.95-8.8.24-.48-1,1.41-1.77,2.51-.77,1.1-2.03,2.84-2.85,3.87-.8,1.02-2.1,2.73-2.89,3.75-2.8,3.6-5.35,8.42-5.7,10.79l-.09.67-2.46-.97c-2.4-.93-6.7-2.01-8.16-2.02-.41,0-.77-.06-.8-.13-.1-.26,2.22-3.44,3.75-5.14,3.53-3.91,8.11-7.33,15.18-11.32,1.6-.89,3.13-2.13,3.65-2.25,3.14-.75,3.38-1.58.29-.35-.62.25-2.52,1.49-5.67,3.18-6.84,3.73-12.64,8.39-15.82,12.74l-.41.56c-.2.51-.5.98-.89,1.39l-.25.42c-.09.16-.17.27-.24.37-.55.65.15.49.2.75,5.45.62,11.58,2.85,15.74,5.72,3.68,2.54,6.87,5.67,9.75,9.58.17-.05.33-.1.5-.15-1.68-2.29-3.41-4.3-5.12-5.92-.81-.77-1.47-1.41-1.48-1.43,0-.02.51-.14,1.19-.27l1.18-.22,1.29,1.3c1.88,1.88,3.56,3.83,5.1,5.9.44-.13.89-.26,1.34-.38l.14-.45c2.57-7.99,1.7-19.43-2.95-29.99Z"/><path class="br" d="M139.27,29.58c-.1.61-.37,1.58-.63,2.19-.48,1.13-.47,1.17.63.95.4-.09,1.8-.06,3.07.05,1.28.13,2.19.13,2,.04-.53-.31-3.64-.5-4.82-.33l-1.09.16.49-.99c.47-.98.92-3.05.65-3.15-.06-.04-.21.45-.3,1.07Z"/><path class="br" d="M144.99,33.07c.49.55-1.48,3.53-3.19,4.82-.53.39-1.06.81-1.17.9-.13.12.32.51,1.22,1.06.78.48,1.58,1.01,1.81,1.17.31.22.3.18-.07-.29-.25-.29-1.03-.82-1.71-1.16l-1.22-.6.99-.65c1.33-.87,2.67-2.5,3.29-4,.41-.96.44-1.22.15-1.33-.28-.14-.29-.11-.1.09Z"/></g><g id="j"><path class="br" d="M101.73,37.36h.03c-.27-.19-.51-.4-.72-.64l-.72-.59c-4.15-3.43-10.92-6.52-18.46-8.46-3.47-.86-8.43-1.31-8.85-1.5-.28-.12,1.52-.23,2,0,.48.23,3.27.9,5.04,1.36,7.84,2.13,13.11,4.32,17.5,7.25,1.9,1.27,4.93,3.79,4.9,4.06-.01.08-.35.23-.73.33-1.43.36-5.34,2.47-7.43,3.96l-2.15,1.55-.26-.63c-.92-2.21-4.58-6.26-8.16-9.05-1.04-.8-2.72-2.13-3.75-2.93-1.04-.8-2.7-2.17-3.71-3.05-1.01-.88-1.54-1.27-1.19-.86,1.06,1.18,3.69,3.5,6.78,5.93l2.89,2.28-1.8-.11c-1.48-.11-1.59-.08-.63.07,2.23.38,3.24.83,4.58,2.08,1.52,1.42,3.63,4.13,4.34,5.54l.52,1.05-1.09,1.01c-.97.89-2.82,2.95-4.15,4.61-.46.58-1.09.64-4.15.47-1.57-.08-1.69-.08-.69.08.65.11,1.18.24,1.18.28,0,.04-.39.67-.85,1.42-.48.75-1.32,2.28-1.9,3.41l-1.06,2.03-.77-1.42c-1.73-3.19-2.84-6.39-3.67-10.55-.92-4.49-1.2-8.43-1.08-14.66l.48-5.51-.61,4.42c-.85,9.59.97,20.16,4.59,26.46.79,1.41.9,1.72.72,2.27-.13.34-.3.66-.39.69-.21.1-1.62-2.41-2.48-4.42-1.71-3.98-3.07-10.08-3.4-15.37-.25-3.72-.24-5.74,0-10.63l.57-3.42-.83,3.84c-1.23,11.22.74,22.52,5.19,29.63l.36.59c.43-.04.85-.08,1.28-.12,1.01-2.43,2.19-4.83,3.48-7l.93-1.58,1.2-.07c.69-.04,1.22-.05,1.22-.03,0,.02-.49.81-1.09,1.75-1.21,1.91-2.35,4.19-3.38,6.7.18-.02.37-.04.55-.05,1.8-4.34,4.08-8.03,6.95-11.31,3.32-3.8,8.71-7.46,13.84-9.4.03-.09.08-.17.12-.26-.01-.15-1.09-1.51-1.09-1.51Z"/><path class="br" d="M80.94,36.95c-.05.4.9,2.23,1.54,2.98l.65.73-1.08.11c-1.21.12-4.17,1.07-4.61,1.5-.17.13.72-.1,1.93-.53,1.21-.42,2.58-.79,3.03-.79,1.01-.04,1.16-.23.61-.71-.25-.2-.74-.97-1.1-1.7-.82-1.67-.93-1.85-.96-1.58Z"/><path class="br" d="M76.65,42.67c-.26.33,1.25,2.17,2.51,3.08.62.45,1.62.96,2.25,1.19l1.12.38-1.03.89c-.58.5-1.2,1.2-1.38,1.54-.24.54-.25.59,0,.3.18-.21.82-.91,1.47-1.57.74-.75,1.08-1.24.92-1.33-.12-.06-.74-.33-1.35-.58-1.9-.81-4.62-3.23-4.31-3.83.17-.32.05-.36-.2-.07Z"/></g><g id="k"><path class="br" d="M53.42,31.89c-2.87-.42-5.16.03-6.35,1.25-.62.63-1.04,1.79-1.01,2.75.02.43.12,1.01.23,1.29.15.43.15.56-.01.68-.68.51-.74.66-2.24,5.45s-1.45,4.65-1.33,5.25c.08.42.25.75.55,1.05l.43.43,6.4,2q6.41,2,7.03,1.89c.41-.06.77-.23,1.03-.49.41-.4.44-.45,1.91-5.15,1.3-4.17,1.47-4.81,1.41-5.2-.04-.25-.13-.5-.18-.57-.07-.07.07-.25.37-.49,1.6-1.26,2.12-3.14,1.34-4.89-.51-1.15-2.14-2.54-4.17-3.55-1.25-.62-3.98-1.48-5.4-1.69ZM57.55,33.77c2.33.95,3.93,2.14,4.66,3.48.53.98.6,1.47.3,2.4-.28.88-.61,1.32-1.48,1.94-.69.49-.79.7-.51.98.48.49.44.7-1.07,5.53-1.31,4.2-1.43,4.54-1.75,4.82-.71.63-.64.64-7.44-1.48-5.71-1.78-6.16-1.93-6.47-2.25-.69-.71-.69-.78.84-5.69.75-2.41,1.45-4.49,1.56-4.63s.38-.34.6-.44c.22-.12.43-.27.45-.35.03-.08-.06-.47-.2-.84-.37-1.01-.4-1.57-.12-2.46.19-.65.32-.86.72-1.23,1.76-1.6,5.63-1.51,9.92.22Z"/><path class="br" d="M54.73,38.11c-.09,0-.2.09-.23.19-.07.24,1.96,5.89,2.14,5.95.25.08.48-.15.45-.45-.04-.39-1.96-5.57-2.09-5.65-.06-.03-.19-.06-.27-.05Z"/><path class="br" d="M51.08,37.37c-.25.12-.17.45.56,2.47.42,1.17,1.23,3.41,1.8,4.99.79,2.18,1.09,2.9,1.29,2.96.41.13.47-.22.19-1-.14-.39-.95-2.6-1.77-4.92s-1.55-4.27-1.61-4.34c-.13-.17-.33-.23-.46-.16Z"/><path class="br" d="M49.01,41.21c-.07.22,1.66,5.26,1.96,5.74.15.23.51.22.59-.03.03-.11-.23-1-.59-1.99s-.81-2.24-.99-2.8c-.26-.71-.43-1.01-.62-1.07s-.3-.01-.35.15Z"/></g><g id="l"><path id="m" class="br" d="M162.28,42.67c-.2.09-.33.17-.45.19-.33.07-.42-.13-.57-.39-1.4-2.3-2.98-5.21-3.03-5.44-.06-.26,0-.44.25-.57l3.64-1.71c.14-.05.25-.1.37-.13.23-.05.46-.03.73.19,1.31,1.17,3.45,3.63,3.71,4.83.08.35-.09.61-.4.77l-4.23,2.25ZM166.24,49.93c-.18-.04-.31-.2-.35-.39-.02-.09-.01-.17.02-.25,2.71-5.02,4.89-12.41,5.69-16.68.06-.18.2-.31.37-.35.09-.02.17-.01.27.02l4.81,1.26c.2.03.29.21.33.4.19.89-1.57,10.59-6.48,16.65-.06.18-.2.31-.39.35-.07.01-.17.01-.25-.02l-4.01-.98Z"/><path id="n" class="br" d="M181.58,40.15c-.36-.22-.44-.39-.39-.57.04-.14.15-.28.3-.47,1.36-1.58,3.45-4.53,4.59-6.24.25-.38.52-.46.8-.39.07.02.16.04.23.08l3.65,2.08c.32.18.52.46.41.88-.35,1.32-5.03,6.94-6.12,6.66-.12-.03-.23-.08-.38-.17l-3.09-1.85ZM194.09,30.34c.08-.3.27-.57.58-.49l4.51.96h.05c.3.09.56.33.49.61l-2.13,8.08c-.1.39-.06.53.17.59.21.05.48.05,3.38.09.12,0,.25,0,.34.02.19.05.3.18.37.47.96,3.51.96,3.6.9,3.86-.05.21-.22.36-.5.47-3.57,1.42-9.77,1.28-11.14.92-.58-.15-.67-.57-.53-1.11l3.51-14.46Z"/><path id="o" class="br" d="M206.28,49.9c-.24-.11-.36-.37-.26-.61l8.12-18.53c.11-.24.39-.35.63-.25l4.33,1.9c.24.11.33.38.23.62l-3.3,7.54,1.84-1.08c.25-.15.48-.13.7-.04.66.29,3.77,2.7,5.23,4.57.18.24.23.44.15.62-.09.2-.23.29-4.34,3.15-.19.13-.37.13-.52.06s-.28-.2-.36-.31c-.8-1.16-2.54-3.36-3.68-4.7l-3.82,8.73c-.11.24-.36.34-.6.23l-4.33-1.9Z"/></g><g id="p"><path id="q" class="br" d="M165.29,116.32c-.25-.08-.39-.34-.31-.59l6.48-19.17c.08-.25.36-.39.61-.3l4.48,1.52c.25.08.36.35.28.6l-2.64,7.8,1.74-1.24c.24-.17.46-.17.69-.1.68.23,3.99,2.36,5.61,4.1.2.22.26.42.2.6-.07.2-.21.31-4.05,3.52-.18.14-.36.16-.52.1s-.3-.18-.39-.28c-.9-1.09-2.82-3.13-4.07-4.37l-3.05,9.03c-.08.25-.33.37-.58.29l-4.48-1.52Z"/><path id="r" class="br" d="M148.74,113.29c-.25.07-.64-.07-.73-.37l-1.16-4.21c-.08-.28.16-.59.42-.66l15.72-4.31c.25-.07.62.08.7.38l1.15,4.19c.08.28-.17.57-.42.64l-15.68,4.35Z"/><path id="s" class="br" d="M131.38,118.45c-.28-.07-.44-.32-.38-.58l.45-3c.05-.21.18-.47.49-.43l5.34.97c.55-1.2,1.75-3.83,1.81-4.09.05-.21-.03-.28-.08-.29l-4.37-1.36c-.23-.08-.37-.33-.31-.57v-.05s.93-2.69.93-2.69c.08-.23.31-.37.54-.32h.05s7.47,2.34,7.47,2.34c.73.24,1.58,1.16,1.32,2.25-.17.75-1.78,3.92-2.69,5.63l2.37.43h.05c.26.07.49.32.45.61l-.48,2.99v.05c-.07.26-.35.39-.58.34l-12.39-2.24Z"/><path id="t" class="br" d="M119.85,122.13h-.05c-.3.08-.62-.09-.72-.33l-2.18-5.43-5.94,1.79c-.28.07-.56-.09-.66-.39l-.95-3.25-.02-.07c-.06-.26-.01-.47.24-.55l5.64-1.69-.92-2.3-4.44.94c-.29.04-.55-.12-.61-.37v-.05s-.75-3.3-.75-3.3c-.07-.3.11-.57.41-.64l3.69-.78c-.27-.72-.83-2.15-.87-2.29-.06-.26.05-.6.41-.76,1.18-.43,3.24-1.12,3.98-1.42l.16-.04c.49-.12.81.08.92.32.35.73.78,1.74,1.29,2.95l4.46-.94c.26-.06.54.09.61.37v.05s.75,3.3.75,3.3c.07.28-.14.55-.42.62l-3.76.8.69,1.86,4.86-1.45h.05c.26-.07.66.08.75.35l.94,3.23c.07.3-.08.59-.36.65l-4.72,1.42c1.38,4.04,1.74,5.56,1.75,5.58.07.28-.06.56-.36.65l-3.89,1.17Z"/></g><g id="u"><path class="br" d="M40.38,112.84c-.92-2.3-1.46-4.89-.83-7.92,1.52-7.31,6.56-8.54,10.2-7.78,3.45.72,6.55,3.4,7,7.22.19,1.58.13,3.16-.19,4.67-.82,3.92-4.34,9.76-10.49,8.48-2.49-.52-4.71-2.21-5.7-4.67ZM50.66,107.77c.87-4.16-1.01-5.06-1.85-5.24-1.03-.22-2.72.22-3.4,3.49,0,.02-1.05,5.52,1.6,6.07,1.74.36,3.12-1.8,3.64-4.32Z"/><g class="cd"><path class="br" d="M38.99,103.54c.65-.32,1.37-.5,2.09-.63,3.55-.68,7.23-.57,10.79.05s7.02,1.74,10.39,3.06"/><path class="br" d="M39.75,104.84c1.56-.71,3.52-.8,5.2-.87,1.96-.08,3.94.03,5.88.33,3.8.59,7.46,1.77,11.04,3.16,1.8.7,2.58-2.2.8-2.89-3.98-1.55-8.05-2.8-12.29-3.34-3.89-.5-8.49-.63-12.13,1.02-1.76.79-.23,3.38,1.51,2.59h0Z"/><path class="br" d="M40.13,100.8c1.59-.39,3.26-.27,4.9-.12,6.28.57,12.51,1.66,18.61,3.24"/><path class="br" d="M40.53,102.25c1.92-.41,3.91-.14,5.84.06s3.76.44,5.63.73c3.78.59,7.53,1.38,11.24,2.33,1.87.48,2.67-2.41.8-2.89-4-1.03-8.04-1.86-12.13-2.47s-8.26-1.49-12.18-.65c-1.89.4-1.09,3.3.8,2.89h0Z"/><path class="br" d="M42.27,98.75c7.54-.34,14.89,2.09,22.32,3.46"/><path class="br" d="M42.27,100.25c7.48-.29,14.65,2.05,21.92,3.41,1.89.35,2.7-2.54.8-2.89-7.53-1.41-14.97-3.82-22.71-3.52-1.92.07-1.93,3.07,0,3h0Z"/><path class="br" d="M43.25,97.17c7.55.6,15.04,1.88,22.36,3.82"/><path class="br" d="M43.25,98.67c7.42.6,14.76,1.87,21.97,3.76,1.87.49,2.67-2.4.8-2.89-7.46-1.96-15.08-3.25-22.76-3.87-1.92-.16-1.91,2.85,0,3h0Z"/><path class="br" d="M77.87,111.68c1.93,0,1.93-3,0-3s-1.93,3,0,3h0Z"/><path class="br" d="M83.41,112.04c1.93,0,1.93-3,0-3s-1.93,3,0,3h0Z"/></g><path class="br" d="M68.29,121.51l-.16-.03c-.38-.08-.59-.22-.72-.57-.08-.31-.53-3.13-.69-4.24-.03-.2-.07-.26-.09-.26-.05,0-.1.13-.14.22-.46,1.01-1.45,3.2-1.77,3.78-.13.27-.56.47-.97.41l-2.35-.37-.12-.02c-.42-.09-.82-.32-.93-.83l-2.6-11.53c-.04-.16-.1-.36-.06-.55.04-.21.23-.39.73-.46l3.67-.41c.17-.01.32,0,.44.02.33.07.51.28.56.51l1.35,5.55c.03.1.07.14.12.15s.13-.05.19-.18c.26-.78.75-2.44.82-2.65.15-.51.44-.59,1.02-.52l2.73.44.12.02c.33.07.52.23.58.61l.02,2.95c0,.08.04.18.08.19.07.01.15-.14,2.27-5.02.18-.4.44-.47.75-.41.21.04.44.14.64.23l2.73,1.16c.66.26.74.57.67.9-.02.12-.08.25-.13.37-3.61,8.88-5.49,11.07-6.94,10.84l-1.81-.28Z"/><path class="br" d="M78.57,120.78c-.92-2.3-1.46-4.89-.83-7.92,1.52-7.31,6.56-8.54,10.2-7.78,3.45.72,6.55,3.4,7,7.22.19,1.58.13,3.16-.19,4.67-.82,3.92-4.34,9.76-10.49,8.48-2.49-.52-4.71-2.21-5.7-4.67ZM88.84,115.71c.87-4.16-1.01-5.06-1.85-5.24-1.03-.22-2.72.22-3.4,3.49,0,.02-1.05,5.52,1.6,6.07,1.74.36,3.12-1.8,3.64-4.32Z"/><g class="ce"><path class="br" d="M79.26,108.93c7.05,1.19,13.92,3.44,20.31,6.66"/><path class="br" d="M78.87,110.37c6.93,1.19,13.66,3.36,19.95,6.51,1.72.86,3.24-1.73,1.51-2.59-6.52-3.27-13.48-5.58-20.67-6.81-1.89-.32-2.7,2.57-.8,2.89h0Z"/><path class="br" d="M80.53,107.18c4.17.74,8.23,2.01,12.28,3.27,2.76.86,5.53,1.72,8.29,2.59"/><path class="br" d="M80.13,108.62c7,1.27,13.79,3.74,20.57,5.86,1.85.58,2.64-2.32.8-2.89-6.78-2.12-13.57-4.58-20.57-5.86-1.89-.34-2.7,2.55-.8,2.89h0Z"/><path class="br" d="M80.47,105.86c6.77,1.68,13.49,3.58,20.14,5.71"/><path class="br" d="M80.08,107.31c6.77,1.68,13.49,3.59,20.14,5.71,1.84.59,2.63-2.31.8-2.89-6.65-2.12-13.37-4.03-20.14-5.71-1.87-.47-2.67,2.43-.8,2.89h0Z"/><path class="br" d="M85.26,105.78c6,1.09,11.94,2.58,17.75,4.45"/><path class="br" d="M84.86,107.22c6.01,1.1,11.93,2.58,17.75,4.45,1.84.59,2.63-2.3.8-2.89-5.81-1.86-11.74-3.35-17.75-4.45-.8-.15-1.62.22-1.85,1.05-.2.73.25,1.7,1.05,1.85h0Z"/><path class="br" d="M94.45,113.53c1.72,1.58,3.62,2.98,5.63,4.17"/><path class="br" d="M93.39,114.59c1.82,1.66,3.81,3.15,5.94,4.4.68.4,1.68.18,2.05-.54s.18-1.63-.54-2.05c-.99-.59-1.96-1.22-2.88-1.91-.11-.08-.22-.16-.33-.24-.05-.04-.11-.09-.16-.12.07.05.21.17.06.05-.23-.18-.45-.36-.67-.54-.46-.38-.91-.77-1.34-1.17-.58-.53-1.56-.62-2.12,0-.53.58-.62,1.56,0,2.12h0Z"/></g></g><g id="x"><g id="y"><path class="bs" d="M182.73,108.17c-.82-.28-1.31-1.06-1.03-1.88l4.92-17.27c-2.8-.05-5.73-.59-8.59-1.57-12.87-4.41-18.98-15.25-14.73-27.65,4.25-12.4,18-17.43,29.99-13.32,2.86.98,5.67,2.55,8.23,4.64l11.59,3.28.14.05c.68.23,1.08,1.06.83,1.81l-15.64,54.77-.05.14c-.26.75-1.08,1.15-1.83.9l-13.81-3.89ZM194.26,62.27c-1.04-.74-2.13-1.34-3.22-1.71-4.77-1.63-9.43.42-11.04,5.12-1,2.93-1.14,7.98,4.52,9.92,1.91.65,4.07.79,5.76.53l3.99-13.86Z"/></g><g id="z"><path class="bs" d="M156.68,92.11c-.41,1.43-.97,2.22-2.05,2.34-.21.02-.43.05-.65,0-11.78-.95-16.52-6.77-18.99-24.83l-5.4.34c-.79.02-1.52-.62-1.61-1.41l-.52-11.97c-.02-.79.55-1.51,1.41-1.61l4.61-.25c-.17-2.73-.37-5.68-.52-8.78-.03-.87-.04-2.24,1.82-2.46l.29-.03,13.59-.93c1.22-.07,1.88.58,2.02,1.79.21,3.02.36,6.19.49,9.22l4.97-.29c.79-.09,1.51.55,1.61,1.41l.52,11.97c.01.72-.49,1.43-1.27,1.53l-.14.02-4.75.34c.76,6.51,2.19,11.34,5.5,12.34.83.27,1.72.45,1.81,1.24.02.14-.03.37-.08.59l-2.67,9.44Z"/></g><g id="aa"><path class="bs" d="M112.16,94.49c-.78.15-1.54-.36-1.69-1.13l-11.38-57.72c-.17-.85.34-1.61,1.12-1.76l14.2-2.8c.78-.15,1.54.36,1.71,1.2l11.38,57.72c.15.78-.36,1.54-1.13,1.69l-14.2,2.8Z"/></g><g id="ab"><path class="bs" d="M89.08,95.59c-.9,1.05-1.74,1.53-2.66,1.33-.7-.16-5.37-2.38-8.15-6.47-4.08,1.08-8.06,1.08-11.64.28-11.74-2.62-19.85-13.87-17.32-25.19,1.88-8.43,10.57-19.26,24.48-16.15,3.51.78,6.78,2.33,9.26,4.13.53-.4,1.21-.47,2.05-.28l.35.08,11.92,3.77c1.8.55,2.08,1.57,1.9,2.41l-.08.35c-2.41,6.18-4.76,12.07-5.79,16.71-.94,4.22-.84,7.41,1.14,9.11.62.51,1.3,1.1,1.15,1.81-.03.14-.15.34-.35.59l-6.26,7.53ZM76.87,72.28c.41-1.83.9-3.71,1.51-5.79-.53-1.59-2.21-3-4.25-3.46-4.43-.99-7.84,2.75-8.64,6.33-.88,3.94,1.11,7.92,5.68,8.94,1.34.3,2.94.36,4.72.02.2-1.87.5-3.87.98-6.05Z"/></g><g id="ac"><path class="bs" d="M24.38,94.66c-1.54.36-2.31.24-3.01-.86l-4.97-7.42c-.12-.19-.24-.39-.27-.53-.24-1.05,1.13-1.52,1.97-1.71,4.12-1.03,5.63-3.45,5.24-5.13-.21-.91-1.38-1.82-2.66-2.86l-2.38-1.67c-3.9-2.79-5.86-5.52-6.48-8.18-1.84-7.93,8.62-14.79,17.81-16.92,2.74-.63,3.5-.52,4.29.63l5.04,7.41c.21.25.25.46.3.67.18.77-.53,1.23-1.44,1.44l-.28.07c-4.21.98-5.5,2.75-5.17,4.16.28,1.19,1.64,2.28,4.99,4.61,4.04,2.76,6.17,5.59,6.79,8.26,1.92,8.28-9.6,15.68-19,17.86l-.77.18Z"/></g></g><g id="ad"><path class="bs" d="M142.74,15.65l-1.41-3.76,1.75,3.42c1.44,4.68,1.95,6.64,2.62,10.31.99,5.2,1.16,11.46.48,15.73-.34,2.16-1.1,4.94-1.32,4.9-.09,0-.34-.27-.55-.58-.31-.49-.28-.82.14-2.38,1.96-6.99,1.12-17.69-2.05-26.78l-.82-2.4.96,3.48c2.91,10.58,3.39,18.39,1.58,25.6l-.4,1.57-1.53-1.71c-.84-.96-2.03-2.24-2.68-2.84-.63-.61-1.16-1.13-1.17-1.17-.02-.04.47-.3,1.09-.57.91-.39.79-.36-.71.1-2.93.92-3.56,1.01-4.14.56-1.69-1.28-3.99-2.82-5.15-3.45l-1.31-.71.25-1.15c.34-1.55,1.72-4.69,2.84-6.44,1-1.54,1.86-2.22,3.93-3.14.89-.38.78-.38-.62.09l-1.71.55,2.25-2.92c2.39-3.12,5.21-7.39,5.95-8.8.24-.48-1,1.41-1.77,2.51-.77,1.1-2.03,2.84-2.85,3.87-.8,1.02-2.1,2.73-2.89,3.75-2.8,3.6-5.35,8.42-5.7,10.79l-.09.67-2.46-.97c-2.4-.93-6.7-2.01-8.16-2.02-.41,0-.77-.06-.8-.13-.1-.26,2.22-3.44,3.75-5.14,3.53-3.91,8.11-7.33,15.18-11.32,1.6-.89,3.13-2.13,3.65-2.25,3.14-.75,3.38-1.58.29-.35-.62.25-2.52,1.49-5.67,3.18-6.84,3.73-12.64,8.39-15.82,12.74l-.41.56c-.2.51-.5.98-.89,1.39l-.25.42c-.09.16-.17.27-.24.37-.55.65.15.49.2.75,5.45.62,11.58,2.85,15.74,5.72,3.68,2.54,6.87,5.67,9.75,9.58.17-.05.33-.1.5-.15-1.68-2.29-3.41-4.3-5.12-5.92-.81-.77-1.47-1.41-1.48-1.43,0-.02.51-.14,1.19-.27l1.18-.22,1.29,1.3c1.88,1.88,3.56,3.83,5.1,5.9.44-.13.89-.26,1.34-.38l.14-.45c2.57-7.99,1.7-19.43-2.95-29.99Z"/><path class="bs" d="M136.27,25.58c-.1.61-.37,1.58-.63,2.19-.48,1.13-.47,1.17.63.95.4-.09,1.8-.06,3.07.05,1.28.13,2.19.13,2,.04-.53-.31-3.64-.5-4.82-.33l-1.09.16.49-.99c.47-.98.92-3.05.65-3.15-.06-.04-.21.45-.3,1.07Z"/><path class="bs" d="M141.99,29.07c.49.55-1.48,3.53-3.19,4.82-.53.39-1.06.81-1.17.9-.13.12.32.51,1.22,1.06.78.48,1.58,1.01,1.81,1.17.31.22.3.18-.07-.29-.25-.29-1.03-.82-1.71-1.16l-1.22-.6.99-.65c1.33-.87,2.67-2.5,3.29-4,.41-.96.44-1.22.15-1.33-.28-.14-.29-.11-.1.09Z"/></g><g id="ae"><path class="bs" d="M98.73,33.36h.03c-.27-.19-.51-.4-.72-.64l-.72-.59c-4.15-3.43-10.92-6.52-18.46-8.46-3.47-.86-8.43-1.31-8.85-1.5-.28-.12,1.52-.23,2,0,.48.23,3.27.9,5.04,1.36,7.84,2.13,13.11,4.32,17.5,7.25,1.9,1.27,4.93,3.79,4.9,4.06-.01.08-.35.23-.73.33-1.43.36-5.34,2.47-7.43,3.96l-2.15,1.55-.26-.63c-.92-2.21-4.58-6.26-8.16-9.05-1.04-.8-2.72-2.13-3.75-2.93-1.04-.8-2.7-2.17-3.71-3.05-1.01-.88-1.54-1.27-1.19-.86,1.06,1.18,3.69,3.5,6.78,5.93l2.89,2.28-1.8-.11c-1.48-.11-1.59-.08-.63.07,2.23.38,3.24.83,4.58,2.08,1.52,1.42,3.63,4.13,4.34,5.54l.52,1.05-1.09,1.01c-.97.89-2.82,2.95-4.15,4.61-.46.58-1.09.64-4.15.47-1.57-.08-1.69-.08-.69.08.65.11,1.18.24,1.18.28,0,.04-.39.67-.85,1.42-.48.75-1.32,2.28-1.9,3.41l-1.06,2.03-.77-1.42c-1.73-3.19-2.84-6.39-3.67-10.55-.92-4.49-1.2-8.43-1.08-14.66l.48-5.51-.61,4.42c-.85,9.59.97,20.16,4.59,26.46.79,1.41.9,1.72.72,2.27-.13.34-.3.66-.39.69-.21.1-1.62-2.41-2.48-4.42-1.71-3.98-3.07-10.08-3.4-15.37-.25-3.72-.24-5.74,0-10.63l.57-3.42-.83,3.84c-1.23,11.22.74,22.52,5.19,29.63l.36.59c.43-.04.85-.08,1.28-.12,1.01-2.43,2.19-4.83,3.48-7l.93-1.58,1.2-.07c.69-.04,1.22-.05,1.22-.03,0,.02-.49.81-1.09,1.75-1.21,1.91-2.35,4.19-3.38,6.7.18-.02.37-.04.55-.05,1.8-4.34,4.08-8.03,6.95-11.31,3.32-3.8,8.71-7.46,13.84-9.4.03-.09.08-.17.12-.26-.01-.15-1.09-1.51-1.09-1.51Z"/><path class="bs" d="M77.94,32.95c-.05.4.9,2.23,1.54,2.98l.65.73-1.08.11c-1.21.12-4.17,1.07-4.61,1.5-.17.13.72-.1,1.93-.53,1.21-.42,2.58-.79,3.03-.79,1.01-.04,1.16-.23.61-.71-.25-.2-.74-.97-1.1-1.7-.82-1.67-.93-1.85-.96-1.58Z"/><path class="bs" d="M73.65,38.67c-.26.33,1.25,2.17,2.51,3.08.62.45,1.62.96,2.25,1.19l1.12.38-1.03.89c-.58.5-1.2,1.2-1.38,1.54-.24.54-.25.59,0,.3.18-.21.82-.91,1.47-1.57.74-.75,1.08-1.24.92-1.33-.12-.06-.74-.33-1.35-.58-1.9-.81-4.62-3.23-4.31-3.83.17-.32.05-.36-.2-.07Z"/></g><g id="af"><path class="bs" d="M50.42,27.89c-2.87-.42-5.16.03-6.35,1.25-.62.63-1.04,1.79-1.01,2.75.02.43.12,1.01.23,1.29.15.43.15.56-.01.68-.68.51-.74.66-2.24,5.45s-1.45,4.65-1.33,5.25c.08.42.25.75.55,1.05l.43.43,6.4,2q6.41,2,7.03,1.89c.41-.06.77-.23,1.03-.49.41-.4.44-.45,1.91-5.15,1.3-4.17,1.47-4.81,1.41-5.2-.04-.25-.13-.5-.18-.57-.07-.07.07-.25.37-.49,1.6-1.26,2.12-3.14,1.34-4.89-.51-1.15-2.14-2.54-4.17-3.55-1.25-.62-3.98-1.48-5.4-1.69ZM54.55,29.77c2.33.95,3.93,2.14,4.66,3.48.53.98.6,1.47.3,2.4-.28.88-.61,1.32-1.48,1.94-.69.49-.79.7-.51.98.48.49.44.7-1.07,5.53-1.31,4.2-1.43,4.54-1.75,4.82-.71.63-.64.64-7.44-1.48-5.71-1.78-6.16-1.93-6.47-2.25-.69-.71-.69-.78.84-5.69.75-2.41,1.45-4.49,1.56-4.63s.38-.34.6-.44c.22-.12.43-.27.45-.35.03-.08-.06-.47-.2-.84-.37-1.01-.4-1.57-.12-2.46.19-.65.32-.86.72-1.23,1.76-1.6,5.63-1.51,9.92.22Z"/><path class="bs" d="M51.73,34.11c-.09,0-.2.09-.23.19-.07.24,1.96,5.89,2.14,5.95.25.08.48-.15.45-.45-.04-.39-1.96-5.57-2.09-5.65-.06-.03-.19-.06-.27-.05Z"/><path class="bs" d="M48.08,33.37c-.25.12-.17.45.56,2.47.42,1.17,1.23,3.41,1.8,4.99.79,2.18,1.09,2.9,1.29,2.96.41.13.47-.22.19-1-.14-.39-.95-2.6-1.77-4.92s-1.55-4.27-1.61-4.34c-.13-.17-.33-.23-.46-.16Z"/><path class="bs" d="M46.01,37.21c-.07.22,1.66,5.26,1.96,5.74.15.23.51.22.59-.03.03-.11-.23-1-.59-1.99s-.81-2.24-.99-2.8c-.26-.71-.43-1.01-.62-1.07s-.3-.01-.35.15Z"/></g><g id="ag"><path id="ah" class="bs" d="M159.28,38.67c-.2.09-.33.17-.45.19-.33.07-.42-.13-.57-.39-1.4-2.3-2.98-5.21-3.03-5.44-.06-.26,0-.44.25-.57l3.64-1.71c.14-.05.25-.1.37-.13.23-.05.46-.03.73.19,1.31,1.17,3.45,3.63,3.71,4.83.08.35-.09.61-.4.77l-4.23,2.25ZM163.24,45.93c-.18-.04-.31-.2-.35-.39-.02-.09-.01-.17.02-.25,2.71-5.02,4.89-12.41,5.69-16.68.06-.18.2-.31.37-.35.09-.02.17-.01.27.02l4.81,1.26c.2.03.29.21.33.4.19.89-1.57,10.59-6.48,16.65-.06.18-.2.31-.39.35-.07.01-.17.01-.25-.02l-4.01-.98Z"/><path id="ai" class="bs" d="M178.58,36.15c-.36-.22-.44-.39-.39-.57.04-.14.15-.28.3-.47,1.36-1.58,3.45-4.53,4.59-6.24.25-.38.52-.46.8-.39.07.02.16.04.23.08l3.65,2.08c.32.18.52.46.41.88-.35,1.32-5.03,6.94-6.12,6.66-.12-.03-.23-.08-.38-.17l-3.09-1.85ZM191.09,26.34c.08-.3.27-.57.58-.49l4.51.96h.05c.3.09.56.33.49.61l-2.13,8.08c-.1.39-.06.53.17.59.21.05.48.05,3.38.09.12,0,.25,0,.34.02.19.05.3.18.37.47.96,3.51.96,3.6.9,3.86-.05.21-.22.36-.5.47-3.57,1.42-9.77,1.28-11.14.92-.58-.15-.67-.57-.53-1.11l3.51-14.46Z"/><path id="aj" class="bs" d="M203.28,45.9c-.24-.11-.36-.37-.26-.61l8.12-18.53c.11-.24.39-.35.63-.25l4.33,1.9c.24.11.33.38.23.62l-3.3,7.54,1.84-1.08c.25-.15.48-.13.7-.04.66.29,3.77,2.7,5.23,4.57.18.24.23.44.15.62-.09.2-.23.29-4.34,3.15-.19.13-.37.13-.52.06s-.28-.2-.36-.31c-.8-1.16-2.54-3.36-3.68-4.7l-3.82,8.73c-.11.24-.36.34-.6.23l-4.33-1.9Z"/></g><g id="ak"><path id="al" class="bs" d="M162.29,112.32c-.25-.08-.39-.34-.31-.59l6.48-19.17c.08-.25.36-.39.61-.3l4.48,1.52c.25.08.36.35.28.6l-2.64,7.8,1.74-1.24c.24-.17.46-.17.69-.1.68.23,3.99,2.36,5.61,4.1.2.22.26.42.2.6-.07.2-.21.31-4.05,3.52-.18.14-.36.16-.52.1s-.3-.18-.39-.28c-.9-1.09-2.82-3.13-4.07-4.37l-3.05,9.03c-.08.25-.33.37-.58.29l-4.48-1.52Z"/><path id="am" class="bs" d="M145.74,109.29c-.25.07-.64-.07-.73-.37l-1.16-4.21c-.08-.28.16-.59.42-.66l15.72-4.31c.25-.07.62.08.7.38l1.15,4.19c.08.28-.17.57-.42.64l-15.68,4.35Z"/><path id="an" class="bs" d="M128.38,114.45c-.28-.07-.44-.32-.38-.58l.45-3c.05-.21.18-.47.49-.43l5.34.97c.55-1.2,1.75-3.83,1.81-4.09.05-.21-.03-.28-.08-.29l-4.37-1.36c-.23-.08-.37-.33-.31-.57v-.05s.93-2.69.93-2.69c.08-.23.31-.37.54-.32h.05s7.47,2.34,7.47,2.34c.73.24,1.58,1.16,1.32,2.25-.17.75-1.78,3.92-2.69,5.63l2.37.43h.05c.26.07.49.32.45.61l-.48,2.99v.05c-.07.26-.35.39-.58.34l-12.39-2.24Z"/><path id="ao" class="bs" d="M116.85,118.13h-.05c-.3.08-.62-.09-.72-.33l-2.18-5.43-5.94,1.79c-.28.07-.56-.09-.66-.39l-.95-3.25-.02-.07c-.06-.26-.01-.47.24-.55l5.64-1.69-.92-2.3-4.44.94c-.29.04-.55-.12-.61-.37v-.05s-.75-3.3-.75-3.3c-.07-.3.11-.57.41-.64l3.69-.78c-.27-.72-.83-2.15-.87-2.29-.06-.26.05-.6.41-.76,1.18-.43,3.24-1.12,3.98-1.42l.16-.04c.49-.12.81.08.92.32.35.73.78,1.74,1.29,2.95l4.46-.94c.26-.06.54.09.61.37v.05s.75,3.3.75,3.3c.07.28-.14.55-.42.62l-3.76.8.69,1.86,4.86-1.45h.05c.26-.07.66.08.75.35l.94,3.23c.07.3-.08.59-.36.65l-4.72,1.42c1.38,4.04,1.74,5.56,1.75,5.58.07.28-.06.56-.36.65l-3.89,1.17Z"/></g><g id="ap"><path class="bs" d="M37.38,108.84c-.92-2.3-1.46-4.89-.83-7.92,1.52-7.31,6.56-8.54,10.2-7.78,3.45.72,6.55,3.4,7,7.22.19,1.58.13,3.16-.19,4.67-.82,3.92-4.34,9.76-10.49,8.48-2.49-.52-4.71-2.21-5.7-4.67ZM47.66,103.77c.87-4.16-1.01-5.06-1.85-5.24-1.03-.22-2.72.22-3.4,3.49,0,.02-1.05,5.52,1.6,6.07,1.74.36,3.12-1.8,3.64-4.32Z"/><g class="bz"><path class="bs" d="M35.99,99.54c.65-.32,1.37-.5,2.09-.63,3.55-.68,7.23-.57,10.79.05s7.02,1.74,10.39,3.06"/><path class="bs" d="M36.75,100.84c1.56-.71,3.52-.8,5.2-.87,1.96-.08,3.94.03,5.88.33,3.8.59,7.46,1.77,11.04,3.16,1.8.7,2.58-2.2.8-2.89-3.98-1.55-8.05-2.8-12.29-3.34-3.89-.5-8.49-.63-12.13,1.02-1.76.79-.23,3.38,1.51,2.59h0Z"/><path class="bs" d="M37.13,96.8c1.59-.39,3.26-.27,4.9-.12,6.28.57,12.51,1.66,18.61,3.24"/><path class="bs" d="M37.53,98.25c1.92-.41,3.91-.14,5.84.06s3.76.44,5.63.73c3.78.59,7.53,1.38,11.24,2.33,1.87.48,2.67-2.41.8-2.89-4-1.03-8.04-1.86-12.13-2.47s-8.26-1.49-12.18-.65c-1.89.4-1.09,3.3.8,2.89h0Z"/><path class="bs" d="M39.27,94.75c7.54-.34,14.89,2.09,22.32,3.46"/><path class="bs" d="M39.27,96.25c7.48-.29,14.65,2.05,21.92,3.41,1.89.35,2.7-2.54.8-2.89-7.53-1.41-14.97-3.82-22.71-3.52-1.92.07-1.93,3.07,0,3h0Z"/><path class="bs" d="M40.25,93.17c7.55.6,15.04,1.88,22.36,3.82"/><path class="bs" d="M40.25,94.67c7.42.6,14.76,1.87,21.97,3.76,1.87.49,2.67-2.4.8-2.89-7.46-1.96-15.08-3.25-22.76-3.87-1.92-.16-1.91,2.85,0,3h0Z"/><path class="bs" d="M74.87,107.68c1.93,0,1.93-3,0-3s-1.93,3,0,3h0Z"/><path class="bs" d="M80.41,108.04c1.93,0,1.93-3,0-3s-1.93,3,0,3h0Z"/></g><path class="bs" d="M65.29,117.51l-.16-.03c-.38-.08-.59-.22-.72-.57-.08-.31-.53-3.13-.69-4.24-.03-.2-.07-.26-.09-.26-.05,0-.1.13-.14.22-.46,1.01-1.45,3.2-1.77,3.78-.13.27-.56.47-.97.41l-2.35-.37-.12-.02c-.42-.09-.82-.32-.93-.83l-2.6-11.53c-.04-.16-.1-.36-.06-.55.04-.21.23-.39.73-.46l3.67-.41c.17-.01.32,0,.44.02.33.07.51.28.56.51l1.35,5.55c.03.1.07.14.12.15s.13-.05.19-.18c.26-.78.75-2.44.82-2.65.15-.51.44-.59,1.02-.52l2.73.44.12.02c.33.07.52.23.58.61l.02,2.95c0,.08.04.18.08.19.07.01.15-.14,2.27-5.02.18-.4.44-.47.75-.41.21.04.44.14.64.23l2.73,1.16c.66.26.74.57.67.9-.02.12-.08.25-.13.37-3.61,8.88-5.49,11.07-6.94,10.84l-1.81-.28Z"/><path class="bs" d="M75.57,116.78c-.92-2.3-1.46-4.89-.83-7.92,1.52-7.31,6.56-8.54,10.2-7.78,3.45.72,6.55,3.4,7,7.22.19,1.58.13,3.16-.19,4.67-.82,3.92-4.34,9.76-10.49,8.48-2.49-.52-4.71-2.21-5.7-4.67ZM85.84,111.71c.87-4.16-1.01-5.06-1.85-5.24-1.03-.22-2.72.22-3.4,3.49,0,.02-1.05,5.52,1.6,6.07,1.74.36,3.12-1.8,3.64-4.32Z"/><g class="ca"><path class="bs" d="M76.26,104.93c7.05,1.19,13.92,3.44,20.31,6.66"/><path class="bs" d="M75.87,106.37c6.93,1.19,13.66,3.36,19.95,6.51,1.72.86,3.24-1.73,1.51-2.59-6.52-3.27-13.48-5.58-20.67-6.81-1.89-.32-2.7,2.57-.8,2.89h0Z"/><path class="bs" d="M77.53,103.18c4.17.74,8.23,2.01,12.28,3.27,2.76.86,5.53,1.72,8.29,2.59"/><path class="bs" d="M77.13,104.62c7,1.27,13.79,3.74,20.57,5.86,1.85.58,2.64-2.32.8-2.89-6.78-2.12-13.57-4.58-20.57-5.86-1.89-.34-2.7,2.55-.8,2.89h0Z"/><path class="bs" d="M77.47,101.86c6.77,1.68,13.49,3.58,20.14,5.71"/><path class="bs" d="M77.08,103.31c6.77,1.68,13.49,3.59,20.14,5.71,1.84.59,2.63-2.31.8-2.89-6.65-2.12-13.37-4.03-20.14-5.71-1.87-.47-2.67,2.43-.8,2.89h0Z"/><path class="bs" d="M82.26,101.78c6,1.09,11.94,2.58,17.75,4.45"/><path class="bs" d="M81.86,103.22c6.01,1.1,11.93,2.58,17.75,4.45,1.84.59,2.63-2.3.8-2.89-5.81-1.86-11.74-3.35-17.75-4.45-.8-.15-1.62.22-1.85,1.05-.2.73.25,1.7,1.05,1.85h0Z"/><path class="bs" d="M91.45,109.53c1.72,1.58,3.62,2.98,5.63,4.17"/><path class="bs" d="M90.39,110.59c1.82,1.66,3.81,3.15,5.94,4.4.68.4,1.68.18,2.05-.54s.18-1.63-.54-2.05c-.99-.59-1.96-1.22-2.88-1.91-.11-.08-.22-.16-.33-.24-.05-.04-.11-.09-.16-.12.07.05.21.17.06.05-.23-.18-.45-.36-.67-.54-.46-.38-.91-.77-1.34-1.17-.58-.53-1.56-.62-2.12,0-.53.58-.62,1.56,0,2.12h0Z"/></g></g><g id="as"><g id="at"><path class="by" d="M182.73,108.17c-.82-.28-1.31-1.06-1.03-1.88l4.92-17.27c-2.8-.05-5.73-.59-8.59-1.57-12.87-4.41-18.98-15.25-14.73-27.65,4.25-12.4,18-17.43,29.99-13.32,2.86.98,5.67,2.55,8.23,4.64l11.59,3.28.14.05c.68.23,1.08,1.06.83,1.81l-15.64,54.77-.05.14c-.26.75-1.08,1.15-1.83.9l-13.81-3.89ZM194.26,62.27c-1.04-.74-2.13-1.34-3.22-1.71-4.77-1.63-9.43.42-11.04,5.12-1,2.93-1.14,7.98,4.52,9.92,1.91.65,4.07.79,5.76.53l3.99-13.86Z"/></g><g id="au"><path class="by" d="M156.68,92.11c-.41,1.43-.97,2.22-2.05,2.34-.21.02-.43.05-.65,0-11.78-.95-16.52-6.77-18.99-24.83l-5.4.34c-.79.02-1.52-.62-1.61-1.41l-.52-11.97c-.02-.79.55-1.51,1.41-1.61l4.61-.25c-.17-2.73-.37-5.68-.52-8.78-.03-.87-.04-2.24,1.82-2.46l.29-.03,13.59-.93c1.22-.07,1.88.58,2.02,1.79.21,3.02.36,6.19.49,9.22l4.97-.29c.79-.09,1.51.55,1.61,1.41l.52,11.97c.01.72-.49,1.43-1.27,1.53l-.14.02-4.75.34c.76,6.51,2.19,11.34,5.5,12.34.83.27,1.72.45,1.81,1.24.02.14-.03.37-.08.59l-2.67,9.44Z"/></g><g id="av"><path class="by" d="M112.16,94.49c-.78.15-1.54-.36-1.69-1.13l-11.38-57.72c-.17-.85.34-1.61,1.12-1.76l14.2-2.8c.78-.15,1.54.36,1.71,1.2l11.38,57.72c.15.78-.36,1.54-1.13,1.69l-14.2,2.8Z"/></g><g id="aw"><path class="by" d="M89.08,95.59c-.9,1.05-1.74,1.53-2.66,1.33-.7-.16-5.37-2.38-8.15-6.47-4.08,1.08-8.06,1.08-11.64.28-11.74-2.62-19.85-13.87-17.32-25.19,1.88-8.43,10.57-19.26,24.48-16.15,3.51.78,6.78,2.33,9.26,4.13.53-.4,1.21-.47,2.05-.28l.35.08,11.92,3.77c1.8.55,2.08,1.57,1.9,2.41l-.08.35c-2.41,6.18-4.76,12.07-5.79,16.71-.94,4.22-.84,7.41,1.14,9.11.62.51,1.3,1.1,1.15,1.81-.03.14-.15.34-.35.59l-6.26,7.53ZM76.87,72.28c.41-1.83.9-3.71,1.51-5.79-.53-1.59-2.21-3-4.25-3.46-4.43-.99-7.84,2.75-8.64,6.33-.88,3.94,1.11,7.92,5.68,8.94,1.34.3,2.94.36,4.72.02.2-1.87.5-3.87.98-6.05Z"/></g><g id="ax"><path class="by" d="M24.38,94.66c-1.54.36-2.31.24-3.01-.86l-4.97-7.42c-.12-.19-.24-.39-.27-.53-.24-1.05,1.13-1.52,1.97-1.71,4.12-1.03,5.63-3.45,5.24-5.13-.21-.91-1.38-1.82-2.66-2.86l-2.38-1.67c-3.9-2.79-5.86-5.52-6.48-8.18-1.84-7.93,8.62-14.79,17.81-16.92,2.74-.63,3.5-.52,4.29.63l5.04,7.41c.21.25.25.46.3.67.18.77-.53,1.23-1.44,1.44l-.28.07c-4.21.98-5.5,2.75-5.17,4.16.28,1.19,1.64,2.28,4.99,4.61,4.04,2.76,6.17,5.59,6.79,8.26,1.92,8.28-9.6,15.68-19,17.86l-.77.18Z"/></g></g><g id="ay"><path class="bu" d="M142.74,15.65l-1.41-3.76,1.75,3.42c1.44,4.68,1.95,6.64,2.62,10.31.99,5.2,1.16,11.46.48,15.73-.34,2.16-1.1,4.94-1.32,4.9-.09,0-.34-.27-.55-.58-.31-.49-.28-.82.14-2.38,1.96-6.99,1.12-17.69-2.05-26.78l-.82-2.4.96,3.48c2.91,10.58,3.39,18.39,1.58,25.6l-.4,1.57-1.53-1.71c-.84-.96-2.03-2.24-2.68-2.84-.63-.61-1.16-1.13-1.17-1.17-.02-.04.47-.3,1.09-.57.91-.39.79-.36-.71.1-2.93.92-3.56,1.01-4.14.56-1.69-1.28-3.99-2.82-5.15-3.45l-1.31-.71.25-1.15c.34-1.55,1.72-4.69,2.84-6.44,1-1.54,1.86-2.22,3.93-3.14.89-.38.78-.38-.62.09l-1.71.55,2.25-2.92c2.39-3.12,5.21-7.39,5.95-8.8.24-.48-1,1.41-1.77,2.51-.77,1.1-2.03,2.84-2.85,3.87-.8,1.02-2.1,2.73-2.89,3.75-2.8,3.6-5.35,8.42-5.7,10.79l-.09.67-2.46-.97c-2.4-.93-6.7-2.01-8.16-2.02-.41,0-.77-.06-.8-.13-.1-.26,2.22-3.44,3.75-5.14,3.53-3.91,8.11-7.33,15.18-11.32,1.6-.89,3.13-2.13,3.65-2.25,3.14-.75,3.38-1.58.29-.35-.62.25-2.52,1.49-5.67,3.18-6.84,3.73-12.64,8.39-15.82,12.74l-.41.56c-.2.51-.5.98-.89,1.39l-.25.42c-.09.16-.17.27-.24.37-.55.65.15.49.2.75,5.45.62,11.58,2.85,15.74,5.72,3.68,2.54,6.87,5.67,9.75,9.58.17-.05.33-.1.5-.15-1.68-2.29-3.41-4.3-5.12-5.92-.81-.77-1.47-1.41-1.48-1.43,0-.02.51-.14,1.19-.27l1.18-.22,1.29,1.3c1.88,1.88,3.56,3.83,5.1,5.9.44-.13.89-.26,1.34-.38l.14-.45c2.57-7.99,1.7-19.43-2.95-29.99Z"/><path class="bq" d="M136.27,25.58c-.1.61-.37,1.58-.63,2.19-.48,1.13-.47,1.17.63.95.4-.09,1.8-.06,3.07.05,1.28.13,2.19.13,2,.04-.53-.31-3.64-.5-4.82-.33l-1.09.16.49-.99c.47-.98.92-3.05.65-3.15-.06-.04-.21.45-.3,1.07Z"/><path class="bq" d="M141.99,29.07c.49.55-1.48,3.53-3.19,4.82-.53.39-1.06.81-1.17.9-.13.12.32.51,1.22,1.06.78.48,1.58,1.01,1.81,1.17.31.22.3.18-.07-.29-.25-.29-1.03-.82-1.71-1.16l-1.22-.6.99-.65c1.33-.87,2.67-2.5,3.29-4,.41-.96.44-1.22.15-1.33-.28-.14-.29-.11-.1.09Z"/></g><g id="az"><path class="bu" d="M98.73,33.36h.03c-.27-.19-.51-.4-.72-.64l-.72-.59c-4.15-3.43-10.92-6.52-18.46-8.46-3.47-.86-8.43-1.31-8.85-1.5-.28-.12,1.52-.23,2,0,.48.23,3.27.9,5.04,1.36,7.84,2.13,13.11,4.32,17.5,7.25,1.9,1.27,4.93,3.79,4.9,4.06-.01.08-.35.23-.73.33-1.43.36-5.34,2.47-7.43,3.96l-2.15,1.55-.26-.63c-.92-2.21-4.58-6.26-8.16-9.05-1.04-.8-2.72-2.13-3.75-2.93-1.04-.8-2.7-2.17-3.71-3.05-1.01-.88-1.54-1.27-1.19-.86,1.06,1.18,3.69,3.5,6.78,5.93l2.89,2.28-1.8-.11c-1.48-.11-1.59-.08-.63.07,2.23.38,3.24.83,4.58,2.08,1.52,1.42,3.63,4.13,4.34,5.54l.52,1.05-1.09,1.01c-.97.89-2.82,2.95-4.15,4.61-.46.58-1.09.64-4.15.47-1.57-.08-1.69-.08-.69.08.65.11,1.18.24,1.18.28,0,.04-.39.67-.85,1.42-.48.75-1.32,2.28-1.9,3.41l-1.06,2.03-.77-1.42c-1.73-3.19-2.84-6.39-3.67-10.55-.92-4.49-1.2-8.43-1.08-14.66l.48-5.51-.61,4.42c-.85,9.59.97,20.16,4.59,26.46.79,1.41.9,1.72.72,2.27-.13.34-.3.66-.39.69-.21.1-1.62-2.41-2.48-4.42-1.71-3.98-3.07-10.08-3.4-15.37-.25-3.72-.24-5.74,0-10.63l.57-3.42-.83,3.84c-1.23,11.22.74,22.52,5.19,29.63l.36.59c.43-.04.85-.08,1.28-.12,1.01-2.43,2.19-4.83,3.48-7l.93-1.58,1.2-.07c.69-.04,1.22-.05,1.22-.03,0,.02-.49.81-1.09,1.75-1.21,1.91-2.35,4.19-3.38,6.7.18-.02.37-.04.55-.05,1.8-4.34,4.08-8.03,6.95-11.31,3.32-3.8,8.71-7.46,13.84-9.4.03-.09.08-.17.12-.26-.01-.15-1.09-1.51-1.09-1.51Z"/><path class="bq" d="M77.94,32.95c-.05.4.9,2.23,1.54,2.98l.65.73-1.08.11c-1.21.12-4.17,1.07-4.61,1.5-.17.13.72-.1,1.93-.53,1.21-.42,2.58-.79,3.03-.79,1.01-.04,1.16-.23.61-.71-.25-.2-.74-.97-1.1-1.7-.82-1.67-.93-1.85-.96-1.58Z"/><path class="bq" d="M73.65,38.67c-.26.33,1.25,2.17,2.51,3.08.62.45,1.62.96,2.25,1.19l1.12.38-1.03.89c-.58.5-1.2,1.2-1.38,1.54-.24.54-.25.59,0,.3.18-.21.82-.91,1.47-1.57.74-.75,1.08-1.24.92-1.33-.12-.06-.74-.33-1.35-.58-1.9-.81-4.62-3.23-4.31-3.83.17-.32.05-.36-.2-.07Z"/></g><g id="ba"><path class="bv" d="M50.42,27.89c-2.87-.42-5.16.03-6.35,1.25-.62.63-1.04,1.79-1.01,2.75.02.43.12,1.01.23,1.29.15.43.15.56-.01.68-.68.51-.74.66-2.24,5.45s-1.45,4.65-1.33,5.25c.08.42.25.75.55,1.05l.43.43,6.4,2q6.41,2,7.03,1.89c.41-.06.77-.23,1.03-.49.41-.4.44-.45,1.91-5.15,1.3-4.17,1.47-4.81,1.41-5.2-.04-.25-.13-.5-.18-.57-.07-.07.07-.25.37-.49,1.6-1.26,2.12-3.14,1.34-4.89-.51-1.15-2.14-2.54-4.17-3.55-1.25-.62-3.98-1.48-5.4-1.69ZM54.55,29.77c2.33.95,3.93,2.14,4.66,3.48.53.98.6,1.47.3,2.4-.28.88-.61,1.32-1.48,1.94-.69.49-.79.7-.51.98.48.49.44.7-1.07,5.53-1.31,4.2-1.43,4.54-1.75,4.82-.71.63-.64.64-7.44-1.48-5.71-1.78-6.16-1.93-6.47-2.25-.69-.71-.69-.78.84-5.69.75-2.41,1.45-4.49,1.56-4.63s.38-.34.6-.44c.22-.12.43-.27.45-.35.03-.08-.06-.47-.2-.84-.37-1.01-.4-1.57-.12-2.46.19-.65.32-.86.72-1.23,1.76-1.6,5.63-1.51,9.92.22Z"/><path class="bv" d="M51.73,34.11c-.09,0-.2.09-.23.19-.07.24,1.96,5.89,2.14,5.95.25.08.48-.15.45-.45-.04-.39-1.96-5.57-2.09-5.65-.06-.03-.19-.06-.27-.05Z"/><path class="bv" d="M48.08,33.37c-.25.12-.17.45.56,2.47.42,1.17,1.23,3.41,1.8,4.99.79,2.18,1.09,2.9,1.29,2.96.41.13.47-.22.19-1-.14-.39-.95-2.6-1.77-4.92s-1.55-4.27-1.61-4.34c-.13-.17-.33-.23-.46-.16Z"/><path class="bv" d="M46.01,37.21c-.07.22,1.66,5.26,1.96,5.74.15.23.51.22.59-.03.03-.11-.23-1-.59-1.99s-.81-2.24-.99-2.8c-.26-.71-.43-1.01-.62-1.07s-.3-.01-.35.15Z"/></g><g id="bb"><path id="bc" class="by" d="M159.28,38.67c-.2.09-.33.17-.45.19-.33.07-.42-.13-.57-.39-1.4-2.3-2.98-5.21-3.03-5.44-.06-.26,0-.44.25-.57l3.64-1.71c.14-.05.25-.1.37-.13.23-.05.46-.03.73.19,1.31,1.17,3.45,3.63,3.71,4.83.08.35-.09.61-.4.77l-4.23,2.25ZM163.24,45.93c-.18-.04-.31-.2-.35-.39-.02-.09-.01-.17.02-.25,2.71-5.02,4.89-12.41,5.69-16.68.06-.18.2-.31.37-.35.09-.02.17-.01.27.02l4.81,1.26c.2.03.29.21.33.4.19.89-1.57,10.59-6.48,16.65-.06.18-.2.31-.39.35-.07.01-.17.01-.25-.02l-4.01-.98Z"/><path id="bd" class="by" d="M178.58,36.15c-.36-.22-.44-.39-.39-.57.04-.14.15-.28.3-.47,1.36-1.58,3.45-4.53,4.59-6.24.25-.38.52-.46.8-.39.07.02.16.04.23.08l3.65,2.08c.32.18.52.46.41.88-.35,1.32-5.03,6.94-6.12,6.66-.12-.03-.23-.08-.38-.17l-3.09-1.85ZM191.09,26.34c.08-.3.27-.57.58-.49l4.51.96h.05c.3.09.56.33.49.61l-2.13,8.08c-.1.39-.06.53.17.59.21.05.48.05,3.38.09.12,0,.25,0,.34.02.19.05.3.18.37.47.96,3.51.96,3.6.9,3.86-.05.21-.22.36-.5.47-3.57,1.42-9.77,1.28-11.14.92-.58-.15-.67-.57-.53-1.11l3.51-14.46Z"/><path id="be" class="by" d="M203.28,45.9c-.24-.11-.36-.37-.26-.61l8.12-18.53c.11-.24.39-.35.63-.25l4.33,1.9c.24.11.33.38.23.62l-3.3,7.54,1.84-1.08c.25-.15.48-.13.7-.04.66.29,3.77,2.7,5.23,4.57.18.24.23.44.15.62-.09.2-.23.29-4.34,3.15-.19.13-.37.13-.52.06s-.28-.2-.36-.31c-.8-1.16-2.54-3.36-3.68-4.7l-3.82,8.73c-.11.24-.36.34-.6.23l-4.33-1.9Z"/></g><g id="bf"><path id="bg" class="by" d="M162.29,112.32c-.25-.08-.39-.34-.31-.59l6.48-19.17c.08-.25.36-.39.61-.3l4.48,1.52c.25.08.36.35.28.6l-2.64,7.8,1.74-1.24c.24-.17.46-.17.69-.1.68.23,3.99,2.36,5.61,4.1.2.22.26.42.2.6-.07.2-.21.31-4.05,3.52-.18.14-.36.16-.52.1s-.3-.18-.39-.28c-.9-1.09-2.82-3.13-4.07-4.37l-3.05,9.03c-.08.25-.33.37-.58.29l-4.48-1.52Z"/><path id="bh" class="by" d="M145.74,109.29c-.25.07-.64-.07-.73-.37l-1.16-4.21c-.08-.28.16-.59.42-.66l15.72-4.31c.25-.07.62.08.7.38l1.15,4.19c.08.28-.17.57-.42.64l-15.68,4.35Z"/><path id="bi" class="by" d="M128.38,114.45c-.28-.07-.44-.32-.38-.58l.45-3c.05-.21.18-.47.49-.43l5.34.97c.55-1.2,1.75-3.83,1.81-4.09.05-.21-.03-.28-.08-.29l-4.37-1.36c-.23-.08-.37-.33-.31-.57v-.05s.93-2.69.93-2.69c.08-.23.31-.37.54-.32h.05s7.47,2.34,7.47,2.34c.73.24,1.58,1.16,1.32,2.25-.17.75-1.78,3.92-2.69,5.63l2.37.43h.05c.26.07.49.32.45.61l-.48,2.99v.05c-.07.26-.35.39-.58.34l-12.39-2.24Z"/><path id="bj" class="by" d="M116.85,118.13h-.05c-.3.08-.62-.09-.72-.33l-2.18-5.43-5.94,1.79c-.28.07-.56-.09-.66-.39l-.95-3.25-.02-.07c-.06-.26-.01-.47.24-.55l5.64-1.69-.92-2.3-4.44.94c-.29.04-.55-.12-.61-.37v-.05s-.75-3.3-.75-3.3c-.07-.3.11-.57.41-.64l3.69-.78c-.27-.72-.83-2.15-.87-2.29-.06-.26.05-.6.41-.76,1.18-.43,3.24-1.12,3.98-1.42l.16-.04c.49-.12.81.08.92.32.35.73.78,1.74,1.29,2.95l4.46-.94c.26-.06.54.09.61.37v.05s.75,3.3.75,3.3c.07.28-.14.55-.42.62l-3.76.8.69,1.86,4.86-1.45h.05c.26-.07.66.08.75.35l.94,3.23c.07.3-.08.59-.36.65l-4.72,1.42c1.38,4.04,1.74,5.56,1.75,5.58.07.28-.06.56-.36.65l-3.89,1.17Z"/></g><g id="bk"><path class="bp" d="M37.38,108.84c-.92-2.3-1.46-4.89-.83-7.92,1.52-7.31,6.56-8.54,10.2-7.78,3.45.72,6.55,3.4,7,7.22.19,1.58.13,3.16-.19,4.67-.82,3.92-4.34,9.76-10.49,8.48-2.49-.52-4.71-2.21-5.7-4.67ZM47.66,103.77c.87-4.16-1.01-5.06-1.85-5.24-1.03-.22-2.72.22-3.4,3.49,0,.02-1.05,5.52,1.6,6.07,1.74.36,3.12-1.8,3.64-4.32Z"/><path class="bo" d="M37.33,108.73c-.92-2.3-1.46-4.89-.83-7.92,1.52-7.31,6.56-8.54,10.2-7.78,3.45.72,6.55,3.4,7,7.22.19,1.58.13,3.16-.19,4.67-.82,3.92-4.34,9.76-10.49,8.48-2.49-.52-4.71-2.21-5.7-4.67ZM47.61,103.66c.87-4.16-1.01-5.06-1.85-5.24-1.03-.22-2.72.22-3.4,3.49,0,.02-1.05,5.52,1.6,6.07,1.74.36,3.12-1.8,3.64-4.32Z"/><g class="cb"><path class="bx" d="M36.75,100.84c1.56-.71,3.52-.8,5.2-.87,1.96-.08,3.94.03,5.88.33,3.8.59,7.46,1.77,11.04,3.16,1.8.7,2.58-2.2.8-2.89-3.98-1.55-8.05-2.8-12.29-3.34-3.89-.5-8.49-.63-12.13,1.02-1.76.79-.23,3.38,1.51,2.59h0Z"/><path class="bx" d="M37.53,98.25c1.92-.41,3.91-.14,5.84.06s3.76.44,5.63.73c3.78.59,7.53,1.38,11.24,2.33,1.87.48,2.67-2.41.8-2.89-4-1.03-8.04-1.86-12.13-2.47s-8.26-1.49-12.18-.65c-1.89.4-1.09,3.3.8,2.89h0Z"/><path class="bx" d="M39.27,96.25c7.48-.29,14.65,2.05,21.92,3.41,1.89.35,2.7-2.54.8-2.89-7.53-1.41-14.97-3.82-22.71-3.52-1.92.07-1.93,3.07,0,3h0Z"/><path class="bx" d="M40.25,94.67c7.42.6,14.76,1.87,21.97,3.76,1.87.49,2.67-2.4.8-2.89-7.46-1.96-15.08-3.25-22.76-3.87-1.92-.16-1.91,2.85,0,3h0Z"/><path class="bx" d="M74.87,107.68c1.93,0,1.93-3,0-3s-1.93,3,0,3h0Z"/><path class="bx" d="M80.41,108.04c1.93,0,1.93-3,0-3s-1.93,3,0,3h0Z"/></g><path class="bw" d="M65.29,117.51l-.16-.03c-.38-.08-.59-.22-.72-.57-.08-.31-.53-3.13-.69-4.24-.03-.2-.07-.26-.09-.26-.05,0-.1.13-.14.22-.46,1.01-1.45,3.2-1.77,3.78-.13.27-.56.47-.97.41l-2.35-.37-.12-.02c-.42-.09-.82-.32-.93-.83l-2.6-11.53c-.04-.16-.1-.36-.06-.55.04-.21.23-.39.73-.46l3.67-.41c.17-.01.32,0,.44.02.33.07.51.28.56.51l1.35,5.55c.03.1.07.14.12.15s.13-.05.19-.18c.26-.78.75-2.44.82-2.65.15-.51.44-.59,1.02-.52l2.73.44.12.02c.33.07.52.23.58.61l.02,2.95c0,.08.04.18.08.19.07.01.15-.14,2.27-5.02.18-.4.44-.47.75-.41.21.04.44.14.64.23l2.73,1.16c.66.26.74.57.67.9-.02.12-.08.25-.13.37-3.61,8.88-5.49,11.07-6.94,10.84l-1.81-.28Z"/><path class="bp" d="M75.57,116.78c-.92-2.3-1.46-4.89-.83-7.92,1.52-7.31,6.56-8.54,10.2-7.78,3.45.72,6.55,3.4,7,7.22.19,1.58.13,3.16-.19,4.67-.82,3.92-4.34,9.76-10.49,8.48-2.49-.52-4.71-2.21-5.7-4.67ZM85.84,111.71c.87-4.16-1.01-5.06-1.85-5.24-1.03-.22-2.72.22-3.4,3.49,0,.02-1.05,5.52,1.6,6.07,1.74.36,3.12-1.8,3.64-4.32Z"/><path class="bo" d="M75.63,116.7c-.92-2.3-1.46-4.89-.83-7.92,1.52-7.31,6.56-8.54,10.2-7.78,3.45.72,6.55,3.4,7,7.22.19,1.58.13,3.16-.19,4.67-.82,3.92-4.34,9.76-10.49,8.48-2.49-.52-4.71-2.21-5.7-4.67ZM85.91,111.63c.87-4.16-1.01-5.06-1.85-5.24-1.03-.22-2.72.22-3.4,3.49,0,.02-1.05,5.52,1.6,6.07,1.74.36,3.12-1.8,3.64-4.32Z"/><g class="cc"><path class="bx" d="M75.87,106.37c6.93,1.19,13.66,3.36,19.95,6.51,1.72.86,3.24-1.73,1.51-2.59-6.52-3.27-13.48-5.58-20.67-6.81-1.89-.32-2.7,2.57-.8,2.89h0Z"/><path class="bx" d="M77.13,104.62c7,1.27,13.79,3.74,20.57,5.86,1.85.58,2.64-2.32.8-2.89-6.78-2.12-13.57-4.58-20.57-5.86-1.89-.34-2.7,2.55-.8,2.89h0Z"/><path class="bx" d="M77.08,103.31c6.77,1.68,13.49,3.59,20.14,5.71,1.84.59,2.63-2.31.8-2.89-6.65-2.12-13.37-4.03-20.14-5.71-1.87-.47-2.67,2.43-.8,2.89h0Z"/><path class="bx" d="M81.86,103.22c6.01,1.1,11.93,2.58,17.75,4.45,1.84.59,2.63-2.3.8-2.89-5.81-1.86-11.74-3.35-17.75-4.45-.8-.15-1.62.22-1.85,1.05-.2.73.25,1.7,1.05,1.85h0Z"/><path class="bx" d="M90.39,110.59c1.82,1.66,3.81,3.15,5.94,4.4.68.4,1.68.18,2.05-.54s.18-1.63-.54-2.05c-.99-.59-1.96-1.22-2.88-1.91-.11-.08-.22-.16-.33-.24-.05-.04-.11-.09-.16-.12.07.05.21.17.06.05-.23-.18-.45-.36-.67-.54-.46-.38-.91-.77-1.34-1.17-.58-.53-1.56-.62-2.12,0-.53.58-.62,1.56,0,2.12h0Z"/></g></g></g></svg>